<svg width="22" height="22" viewBox="0 0 22 22" fill="none" xmlns="http://www.w3.org/2000/svg">
<circle cx="11" cy="11" r="11" fill="#0EA102"/>
<path d="M15.5678 7.08437C15.4708 6.99798 15.3445 6.95197 15.2148 6.95579C15.085 6.9596 14.9616 7.01295 14.8699 7.10488C14.7783 7.19682 14.7253 7.32036 14.7218 7.45014C14.7184 7.57993 14.7647 7.70611 14.8514 7.80278C15.6979 8.65149 16.1734 9.80129 16.1734 11C16.1734 12.1988 15.6979 13.3486 14.8514 14.1973C14.7998 14.2433 14.7581 14.2993 14.7289 14.3619C14.6997 14.4246 14.6836 14.4925 14.6816 14.5616C14.6796 14.6307 14.6917 14.6995 14.7171 14.7637C14.7426 14.828 14.7809 14.8863 14.8297 14.9353C14.8785 14.9842 14.9368 15.0227 15.0009 15.0483C15.0651 15.074 15.1339 15.0863 15.2029 15.0844C15.272 15.0826 15.34 15.0667 15.4028 15.0377C15.4655 15.0086 15.5216 14.9671 15.5678 14.9157C16.6048 13.8764 17.1872 12.4682 17.1872 11C17.1872 9.53185 16.6048 8.12364 15.5678 7.08437Z" fill="#F6F6F6"/>
<path d="M14.1924 8.60854C14.1456 8.56001 14.0895 8.52131 14.0275 8.49468C13.9655 8.46805 13.8988 8.45404 13.8314 8.45345C13.7639 8.45286 13.697 8.46572 13.6346 8.49126C13.5721 8.51681 13.5154 8.55454 13.4677 8.60224C13.42 8.64994 13.3823 8.70667 13.3567 8.76911C13.3312 8.83155 13.3183 8.89845 13.3189 8.96591C13.3195 9.03337 13.3335 9.10004 13.3602 9.16202C13.3868 9.22401 13.4255 9.28007 13.474 9.32694C13.9169 9.77112 14.1656 10.3728 14.1656 11C14.1656 11.6272 13.9169 12.2289 13.474 12.6731C13.4255 12.7199 13.3868 12.776 13.3602 12.838C13.3335 12.9 13.3195 12.9666 13.3189 13.0341C13.3183 13.1015 13.3312 13.1684 13.3567 13.2309C13.3823 13.2933 13.42 13.3501 13.4677 13.3978C13.5154 13.4455 13.5721 13.4832 13.6346 13.5087C13.697 13.5343 13.7639 13.5471 13.8314 13.5465C13.8988 13.546 13.9655 13.5319 14.0275 13.5053C14.0895 13.4787 14.1456 13.44 14.1924 13.3915C14.8256 12.7567 15.1813 11.8966 15.1813 11C15.1813 10.1034 14.8256 9.24334 14.1924 8.60854Z" fill="#F6F6F6"/>
<path d="M12.0209 5.00839C10.4772 5.29815 9.10379 6.16993 8.18455 7.44355H7.54032C6.86684 7.44435 6.22116 7.71225 5.74493 8.18848C5.26871 8.66471 5.00081 9.31038 5 9.98387L5 12.0161C5.00081 12.6896 5.26871 13.3353 5.74493 13.8115C6.22116 14.2877 6.86684 14.5556 7.54032 14.5565H8.18506C9.10403 15.8301 10.4773 16.7019 12.0209 16.9916C12.0942 17.0051 12.1695 17.0023 12.2416 16.9834C12.3137 16.9646 12.3807 16.9301 12.4379 16.8824C12.4952 16.8348 12.5413 16.7751 12.5729 16.7077C12.6045 16.6402 12.6209 16.5667 12.621 16.4922V5.50782C12.6209 5.43333 12.6045 5.35976 12.5729 5.29232C12.5413 5.22488 12.4952 5.16522 12.4379 5.11757C12.3807 5.06992 12.3137 5.03543 12.2416 5.01657C12.1695 4.9977 12.0942 4.99491 12.0209 5.00839Z" fill="#F6F6F6"/>
</svg>
