<svg width="12" height="17" viewBox="0 0 12 17" fill="none" xmlns="http://www.w3.org/2000/svg">
<path d="M9 10.3314H3C1.346 10.3314 0 11.6774 0 13.3314V16.998H12V13.3314C12 11.6774 10.654 10.3314 9 10.3314ZM8.886 15.3314C8.362 15.3314 7.362 16.3474 7.362 16.3314C7.40933 15.644 7.53333 15.0687 7.686 14.5887C7.90533 13.9414 8.248 13.414 8.66667 12.998C9.08133 13.408 9.41933 13.9334 9.638 14.4687C9.85733 14.988 9.962 15.4227 10.0287 15.998C9.79733 15.7227 9.28133 15.3314 8.886 15.3314ZM10 6.33138H2C1.632 6.33138 1.33333 6.03271 1.33333 5.66471V4.33138C1.33333 3.96338 1.632 3.66471 2 3.66471H10C10.368 3.66471 10.6667 3.96338 10.6667 4.33138V5.66471C10.6667 6.03271 10.368 6.33138 10 6.33138ZM3.02667 2.33138C3.75933 1.51538 4.81867 0.998047 6 0.998047C7.18133 0.998047 8.24 1.51538 8.97333 2.33138H3.02667ZM8.97267 7.66471C8.24 8.48071 7.18067 8.99805 5.99933 8.99805C4.818 8.99805 3.75933 8.48071 3.026 7.66471H8.97267Z" fill="#0EA102"/>
</svg>
