<svg width="22" height="22" viewBox="0 0 22 22" fill="none" xmlns="http://www.w3.org/2000/svg">
<g id="Group 14839">
<circle id="Ellipse 207" cx="11" cy="11" r="11" fill="#0EA102"/>
<path id="Vector" d="M13.45 17H8.55009C8.40009 17 8.25809 16.9325 8.16309 16.8165C8.06809 16.7005 8.03059 16.5475 8.06009 16.4005C8.34259 15.0095 9.57908 14 11.0001 14C12.421 14 13.6575 15.0095 13.94 16.4005C13.97 16.5475 13.932 16.7005 13.837 16.8165C13.742 16.9325 13.6 17 13.45 17ZM14 9.00008C15.103 9.00008 16 8.10309 16 7.0001C16 5.89712 15.103 5.00012 14 5.00012C12.897 5.00012 12.0001 5.89712 12.0001 7.0001C12.0001 8.10309 12.897 9.00008 14 9.00008ZM16.8535 16.1465L12.8835 12.1765C12.96 11.9626 13 11.7346 13 11.5001C13 10.9661 12.792 10.4636 12.414 10.0861C11.8716 9.54358 11.0396 9.39058 10.3341 9.62708L9.26008 8.55309C9.71858 8.18009 10.0001 7.6136 10.0001 7.0001C10.0001 5.89712 9.10308 5.00012 8.00009 5.00012C7.3871 5.00012 6.82011 5.28162 6.44711 5.74012L5.85362 5.14662C5.65812 4.95113 5.34212 4.95113 5.14662 5.14662C4.95113 5.34212 4.95113 5.65812 5.14662 5.85362L16.1465 16.8535C16.244 16.951 16.372 17 16.5 17C16.628 17 16.756 16.951 16.8535 16.8535C17.049 16.658 17.049 16.342 16.8535 16.1465ZM11.0631 12.989C11.2201 13.146 11.0906 13.412 10.8701 13.387C10.4366 13.3385 10.0161 13.149 9.68358 12.8165C9.35108 12.484 9.16158 12.0636 9.11308 11.6301C9.08858 11.4096 9.35408 11.2801 9.51108 11.4371L11.0631 12.989ZM8.00009 11.5001C8.00009 11.0731 8.08959 10.6671 8.25009 10.2996L7.6766 9.72608C7.5516 9.60108 7.3696 9.55108 7.1981 9.59558C6.09511 9.88007 5.23662 10.7851 5.01012 11.9006C4.98013 12.0476 5.01812 12.2 5.11312 12.3165C5.20812 12.433 5.35012 12.5 5.50012 12.5H8.17109C8.06059 12.187 8.00009 11.8506 8.00009 11.5001ZM16.99 11.9006C16.7075 10.5096 15.45 9.50008 14 9.50008C13.5 9.50008 13.5125 9.85107 13.5985 10.0001C13.854 10.4416 14 10.9536 14 11.5001C14 11.8506 13.9395 12.187 13.829 12.5H16.5C16.65 12.5 16.792 12.4325 16.887 12.3165C16.982 12.2006 17.0195 12.0476 16.99 11.9006Z" fill="#F6F6F6"/>
</g>
</svg>
