<svg width="22" height="22" viewBox="0 0 22 22" fill="none" xmlns="http://www.w3.org/2000/svg">
<g id="Group 14840">
<circle id="Ellipse 208" cx="11" cy="11" r="11" fill="#0EA102"/>
<g id="Group">
<path id="Vector" fill-rule="evenodd" clip-rule="evenodd" d="M10.4916 14.8375L7.35142 17.5021C7.15925 17.6652 6.88942 17.7021 6.66101 17.5959C6.43195 17.4898 6.28572 17.2608 6.28572 17.0084C6.28572 17.0084 6.28572 12.5528 6.28572 9.89077C6.28572 8.46141 7.4446 7.30253 8.87396 7.30253C9.87949 7.30253 11.1037 7.30253 12.1093 7.30253C13.5386 7.30253 14.6975 8.46141 14.6975 9.89077V17.0084C14.6975 17.2608 14.5506 17.4898 14.3222 17.5959C14.0931 17.7021 13.824 17.6652 13.6318 17.5021L10.4916 14.8375ZM13.4034 9.89077C13.4034 9.17641 12.8236 8.59665 12.1093 8.59665C11.1037 8.59665 9.87949 8.59665 8.87396 8.59665C8.15896 8.59665 7.57984 9.17641 7.57984 9.89077V15.6108L10.073 13.4955C10.3143 13.2911 10.6682 13.2911 10.9102 13.4955L13.4034 15.6108V9.89077ZM17.2857 14.4202V9.24371C17.2857 8.04277 16.8082 6.89035 15.9586 6.04141C15.1097 5.19182 13.9573 4.71429 12.7563 4.71429C11.0908 4.71429 9.52102 4.71429 9.52102 4.71429C9.16384 4.71429 8.87396 5.00482 8.87396 5.36135C8.87396 5.71853 9.16384 6.00841 9.52102 6.00841C9.52102 6.00841 11.0908 6.00841 12.7563 6.00841C13.6143 6.00841 14.4374 6.34941 15.0437 6.95635C15.6506 7.56329 15.9916 8.38571 15.9916 9.24371C15.9916 11.7025 15.9916 14.4202 15.9916 14.4202C15.9916 14.7774 16.2815 15.0672 16.6387 15.0672C16.9958 15.0672 17.2857 14.7774 17.2857 14.4202Z" fill="#F6F6F6"/>
</g>
</g>
</svg>
