<svg width="12" height="13" viewBox="0 0 12 13" fill="none" xmlns="http://www.w3.org/2000/svg">
<g clip-path="url(#clip0_141_5052)">
<path d="M9.5 2.99805H9.246L8.154 1.58205C8.01326 1.40095 7.83316 1.25426 7.62733 1.15307C7.42151 1.05189 7.19535 0.998878 6.966 0.998047L5.034 0.998047C4.80465 0.998878 4.57849 1.05189 4.37267 1.15307C4.16684 1.25426 3.98674 1.40095 3.846 1.58205L2.754 2.99805H2.5C1.8372 2.99884 1.20178 3.26249 0.73311 3.73116C0.264441 4.19983 0.000793929 4.83525 0 5.49805L0 10.498C0.000793929 11.1608 0.264441 11.7963 0.73311 12.2649C1.20178 12.7336 1.8372 12.9973 2.5 12.998H9.5C10.1628 12.9973 10.7982 12.7336 11.2669 12.2649C11.7356 11.7963 11.9992 11.1608 12 10.498V5.49805C11.9992 4.83525 11.7356 4.19983 11.2669 3.73116C10.7982 3.26249 10.1628 2.99884 9.5 2.99805ZM4.638 2.19305C4.68484 2.13257 4.74485 2.08358 4.81347 2.04979C4.88209 2.016 4.95751 1.9983 5.034 1.99805H6.966C7.04248 1.99838 7.11787 2.0161 7.18648 2.04989C7.25509 2.08367 7.31511 2.13263 7.362 2.19305L7.983 2.99805H4.017L4.638 2.19305ZM11 10.498C11 10.8959 10.842 11.2774 10.5607 11.5587C10.2794 11.84 9.89782 11.998 9.5 11.998H2.5C2.10218 11.998 1.72064 11.84 1.43934 11.5587C1.15804 11.2774 1 10.8959 1 10.498V5.49805C1 5.10022 1.15804 4.71869 1.43934 4.43739C1.72064 4.15608 2.10218 3.99805 2.5 3.99805H9.5C9.89782 3.99805 10.2794 4.15608 10.5607 4.43739C10.842 4.71869 11 5.10022 11 5.49805V10.498Z" fill="#0EA102"/>
<path d="M6 4.99805C5.40666 4.99805 4.82664 5.17399 4.33329 5.50364C3.83994 5.83328 3.45543 6.30182 3.22836 6.85C3.0013 7.39817 2.94189 8.00137 3.05765 8.58332C3.1734 9.16526 3.45912 9.69981 3.87868 10.1194C4.29824 10.5389 4.83279 10.8246 5.41473 10.9404C5.99667 11.0562 6.59987 10.9967 7.14805 10.7697C7.69623 10.5426 8.16477 10.1581 8.49441 9.66476C8.82405 9.17141 9 8.59139 9 7.99805C8.99921 7.20264 8.68288 6.44004 8.12044 5.8776C7.55801 5.31517 6.79541 4.99884 6 4.99805ZM6 9.99805C5.60444 9.99805 5.21776 9.88075 4.88886 9.66099C4.55996 9.44122 4.30362 9.12887 4.15224 8.76341C4.00087 8.39796 3.96126 7.99583 4.03843 7.60787C4.1156 7.2199 4.30608 6.86354 4.58579 6.58383C4.86549 6.30413 5.22186 6.11365 5.60982 6.03648C5.99778 5.95931 6.39992 5.99891 6.76537 6.15029C7.13082 6.30166 7.44318 6.55801 7.66294 6.88691C7.8827 7.2158 8 7.60248 8 7.99805C8 8.52848 7.78929 9.03719 7.41421 9.41226C7.03914 9.78733 6.53043 9.99805 6 9.99805Z" fill="#0EA102"/>
</g>
<defs>
<clipPath id="clip0_141_5052">
<rect width="12" height="12" fill="white" transform="translate(0 0.998047)"/>
</clipPath>
</defs>
</svg>
