<svg width="22" height="22" viewBox="0 0 22 22" fill="none" xmlns="http://www.w3.org/2000/svg">
<circle cx="11" cy="11" r="11" fill="#0EA102"/>
<path d="M17.4993 8.73699C17.0286 5.56879 14.2949 3.14285 11 3.14285C7.70506 3.14285 4.97136 5.56879 4.50065 8.73699C3.70408 9.11718 3.14285 9.93186 3.14285 10.8733V13.6251C3.14285 14.6027 3.74029 15.4536 4.60928 15.7976C5.11619 17.445 6.63693 18.6399 8.44733 18.6399H9.55167C9.71461 19.0925 10.1491 19.4003 10.6379 19.4003H11.6155C12.2673 19.4003 12.7742 18.8752 12.7742 18.2416C12.7742 17.608 12.2492 17.0829 11.6155 17.0829H10.6379C10.1853 17.0829 9.80513 17.3364 9.60599 17.7166H8.42923C7.21626 17.7166 6.16622 17.0105 5.67741 15.9786C6.23864 15.8881 6.65503 15.4174 6.65503 14.838V9.6784C6.65503 9.04476 6.13002 8.51975 5.49637 8.51975C6.0395 5.98518 8.3025 4.08426 11 4.08426C13.6975 4.08426 15.9605 5.98518 16.5036 8.51975C15.87 8.51975 15.345 9.04476 15.345 9.6784V14.8018C15.345 15.4355 15.87 15.9605 16.5036 15.9605C17.8071 15.9605 18.8571 14.9105 18.8571 13.607V10.8733C18.8571 9.93186 18.2959 9.11718 17.4993 8.73699Z" fill="white"/>
</svg>
