<svg width="22" height="22" viewBox="0 0 22 22" fill="none" xmlns="http://www.w3.org/2000/svg">
<g id="Group 14826">
<circle id="Ellipse 214" cx="11" cy="11" r="11" fill="#0EA102"/>
<g id="Group">
<path id="Vector" d="M8.00069 15.9999C8.00069 15.6924 8.12038 15.4031 8.33776 15.1859L9.042 14.4816C9.25957 14.2643 9.54851 14.1448 9.85584 14.1448C10.1633 14.1448 10.4525 14.2644 10.67 14.4818L10.9999 14.8119L11.3299 14.4818C11.5473 14.2644 11.8364 14.1448 12.1441 14.1448C12.4515 14.1448 12.7406 14.2643 12.9578 14.4816L13.6622 15.1857C14.1108 15.6347 14.1107 16.3653 13.662 16.8137L13.3329 17.1427C13.4895 17.1432 13.6469 17.1438 13.7986 17.1438C15.7756 17.1438 17.2858 17.0423 17.2858 14.9763C17.2858 10.8445 15.6305 11.0372 13.5185 10.8445C13.5014 11.6007 12.3808 12.2112 10.9997 12.2112C9.61863 12.2112 8.49782 11.6007 8.48142 10.8445C6.36888 11.0374 4.71436 10.8445 4.71436 14.9763C4.71436 17.0421 6.22414 17.1438 8.20095 17.1438C8.35326 17.1438 8.50936 17.1432 8.66708 17.1427L8.33812 16.8137C8.12038 16.5965 8.00069 16.3072 8.00069 15.9999Z" fill="#F2F2F2"/>
<path id="Vector_2" d="M11.0002 11.3865C12.9114 11.3865 14.46 8.5131 14.46 6.6028C14.46 4.69196 12.9114 3.14288 11.0002 3.14288C9.08958 3.14288 7.54068 4.69196 7.54068 6.6028C7.54086 8.51328 9.08994 11.3865 11.0002 11.3865Z" fill="#F2F2F2"/>
<path id="Vector_3" d="M12.2317 17.144L13.1115 16.2638C13.2577 16.118 13.2577 15.8817 13.1117 15.7357L12.4077 15.0318C12.335 14.959 12.2395 14.9225 12.144 14.9225C12.0484 14.9225 11.9525 14.9591 11.8797 15.032L10.9997 15.9121L10.1197 15.032C10.0467 14.9591 9.9512 14.9225 9.85567 14.9225C9.76013 14.9225 9.6646 14.959 9.59178 15.0318L8.88772 15.7358C8.7419 15.8817 8.7419 16.118 8.88772 16.2638L9.76788 17.144L8.88772 18.0241C8.7419 18.1701 8.7419 18.4063 8.88772 18.5519L9.5916 19.256C9.6646 19.329 9.76013 19.3654 9.85549 19.3654C9.95102 19.3654 10.0467 19.329 10.1196 19.256L10.9997 18.376L11.8799 19.256C11.9527 19.329 12.0482 19.3654 12.1438 19.3654C12.2395 19.3654 12.335 19.329 12.4078 19.2561L13.1117 18.5521C13.2577 18.4063 13.2577 18.1701 13.1117 18.0241L12.2317 17.144Z" fill="#F2F2F2"/>
</g>
</g>
</svg>
