<svg width="22" height="22" viewBox="0 0 22 22" fill="none" xmlns="http://www.w3.org/2000/svg">
<g id="Group 14825">
<circle id="Ellipse 213" cx="11" cy="11" r="11" fill="#0EA102"/>
<g id="Group">
<path id="Vector" d="M10.7828 4.71429C10.202 4.71429 9.62096 4.99456 9.29691 5.5579L4.93858 13.1367C4.2895 14.2651 5.12928 15.7143 6.43102 15.7143H15.1346C16.4364 15.7143 17.2762 14.2651 16.6271 13.1367L12.2682 5.5579C11.9441 4.99456 11.3636 4.71431 10.7828 4.71429ZM10.7822 8.19172C10.9738 8.19176 11.1575 8.26833 11.2929 8.40355C11.4284 8.53877 11.5045 8.72215 11.5045 8.91337C11.5046 8.96734 11.4986 9.02115 11.4867 9.0738L11.1724 11.8882C11.1724 11.9393 11.1622 11.9899 11.1426 12.0371C11.123 12.0843 11.0943 12.1272 11.058 12.1633C11.0218 12.1995 10.9788 12.2281 10.9315 12.2476C10.8842 12.2672 10.8334 12.2772 10.7822 12.2771C10.6789 12.2771 10.5799 12.2361 10.5068 12.1631C10.4338 12.0902 10.3927 11.9913 10.3927 11.8882L10.0772 9.06788C10.0658 9.01695 10.0601 8.96494 10.06 8.91277C10.06 8.72156 10.1361 8.53818 10.2715 8.40296C10.407 8.26774 10.5907 8.19176 10.7822 8.19172ZM10.7822 12.6531C10.8493 12.653 10.9157 12.6662 10.9776 12.6918C11.0396 12.7174 11.0958 12.755 11.1432 12.8023C11.1906 12.8497 11.2282 12.9059 11.2538 12.9677C11.2794 13.0296 11.2926 13.0958 11.2925 13.1628C11.2925 13.2978 11.2387 13.4274 11.143 13.5228C11.0473 13.6183 10.9175 13.6719 10.7822 13.6719C10.6469 13.6719 10.5172 13.6183 10.4215 13.5228C10.3258 13.4274 10.272 13.2978 10.2719 13.1628C10.2719 13.0958 10.285 13.0296 10.3106 12.9677C10.3363 12.9059 10.3739 12.8497 10.4212 12.8023C10.4686 12.755 10.5249 12.7174 10.5869 12.6918C10.6488 12.6662 10.7152 12.653 10.7822 12.6531Z" fill="#F2F2F2"/>
</g>
</g>
</svg>
