<svg width="22" height="22" viewBox="0 0 22 22" fill="none" xmlns="http://www.w3.org/2000/svg">
<circle cx="11" cy="11" r="11" fill="#0EA102"/>
<g clip-path="url(#clip0_482_65)">
<path d="M6.23745 8.11349H3.59936C3.26834 8.11349 3 8.38142 3 8.71193C3 9.04244 3.26834 9.31036 3.59936 9.31036H6.23745C6.56846 9.31036 6.83681 9.04244 6.83681 8.71193C6.83681 8.38142 6.56846 8.11349 6.23745 8.11349Z" fill="white"/>
<path d="M6.23746 10.5073H4.33721C4.00619 10.5073 3.73785 10.7752 3.73785 11.1057C3.73785 11.4362 4.00619 11.7041 4.33721 11.7041H6.23746C6.56847 11.7041 6.83681 11.4362 6.83681 11.1057C6.83681 10.7752 6.56847 10.5073 6.23746 10.5073Z" fill="white"/>
<path d="M6.23743 12.901H5.07503C4.74402 12.901 4.47568 13.1689 4.47568 13.4994C4.47568 13.8299 4.74402 14.0978 5.07503 14.0978H6.23743C6.56845 14.0978 6.83679 13.8299 6.83679 13.4994C6.83679 13.1689 6.56845 12.901 6.23743 12.901Z" fill="white"/>
<path d="M15.6934 6.91666H9.93335C8.87518 6.91666 8.01736 7.77316 8.01736 8.8297V13.2321C8.01736 14.2886 8.87518 15.1451 9.93335 15.1451H15.6934C16.7516 15.1451 17.6094 14.2886 17.6094 13.2321V8.8297C17.6094 7.77316 16.7516 6.91666 15.6934 6.91666Z" fill="white"/>
<path fill-rule="evenodd" clip-rule="evenodd" d="M14.4318 11.0005C14.6599 10.8104 14.8056 10.5212 14.8056 10.1972C14.8056 9.62483 14.3508 9.1608 13.7899 9.1608C13.3261 9.1608 12.9349 9.4781 12.8134 9.91162C12.6918 9.4781 12.3006 9.1608 11.8368 9.1608C11.2759 9.1608 10.8212 9.62483 10.8212 10.1972C10.8212 10.5211 10.9668 10.8103 11.1948 11.0004C11.2026 11.0152 11.2121 11.0295 11.2234 11.0431L12.6294 12.7274C12.7251 12.8421 12.9016 12.8421 12.9973 12.7274L14.4033 11.0431C14.4146 11.0296 14.4241 11.0153 14.4318 11.0005Z" fill="#0EA102"/>
</g>
<defs>
<clipPath id="clip0_482_65">
<rect width="14.6094" height="11" fill="white" transform="translate(3 6)"/>
</clipPath>
</defs>
</svg>
