<svg width="22" height="22" viewBox="0 0 22 22" fill="none" xmlns="http://www.w3.org/2000/svg">
<g id="Group 14812">
<circle id="Ellipse 201" cx="11" cy="11" r="11" fill="#0EA102"/>
<g id="Group 14798">
<path id="Vector" d="M18.2782 9.01504H17.1203V7.85714C17.1203 7.72553 17.0681 7.59931 16.975 7.50625C16.8819 7.41318 16.7557 7.3609 16.6241 7.3609C16.4925 7.3609 16.3663 7.41318 16.2732 7.50625C16.1801 7.59931 16.1279 7.72553 16.1279 7.85714V9.01504H14.97C14.8384 9.01504 14.7121 9.06732 14.6191 9.16038C14.526 9.25344 14.4737 9.37966 14.4737 9.51128C14.4737 9.64289 14.526 9.76911 14.6191 9.86217C14.7121 9.95523 14.8384 10.0075 14.97 10.0075H16.1279V11.1654C16.1279 11.297 16.1801 11.4232 16.2732 11.5163C16.3663 11.6094 16.4925 11.6617 16.6241 11.6617C16.7557 11.6617 16.8819 11.6094 16.975 11.5163C17.0681 11.4232 17.1203 11.297 17.1203 11.1654V10.0075H18.2782C18.4098 10.0075 18.5361 9.95523 18.6291 9.86217C18.7222 9.76911 18.7745 9.64289 18.7745 9.51128C18.7745 9.37966 18.7222 9.25344 18.6291 9.16038C18.5361 9.06732 18.4098 9.01504 18.2782 9.01504Z" fill="white"/>
<path id="Vector_2" d="M9.67676 11C10.2984 11 10.906 10.8157 11.4228 10.4703C11.9397 10.125 12.3425 9.63415 12.5804 9.05987C12.8183 8.48559 12.8805 7.85367 12.7592 7.24401C12.638 6.63436 12.3386 6.07435 11.8991 5.63482C11.4596 5.19528 10.8996 4.89595 10.2899 4.77468C9.68025 4.65342 9.04832 4.71566 8.47404 4.95353C7.89976 5.19141 7.40891 5.59423 7.06357 6.11107C6.71823 6.62791 6.53391 7.23555 6.53391 7.85715C6.53485 8.6904 6.86628 9.48925 7.45547 10.0784C8.04467 10.6676 8.84351 10.9991 9.67676 11ZM9.67676 5.70678C10.1021 5.70678 10.5178 5.83289 10.8714 6.06918C11.2251 6.30547 11.5007 6.64131 11.6634 7.03424C11.8262 7.42717 11.8688 7.85954 11.7858 8.27667C11.7028 8.6938 11.498 9.07696 11.1973 9.3777C10.8966 9.67843 10.5134 9.88324 10.0963 9.96621C9.67915 10.0492 9.24678 10.0066 8.85385 9.84384C8.46092 9.68108 8.12508 9.40546 7.88879 9.05184C7.6525 8.69821 7.52639 8.28246 7.52639 7.85715C7.52705 7.28704 7.75381 6.74047 8.15695 6.33734C8.56008 5.93421 9.10665 5.70744 9.67676 5.70678Z" fill="white"/>
<path id="Vector_3" d="M5.66413 11.3941C5.04864 12.1782 4.71416 13.1461 4.71429 14.1428V14.8045C4.71507 15.4623 4.97673 16.093 5.44188 16.5581C5.90702 17.0233 6.53768 17.2849 7.1955 17.2857H12.1579C12.8157 17.2849 13.4464 17.0233 13.9115 16.5581C14.3767 16.093 14.6383 15.4623 14.6391 14.8045V14.1428C14.6393 13.1459 14.3045 12.1778 13.6886 11.3938C13.5021 11.1654 13.235 11.0173 12.9424 10.9802C12.6498 10.9431 12.3542 11.0198 12.1165 11.1945C11.4049 11.7039 10.5518 11.9778 9.67663 11.9777C8.80151 11.9776 7.94836 11.7036 7.23684 11.1942C6.999 11.0196 6.70323 10.943 6.41057 10.9803C6.11791 11.0175 5.85071 11.1656 5.66413 11.3941ZM6.54999 11.9615C6.58553 11.9615 6.62015 11.9728 6.64886 11.9938C7.53181 12.6262 8.59059 12.9662 9.67665 12.9663C10.7627 12.9664 11.8215 12.6264 12.7045 11.9941C12.7344 11.9702 12.7722 11.9586 12.8103 11.9614C12.8484 11.9642 12.884 11.9813 12.91 12.0093C13.3876 12.6179 13.6469 13.3692 13.6466 14.1428V14.8045C13.6461 15.1992 13.4891 15.5776 13.21 15.8567C12.931 16.1357 12.5526 16.2927 12.1579 16.2932H7.1955C6.80081 16.2927 6.42243 16.1357 6.14335 15.8567C5.86427 15.5776 5.70726 15.1992 5.70678 14.8045V14.1428C5.70648 13.3694 5.96562 12.6183 6.44273 12.0096C6.45585 11.994 6.4723 11.9816 6.49087 11.9733C6.50944 11.965 6.52965 11.9609 6.54999 11.9615Z" fill="white"/>
<path id="Vector 32" d="M8.5 12.5C7.83333 12.3333 6.5 11.9 6.5 11.5C6.5 11.1 5.83333 12.3333 5.5 13V14.5L6 16L7.5 16.5H10H12.5C12.8333 16.1667 13.6 15.5 14 15.5C14.4 15.5 14.1667 14.8333 14 14.5C13.8333 14 13.5 12.9 13.5 12.5C13.5 12.1 12.8333 11.6667 12.5 11.5L11 12.5H8.5Z" fill="white"/>
</g>
</g>
</svg>
