<svg width="8" height="10" viewBox="0 0 8 10" fill="none" xmlns="http://www.w3.org/2000/svg">
<path d="M4.70873 6.15466C4.59991 6.15466 4.49554 6.19789 4.41859 6.27484C4.34164 6.35179 4.29842 6.45615 4.29842 6.56497V7.7959C4.29842 8.12237 4.16873 8.43546 3.93788 8.6663C3.70704 8.89715 3.39395 9.02684 3.06748 9.02684H2.05155C1.72509 9.02684 1.412 8.89715 1.18115 8.6663C0.950309 8.43546 0.820621 8.12237 0.820621 7.7959V2.05155C0.820621 1.72509 0.950309 1.412 1.18115 1.18115C1.412 0.950309 1.72509 0.820621 2.05155 0.820621H3.06748C3.39395 0.820621 3.70704 0.950309 3.93788 1.18115C4.16873 1.412 4.29842 1.72509 4.29842 2.05155V3.28249C4.29842 3.39131 4.34164 3.49567 4.41859 3.57262C4.49554 3.64957 4.59991 3.6928 4.70873 3.6928C4.81755 3.6928 4.92191 3.64957 4.99886 3.57262C5.07581 3.49567 5.11904 3.39131 5.11904 3.28249V2.05155C5.11839 1.50765 4.90203 0.986206 4.51743 0.601606C4.13283 0.217006 3.61139 0.000651515 3.06748 0H2.05155C1.50765 0.000651515 0.986206 0.217006 0.601606 0.601606C0.217006 0.986206 0.000651515 1.50765 0 2.05155L0 7.7959C0.000651515 8.33981 0.217006 8.86125 0.601606 9.24585C0.986206 9.63045 1.50765 9.84681 2.05155 9.84746H3.06748C3.61139 9.84681 4.13283 9.63045 4.51743 9.24585C4.90203 8.86125 5.11839 8.33981 5.11904 7.7959V6.56497C5.11904 6.45615 5.07581 6.35179 4.99886 6.27484C4.92191 6.19789 4.81755 6.15466 4.70873 6.15466Z" fill="#F9F9F9"/>
<path d="M1.32765 5.4108L3.04027 7.12342C3.07472 7.15909 3.11593 7.18754 3.16149 7.20711C3.20705 7.22668 3.25605 7.23698 3.30564 7.23741C3.35522 7.23784 3.4044 7.2284 3.45029 7.20962C3.49619 7.19084 3.53789 7.16311 3.57295 7.12805C3.60801 7.09298 3.63574 7.05129 3.65452 7.00539C3.6733 6.9595 3.68275 6.91032 3.68231 6.86074C3.68188 6.81115 3.67158 6.76215 3.65201 6.71659C3.63244 6.67102 3.60399 6.62982 3.56832 6.59537L1.9767 5.00337L7.62655 4.99216C7.7256 4.99216 7.82059 4.95282 7.89062 4.88278C7.96065 4.81275 8 4.71776 8 4.61872C8 4.51968 7.96065 4.42469 7.89062 4.35465C7.82059 4.28462 7.7256 4.24527 7.62655 4.24527L1.95466 4.25685L3.56907 2.64207C3.60473 2.60762 3.63319 2.56641 3.65276 2.52085C3.67233 2.47529 3.68263 2.42629 3.68306 2.3767C3.68349 2.32712 3.67404 2.27794 3.65527 2.23205C3.63649 2.18615 3.60876 2.14445 3.5737 2.10939C3.53863 2.07433 3.49694 2.0466 3.45104 2.02782C3.40515 2.00904 3.35597 1.99959 3.30639 2.00003C3.2568 2.00046 3.2078 2.01076 3.16223 2.03033C3.11667 2.0499 3.07546 2.07835 3.04102 2.11402L1.32839 3.82664C1.11826 4.03664 1.00014 4.32149 1 4.61856C0.999861 4.91564 1.11771 5.2006 1.32765 5.4108Z" fill="#F9F9F9"/>
</svg>
