<svg width="22" height="22" viewBox="0 0 22 22" fill="none" xmlns="http://www.w3.org/2000/svg">
<path d="M6.47559 12.6168H7.6795V16.4447L6.47559 15.4877V12.6168Z" fill="#F5F5F5"/>
<circle cx="11" cy="11" r="11" fill="#0EA102"/>
<path d="M17 10.6667C17.0023 11.5466 16.7967 12.4146 16.4 13.2C15.9296 14.1412 15.2065 14.9328 14.3116 15.4862C13.4168 16.0396 12.3855 16.3329 11.3333 16.3333C10.4534 16.3356 9.5854 16.13 8.79999 15.7333L5 17L6.26666 13.2C5.86995 12.4146 5.66437 11.5466 5.66667 10.6667C5.66707 9.61452 5.96041 8.58325 6.51381 7.68838C7.06721 6.79352 7.85883 6.0704 8.79999 5.60002C9.5854 5.20331 10.4534 4.99772 11.3333 5.00002H11.6667C13.0562 5.07668 14.3687 5.66319 15.3527 6.64726C16.3368 7.63132 16.9233 8.94378 17 10.3333V10.6667Z" fill="white" stroke="white" stroke-width="0.5" stroke-linecap="round" stroke-linejoin="round"/>
</svg>
