<svg width="22" height="22" viewBox="0 0 22 22" fill="none" xmlns="http://www.w3.org/2000/svg">
<g id="Group 14838">
<circle id="Ellipse 206" cx="11" cy="11" r="11" fill="#0EA102"/>
<path id="Rectangle 740" d="M6.5 4.50001H10.5L14.5 4.5V16.5H6.5V4.50001Z" fill="#F5FCF4"/>
<g id="Group 14803">
<path id="Vector" d="M10.6072 18.0086C10.8936 18.0086 11.1257 17.7764 11.1257 17.49C11.1257 17.2036 10.8936 16.9714 10.6072 16.9714C10.3208 16.9714 10.0886 17.2036 10.0886 17.49C10.0886 17.7764 10.3208 18.0086 10.6072 18.0086Z" fill="#F6F6F6"/>
<path id="Vector_2" d="M14.41 3.14288H6.80429C6.52772 3.14288 6.28572 3.3676 6.28572 3.66145V18.1814C6.28572 18.458 6.52772 18.7 6.80429 18.7H14.41C14.7039 18.7 14.9286 18.458 14.9286 18.1814V3.66145C14.9286 3.3676 14.7039 3.14288 14.41 3.14288ZM6.97715 16.28V4.87145H14.2371V16.28H6.97715ZM11.2986 17.49C11.2986 17.8703 10.9874 18.1814 10.6071 18.1814C10.2269 18.1814 9.91572 17.8703 9.91572 17.49C9.91572 17.1097 10.2269 16.7986 10.6071 16.7986C10.9874 16.7986 11.2986 17.1097 11.2986 17.49ZM9.96758 4.00717C9.96758 3.90345 10.0367 3.83431 10.1404 3.83431H11.0566C11.1603 3.83431 11.2294 3.90345 11.2294 4.00717C11.2294 4.11088 11.1603 4.18003 11.0566 4.18003H10.1404C10.054 4.18003 9.96758 4.11088 9.96758 4.00717Z" fill="#F6F6F6"/>
<path id="Vector_3" d="M10.9528 6.2543H7.84137V6.94573H10.9528V6.2543Z" fill="#A6EAA1"/>
<path id="Vector_4" d="M13.0271 8.15573H7.84137V8.50145H13.0271V8.15573Z" fill="#A6EAA1"/>
<path id="Vector_5" d="M13.3728 9.02003H7.84137V9.36575H13.3728V9.02003Z" fill="#A6EAA1"/>
<path id="Vector_6" d="M13.0271 9.88431H7.84137V10.23H13.0271V9.88431Z" fill="#A6EAA1"/>
<path id="Vector_7" d="M10.7799 10.7486H7.84137V11.0943H10.7799V10.7486Z" fill="#A6EAA1"/>
<path id="Vector_8" d="M12.6814 12.4771H7.84137V12.8228H12.6814V12.4771Z" fill="#A6EAA1"/>
<path id="Vector_9" d="M13.0271 13.3414H7.84137V13.6872H13.0271V13.3414Z" fill="#A6EAA1"/>
<path id="Vector_10" d="M10.7799 14.2058H7.84137V14.5515H10.7799V14.2058Z" fill="#A6EAA1"/>
</g>
</g>
</svg>
