<svg width="22" height="22" viewBox="0 0 22 22" fill="none" xmlns="http://www.w3.org/2000/svg">
<g id="Group 14824">
<circle id="Ellipse 212" cx="11" cy="11" r="11" fill="#0EA102"/>
<g id="Group">
<path id="Vector" d="M17.2336 6.37257C17.1994 6.31902 17.1524 6.27478 17.0969 6.24381C17.0415 6.21284 16.9792 6.19611 16.9156 6.1951C16.8787 6.1951 13.2997 6.17292 11.2071 4.77536C11.1454 4.7355 11.0735 4.71429 11 4.71429C10.9266 4.71429 10.8547 4.7355 10.793 4.77536C8.70031 6.17292 5.12136 6.1951 5.08439 6.1951C5.02085 6.19611 4.95856 6.21284 4.90307 6.24381C4.84758 6.27478 4.80064 6.31902 4.76643 6.37257C4.73499 6.42597 4.7172 6.48628 4.71462 6.54819C4.71204 6.6101 4.72476 6.67168 4.75164 6.72751C4.75903 6.7423 5.45412 8.16944 5.45412 11.741C5.45412 17.1316 10.8447 18.7362 10.8965 18.751C10.9641 18.7707 11.0359 18.7707 11.1035 18.751C11.1553 18.7362 16.5459 17.1316 16.5459 11.741C16.5459 8.20641 17.241 6.7423 17.2484 6.72751C17.2753 6.67168 17.288 6.6101 17.2854 6.54819C17.2828 6.48628 17.265 6.42597 17.2336 6.37257ZM11.3697 11.3047V13.2199C11.3697 13.318 11.3308 13.412 11.2614 13.4813C11.1921 13.5507 11.0981 13.5896 11 13.5896C10.902 13.5896 10.8079 13.5507 10.7386 13.4813C10.6692 13.412 10.6303 13.318 10.6303 13.2199V11.3047C10.3836 11.2175 10.1757 11.0459 10.0433 10.8202C9.9109 10.5945 9.86256 10.3293 9.9068 10.0714C9.95105 9.81353 10.085 9.57959 10.2851 9.41094C10.4851 9.24229 10.7384 9.1498 11 9.1498C11.2617 9.1498 11.5149 9.24229 11.7149 9.41094C11.915 9.57959 12.049 9.81353 12.0932 10.0714C12.1375 10.3293 12.0891 10.5945 11.9567 10.8202C11.8243 11.0459 11.6164 11.2175 11.3697 11.3047ZM11.3697 10.2621C11.3697 10.3352 11.3481 10.4067 11.3074 10.4675C11.2668 10.5283 11.2091 10.5757 11.1415 10.6037C11.0739 10.6317 10.9996 10.639 10.9279 10.6247C10.8562 10.6104 10.7903 10.5752 10.7386 10.5235C10.6869 10.4718 10.6517 10.4059 10.6374 10.3342C10.6231 10.2625 10.6304 10.1882 10.6584 10.1206C10.6864 10.053 10.7338 9.9953 10.7946 9.95467C10.8554 9.91405 10.9269 9.89236 11 9.89236C11.0981 9.89236 11.1921 9.93132 11.2614 10.0007C11.3308 10.07 11.3697 10.164 11.3697 10.2621Z" fill="#EFEFEF"/>
</g>
</g>
</svg>
