<svg width="22" height="22" viewBox="0 0 22 22" fill="none" xmlns="http://www.w3.org/2000/svg">
<g id="Group 14823">
<circle id="Ellipse 211" cx="11" cy="11" r="11" fill="#0EA102"/>
<g id="Group">
<path id="Vector" d="M11.1043 6.86507C11.1393 6.873 11.172 6.88922 11.1995 6.91238C11.2269 6.93553 11.2485 6.96495 11.2622 6.99815C11.2759 7.03135 11.2815 7.06737 11.2785 7.10318C11.2754 7.13898 11.2638 7.17353 11.2446 7.20391C11.2284 7.22955 11.2214 7.25993 11.2248 7.29007C11.2281 7.32021 11.2416 7.3483 11.2631 7.36974C11.2845 7.39118 11.3126 7.40469 11.3428 7.40804C11.3729 7.41139 11.4033 7.40439 11.4289 7.38819C11.4593 7.36901 11.4939 7.3574 11.5297 7.35434C11.5655 7.35128 11.6015 7.35685 11.6347 7.3706C11.6679 7.38435 11.6973 7.40586 11.7204 7.43334C11.7436 7.46082 11.7598 7.49345 11.7677 7.5285C11.7744 7.55807 11.791 7.58449 11.8146 7.60342C11.8383 7.62235 11.8677 7.63266 11.8981 7.63266C11.9284 7.63266 11.9578 7.62235 11.9815 7.60342C12.0052 7.58449 12.0217 7.55807 12.0284 7.5285C12.0363 7.49345 12.0525 7.46082 12.0757 7.43334C12.0988 7.40586 12.1282 7.38435 12.1614 7.3706C12.1946 7.35685 12.2307 7.35128 12.2665 7.35434C12.3023 7.3574 12.3368 7.36901 12.3672 7.38819C12.3928 7.40439 12.4232 7.41139 12.4533 7.40804C12.4835 7.40469 12.5116 7.39118 12.533 7.36974C12.5545 7.3483 12.568 7.32021 12.5713 7.29007C12.5747 7.25993 12.5677 7.22955 12.5515 7.20391C12.5323 7.17353 12.5207 7.13898 12.5176 7.10318C12.5146 7.06737 12.5202 7.03135 12.5339 6.99815C12.5477 6.96495 12.5692 6.93553 12.5967 6.91238C12.6241 6.88922 12.6568 6.873 12.6918 6.86507C12.7214 6.85839 12.7478 6.84185 12.7667 6.81817C12.7857 6.79449 12.796 6.76507 12.796 6.73476C12.796 6.70444 12.7857 6.67502 12.7667 6.65134C12.7478 6.62766 12.7214 6.61112 12.6918 6.60444C12.6568 6.59652 12.6241 6.58029 12.5967 6.55714C12.5692 6.53398 12.5477 6.50456 12.5339 6.47136C12.5202 6.43816 12.5146 6.40214 12.5176 6.36634C12.5207 6.33053 12.5323 6.29598 12.5515 6.2656C12.5677 6.23997 12.5747 6.20959 12.5713 6.17946C12.568 6.14933 12.5544 6.12124 12.533 6.09981C12.5116 6.07837 12.4835 6.06487 12.4533 6.06151C12.4232 6.05815 12.3928 6.06514 12.3672 6.08132C12.3368 6.10051 12.3023 6.11213 12.2665 6.11519C12.2307 6.11825 12.1947 6.11268 12.1615 6.09893C12.1282 6.08518 12.0988 6.06366 12.0757 6.03618C12.0525 6.0087 12.0363 5.97607 12.0284 5.94102C12.0217 5.91144 12.0052 5.88502 11.9815 5.86609C11.9578 5.84716 11.9284 5.83685 11.8981 5.83685C11.8677 5.83685 11.8383 5.84716 11.8146 5.86609C11.791 5.88502 11.7744 5.91144 11.7677 5.94102C11.7598 5.97607 11.7436 6.0087 11.7204 6.03618C11.6973 6.06366 11.6679 6.08518 11.6347 6.09893C11.6015 6.11268 11.5654 6.11825 11.5296 6.11519C11.4938 6.11213 11.4593 6.10051 11.4289 6.08132C11.4033 6.06514 11.3729 6.05815 11.3428 6.06151C11.3126 6.06487 11.2845 6.07837 11.2631 6.09981C11.2417 6.12124 11.2282 6.14933 11.2248 6.17946C11.2214 6.20959 11.2284 6.23997 11.2446 6.2656C11.2638 6.29598 11.2754 6.33053 11.2785 6.36634C11.2815 6.40214 11.2759 6.43816 11.2622 6.47136C11.2485 6.50456 11.2269 6.53398 11.1995 6.55714C11.172 6.58029 11.1393 6.59652 11.1043 6.60444C11.0747 6.61112 11.0483 6.62766 11.0294 6.65134C11.0104 6.67502 11.0001 6.70444 11.0001 6.73476C11.0001 6.76507 11.0104 6.79449 11.0294 6.81817C11.0483 6.84185 11.0747 6.85839 11.1043 6.86507Z" fill="#F2F2F2"/>
<path id="Vector_2" d="M8.0817 5.38776V15.9388H14.1429C14.2025 15.9388 14.2596 15.9624 14.3017 16.0045C14.3438 16.0466 14.3674 16.1037 14.3674 16.1633V16.6123C14.3674 16.7909 14.4384 16.9622 14.5647 17.0885C14.691 17.2148 14.8623 17.2857 15.0409 17.2857C15.2195 17.2857 15.3908 17.2148 15.5171 17.0885C15.6434 16.9622 15.7143 16.7909 15.7143 16.6123V5.38776C15.7141 5.14477 15.7931 4.90832 15.9394 4.71429H8.75516C8.57661 4.7145 8.40543 4.78552 8.27918 4.91178C8.15292 5.03803 8.0819 5.20921 8.0817 5.38776ZM9.20414 14.5918H8.75516V14.1429H9.20414V14.5918ZM9.20414 12.7959H8.75516V12.3469H9.20414V12.7959ZM15.0409 14.5918H13.6939V14.1429H15.0409V14.5918ZM15.0409 13.6939H11.449V13.2449H15.0409V13.6939ZM15.0409 11.898H13.6939V11.449H15.0409V11.898ZM11.449 8.9796V8.53062H13.6939V8.9796H11.449ZM13.0205 9.42858V9.87756H10.7756V9.42858H13.0205ZM10.7778 6.27068C10.7667 6.18187 10.7761 6.09171 10.8052 6.00708C10.8343 5.92244 10.8823 5.84556 10.9456 5.78228C11.0089 5.719 11.0858 5.67099 11.1704 5.6419C11.255 5.61282 11.3452 5.60343 11.434 5.61444C11.489 5.54385 11.5594 5.48674 11.6398 5.44746C11.7202 5.40818 11.8085 5.38776 11.898 5.38776C11.9875 5.38776 12.0758 5.40818 12.1562 5.44746C12.2366 5.48674 12.307 5.54385 12.362 5.61444C12.4509 5.60343 12.541 5.61282 12.6256 5.6419C12.7103 5.67099 12.7872 5.719 12.8504 5.78228C12.9137 5.84556 12.9617 5.92244 12.9908 6.00708C13.0199 6.09171 13.0293 6.18187 13.0183 6.27068C13.0889 6.32569 13.146 6.39608 13.1853 6.47649C13.2245 6.5569 13.245 6.64521 13.245 6.7347C13.245 6.82419 13.2245 6.91251 13.1853 6.99292C13.146 7.07333 13.0889 7.14371 13.0183 7.19872C13.0293 7.28754 13.0199 7.37769 12.9908 7.46233C12.9617 7.54696 12.9137 7.62384 12.8504 7.68713C12.7872 7.75041 12.7103 7.79842 12.6256 7.8275C12.541 7.85659 12.4509 7.86598 12.362 7.85496C12.307 7.92555 12.2366 7.98266 12.1562 8.02194C12.0758 8.06122 11.9875 8.08164 11.898 8.08164C11.8085 8.08164 11.7202 8.06122 11.6398 8.02194C11.5594 7.98266 11.489 7.92555 11.434 7.85496C11.3452 7.86597 11.255 7.85658 11.1704 7.82749C11.0858 7.7984 11.0089 7.75039 10.9456 7.68711C10.8823 7.62383 10.8343 7.54695 10.8052 7.46232C10.7761 7.37769 10.7668 7.28753 10.7778 7.19872C10.7072 7.14371 10.6501 7.07333 10.6108 6.99292C10.5715 6.91251 10.5511 6.82419 10.5511 6.7347C10.5511 6.64521 10.5715 6.5569 10.6108 6.47649C10.6501 6.39608 10.7072 6.32569 10.7778 6.27068ZM10.1021 8.53062H11.0001V8.9796H10.1021V8.53062ZM9.65312 10.551H15.0409V11H9.65312V10.551ZM9.65312 11.449H13.245V11.898H9.65312V11.449ZM9.65312 12.3469H15.0409V12.7959H9.65312V12.3469ZM9.65312 13.2449H11.0001V13.6939H9.65312V13.2449ZM9.65312 14.1429H13.245V14.5918H9.65312V14.1429ZM9.65312 15.0408H15.0409V15.4898H9.65312V15.0408ZM9.20414 11H8.75516V10.551H9.20414V11Z" fill="#F2F2F2"/>
<path id="Vector_3" d="M13.9183 16.3878H6.28564V16.6122C6.28585 16.7908 6.35686 16.962 6.48312 17.0882C6.60938 17.2145 6.78056 17.2855 6.95911 17.2857H14.1433C13.997 17.0917 13.918 16.8552 13.9183 16.6122V16.3878Z" fill="#F2F2F2"/>
</g>
</g>
</svg>
