<svg width="22" height="22" viewBox="0 0 22 22" fill="none" xmlns="http://www.w3.org/2000/svg">
<g id="Group 14820">
<circle id="Ellipse 207" cx="11" cy="11" r="11" fill="#0EA102"/>
<path id="Vector" d="M16.9195 10.8991L15.7853 12.0083C16.0303 12.5301 15.9336 13.1695 15.495 13.5984L14.8272 14.2514C14.2705 14.7959 13.3723 14.7959 12.8156 14.2514L8.14124 9.67991C7.65555 9.20489 7.58909 8.47174 7.94188 7.92607L7.94018 7.92552L7.14795 8.70033C6.97306 8.87134 6.97306 9.14412 7.14795 9.31517L10.4868 12.5805C10.5798 12.6715 10.6322 12.7961 10.6322 12.9262C10.6322 13.0563 10.5798 13.1809 10.4868 13.2718L9.83854 13.9058L10.8206 14.8663C10.9137 14.9572 10.9661 15.0819 10.9661 15.2119C10.9661 15.342 10.9137 15.4666 10.8206 15.5576L10.4868 15.8841C10.0488 16.3125 9.3993 16.4038 8.8711 16.1581L7.14795 17.8433C6.59125 18.3878 5.69302 18.3878 5.13632 17.8433C4.57362 17.293 4.57362 16.3962 5.13632 15.8459L6.84934 14.1706C6.60431 13.6488 6.70106 13.0094 7.13962 12.5805L7.4735 12.254C7.6614 12.0702 7.96169 12.0702 8.1496 12.254L9.14707 13.2295L9.45727 12.9262L6.47185 10.0065C5.90915 9.45616 5.90915 8.55934 6.47185 8.00902L7.4735 7.02941C7.60221 6.90352 7.79022 6.85959 7.9614 6.91539L8.68457 7.15114L8.80902 7.02941C9.24705 6.60102 9.89651 6.5097 10.4247 6.75544L12.0942 5.12264C12.4573 4.76759 12.9832 4.63252 13.4731 4.76318L14.0356 4.9132C14.6857 5.08661 15.1332 5.68937 15.0871 6.36571L15.0133 7.44876C15.0124 7.46107 15.0161 7.47338 15.0285 7.48559C15.0413 7.49807 15.0599 7.50642 15.0838 7.50486C15.6947 7.46503 16.2247 7.96343 16.1819 8.59165L16.175 8.69308C16.1709 8.7524 16.2102 8.81796 16.2874 8.83856L16.3734 8.86153C17.28 9.10331 17.6019 10.2317 16.9195 10.8991Z" fill="#F7F7F7"/>
</g>
</svg>
