<svg width="22" height="22" viewBox="0 0 22 22" fill="none" xmlns="http://www.w3.org/2000/svg">
<g id="Group 14821">
<circle id="Ellipse 208" cx="11" cy="11" r="11" fill="#0EA102"/>
<g id="Group">
<path id="Vector" d="M10.1738 11.791L9.62849 11.2457C10.502 10.0854 10.977 8.67383 10.9824 7.22153H11.6092C11.7754 7.22153 11.9349 7.1555 12.0524 7.03795C12.17 6.9204 12.236 6.76096 12.236 6.59472C12.236 6.42848 12.17 6.26905 12.0524 6.1515C11.9349 6.03395 11.7754 5.96791 11.6092 5.96791H9.10196V5.3411C9.10196 5.17486 9.03593 5.01543 8.91838 4.89788C8.80083 4.78033 8.6414 4.71429 8.47515 4.71429C8.30891 4.71429 8.14948 4.78033 8.03193 4.89788C7.91438 5.01543 7.84834 5.17486 7.84834 5.3411V5.96791H5.3411C5.17486 5.96791 5.01543 6.03395 4.89788 6.1515C4.78033 6.26905 4.71429 6.42848 4.71429 6.59472C4.71429 6.76096 4.78033 6.9204 4.89788 7.03795C5.01543 7.1555 5.17486 7.22153 5.3411 7.22153H9.72878C9.72741 8.34395 9.37933 9.43854 8.73215 10.3556L7.03976 8.65693C6.92173 8.5389 6.76165 8.47259 6.59472 8.47259C6.4278 8.47259 6.26772 8.5389 6.14969 8.65693C6.03166 8.77496 5.96535 8.93504 5.96535 9.10196C5.96535 9.26889 6.03166 9.42897 6.14969 9.547L7.89849 11.2958C7.75441 11.4292 7.60154 11.5527 7.44092 11.6656L5.60436 12.9819C5.49735 13.0594 5.41754 13.1687 5.37636 13.2942C5.33517 13.4198 5.3347 13.5551 5.37501 13.6809C5.41533 13.8067 5.49437 13.9166 5.60085 13.9948C5.70733 14.073 5.8358 14.1156 5.96791 14.1164C6.09855 14.1156 6.22565 14.074 6.33146 13.9974L8.16802 12.6873C8.38639 12.5323 8.59567 12.3649 8.79483 12.1859L9.29001 12.681C9.34828 12.7398 9.4176 12.7864 9.49399 12.8183C9.57037 12.8501 9.6523 12.8665 9.73504 12.8665C9.81779 12.8665 9.89972 12.8501 9.9761 12.8183C10.0525 12.7864 10.1218 12.7398 10.1801 12.681C10.2384 12.6224 10.2846 12.5527 10.3158 12.4761C10.3471 12.3995 10.3629 12.3175 10.3624 12.2347C10.3618 12.152 10.3448 12.0701 10.3125 11.994C10.2801 11.9178 10.233 11.8488 10.1738 11.791Z" fill="#F6F6F6"/>
<path id="Vector_2" d="M17.1943 16.3667L14.0602 9.47179C14.0104 9.36235 13.9301 9.26957 13.8289 9.20451C13.7278 9.13945 13.6101 9.10486 13.4898 9.10486C13.3696 9.10486 13.2519 9.13945 13.1507 9.20451C13.0496 9.26957 12.9693 9.36235 12.9194 9.47179L9.78539 16.3667C9.7455 16.4424 9.72153 16.5255 9.71496 16.6108C9.70838 16.6961 9.71935 16.7819 9.74718 16.8628C9.77501 16.9437 9.81911 17.018 9.87677 17.0813C9.93442 17.1445 10.0044 17.1953 10.0824 17.2304C10.1604 17.2656 10.2448 17.2844 10.3304 17.2857C10.416 17.287 10.5009 17.2707 10.5799 17.238C10.659 17.2052 10.7305 17.1566 10.79 17.0951C10.8496 17.0337 10.8959 16.9607 10.9262 16.8807L11.8977 14.7433H15.0819L16.0535 16.8807C16.1029 16.9907 16.183 17.084 16.2842 17.1496C16.3854 17.2152 16.5033 17.2502 16.6239 17.2505C16.7126 17.2501 16.8002 17.2309 16.8809 17.1941C17.0319 17.1257 17.1497 17.0002 17.2085 16.8451C17.2672 16.6901 17.2621 16.518 17.1943 16.3667ZM12.4681 13.4896L13.4898 11.2457L14.5115 13.4896H12.4681Z" fill="#F6F6F6"/>
</g>
</g>
</svg>
