<svg width="301" height="300" viewBox="0 0 301 300" fill="none" xmlns="http://www.w3.org/2000/svg">
<rect x="0.705566" width="300" height="300" rx="25" fill="#242424"/>
<path d="M185.341 60C185.76 60 186.179 60 186.622 60C187.649 72.694 182.804 82.1789 176.915 89.0476C171.138 95.8688 163.226 102.485 150.429 101.481C149.575 88.9686 154.428 80.1871 160.309 73.3342C165.763 66.9477 175.761 61.2647 185.341 60Z" fill="white"/>
<path d="M224.079 192.125C224.079 192.251 224.079 192.362 224.079 192.481C220.483 203.372 215.353 212.707 209.093 221.37C203.379 229.235 196.376 239.818 183.871 239.818C173.066 239.818 165.889 232.871 154.816 232.681C143.102 232.491 136.66 238.49 125.95 240C124.725 240 123.5 240 122.298 240C114.434 238.862 108.087 232.633 103.463 227.022C89.8282 210.439 79.292 189.019 77.3318 161.607C77.3318 158.92 77.3318 156.24 77.3318 153.553C78.1617 133.935 87.6941 117.984 100.364 110.254C107.051 106.144 116.244 102.643 126.48 104.208C130.866 104.887 135.348 106.389 139.276 107.875C142.999 109.306 147.655 111.843 152.065 111.709C155.053 111.622 158.025 110.065 161.036 108.966C169.857 105.78 178.504 102.129 189.902 103.844C203.6 105.915 213.322 112.001 219.329 121.391C207.742 128.766 198.581 139.879 200.146 158.857C201.537 176.095 211.559 186.181 224.079 192.125Z" fill="white"/>
</svg>
