<svg width="301" height="300" viewBox="0 0 301 300" fill="none" xmlns="http://www.w3.org/2000/svg">
<rect x="0.705566" width="300" height="300" rx="25" fill="#167EE6"/>
<path d="M129.191 161.602C128.515 161.602 113.647 161.602 106.888 161.602C103.284 161.602 102.157 160.25 102.157 156.871C102.157 147.86 102.157 138.623 102.157 129.612C102.157 126.008 103.509 124.881 106.888 124.881H129.191C129.191 124.205 129.191 111.139 129.191 105.056C129.191 96.0451 130.768 87.4844 135.274 79.5995C140.005 71.4894 146.763 66.0826 155.324 62.9287C160.956 60.9011 166.588 60 172.67 60H194.748C197.902 60 199.254 61.3517 199.254 64.5056V90.1877C199.254 93.3417 197.902 94.6934 194.748 94.6934C188.665 94.6934 182.583 94.6934 176.5 94.9186C170.418 94.9186 167.264 97.8473 167.264 104.155C167.038 110.914 167.264 117.447 167.264 124.431H193.396C197.001 124.431 198.352 125.782 198.352 129.387V156.646C198.352 160.25 197.226 161.377 193.396 161.377C185.286 161.377 167.939 161.377 167.264 161.377V234.819C167.264 238.648 166.137 240 162.082 240C152.62 240 143.384 240 133.922 240C130.543 240 129.191 238.648 129.191 235.269C129.191 211.615 129.191 162.278 129.191 161.602V161.602Z" fill="white"/>
</svg>
