<svg width="301" height="300" viewBox="0 0 301 300" fill="none" xmlns="http://www.w3.org/2000/svg">
<rect opacity="0.1" x="0.205566" width="300" height="300" rx="25" fill="#D93F21"/>
<path d="M233.409 134.352L159.989 134.348C156.747 134.348 154.119 136.976 154.119 140.218V163.672C154.119 166.914 156.747 169.542 159.989 169.542H201.334C196.807 181.292 188.357 191.131 177.576 197.384L195.206 227.902C223.486 211.547 240.206 182.849 240.206 150.724C240.206 146.15 239.868 142.88 239.194 139.198C238.682 136.401 236.253 134.352 233.409 134.352Z" fill="#167EE6"/>
<path d="M150.205 204.783C129.972 204.783 112.308 193.727 102.821 177.368L72.303 194.958C87.8332 221.875 116.926 240 150.205 240C166.531 240 181.935 235.604 195.205 227.944V227.902L177.576 197.383C169.511 202.061 160.18 204.783 150.205 204.783Z" fill="#12B347"/>
<path d="M195.206 227.944V227.902L177.576 197.383C169.512 202.06 160.18 204.783 150.206 204.783V240C166.531 240 181.936 235.604 195.206 227.944Z" fill="#0F993E"/>
<path d="M95.423 150C95.423 140.026 98.1448 130.696 102.821 122.632L72.3032 105.042C64.6008 118.27 60.2056 133.633 60.2056 150C60.2056 166.367 64.6008 181.73 72.3032 194.958L102.821 177.368C98.1448 169.304 95.423 159.973 95.423 150Z" fill="#FFD500"/>
<path d="M150.205 95.2174C163.4 95.2174 175.52 99.9058 184.986 107.705C187.322 109.628 190.716 109.489 192.855 107.35L209.473 90.7318C211.901 88.3046 211.728 84.3316 209.135 82.0823C193.274 68.3225 172.637 60 150.205 60C116.926 60 87.8332 78.1255 72.303 105.042L102.821 122.632C112.308 106.273 129.972 95.2174 150.205 95.2174Z" fill="#FF4B26"/>
<path d="M184.986 107.705C187.322 109.628 190.716 109.489 192.855 107.35L209.474 90.7318C211.901 88.3046 211.728 84.3316 209.135 82.0823C193.274 68.3222 172.638 60 150.206 60V95.2174C163.4 95.2174 175.52 99.9058 184.986 107.705Z" fill="#D93F21"/>
</svg>
