<svg width="301" height="300" viewBox="0 0 301 300" fill="none" xmlns="http://www.w3.org/2000/svg">
<rect x="0.205566" width="300" height="300" rx="25" fill="#03A9F4"/>
<path d="M246.706 90.1579C239.528 93.3063 231.881 95.3931 223.907 96.4063C232.11 91.5089 238.37 83.8131 241.314 74.537C233.666 79.0966 225.222 82.3173 216.224 84.1146C208.962 76.3826 198.612 71.5938 187.322 71.5938C165.416 71.5938 147.781 89.3739 147.781 111.171C147.781 114.307 148.046 117.323 148.698 120.194C115.803 118.589 86.6965 102.824 67.1432 78.8071C63.7295 84.7298 61.7271 91.5089 61.7271 98.8068C61.7271 112.51 68.7837 124.657 79.3022 131.689C72.9453 131.568 66.7089 129.723 61.4256 126.816C61.4256 126.937 61.4256 127.093 61.4256 127.25C61.4256 146.478 75.1406 162.448 93.1258 166.128C89.9051 167.008 86.3949 167.43 82.7521 167.43C80.2189 167.43 77.6617 167.286 75.2613 166.755C80.3878 182.424 94.9352 193.944 112.233 194.318C98.7711 204.848 81.6785 211.193 63.1746 211.193C59.9298 211.193 56.8177 211.048 53.7056 210.65C71.2324 221.953 92.004 228.406 114.404 228.406C187.213 228.406 227.02 168.094 227.02 115.815C227.02 114.066 226.959 112.377 226.875 110.7C234.728 105.128 241.326 98.1674 246.706 90.1579Z" fill="white"/>
</svg>
