<svg width="26" height="22" viewBox="0 0 26 22" fill="none" xmlns="http://www.w3.org/2000/svg">
<g id="Group">
<path id="Vector" d="M8.46833 19.8604V14.0275H11.5677V19.8604C11.5677 20.6612 10.9186 21.3104 10.1177 21.3104H9.91834C9.11752 21.3104 8.46833 20.6612 8.46833 19.8604Z" fill="#0EA102" stroke="#0EA102" stroke-width="1.1"/>
<path id="Vector_2" d="M15.3674 19.8605V10.1643H18.4674V19.8605C18.4674 20.6613 17.8182 21.3105 17.0174 21.3105H16.8174C16.0166 21.3105 15.3674 20.6613 15.3674 19.8605Z" fill="#0EA102" stroke="#0EA102" stroke-width="1.1"/>
<path id="Vector_3" d="M22.2722 19.8605V5.73604H25.3722V19.8605C25.3722 20.6614 24.723 21.3105 23.9222 21.3105H23.7222C22.9214 21.3105 22.2722 20.6614 22.2722 19.8605Z" fill="#0EA102" stroke="#0EA102" stroke-width="1.1"/>
<path id="Vector_4" d="M1.56318 19.8603V17.6511H4.66318V19.8603C4.66318 20.6611 4.014 21.3103 3.21318 21.3103H3.01318C2.21237 21.3103 1.56318 20.6612 1.56318 19.8603Z" fill="#0EA102" stroke="#0EA102" stroke-width="1.1"/>
<path id="Vector_5" d="M1.28511 15.2526C1.32561 15.2526 1.36668 15.2441 1.40551 15.2264C8.56661 11.9006 16.7549 6.7927 23.3089 1.56264C23.4322 1.46449 23.4527 1.28473 23.354 1.16206C23.2558 1.0388 23.0766 1.0188 22.9534 1.11695C16.4325 6.32019 8.28759 11.4007 1.16466 14.7082C1.022 14.775 0.960387 14.9445 1.0266 15.0871C1.07452 15.1915 1.1778 15.2526 1.28511 15.2526Z" fill="#0EA102" stroke="#0EA102" stroke-width="0.3"/>
<path id="Vector_6" d="M20.9798 0.56811L23.6756 0.953886L23.2893 3.64909C23.267 3.80489 23.3754 3.94982 23.5312 3.97207C23.5449 3.97378 23.5586 3.97493 23.5723 3.97493C23.7115 3.97493 23.8337 3.87221 23.8542 3.73011L24.2805 0.752465C24.3027 0.596078 24.1943 0.451708 24.0385 0.429452L21.0614 0.00316885C20.9068 -0.020202 20.7601 0.0882235 20.7379 0.245132C20.7156 0.401484 20.8246 0.545888 20.9798 0.56811Z" fill="#0EA102"/>
</g>
</svg>
