<svg width="322" height="173" viewBox="0 0 322 173" fill="none" xmlns="http://www.w3.org/2000/svg">
<path d="M42.892 163.444H37.654L36.754 166H34.612L39.094 153.472H41.47L45.952 166H43.792L42.892 163.444ZM42.316 161.77L40.282 155.956L38.23 161.77H42.316ZM49.9528 157.522C50.2528 157.018 50.6488 156.628 51.1408 156.352C51.6448 156.064 52.2388 155.92 52.9228 155.92V158.044H52.4008C51.5968 158.044 50.9848 158.248 50.5648 158.656C50.1568 159.064 49.9528 159.772 49.9528 160.78V166H47.9008V156.082H49.9528V157.522ZM63.899 160.798C63.899 161.17 63.875 161.506 63.827 161.806H56.249C56.309 162.598 56.603 163.234 57.131 163.714C57.659 164.194 58.307 164.434 59.075 164.434C60.179 164.434 60.959 163.972 61.415 163.048H63.629C63.329 163.96 62.783 164.71 61.991 165.298C61.211 165.874 60.239 166.162 59.075 166.162C58.127 166.162 57.275 165.952 56.519 165.532C55.775 165.1 55.187 164.5 54.755 163.732C54.335 162.952 54.125 162.052 54.125 161.032C54.125 160.012 54.329 159.118 54.737 158.35C55.157 157.57 55.739 156.97 56.483 156.55C57.239 156.13 58.103 155.92 59.075 155.92C60.011 155.92 60.845 156.124 61.577 156.532C62.309 156.94 62.879 157.516 63.287 158.26C63.695 158.992 63.899 159.838 63.899 160.798ZM61.757 160.15C61.745 159.394 61.475 158.788 60.947 158.332C60.419 157.876 59.765 157.648 58.985 157.648C58.277 157.648 57.671 157.876 57.167 158.332C56.663 158.776 56.363 159.382 56.267 160.15H61.757ZM79.5221 156.082L73.4381 170.662H71.3141L73.3301 165.838L69.4241 156.082H71.7101L74.5001 163.642L77.3981 156.082H79.5221ZM85.3727 166.162C84.4367 166.162 83.5907 165.952 82.8347 165.532C82.0787 165.1 81.4847 164.5 81.0527 163.732C80.6207 162.952 80.4047 162.052 80.4047 161.032C80.4047 160.024 80.6267 159.13 81.0707 158.35C81.5147 157.57 82.1207 156.97 82.8887 156.55C83.6567 156.13 84.5147 155.92 85.4627 155.92C86.4107 155.92 87.2687 156.13 88.0367 156.55C88.8047 156.97 89.4107 157.57 89.8547 158.35C90.2987 159.13 90.5207 160.024 90.5207 161.032C90.5207 162.04 90.2927 162.934 89.8367 163.714C89.3807 164.494 88.7567 165.1 87.9647 165.532C87.1847 165.952 86.3207 166.162 85.3727 166.162ZM85.3727 164.38C85.9007 164.38 86.3927 164.254 86.8487 164.002C87.3167 163.75 87.6947 163.372 87.9827 162.868C88.2707 162.364 88.4147 161.752 88.4147 161.032C88.4147 160.312 88.2767 159.706 88.0007 159.214C87.7247 158.71 87.3587 158.332 86.9027 158.08C86.4467 157.828 85.9547 157.702 85.4267 157.702C84.8987 157.702 84.4067 157.828 83.9507 158.08C83.5067 158.332 83.1527 158.71 82.8887 159.214C82.6247 159.706 82.4927 160.312 82.4927 161.032C82.4927 162.1 82.7627 162.928 83.3027 163.516C83.8547 164.092 84.5447 164.38 85.3727 164.38ZM101.531 156.082V166H99.4792V164.83C99.1552 165.238 98.7292 165.562 98.2012 165.802C97.6852 166.03 97.1332 166.144 96.5452 166.144C95.7652 166.144 95.0632 165.982 94.4392 165.658C93.8272 165.334 93.3412 164.854 92.9812 164.218C92.6332 163.582 92.4592 162.814 92.4592 161.914V156.082H94.4932V161.608C94.4932 162.496 94.7152 163.18 95.1592 163.66C95.6032 164.128 96.2092 164.362 96.9772 164.362C97.7452 164.362 98.3512 164.128 98.7952 163.66C99.2512 163.18 99.4792 162.496 99.4792 161.608V156.082H101.531ZM118.004 160.798C118.004 161.17 117.98 161.506 117.932 161.806H110.354C110.414 162.598 110.708 163.234 111.236 163.714C111.764 164.194 112.412 164.434 113.18 164.434C114.284 164.434 115.064 163.972 115.52 163.048H117.734C117.434 163.96 116.888 164.71 116.096 165.298C115.316 165.874 114.344 166.162 113.18 166.162C112.232 166.162 111.38 165.952 110.624 165.532C109.88 165.1 109.292 164.5 108.86 163.732C108.44 162.952 108.23 162.052 108.23 161.032C108.23 160.012 108.434 159.118 108.842 158.35C109.262 157.57 109.844 156.97 110.588 156.55C111.344 156.13 112.208 155.92 113.18 155.92C114.116 155.92 114.95 156.124 115.682 156.532C116.414 156.94 116.984 157.516 117.392 158.26C117.8 158.992 118.004 159.838 118.004 160.798ZM115.862 160.15C115.85 159.394 115.58 158.788 115.052 158.332C114.524 157.876 113.87 157.648 113.09 157.648C112.382 157.648 111.776 157.876 111.272 158.332C110.768 158.776 110.468 159.382 110.372 160.15H115.862ZM125.028 155.92C125.808 155.92 126.504 156.082 127.116 156.406C127.74 156.73 128.226 157.21 128.574 157.846C128.922 158.482 129.096 159.25 129.096 160.15V166H127.062V160.456C127.062 159.568 126.84 158.89 126.396 158.422C125.952 157.942 125.346 157.702 124.578 157.702C123.81 157.702 123.198 157.942 122.742 158.422C122.298 158.89 122.076 159.568 122.076 160.456V166H120.024V156.082H122.076V157.216C122.412 156.808 122.838 156.49 123.354 156.262C123.882 156.034 124.44 155.92 125.028 155.92ZM132.757 154.768C132.385 154.768 132.073 154.642 131.821 154.39C131.569 154.138 131.443 153.826 131.443 153.454C131.443 153.082 131.569 152.77 131.821 152.518C132.073 152.266 132.385 152.14 132.757 152.14C133.117 152.14 133.423 152.266 133.675 152.518C133.927 152.77 134.053 153.082 134.053 153.454C134.053 153.826 133.927 154.138 133.675 154.39C133.423 154.642 133.117 154.768 132.757 154.768ZM133.765 167.944C133.765 168.916 133.519 169.618 133.027 170.05C132.547 170.494 131.845 170.716 130.921 170.716H129.859V168.988H130.561C130.981 168.988 131.275 168.904 131.443 168.736C131.623 168.58 131.713 168.316 131.713 167.944V156.082H133.765V167.944ZM140.761 166.162C139.825 166.162 138.979 165.952 138.223 165.532C137.467 165.1 136.873 164.5 136.441 163.732C136.009 162.952 135.793 162.052 135.793 161.032C135.793 160.024 136.015 159.13 136.459 158.35C136.903 157.57 137.509 156.97 138.277 156.55C139.045 156.13 139.903 155.92 140.851 155.92C141.799 155.92 142.657 156.13 143.425 156.55C144.193 156.97 144.799 157.57 145.243 158.35C145.687 159.13 145.909 160.024 145.909 161.032C145.909 162.04 145.681 162.934 145.225 163.714C144.769 164.494 144.145 165.1 143.353 165.532C142.573 165.952 141.709 166.162 140.761 166.162ZM140.761 164.38C141.289 164.38 141.781 164.254 142.237 164.002C142.705 163.75 143.083 163.372 143.371 162.868C143.659 162.364 143.803 161.752 143.803 161.032C143.803 160.312 143.665 159.706 143.389 159.214C143.113 158.71 142.747 158.332 142.291 158.08C141.835 157.828 141.343 157.702 140.815 157.702C140.287 157.702 139.795 157.828 139.339 158.08C138.895 158.332 138.541 158.71 138.277 159.214C138.013 159.706 137.881 160.312 137.881 161.032C137.881 162.1 138.151 162.928 138.691 163.516C139.243 164.092 139.933 164.38 140.761 164.38ZM156.866 156.082L150.782 170.662H148.658L150.674 165.838L146.768 156.082H149.054L151.844 163.642L154.742 156.082H156.866ZM159.458 154.768C159.086 154.768 158.774 154.642 158.522 154.39C158.27 154.138 158.144 153.826 158.144 153.454C158.144 153.082 158.27 152.77 158.522 152.518C158.774 152.266 159.086 152.14 159.458 152.14C159.818 152.14 160.124 152.266 160.376 152.518C160.628 152.77 160.754 153.082 160.754 153.454C160.754 153.826 160.628 154.138 160.376 154.39C160.124 154.642 159.818 154.768 159.458 154.768ZM160.466 156.082V166H158.414V156.082H160.466ZM168.165 155.92C168.945 155.92 169.641 156.082 170.253 156.406C170.877 156.73 171.363 157.21 171.711 157.846C172.059 158.482 172.233 159.25 172.233 160.15V166H170.199V160.456C170.199 159.568 169.977 158.89 169.533 158.422C169.089 157.942 168.483 157.702 167.715 157.702C166.947 157.702 166.335 157.942 165.879 158.422C165.435 158.89 165.213 159.568 165.213 160.456V166H163.161V156.082H165.213V157.216C165.549 156.808 165.975 156.49 166.491 156.262C167.019 156.034 167.577 155.92 168.165 155.92ZM178.846 155.92C179.614 155.92 180.292 156.076 180.88 156.388C181.48 156.688 181.948 157.066 182.284 157.522V156.082H184.354V166.162C184.354 167.074 184.162 167.884 183.778 168.592C183.394 169.312 182.836 169.876 182.104 170.284C181.384 170.692 180.52 170.896 179.512 170.896C178.168 170.896 177.052 170.578 176.164 169.942C175.276 169.318 174.772 168.466 174.652 167.386H176.686C176.842 167.902 177.172 168.316 177.676 168.628C178.192 168.952 178.804 169.114 179.512 169.114C180.34 169.114 181.006 168.862 181.51 168.358C182.026 167.854 182.284 167.122 182.284 166.162V164.506C181.936 164.974 181.462 165.37 180.862 165.694C180.274 166.006 179.602 166.162 178.846 166.162C177.982 166.162 177.19 165.946 176.47 165.514C175.762 165.07 175.198 164.458 174.778 163.678C174.37 162.886 174.166 161.992 174.166 160.996C174.166 160 174.37 159.118 174.778 158.35C175.198 157.582 175.762 156.988 176.47 156.568C177.19 156.136 177.982 155.92 178.846 155.92ZM182.284 161.032C182.284 160.348 182.14 159.754 181.852 159.25C181.576 158.746 181.21 158.362 180.754 158.098C180.298 157.834 179.806 157.702 179.278 157.702C178.75 157.702 178.258 157.834 177.802 158.098C177.346 158.35 176.974 158.728 176.686 159.232C176.41 159.724 176.272 160.312 176.272 160.996C176.272 161.68 176.41 162.28 176.686 162.796C176.974 163.312 177.346 163.708 177.802 163.984C178.27 164.248 178.762 164.38 179.278 164.38C179.806 164.38 180.298 164.248 180.754 163.984C181.21 163.72 181.576 163.336 181.852 162.832C182.14 162.316 182.284 161.716 182.284 161.032ZM194.119 157.756V163.246C194.119 163.618 194.203 163.888 194.371 164.056C194.551 164.212 194.851 164.29 195.271 164.29H196.531V166H194.911C193.987 166 193.279 165.784 192.787 165.352C192.295 164.92 192.049 164.218 192.049 163.246V157.756H190.879V156.082H192.049V153.616H194.119V156.082H196.531V157.756H194.119ZM203.552 155.92C204.308 155.92 204.98 156.082 205.568 156.406C206.168 156.73 206.636 157.21 206.972 157.846C207.32 158.482 207.494 159.25 207.494 160.15V166H205.46V160.456C205.46 159.568 205.238 158.89 204.794 158.422C204.35 157.942 203.744 157.702 202.976 157.702C202.208 157.702 201.596 157.942 201.14 158.422C200.696 158.89 200.474 159.568 200.474 160.456V166H198.422V152.68H200.474V157.234C200.822 156.814 201.26 156.49 201.788 156.262C202.328 156.034 202.916 155.92 203.552 155.92ZM219.202 160.798C219.202 161.17 219.178 161.506 219.13 161.806H211.552C211.612 162.598 211.906 163.234 212.434 163.714C212.962 164.194 213.61 164.434 214.378 164.434C215.482 164.434 216.262 163.972 216.718 163.048H218.932C218.632 163.96 218.086 164.71 217.294 165.298C216.514 165.874 215.542 166.162 214.378 166.162C213.43 166.162 212.578 165.952 211.822 165.532C211.078 165.1 210.49 164.5 210.058 163.732C209.638 162.952 209.428 162.052 209.428 161.032C209.428 160.012 209.632 159.118 210.04 158.35C210.46 157.57 211.042 156.97 211.786 156.55C212.542 156.13 213.406 155.92 214.378 155.92C215.314 155.92 216.148 156.124 216.88 156.532C217.612 156.94 218.182 157.516 218.59 158.26C218.998 158.992 219.202 159.838 219.202 160.798ZM217.06 160.15C217.048 159.394 216.778 158.788 216.25 158.332C215.722 157.876 215.068 157.648 214.288 157.648C213.58 157.648 212.974 157.876 212.47 158.332C211.966 158.776 211.666 159.382 211.57 160.15H217.06ZM225.213 160.996C225.213 160 225.417 159.118 225.825 158.35C226.245 157.582 226.809 156.988 227.517 156.568C228.237 156.136 229.029 155.92 229.893 155.92C230.673 155.92 231.351 156.076 231.927 156.388C232.515 156.688 232.983 157.066 233.331 157.522V156.082H235.401V166H233.331V164.524C232.983 164.992 232.509 165.382 231.909 165.694C231.309 166.006 230.625 166.162 229.857 166.162C229.005 166.162 228.225 165.946 227.517 165.514C226.809 165.07 226.245 164.458 225.825 163.678C225.417 162.886 225.213 161.992 225.213 160.996ZM233.331 161.032C233.331 160.348 233.187 159.754 232.899 159.25C232.623 158.746 232.257 158.362 231.801 158.098C231.345 157.834 230.853 157.702 230.325 157.702C229.797 157.702 229.305 157.834 228.849 158.098C228.393 158.35 228.021 158.728 227.733 159.232C227.457 159.724 227.319 160.312 227.319 160.996C227.319 161.68 227.457 162.28 227.733 162.796C228.021 163.312 228.393 163.708 228.849 163.984C229.317 164.248 229.809 164.38 230.325 164.38C230.853 164.38 231.345 164.248 231.801 163.984C232.257 163.72 232.623 163.336 232.899 162.832C233.187 162.316 233.331 161.716 233.331 161.032ZM240.148 157.54C240.496 157.084 240.97 156.7 241.57 156.388C242.17 156.076 242.848 155.92 243.604 155.92C244.468 155.92 245.254 156.136 245.962 156.568C246.682 156.988 247.246 157.582 247.654 158.35C248.062 159.118 248.266 160 248.266 160.996C248.266 161.992 248.062 162.886 247.654 163.678C247.246 164.458 246.682 165.07 245.962 165.514C245.254 165.946 244.468 166.162 243.604 166.162C242.848 166.162 242.176 166.012 241.588 165.712C241 165.4 240.52 165.016 240.148 164.56V170.716H238.096V156.082H240.148V157.54ZM246.178 160.996C246.178 160.312 246.034 159.724 245.746 159.232C245.47 158.728 245.098 158.35 244.63 158.098C244.174 157.834 243.682 157.702 243.154 157.702C242.638 157.702 242.146 157.834 241.678 158.098C241.222 158.362 240.85 158.746 240.562 159.25C240.286 159.754 240.148 160.348 240.148 161.032C240.148 161.716 240.286 162.316 240.562 162.832C240.85 163.336 241.222 163.72 241.678 163.984C242.146 164.248 242.638 164.38 243.154 164.38C243.682 164.38 244.174 164.248 244.63 163.984C245.098 163.708 245.47 163.312 245.746 162.796C246.034 162.28 246.178 161.68 246.178 160.996ZM252.347 157.54C252.695 157.084 253.169 156.7 253.769 156.388C254.369 156.076 255.047 155.92 255.803 155.92C256.667 155.92 257.453 156.136 258.161 156.568C258.881 156.988 259.445 157.582 259.853 158.35C260.261 159.118 260.465 160 260.465 160.996C260.465 161.992 260.261 162.886 259.853 163.678C259.445 164.458 258.881 165.07 258.161 165.514C257.453 165.946 256.667 166.162 255.803 166.162C255.047 166.162 254.375 166.012 253.787 165.712C253.199 165.4 252.719 165.016 252.347 164.56V170.716H250.295V156.082H252.347V157.54ZM258.377 160.996C258.377 160.312 258.233 159.724 257.945 159.232C257.669 158.728 257.297 158.35 256.829 158.098C256.373 157.834 255.881 157.702 255.353 157.702C254.837 157.702 254.345 157.834 253.877 158.098C253.421 158.362 253.049 158.746 252.761 159.25C252.485 159.754 252.347 160.348 252.347 161.032C252.347 161.716 252.485 162.316 252.761 162.832C253.049 163.336 253.421 163.72 253.877 163.984C254.345 164.248 254.837 164.38 255.353 164.38C255.881 164.38 256.373 164.248 256.829 163.984C257.297 163.708 257.669 163.312 257.945 162.796C258.233 162.28 258.377 161.68 258.377 160.996ZM265.861 153.31C267.085 153.31 268.063 153.646 268.795 154.318C269.539 154.99 269.911 155.908 269.911 157.072C269.911 158.284 269.527 159.196 268.759 159.808C267.991 160.42 266.971 160.726 265.699 160.726L265.627 162.148H263.845L263.755 159.322H264.349C265.513 159.322 266.401 159.166 267.013 158.854C267.637 158.542 267.949 157.948 267.949 157.072C267.949 156.436 267.763 155.938 267.391 155.578C267.031 155.218 266.527 155.038 265.879 155.038C265.231 155.038 264.721 155.212 264.349 155.56C263.977 155.908 263.791 156.394 263.791 157.018H261.865C261.865 156.298 262.027 155.656 262.351 155.092C262.675 154.528 263.137 154.09 263.737 153.778C264.349 153.466 265.057 153.31 265.861 153.31ZM264.709 166.126C264.337 166.126 264.025 166 263.773 165.748C263.521 165.496 263.395 165.184 263.395 164.812C263.395 164.44 263.521 164.128 263.773 163.876C264.025 163.624 264.337 163.498 264.709 163.498C265.069 163.498 265.375 163.624 265.627 163.876C265.879 164.128 266.005 164.44 266.005 164.812C266.005 165.184 265.879 165.496 265.627 165.748C265.375 166 265.069 166.126 264.709 166.126Z" fill="#2C3335"/>
<g filter="url(#filter0_d_272_51)">
<path d="M111.644 125.95L109.159 125.949L107.977 116.364L111.645 116.364L111.644 125.95Z" fill="#FFB6B6"/>
<path d="M103.13 125.893C103.053 126.023 103.012 126.444 103.012 126.596C103.012 127.061 103.389 127.439 103.855 127.439H111.551C111.869 127.439 112.127 127.181 112.127 126.864V126.543C112.127 126.543 112.508 125.58 111.724 124.393C111.724 124.393 110.749 125.323 109.294 123.867L108.864 123.089L105.757 125.362L104.035 125.574C103.658 125.62 103.324 125.567 103.13 125.893Z" fill="#2F2E41"/>
<path d="M100.345 125.95L97.8604 125.949L96.6782 116.364L100.346 116.364L100.345 125.95Z" fill="#FFB6B6"/>
<path d="M91.8312 125.893C91.7538 126.023 91.713 126.444 91.713 126.596C91.713 127.061 92.0906 127.439 92.5564 127.439H100.253C100.57 127.439 100.828 127.181 100.828 126.864V126.543C100.828 126.543 101.209 125.58 100.425 124.393C100.425 124.393 99.4506 125.323 97.9949 123.867L97.5656 123.089L94.4583 125.362L92.7359 125.574C92.3591 125.62 92.025 125.567 91.8312 125.893Z" fill="#2F2E41"/>
<path d="M115.632 66.1045L98.3381 66.5657L96.5751 70.7162L94.4181 97.695L96.2628 121.446H101.648V99.0295L105.717 85.2433L107.331 120.754L112.891 121.446L115.171 97.0032L117.246 73.7139L115.632 66.1045Z" fill="#2F2E41"/>
<path d="M109.488 35.2061L103.493 35.4366L102.801 38.2037C102.801 38.2037 95.4221 40.279 95.8833 43.046C96.3445 45.8131 98.6503 58.0342 98.6503 58.0342C98.6503 58.0342 96.1139 65.8742 97.728 66.7966C99.3421 67.7189 115.975 66.7966 115.975 66.7966C115.975 66.7966 117.328 63.3378 116.636 62.8766C115.944 62.4154 118.711 40.279 118.25 39.8178C117.789 39.3566 110.18 37.0508 110.18 37.0508L109.488 35.2061Z" fill="#FFCB05"/>
<path d="M121.248 58.264L121.709 61.4922L116.636 73.0216L114.1 71.6381L116.867 60.8005L117.328 56.6499L121.248 58.264Z" fill="#FFB6B6"/>
<path d="M116.406 40.0479C116.406 40.0479 118.942 38.895 120.787 43.0456C122.632 47.1962 122.17 56.1891 122.17 56.1891C122.17 56.1891 122.862 56.8808 122.401 57.342C121.94 57.8032 121.063 56.718 121.94 58.1845C122.401 58.9561 123.784 58.7255 122.401 58.9561C121.017 59.1867 121.502 58.5423 121.94 59.4173C122.17 59.8785 123.093 59.8785 122.17 60.1091C121.248 60.3396 116.607 59.9438 116.607 59.9438C116.607 59.9438 115.022 59.1867 115.944 58.7255C116.867 58.2644 117.328 58.1736 116.867 57.9884C116.406 57.8032 115.253 57.8032 115.944 57.1114C116.636 56.4197 117.097 56.4197 116.636 56.4197C116.175 56.4197 115.656 55.3085 115.656 55.3085L116.406 40.0479Z" fill="#FFCB05"/>
<path d="M116.347 74.9568C116.909 73.2749 116.555 71.6411 115.556 71.3075C114.558 70.9739 113.293 72.0668 112.731 73.7487C112.169 75.4305 112.523 77.0644 113.522 77.398C114.52 77.7316 115.785 76.6386 116.347 74.9568Z" fill="#FFB6B6"/>
<path d="M89.1259 57.1718L87.2915 59.868L75.7747 64.9694L74.8326 62.2381L84.1794 56.0942L87.3168 53.3379L89.1259 57.1718Z" fill="#FFB6B6"/>
<path d="M97.8213 40.4487C97.8213 40.4487 100.472 41.3058 99.039 45.6157C97.6056 49.9256 91.2056 56.2601 91.2056 56.2601C91.2056 56.2601 91.2506 57.2374 90.5991 57.2674C89.9476 57.2975 90.0312 55.9051 89.6907 57.5792C89.5116 58.4601 90.6893 59.2219 89.5116 58.4601C88.3339 57.6983 89.1263 57.5488 88.8601 58.4902C88.7197 58.9863 89.4013 59.6078 88.5644 59.1567C87.7274 58.7057 84.5648 55.2862 84.5648 55.2862C84.5648 55.2862 83.9038 53.6589 84.896 53.9395C85.8883 54.2202 86.2903 54.4639 86.0743 54.0163C85.8583 53.5687 85.0063 52.7919 85.9836 52.7468C86.9609 52.7017 87.3016 53.0125 86.9609 52.7017C86.6201 52.391 86.9853 51.2202 86.9853 51.2202L97.8213 40.4487Z" fill="#FFCB05"/>
<path d="M74.2574 66.2044C75.8058 65.3402 76.645 63.8943 76.1319 62.975C75.6187 62.0556 73.9476 62.0109 72.3992 62.8751C70.8508 63.7394 70.0116 65.1852 70.5247 66.1046C71.0378 67.0239 72.709 67.0686 74.2574 66.2044Z" fill="#FFB6B6"/>
<path d="M106.752 34.0788C109.81 34.0788 112.289 31.5995 112.289 28.5411C112.289 25.4827 109.81 23.0034 106.752 23.0034C103.693 23.0034 101.214 25.4827 101.214 28.5411C101.214 31.5995 103.693 34.0788 106.752 34.0788Z" fill="#FFB6B6"/>
<path d="M102.329 24.0866C102.61 23.2875 103.392 22.8026 104.239 22.8215C104.275 22.8223 104.311 22.822 104.347 22.8205C104.773 22.8031 105.183 22.6573 105.601 22.5718C106.381 22.4125 107.203 22.4659 107.955 22.7246C108.189 22.805 108.424 22.9062 108.671 22.9062C108.918 22.9062 109.188 22.7706 109.248 22.5307C109.262 22.7479 109.277 22.9651 109.291 23.1823C109.371 23.0065 109.452 22.8307 109.532 22.6549L109.694 23.3559L110.21 22.7701C110.164 23.0283 110.314 23.2885 110.518 23.4536C110.722 23.6187 110.974 23.7101 111.215 23.8129C112.257 24.2569 113.235 25.0429 113.535 26.1347C113.725 26.8244 113.625 27.5565 113.525 28.2647C113.436 28.8909 113.339 29.5386 112.999 30.0716C112.781 30.4133 112.467 30.7008 112.334 31.0838C112.21 31.4408 112.257 31.8495 112.081 32.1838C111.904 32.5196 111.538 32.7096 111.181 32.8372C110.824 32.9648 110.444 33.0551 110.136 33.2771C109.828 33.4992 109.471 34.1388 108.8 34.1044L108.584 33.6977C108.361 33.5163 109.185 33.6601 109.194 33.373C109.202 33.0859 108.202 32.9086 108.344 32.6587C108.561 32.2757 108.855 31.9423 109.1 31.5762C109.387 31.148 109.612 30.6478 109.513 30.1253C109.475 29.922 109.38 29.73 109.235 29.5823C108.817 29.1567 108.351 29.3438 107.898 29.4046C107.586 29.4467 107.214 29.3982 107.052 29.1282C106.862 28.8124 107.073 28.4106 107.048 28.0432C107.02 27.6539 106.725 27.3347 106.404 27.1127C106.083 26.8908 105.719 26.7291 105.43 26.4666C105.141 26.204 105.187 26.3402 105.313 25.9708C103.166 27.581 103.483 24.8007 102.042 25.1483C102.11 24.7878 102.207 24.4327 102.329 24.0866Z" fill="#2F2E41"/>
<path d="M60.3967 127.962H16.6892C11.3598 127.962 7.02403 123.256 7.02403 117.472V15.5278C7.02403 9.74379 11.3598 5.03809 16.6892 5.03809H60.3967C65.7259 5.03809 70.0617 9.74379 70.0617 15.5278V117.472C70.0617 123.256 65.7259 127.962 60.3967 127.962Z" fill="#3F3D56"/>
<path d="M69.5364 42.8608C69.2467 42.8608 69.0111 43.0549 69.0111 43.2935V57.137C69.0111 57.3756 69.2467 57.5696 69.5364 57.5696C69.8261 57.5696 70.0617 57.3756 70.0617 57.137V43.2935C70.0617 43.0549 69.8261 42.8608 69.5364 42.8608Z" fill="#3F3D56"/>
<path d="M69.0111 15.5724V117.427C69.0111 122.457 65.416 126.571 60.8703 126.891H60.8683C60.8011 126.895 60.734 126.9 60.6647 126.902C60.5446 126.908 60.4245 126.911 60.3024 126.911C60.3024 126.911 59.8545 126.875 59.0362 126.809C58.2097 126.742 57.0066 126.642 55.5063 126.512C55.0564 126.474 54.5821 126.432 54.0813 126.387C53.0838 126.299 51.9886 126.201 50.814 126.09C50.3458 126.048 49.8613 126.002 49.3667 125.955C46.8383 125.718 44.0067 125.441 41.0203 125.126C40.5155 125.075 40.0066 125.022 39.4936 124.966C39.3592 124.951 39.2228 124.938 39.0864 124.922C36.9571 124.694 8.07462 118.615 8.07462 117.427V15.5724C8.07461 10.3338 11.973 6.08838 16.7833 6.08838H21.9824C22.813 6.08838 23.4807 6.79336 23.552 7.69565C23.5581 7.75551 23.5642 7.81536 23.5743 7.87522C23.725 8.78195 24.4884 9.41376 25.3352 9.41376H51.7505C52.5973 9.41376 53.3607 8.78195 53.5113 7.87522C53.5215 7.81536 53.5276 7.75551 53.5337 7.69565C53.605 6.79336 54.2727 6.08838 55.1032 6.08838H60.3024C65.1127 6.08838 69.0111 10.3338 69.0111 15.5724Z" fill="white"/>
<path d="M23.4083 62.633V63.1993H22.4762V66.1309H21.7746V63.1993H20.8425V62.633H23.4083ZM25.7242 66.1309L24.9525 64.7678H24.6217V66.1309H23.9202V62.633H25.2331C25.5037 62.633 25.7342 62.6815 25.9247 62.7783C26.1151 62.8719 26.2571 63.0005 26.3506 63.1642C26.4475 63.3246 26.4959 63.505 26.4959 63.7054C26.4959 63.9359 26.4291 64.1447 26.2955 64.3318C26.1619 64.5156 25.9631 64.6425 25.6992 64.7127L26.536 66.1309H25.7242ZM24.6217 64.2416H25.2081C25.3985 64.2416 25.5405 64.1965 25.634 64.1063C25.7276 64.0128 25.7743 63.8842 25.7743 63.7205C25.7743 63.5601 25.7276 63.4365 25.634 63.3496C25.5405 63.2594 25.3985 63.2143 25.2081 63.2143H24.6217V64.2416ZM29.2753 65.4644H27.8822L27.6517 66.1309H26.915L28.1728 62.628H28.9897L30.2475 66.1309H29.5058L29.2753 65.4644ZM29.0849 64.9031L28.5787 63.4398L28.0726 64.9031H29.0849ZM31.9404 62.633C32.3079 62.633 32.6303 62.7048 32.9076 62.8485C33.1882 62.9922 33.4037 63.1976 33.554 63.4649C33.7077 63.7288 33.7845 64.0362 33.7845 64.3869C33.7845 64.7377 33.7077 65.0451 33.554 65.309C33.4037 65.5696 33.1882 65.7717 32.9076 65.9154C32.6303 66.059 32.3079 66.1309 31.9404 66.1309H30.7176V62.633H31.9404ZM31.9153 65.5345C32.2828 65.5345 32.5668 65.4343 32.7672 65.2338C32.9677 65.0334 33.0679 64.7511 33.0679 64.3869C33.0679 64.0228 32.9677 63.7388 32.7672 63.535C32.5668 63.3279 32.2828 63.2243 31.9153 63.2243H31.4192V65.5345H31.9153ZM35.0113 63.1993V64.0763H36.1889V64.6325H35.0113V65.5596H36.3392V66.1309H34.3097V62.628H36.3392V63.1993H35.0113ZM42.8464 62.633L41.8692 66.1309H41.0423L40.3859 63.6403L39.6993 66.1309L38.8775 66.1359L37.9354 62.633H38.687L39.3034 65.3491L40.015 62.633H40.7968L41.4683 65.3341L42.0897 62.633H42.8464ZM45.4493 65.4644H44.0562L43.8256 66.1309H43.089L44.3468 62.628H45.1636L46.4215 66.1309H45.6798L45.4493 65.4644ZM45.2589 64.9031L44.7527 63.4398L44.2466 64.9031H45.2589ZM49.272 62.633V63.1993H48.3399V66.1309H47.6383V63.1993H46.7062V62.633H49.272ZM49.6135 64.3769C49.6135 64.0328 49.6903 63.7255 49.844 63.4549C50.001 63.1809 50.2131 62.9688 50.4804 62.8184C50.751 62.6648 51.0534 62.5879 51.3874 62.5879C51.7783 62.5879 52.1208 62.6881 52.4147 62.8886C52.7087 63.089 52.9142 63.3663 53.0311 63.7205H52.2243C52.1441 63.5534 52.0306 63.4281 51.8836 63.3446C51.7399 63.2611 51.5729 63.2193 51.3824 63.2193C51.1786 63.2193 50.9966 63.2678 50.8362 63.3647C50.6792 63.4582 50.5556 63.5918 50.4654 63.7656C50.3785 63.9393 50.3351 64.1431 50.3351 64.3769C50.3351 64.6074 50.3785 64.8112 50.4654 64.9883C50.5556 65.162 50.6792 65.2973 50.8362 65.3942C50.9966 65.4878 51.1786 65.5345 51.3824 65.5345C51.5729 65.5345 51.7399 65.4928 51.8836 65.4092C52.0306 65.3224 52.1441 65.1954 52.2243 65.0284H53.0311C52.9142 65.3859 52.7087 65.6648 52.4147 65.8653C52.1241 66.0624 51.7817 66.1609 51.3874 66.1609C51.0534 66.1609 50.751 66.0858 50.4804 65.9354C50.2131 65.7817 50.001 65.5696 49.844 65.299C49.6903 65.0284 49.6135 64.721 49.6135 64.3769ZM56.5319 62.633V66.1309H55.8303V64.6425H54.3319V66.1309H53.6304V62.633H54.3319V64.0712H55.8303V62.633H56.5319Z" fill="#2C3335"/>
<path d="M23.4083 62.633H23.4661V62.5752H23.4083V62.633ZM23.4083 63.1993V63.2571H23.4661V63.1993H23.4083ZM22.4762 63.1993V63.1415H22.4184V63.1993H22.4762ZM22.4762 66.1309V66.1887H22.534V66.1309H22.4762ZM21.7746 66.1309H21.7168V66.1887H21.7746V66.1309ZM21.7746 63.1993H21.8324V63.1415H21.7746V63.1993ZM20.8425 63.1993H20.7847V63.2571H20.8425V63.1993ZM20.8425 62.633V62.5752H20.7847V62.633H20.8425ZM23.3505 62.633V63.1993H23.4661V62.633H23.3505ZM23.4083 63.1415H22.4762V63.2571H23.4083V63.1415ZM22.4184 63.1993V66.1309H22.534V63.1993H22.4184ZM22.4762 66.073H21.7746V66.1887H22.4762V66.073ZM21.8324 66.1309V63.1993H21.7168V66.1309H21.8324ZM21.7746 63.1415H20.8425V63.2571H21.7746V63.1415ZM20.9003 63.1993V62.633H20.7847V63.1993H20.9003ZM20.8425 62.6908H23.4083V62.5752H20.8425V62.6908ZM25.7242 66.1309L25.6739 66.1593L25.6905 66.1887H25.7242V66.1309ZM24.9525 64.7678L25.0028 64.7393L24.9862 64.71H24.9525V64.7678ZM24.6217 64.7678V64.71H24.5639V64.7678H24.6217ZM24.6217 66.1309V66.1887H24.6796V66.1309H24.6217ZM23.9202 66.1309H23.8623V66.1887H23.9202V66.1309ZM23.9202 62.633V62.5752H23.8623V62.633H23.9202ZM25.9247 62.7783L25.8984 62.8299L25.8992 62.8302L25.9247 62.7783ZM26.3506 63.1642L26.3004 63.1929L26.3011 63.1941L26.3506 63.1642ZM26.2955 64.3318L26.3423 64.3658L26.3425 64.3654L26.2955 64.3318ZM25.6992 64.7127L25.6843 64.6568L25.6106 64.6764L25.6494 64.7421L25.6992 64.7127ZM26.536 66.1309V66.1887H26.6373L26.5858 66.1015L26.536 66.1309ZM24.6217 64.2416H24.5639V64.2994H24.6217V64.2416ZM25.634 64.1063L25.6742 64.1479L25.6749 64.1472L25.634 64.1063ZM25.634 63.3496L25.5939 63.3913L25.5947 63.392L25.634 63.3496ZM24.6217 63.2143V63.1565H24.5639V63.2143H24.6217ZM25.7745 66.1024L25.0028 64.7393L24.9022 64.7963L25.6739 66.1593L25.7745 66.1024ZM24.9525 64.71H24.6217V64.8256H24.9525V64.71ZM24.5639 64.7678V66.1309H24.6796V64.7678H24.5639ZM24.6217 66.073H23.9202V66.1887H24.6217V66.073ZM23.978 66.1309V62.633H23.8623V66.1309H23.978ZM23.9202 62.6908H25.2331V62.5752H23.9202V62.6908ZM25.2331 62.6908C25.497 62.6908 25.718 62.7381 25.8984 62.8299L25.9509 62.7268C25.7505 62.6248 25.5105 62.5752 25.2331 62.5752V62.6908ZM25.8992 62.8302C26.0806 62.9193 26.2133 63.0405 26.3004 63.1929L26.4008 63.1355C26.3008 62.9606 26.1496 62.8244 25.9502 62.7264L25.8992 62.8302ZM26.3011 63.1941C26.3922 63.3448 26.4381 63.5147 26.4381 63.7054H26.5538C26.5538 63.4952 26.5028 63.3043 26.4001 63.1343L26.3011 63.1941ZM26.4381 63.7054C26.4381 63.9239 26.3751 64.121 26.2484 64.2982L26.3425 64.3654C26.4832 64.1685 26.5538 63.948 26.5538 63.7054H26.4381ZM26.2487 64.2978C26.1244 64.4688 25.9381 64.5893 25.6843 64.6568L25.714 64.7686C25.9881 64.6957 26.1993 64.5624 26.3423 64.3658L26.2487 64.2978ZM25.6494 64.7421L26.4862 66.1602L26.5858 66.1015L25.749 64.6833L25.6494 64.7421ZM26.536 66.073H25.7242V66.1887H26.536V66.073ZM24.6217 64.2994H25.2081V64.1838H24.6217V64.2994ZM25.2081 64.2994C25.4065 64.2994 25.5657 64.2525 25.6741 64.1479L25.5939 64.0647C25.5152 64.1405 25.3904 64.1838 25.2081 64.1838V64.2994ZM25.6749 64.1472C25.7817 64.0404 25.8321 63.8956 25.8321 63.7205H25.7165C25.7165 63.8727 25.6734 63.9852 25.5931 64.0654L25.6749 64.1472ZM25.8321 63.7205C25.8321 63.5484 25.7816 63.4077 25.6734 63.3072L25.5947 63.392C25.6736 63.4652 25.7165 63.5718 25.7165 63.7205H25.8321ZM25.6741 63.308C25.5657 63.2034 25.4065 63.1565 25.2081 63.1565V63.2721C25.3904 63.2721 25.5152 63.3154 25.5939 63.3912L25.6741 63.308ZM25.2081 63.1565H24.6217V63.2721H25.2081V63.1565ZM24.5639 63.2143V64.2416H24.6796V63.2143H24.5639ZM29.2753 65.4644L29.3299 65.4455L29.3165 65.4065H29.2753V65.4644ZM27.8822 65.4644V65.4065H27.841L27.8275 65.4455L27.8822 65.4644ZM27.6517 66.1309V66.1887H27.6928L27.7063 66.1498L27.6517 66.1309ZM26.915 66.1309L26.8606 66.1113L26.8328 66.1887H26.915V66.1309ZM28.1728 62.628V62.5702H28.1322L28.1184 62.6085L28.1728 62.628ZM28.9897 62.628L29.0441 62.6085L29.0303 62.5702H28.9897V62.628ZM30.2475 66.1309V66.1887H30.3297L30.3019 66.1113L30.2475 66.1309ZM29.5058 66.1309L29.4512 66.1498L29.4646 66.1887H29.5058V66.1309ZM29.0849 64.9031V64.9609H29.1661L29.1395 64.8842L29.0849 64.9031ZM28.5787 63.4398L28.6334 63.4209L28.5787 63.2629L28.5241 63.4209L28.5787 63.4398ZM28.0726 64.9031L28.018 64.8842L27.9914 64.9609H28.0726V64.9031ZM29.2753 65.4065H27.8822V65.5222H29.2753V65.4065ZM27.8275 65.4455L27.597 66.112L27.7063 66.1498L27.9368 65.4833L27.8275 65.4455ZM27.6517 66.073H26.915V66.1887H27.6517V66.073ZM26.9694 66.1504L28.2273 62.6475L28.1184 62.6085L26.8606 66.1113L26.9694 66.1504ZM28.1728 62.6858H28.9897V62.5702H28.1728V62.6858ZM28.9352 62.6475L30.1931 66.1504L30.3019 66.1113L29.0441 62.6085L28.9352 62.6475ZM30.2475 66.073H29.5058V66.1887H30.2475V66.073ZM29.5605 66.112L29.3299 65.4455L29.2207 65.4833L29.4512 66.1498L29.5605 66.112ZM29.1395 64.8842L28.6334 63.4209L28.5241 63.4587L29.0302 64.922L29.1395 64.8842ZM28.5241 63.4209L28.018 64.8842L28.1273 64.922L28.6334 63.4587L28.5241 63.4209ZM28.0726 64.9609H29.0849V64.8453H28.0726V64.9609ZM32.9076 62.8485L32.881 62.8998L32.8812 62.9L32.9076 62.8485ZM33.554 63.4649L33.5036 63.4932L33.504 63.494L33.554 63.4649ZM33.554 65.309L33.504 65.2799L33.5039 65.2801L33.554 65.309ZM32.9076 65.9154L32.8812 65.8639L32.881 65.864L32.9076 65.9154ZM30.7176 66.1309H30.6598V66.1887H30.7176V66.1309ZM30.7176 62.633V62.5752H30.6598V62.633H30.7176ZM32.7672 65.2338L32.7264 65.193L32.7672 65.2338ZM32.7672 63.535L32.7257 63.5752L32.726 63.5756L32.7672 63.535ZM31.4192 63.2243V63.1665H31.3614V63.2243H31.4192ZM31.4192 65.5345H31.3614V65.5923H31.4192V65.5345ZM31.9404 62.6908C32.3003 62.6908 32.6132 62.7611 32.881 62.8998L32.9342 62.7972C32.6473 62.6485 32.3155 62.5752 31.9404 62.5752V62.6908ZM32.8812 62.9C33.152 63.0386 33.359 63.2362 33.5036 63.4932L33.6044 63.4365C33.4483 63.1591 33.2243 62.9457 32.9339 62.797L32.8812 62.9ZM33.504 63.494C33.6518 63.7478 33.7267 64.0448 33.7267 64.3869H33.8423C33.8423 64.0275 33.7635 63.7098 33.604 63.4358L33.504 63.494ZM33.7267 64.3869C33.7267 64.7291 33.6518 65.0261 33.504 65.2799L33.604 65.3381C33.7635 65.0641 33.8423 64.7464 33.8423 64.3869H33.7267ZM33.5039 65.2801C33.3594 65.5306 33.1524 65.7251 32.8812 65.8639L32.9339 65.9668C33.224 65.8184 33.4479 65.6086 33.6041 65.3379L33.5039 65.2801ZM32.881 65.864C32.6132 66.0027 32.3003 66.073 31.9404 66.073V66.1887C32.3155 66.1887 32.6473 66.1153 32.9342 65.9667L32.881 65.864ZM31.9404 66.073H30.7176V66.1887H31.9404V66.073ZM30.7755 66.1309V62.633H30.6598V66.1309H30.7755ZM30.7176 62.6908H31.9404V62.5752H30.7176V62.6908ZM31.9153 65.5923C32.2934 65.5923 32.5939 65.489 32.8081 65.2747L32.7264 65.193C32.5397 65.3796 32.2722 65.4767 31.9153 65.4767V65.5923ZM32.8081 65.2747C33.0223 65.0606 33.1257 64.7619 33.1257 64.3869H33.0101C33.0101 64.7403 32.9131 65.0062 32.7264 65.193L32.8081 65.2747ZM33.1257 64.3869C33.1257 64.012 33.0223 63.7118 32.8085 63.4945L32.726 63.5756C32.9131 63.7658 33.0101 64.0336 33.0101 64.3869H33.1257ZM32.8088 63.4948C32.5946 63.2735 32.2939 63.1665 31.9153 63.1665V63.2822C32.2717 63.2822 32.5389 63.3823 32.7257 63.5752L32.8088 63.4948ZM31.9153 63.1665H31.4192V63.2822H31.9153V63.1665ZM31.3614 63.2243V65.5345H31.477V63.2243H31.3614ZM31.4192 65.5923H31.9153V65.4767H31.4192V65.5923ZM35.0113 63.1993V63.1415H34.9534V63.1993H35.0113ZM35.0113 64.0763H34.9534V64.1341H35.0113V64.0763ZM36.1889 64.0763H36.2467V64.0184H36.1889V64.0763ZM36.1889 64.6325V64.6903H36.2467V64.6325H36.1889ZM35.0113 64.6325V64.5747H34.9534V64.6325H35.0113ZM35.0113 65.5596H34.9534V65.6174H35.0113V65.5596ZM36.3392 65.5596H36.3971V65.5018H36.3392V65.5596ZM36.3392 66.1309V66.1887H36.3971V66.1309H36.3392ZM34.3097 66.1309H34.2519V66.1887H34.3097V66.1309ZM34.3097 62.628V62.5702H34.2519V62.628H34.3097ZM36.3392 62.628H36.3971V62.5702H36.3392V62.628ZM36.3392 63.1993V63.2571H36.3971V63.1993H36.3392ZM34.9534 63.1993V64.0763H35.0691V63.1993H34.9534ZM35.0113 64.1341H36.1889V64.0184H35.0113V64.1341ZM36.1311 64.0763V64.6325H36.2467V64.0763H36.1311ZM36.1889 64.5747H35.0113V64.6903H36.1889V64.5747ZM34.9534 64.6325V65.5596H35.0691V64.6325H34.9534ZM35.0113 65.6174H36.3392V65.5018H35.0113V65.6174ZM36.2814 65.5596V66.1309H36.3971V65.5596H36.2814ZM36.3392 66.073H34.3097V66.1887H36.3392V66.073ZM34.3675 66.1309V62.628H34.2519V66.1309H34.3675ZM34.3097 62.6858H36.3392V62.5702H34.3097V62.6858ZM36.2814 62.628V63.1993H36.3971V62.628H36.2814ZM36.3392 63.1415H35.0113V63.2571H36.3392V63.1415ZM42.8464 62.633L42.9021 62.6486L42.9226 62.5752H42.8464V62.633ZM41.8692 66.1309V66.1887H41.9131L41.9249 66.1464L41.8692 66.1309ZM41.0423 66.1309L40.9864 66.1456L40.9978 66.1887H41.0423V66.1309ZM40.3859 63.6403L40.4418 63.6255L40.3871 63.4182L40.3301 63.6249L40.3859 63.6403ZM39.6993 66.1309L39.6997 66.1887L39.7434 66.1884L39.7551 66.1462L39.6993 66.1309ZM38.8775 66.1359L38.8216 66.1509L38.8332 66.194L38.8778 66.1937L38.8775 66.1359ZM37.9354 62.633V62.5752H37.8599L37.8795 62.648L37.9354 62.633ZM38.687 62.633L38.7434 62.6202L38.7332 62.5752H38.687V62.633ZM39.3034 65.3491L39.247 65.3619L39.3594 65.3638L39.3034 65.3491ZM40.015 62.633V62.5752H39.9704L39.9591 62.6184L40.015 62.633ZM40.7968 62.633L40.8529 62.6191L40.842 62.5752H40.7968V62.633ZM41.4683 65.3341L41.4122 65.348L41.5246 65.347L41.4683 65.3341ZM42.0897 62.633V62.5752H42.0436L42.0333 62.62L42.0897 62.633ZM42.7907 62.6175L41.8135 66.1153L41.9249 66.1464L42.9021 62.6486L42.7907 62.6175ZM41.8692 66.073H41.0423V66.1887H41.8692V66.073ZM41.0982 66.1161L40.4418 63.6255L40.3299 63.655L40.9864 66.1456L41.0982 66.1161ZM40.3301 63.6249L39.6436 66.1155L39.7551 66.1462L40.4416 63.6556L40.3301 63.6249ZM39.699 66.073L38.8771 66.078L38.8778 66.1937L39.6997 66.1887L39.699 66.073ZM38.9333 66.1209L37.9912 62.618L37.8795 62.648L38.8216 66.1509L38.9333 66.1209ZM37.9354 62.6908H38.687V62.5752H37.9354V62.6908ZM38.6307 62.6458L39.247 65.3619L39.3598 65.3363L38.7434 62.6202L38.6307 62.6458ZM39.3594 65.3638L40.071 62.6477L39.9591 62.6184L39.2475 65.3345L39.3594 65.3638ZM40.015 62.6908H40.7968V62.5752H40.015V62.6908ZM40.7407 62.647L41.4122 65.348L41.5244 65.3201L40.8529 62.6191L40.7407 62.647ZM41.5246 65.347L42.146 62.646L42.0333 62.62L41.4119 65.3211L41.5246 65.347ZM42.0897 62.6908H42.8464V62.5752H42.0897V62.6908ZM45.4493 65.4644L45.5039 65.4455L45.4905 65.4065H45.4493V65.4644ZM44.0562 65.4644V65.4065H44.015L44.0015 65.4455L44.0562 65.4644ZM43.8256 66.1309V66.1887H43.8668L43.8803 66.1498L43.8256 66.1309ZM43.089 66.1309L43.0346 66.1113L43.0068 66.1887H43.089V66.1309ZM44.3468 62.628V62.5702H44.3061L44.2924 62.6085L44.3468 62.628ZM45.1636 62.628L45.2181 62.6085L45.2043 62.5702H45.1636V62.628ZM46.4215 66.1309V66.1887H46.5037L46.4759 66.1113L46.4215 66.1309ZM45.6798 66.1309L45.6252 66.1498L45.6386 66.1887H45.6798V66.1309ZM45.2589 64.9031V64.9609H45.34L45.3135 64.8842L45.2589 64.9031ZM44.7527 63.4398L44.8074 63.4209L44.7527 63.2629L44.6981 63.4209L44.7527 63.4398ZM44.2466 64.9031L44.1919 64.8842L44.1654 64.9609H44.2466V64.9031ZM45.4493 65.4065H44.0562V65.5222H45.4493V65.4065ZM44.0015 65.4455L43.771 66.112L43.8803 66.1498L44.1108 65.4833L44.0015 65.4455ZM43.8256 66.073H43.089V66.1887H43.8256V66.073ZM43.1434 66.1504L44.4012 62.6475L44.2924 62.6085L43.0346 66.1113L43.1434 66.1504ZM44.3468 62.6858H45.1636V62.5702H44.3468V62.6858ZM45.1092 62.6475L46.367 66.1504L46.4759 66.1113L45.2181 62.6085L45.1092 62.6475ZM46.4215 66.073H45.6798V66.1887H46.4215V66.073ZM45.7344 66.112L45.5039 65.4455L45.3946 65.4833L45.6252 66.1498L45.7344 66.112ZM45.3135 64.8842L44.8074 63.4209L44.6981 63.4587L45.2042 64.922L45.3135 64.8842ZM44.6981 63.4209L44.1919 64.8842L44.3012 64.922L44.8074 63.4587L44.6981 63.4209ZM44.2466 64.9609H45.2589V64.8453H44.2466V64.9609ZM49.272 62.633H49.3298V62.5752H49.272V62.633ZM49.272 63.1993V63.2571H49.3298V63.1993H49.272ZM48.3399 63.1993V63.1415H48.282V63.1993H48.3399ZM48.3399 66.1309V66.1887H48.3977V66.1309H48.3399ZM47.6383 66.1309H47.5805V66.1887H47.6383V66.1309ZM47.6383 63.1993H47.6961V63.1415H47.6383V63.1993ZM46.7062 63.1993H46.6484V63.2571H46.7062V63.1993ZM46.7062 62.633V62.5752H46.6484V62.633H46.7062ZM49.2141 62.633V63.1993H49.3298V62.633H49.2141ZM49.272 63.1415H48.3399V63.2571H49.272V63.1415ZM48.282 63.1993V66.1309H48.3977V63.1993H48.282ZM48.3399 66.073H47.6383V66.1887H48.3399V66.073ZM47.6961 66.1309V63.1993H47.5805V66.1309H47.6961ZM47.6383 63.1415H46.7062V63.2571H47.6383V63.1415ZM46.764 63.1993V62.633H46.6484V63.1993H46.764ZM46.7062 62.6908H49.272V62.5752H46.7062V62.6908ZM49.844 63.4549L49.7938 63.4261L49.7937 63.4263L49.844 63.4549ZM50.4804 62.8184L50.5088 62.8688L50.509 62.8687L50.4804 62.8184ZM53.0311 63.7205V63.7783H53.1111L53.086 63.7023L53.0311 63.7205ZM52.2243 63.7205L52.1722 63.7455L52.1879 63.7783H52.2243V63.7205ZM51.8836 63.3446L51.8545 63.3946L51.855 63.3949L51.8836 63.3446ZM50.8362 63.3647L50.8658 63.4143L50.8661 63.4141L50.8362 63.3647ZM50.4654 63.7656L50.4141 63.7389L50.4137 63.7397L50.4654 63.7656ZM50.4654 64.9883L50.4135 65.0138L50.4141 65.0149L50.4654 64.9883ZM50.8362 65.3942L50.8058 65.4434L50.8071 65.4442L50.8362 65.3942ZM51.8836 65.4092L51.9126 65.4592L51.913 65.459L51.8836 65.4092ZM52.2243 65.0284V64.9706H52.1879L52.1722 65.0034L52.2243 65.0284ZM53.0311 65.0284L53.0861 65.0464L53.1109 64.9706H53.0311V65.0284ZM52.4147 65.8653L52.4472 65.9131L52.4473 65.913L52.4147 65.8653ZM50.4804 65.9354L50.4516 65.9856L50.4523 65.986L50.4804 65.9354ZM49.844 65.299L49.7937 65.3275L49.794 65.328L49.844 65.299ZM49.6713 64.3769C49.6713 64.0417 49.746 63.7444 49.8943 63.4834L49.7937 63.4263C49.6346 63.7065 49.5556 64.0239 49.5556 64.3769H49.6713ZM49.8941 63.4836C50.0461 63.2184 50.2509 63.0139 50.5088 62.8688L50.4521 62.768C50.1754 62.9236 49.9559 63.1434 49.7938 63.4261L49.8941 63.4836ZM50.509 62.8687C50.7702 62.7203 51.0626 62.6457 51.3874 62.6457V62.5301C51.0441 62.5301 50.7318 62.6092 50.4519 62.7681L50.509 62.8687ZM51.3874 62.6457C51.7679 62.6457 52.0987 62.7431 52.3822 62.9364L52.4473 62.8408C52.1428 62.6332 51.7887 62.5301 51.3874 62.5301V62.6457ZM52.3822 62.9364C52.6651 63.1293 52.8631 63.3959 52.9762 63.7386L53.086 63.7023C52.9653 63.3367 52.7523 63.0488 52.4473 62.8408L52.3822 62.9364ZM53.0311 63.6626H52.2243V63.7783H53.0311V63.6626ZM52.2765 63.6954C52.1917 63.5188 52.0703 63.3842 51.9121 63.2943L51.855 63.3949C51.9908 63.472 52.0966 63.588 52.1722 63.7455L52.2765 63.6954ZM51.9126 63.2946C51.7589 63.2053 51.5816 63.1615 51.3824 63.1615V63.2771C51.5642 63.2771 51.7209 63.3169 51.8545 63.3946L51.9126 63.2946ZM51.3824 63.1615C51.1691 63.1615 50.9765 63.2124 50.8063 63.3152L50.8661 63.4141C51.0167 63.3232 51.1882 63.2771 51.3824 63.2771V63.1615ZM50.8066 63.315C50.6397 63.4144 50.5089 63.5563 50.4141 63.7389L50.5167 63.7922C50.6023 63.6273 50.7187 63.502 50.8658 63.4143L50.8066 63.315ZM50.4137 63.7397C50.322 63.9229 50.2773 64.1359 50.2773 64.3769H50.3929C50.3929 64.1502 50.435 63.9556 50.5171 63.7914L50.4137 63.7397ZM50.2773 64.3769C50.2773 64.6148 50.3221 64.8275 50.4135 65.0138L50.5173 64.9628C50.4349 64.7949 50.3929 64.6001 50.3929 64.3769H50.2773ZM50.4141 65.0149C50.5088 65.1974 50.6394 65.3407 50.8058 65.4434L50.8666 65.345C50.719 65.2539 50.6024 65.1267 50.5167 64.9617L50.4141 65.0149ZM50.8071 65.4442C50.9771 65.5433 51.1694 65.5923 51.3824 65.5923V65.4767C51.1879 65.4767 51.016 65.4322 50.8653 65.3443L50.8071 65.4442ZM51.3824 65.5923C51.5816 65.5923 51.7589 65.5486 51.9126 65.4592L51.8545 65.3593C51.7209 65.4369 51.5642 65.4767 51.3824 65.4767V65.5923ZM51.913 65.459C52.0707 65.3658 52.1918 65.2298 52.2765 65.0534L52.1722 65.0034C52.0965 65.161 51.9904 65.2789 51.8541 65.3595L51.913 65.459ZM52.2243 65.0862H53.0311V64.9706H52.2243V65.0862ZM52.9762 65.0104C52.863 65.3565 52.665 65.6247 52.3822 65.8175L52.4473 65.913C52.7525 65.705 52.9654 65.4152 53.0861 65.0464L52.9762 65.0104ZM52.3823 65.8174C52.1024 66.0072 51.7716 66.1031 51.3874 66.1031V66.2187C51.7918 66.2187 52.1458 66.1175 52.4472 65.9131L52.3823 65.8174ZM51.3874 66.1031C51.0624 66.1031 50.7698 66.0301 50.5085 65.8849L50.4523 65.986C50.7322 66.1415 51.0443 66.2187 51.3874 66.2187V66.1031ZM50.5092 65.8853C50.2509 65.7368 50.046 65.5319 49.894 65.27L49.794 65.328C49.956 65.6073 50.1754 65.8267 50.4516 65.9855L50.5092 65.8853ZM49.8943 65.2704C49.746 65.0094 49.6713 64.7121 49.6713 64.3769H49.5556C49.5556 64.73 49.6346 65.0473 49.7937 65.3275L49.8943 65.2704ZM56.5319 62.633H56.5897V62.5752H56.5319V62.633ZM56.5319 66.1309V66.1887H56.5897V66.1309H56.5319ZM55.8303 66.1309H55.7725V66.1887H55.8303V66.1309ZM55.8303 64.6425H55.8881V64.5847H55.8303V64.6425ZM54.3319 64.6425V64.5847H54.2741V64.6425H54.3319ZM54.3319 66.1309V66.1887H54.3898V66.1309H54.3319ZM53.6304 66.1309H53.5725V66.1887H53.6304V66.1309ZM53.6304 62.633V62.5752H53.5725V62.633H53.6304ZM54.3319 62.633H54.3898V62.5752H54.3319V62.633ZM54.3319 64.0712H54.2741V64.1291H54.3319V64.0712ZM55.8303 64.0712V64.1291H55.8881V64.0712H55.8303ZM55.8303 62.633V62.5752H55.7725V62.633H55.8303ZM56.4741 62.633V66.1309H56.5897V62.633H56.4741ZM56.5319 66.073H55.8303V66.1887H56.5319V66.073ZM55.8881 66.1309V64.6425H55.7725V66.1309H55.8881ZM55.8303 64.5847H54.3319V64.7003H55.8303V64.5847ZM54.2741 64.6425V66.1309H54.3898V64.6425H54.2741ZM54.3319 66.073H53.6304V66.1887H54.3319V66.073ZM53.6882 66.1309V62.633H53.5725V66.1309H53.6882ZM53.6304 62.6908H54.3319V62.5752H53.6304V62.6908ZM54.2741 62.633V64.0712H54.3898V62.633H54.2741ZM54.3319 64.1291H55.8303V64.0134H54.3319V64.1291ZM55.8881 64.0712V62.633H55.7725V64.0712H55.8881ZM55.8303 62.6908H56.5319V62.5752H55.8303V62.6908Z" fill="#111111"/>
<path d="M6.97059 31.8359C6.7263 31.8359 6.52765 32.0346 6.52765 32.2789V35.8224C6.52765 36.0667 6.7263 36.2653 6.97059 36.2653C7.21487 36.2653 7.41353 36.0667 7.41353 35.8224V32.2789C7.41353 32.0346 7.21487 31.8359 6.97059 31.8359Z" fill="#3F3D56"/>
<path d="M6.97059 42.4663C6.7263 42.4663 6.52765 42.665 6.52765 42.9092V49.7748C6.52765 50.0191 6.7263 50.2178 6.97059 50.2178C7.21487 50.2178 7.41353 50.0191 7.41353 49.7748V42.9092C7.41353 42.665 7.21487 42.4663 6.97059 42.4663Z" fill="#3F3D56"/>
<path d="M6.97059 52.2109C6.7263 52.2109 6.52765 52.4096 6.52765 52.6539V59.5194C6.52765 59.7637 6.7263 59.9624 6.97059 59.9624C7.21487 59.9624 7.41353 59.7637 7.41353 59.5194V52.6539C7.41353 52.4096 7.21487 52.2109 6.97059 52.2109Z" fill="#3F3D56"/>
<path d="M21.8819 7.58496H13.4111C13.3651 7.58496 13.3278 7.62223 13.3278 7.66821V8.60906C13.3278 8.65504 13.3651 8.69231 13.4111 8.69231H21.8819C21.9279 8.69231 21.9651 8.65504 21.9651 8.60906V7.66821C21.9651 7.62223 21.9279 7.58496 21.8819 7.58496Z" fill="#E6E6E6"/>
<path d="M57.2894 8.69217C57.7786 8.69217 58.1753 8.29555 58.1753 7.80629C58.1753 7.31703 57.7786 6.92041 57.2894 6.92041C56.8001 6.92041 56.4035 7.31703 56.4035 7.80629C56.4035 8.29555 56.8001 8.69217 57.2894 8.69217Z" fill="#E6E6E6"/>
<path d="M59.7255 8.69217C60.2148 8.69217 60.6114 8.29555 60.6114 7.80629C60.6114 7.31703 60.2148 6.92041 59.7255 6.92041C59.2363 6.92041 58.8396 7.31703 58.8396 7.80629C58.8396 8.29555 59.2363 8.69217 59.7255 8.69217Z" fill="#E6E6E6"/>
<path d="M62.1617 8.69217C62.651 8.69217 63.0476 8.29555 63.0476 7.80629C63.0476 7.31703 62.651 6.92041 62.1617 6.92041C61.6725 6.92041 61.2758 7.31703 61.2758 7.80629C61.2758 8.29555 61.6725 8.69217 62.1617 8.69217Z" fill="#E6E6E6"/>
<path d="M42.5611 40.417C42.5611 40.1932 42.7426 40.0117 42.9664 40.0117H43.6335C43.8574 40.0117 44.0388 40.1932 44.0388 40.417V52.4171C44.0388 52.5304 43.9914 52.6386 43.908 52.7153L43.2409 53.3294C42.9811 53.5685 42.5611 53.3843 42.5611 53.0312V40.417Z" fill="#0EA102"/>
<path d="M39.7181 45.0391C39.7181 44.8152 39.8995 44.6338 40.1233 44.6338H40.7905C41.0143 44.6338 41.1958 44.8152 41.1958 45.0391V54.3239C41.1958 54.5139 41.0639 54.6783 40.8785 54.7196L40.2113 54.8679C39.9582 54.9242 39.7181 54.7316 39.7181 54.4723V45.0391Z" fill="#7EBA00"/>
<path d="M36.8748 47.8433C36.8748 47.6194 37.0562 47.438 37.2801 47.438H37.9472C38.1711 47.438 38.3525 47.6194 38.3525 47.8433V54.5435C38.3525 54.7919 38.1311 54.9819 37.8856 54.9441L37.2184 54.8415C37.0207 54.811 36.8748 54.6409 36.8748 54.4409V47.8433Z" fill="#E6CF00"/>
<path d="M34.2247 49.813C34.2247 49.5892 34.4062 49.4077 34.63 49.4077H35.2971C35.521 49.4077 35.7024 49.5892 35.7024 49.813V53.2662C35.7024 53.6054 35.3105 53.7945 35.045 53.5834L34.3778 53.0531C34.2811 52.9763 34.2247 52.8594 34.2247 52.7359V49.813Z" fill="#EE6F00"/>
<path d="M37.5424 49.069L34.8865 51.2676C34.5195 51.5714 34.9022 52.1456 35.3238 51.9239L37.713 50.6677L39.205 51.9973C39.3733 52.1473 39.6326 52.127 39.7754 51.9527L46.4695 43.7841L46.4747 43.7875L46.5838 43.6186L46.4747 43.7875C46.7189 43.9451 47.044 43.7952 47.0827 43.5072L47.272 42.0981C47.3127 41.795 47.0094 41.5619 46.727 41.6792L45.3496 42.2514C45.084 42.3617 45.0205 42.7092 45.23 42.9062L45.2425 42.918L39.3185 50.2701L38.0677 49.0865C37.9222 48.9488 37.6968 48.9413 37.5424 49.069Z" fill="black" stroke="white" stroke-width="0.401998"/>
<path d="M46.5297 47.2176C46.7814 48.8564 46.4821 50.5338 45.6774 51.9938C44.8727 53.4538 43.6068 54.6164 42.0728 55.304C40.5389 55.9916 38.8211 56.1666 37.1816 55.8022C35.5422 55.4378 34.071 54.5541 32.9926 53.2859C31.9142 52.0177 31.2878 50.4346 31.209 48.7782C31.1302 47.1218 31.6033 45.4831 32.5561 44.112C33.5089 42.7409 34.8891 41.7129 36.4861 41.1846C38.0832 40.6563 39.8093 40.6569 41.4011 41.1863" stroke="black" stroke-width="1.13669" stroke-linecap="round"/>
</g>
<path d="M247.537 84C246.66 83.9965 245.808 83.7142 245.103 83.194L239.237 78.9324C238.75 78.577 238.163 78.3855 237.561 78.3855C236.958 78.3855 236.371 78.577 235.884 78.9324L230.018 83.194C229.311 83.708 228.459 83.9848 227.585 83.9848C226.71 83.9848 225.858 83.7081 225.151 83.1941C224.443 82.6802 223.917 81.9556 223.646 81.124C223.376 80.2924 223.376 79.3966 223.646 78.5649L225.887 71.6695C226.074 71.0966 226.075 70.4791 225.889 69.9059C225.702 69.3328 225.339 68.8335 224.851 68.48L218.985 64.2184C218.278 63.7044 217.751 62.9796 217.481 62.148C217.211 61.3164 217.211 60.4205 217.481 59.5889C217.751 58.7573 218.278 58.0326 218.985 57.5186C219.693 57.0046 220.545 56.7278 221.419 56.7278H228.669C229.272 56.7289 229.859 56.5386 230.347 56.1844C230.834 55.8303 231.197 55.3305 231.382 54.7571L233.623 47.8616C233.893 47.0299 234.419 46.305 235.127 45.791C235.834 45.2769 236.686 45 237.561 45C238.435 45 239.287 45.2769 239.995 45.791C240.702 46.305 241.229 47.0299 241.499 47.8616L243.739 54.7571C243.924 55.3305 244.287 55.8303 244.774 56.1845C245.262 56.5386 245.849 56.7289 246.452 56.7278H253.702C254.577 56.7278 255.429 57.0046 256.136 57.5186C256.844 58.0326 257.37 58.7573 257.64 59.5889C257.911 60.4205 257.911 61.3164 257.64 62.148C257.37 62.9796 256.844 63.7044 256.136 64.2184L250.271 68.48C249.782 68.8334 249.419 69.3326 249.233 69.9059C249.046 70.4791 249.047 71.0966 249.234 71.6695L251.475 78.5649C251.755 79.3957 251.76 80.2947 251.489 81.1285C251.218 81.9623 250.686 82.6866 249.971 83.194C249.265 83.7142 248.413 83.9965 247.537 84Z" fill="#0EA102"/>
<path d="M204.704 78.9677C204.054 78.9651 203.422 78.7557 202.898 78.3697L198.546 75.2079C198.185 74.9442 197.75 74.8021 197.303 74.8021C196.855 74.8021 196.42 74.9442 196.059 75.2079L191.707 78.3697C191.182 78.751 190.55 78.9564 189.901 78.9564C189.252 78.9565 188.62 78.7511 188.095 78.3698C187.57 77.9885 187.18 77.4509 186.979 76.8339C186.779 76.2169 186.779 75.5523 186.979 74.9352L188.641 69.8193C188.78 69.3943 188.781 68.9361 188.643 68.5108C188.504 68.0856 188.235 67.7151 187.873 67.4529L183.521 64.2911C182.996 63.9097 182.605 63.372 182.405 62.7549C182.204 62.1379 182.204 61.4733 182.405 60.8563C182.605 60.2392 182.996 59.7016 183.521 59.3202C184.046 58.9389 184.678 58.7335 185.327 58.7335H190.706C191.153 58.7343 191.589 58.5931 191.95 58.3304C192.312 58.0676 192.581 57.6968 192.718 57.2714L194.381 52.1554C194.581 51.5383 194.972 51.0005 195.497 50.6191C196.022 50.2377 196.654 50.0322 197.303 50.0322C197.951 50.0322 198.584 50.2377 199.109 50.6191C199.633 51.0005 200.024 51.5383 200.225 52.1554L201.887 57.2714C202.024 57.6968 202.293 58.0676 202.655 58.3304C203.017 58.5931 203.452 58.7343 203.899 58.7335H209.279C209.927 58.7335 210.56 58.9389 211.084 59.3202C211.609 59.7016 212 60.2393 212.2 60.8563C212.401 61.4733 212.401 62.1379 212.201 62.7549C212 63.372 211.609 63.9097 211.085 64.2911L206.733 67.4529C206.37 67.7151 206.101 68.0855 205.962 68.5108C205.824 68.9361 205.825 69.3942 205.964 69.8193L207.626 74.9352C207.834 75.5516 207.838 76.2186 207.636 76.8372C207.435 77.4559 207.04 77.9932 206.51 78.3697C205.987 78.7556 205.354 78.9651 204.704 78.9677Z" fill="#0EA102"/>
<path d="M285.018 78.9677C284.368 78.9651 283.736 78.7557 283.212 78.3697L278.86 75.2079C278.499 74.9442 278.064 74.8021 277.617 74.8021C277.17 74.8021 276.734 74.9442 276.373 75.2079L272.021 78.3697C271.496 78.751 270.864 78.9564 270.215 78.9564C269.567 78.9565 268.934 78.7511 268.41 78.3698C267.885 77.9885 267.494 77.4509 267.293 76.8339C267.093 76.2169 267.093 75.5523 267.293 74.9352L268.956 69.8193C269.095 69.3943 269.095 68.9361 268.957 68.5108C268.819 68.0856 268.549 67.7151 268.187 67.4529L263.835 64.2911C263.31 63.9097 262.919 63.372 262.719 62.7549C262.519 62.1379 262.519 61.4733 262.719 60.8563C262.92 60.2392 263.31 59.7016 263.835 59.3202C264.36 58.9389 264.992 58.7335 265.641 58.7335H271.02C271.467 58.7343 271.903 58.5931 272.265 58.3304C272.626 58.0676 272.895 57.6968 273.033 57.2714L274.695 52.1554C274.895 51.5383 275.286 51.0005 275.811 50.6191C276.336 50.2377 276.968 50.0322 277.617 50.0322C278.266 50.0322 278.898 50.2377 279.423 50.6191C279.948 51.0005 280.338 51.5383 280.539 52.1554L282.201 57.2714C282.338 57.6968 282.607 58.0676 282.969 58.3304C283.331 58.5931 283.767 58.7343 284.214 58.7335H289.593C290.242 58.7335 290.874 58.9389 291.399 59.3202C291.923 59.7016 292.314 60.2393 292.515 60.8563C292.715 61.4733 292.715 62.1379 292.515 62.7549C292.314 63.372 291.924 63.9097 291.399 64.2911L287.047 67.4529C286.685 67.7151 286.415 68.0855 286.277 68.5108C286.139 68.9361 286.139 69.3942 286.278 69.8193L287.94 74.9352C288.148 75.5516 288.152 76.2186 287.951 76.8372C287.75 77.4559 287.355 77.9932 286.824 78.3697C286.301 78.7556 285.669 78.9651 285.018 78.9677Z" fill="#0EA102"/>
<path d="M167.989 76.4516C167.452 76.4494 166.93 76.2764 166.498 75.9576L162.902 73.3456C162.604 73.1278 162.244 73.0104 161.875 73.0104C161.506 73.0104 161.146 73.1278 160.847 73.3456L157.252 75.9576C156.819 76.2726 156.297 76.4422 155.761 76.4423C155.225 76.4423 154.703 76.2726 154.269 75.9577C153.835 75.6427 153.513 75.1985 153.347 74.6888C153.181 74.1792 153.181 73.6301 153.347 73.1204L154.72 68.8941C154.835 68.5431 154.835 68.1646 154.721 67.8133C154.607 67.462 154.384 67.1559 154.085 66.9393L150.49 64.3274C150.056 64.0123 149.734 63.5681 149.568 63.0584C149.402 62.5487 149.403 61.9996 149.568 61.4899C149.734 60.9802 150.057 60.536 150.49 60.221C150.924 59.906 151.446 59.7363 151.982 59.7363H156.426C156.795 59.737 157.155 59.6204 157.454 59.4033C157.752 59.1863 157.975 58.8799 158.088 58.5285L159.461 54.3023C159.627 53.7925 159.95 53.3482 160.383 53.0331C160.817 52.718 161.339 52.5483 161.875 52.5483C162.411 52.5483 162.933 52.718 163.367 53.0331C163.8 53.3482 164.123 53.7925 164.289 54.3023L165.662 58.5285C165.775 58.8799 165.998 59.1863 166.296 59.4033C166.595 59.6204 166.955 59.737 167.325 59.7363H171.768C172.304 59.7363 172.826 59.906 173.26 60.221C173.694 60.536 174.016 60.9802 174.182 61.4899C174.348 61.9996 174.348 62.5487 174.182 63.0584C174.016 63.5681 173.694 64.0123 173.26 64.3274L169.665 66.9393C169.366 67.1559 169.143 67.4619 169.029 67.8132C168.915 68.1645 168.915 68.543 169.03 68.8941L170.403 73.1204C170.575 73.6296 170.578 74.1806 170.412 74.6916C170.246 75.2026 169.919 75.6466 169.481 75.9576C169.049 76.2764 168.526 76.4494 167.989 76.4516Z" fill="#0EA102"/>
<path d="M315.082 76.4516C314.545 76.4494 314.022 76.2764 313.59 75.9576L309.995 73.3456C309.697 73.1278 309.337 73.0104 308.967 73.0104C308.598 73.0104 308.238 73.1278 307.94 73.3456L304.345 75.9576C303.911 76.2726 303.389 76.4422 302.853 76.4423C302.317 76.4423 301.795 76.2726 301.361 75.9577C300.928 75.6427 300.605 75.1985 300.439 74.6888C300.274 74.1792 300.274 73.6301 300.439 73.1204L301.813 68.8941C301.927 68.5431 301.928 68.1646 301.814 67.8133C301.7 67.462 301.477 67.1559 301.178 66.9393L297.582 64.3274C297.149 64.0123 296.826 63.5681 296.661 63.0584C296.495 62.5487 296.495 61.9996 296.661 61.4899C296.826 60.9802 297.149 60.536 297.583 60.221C298.016 59.906 298.538 59.7363 299.074 59.7363H303.518C303.887 59.737 304.247 59.6204 304.546 59.4033C304.845 59.1863 305.067 58.8799 305.181 58.5285L306.554 54.3023C306.719 53.7925 307.042 53.3482 307.476 53.0331C307.909 52.718 308.432 52.5483 308.968 52.5483C309.504 52.5483 310.026 52.718 310.459 53.0331C310.893 53.3482 311.216 53.7925 311.381 54.3023L312.754 58.5285C312.868 58.8799 313.09 59.1863 313.389 59.4033C313.688 59.6204 314.048 59.737 314.417 59.7363H318.861C319.397 59.7363 319.919 59.906 320.352 60.221C320.786 60.536 321.109 60.9802 321.274 61.4899C321.44 61.9996 321.44 62.5487 321.274 63.0584C321.109 63.5681 320.786 64.0123 320.353 64.3274L316.758 66.9393C316.458 67.1559 316.235 67.4619 316.121 67.8132C316.007 68.1645 316.008 68.543 316.122 68.8941L317.496 73.1204C317.667 73.6296 317.67 74.1806 317.504 74.6916C317.338 75.2026 317.012 75.6466 316.574 75.9576C316.141 76.2764 315.619 76.4494 315.082 76.4516Z" fill="#0EA102"/>
<defs>
<filter id="filter0_d_272_51" x="0.100276" y="0.217556" width="129.327" height="135.778" filterUnits="userSpaceOnUse" color-interpolation-filters="sRGB">
<feFlood flood-opacity="0" result="BackgroundImageFix"/>
<feColorMatrix in="SourceAlpha" type="matrix" values="0 0 0 0 0 0 0 0 0 0 0 0 0 0 0 0 0 0 127 0" result="hardAlpha"/>
<feOffset dy="1.60684"/>
<feGaussianBlur stdDeviation="3.21369"/>
<feComposite in2="hardAlpha" operator="out"/>
<feColorMatrix type="matrix" values="0 0 0 0 0 0 0 0 0 0 0 0 0 0 0 0 0 0 0.1 0"/>
<feBlend mode="normal" in2="BackgroundImageFix" result="effect1_dropShadow_272_51"/>
<feBlend mode="normal" in="SourceGraphic" in2="effect1_dropShadow_272_51" result="shape"/>
</filter>
</defs>
</svg>
