<svg width="34" height="26" viewBox="0 0 34 26" fill="none" xmlns="http://www.w3.org/2000/svg">
<g id="Frame 13753">
<g id="Group 14513">
<ellipse id="Ellipse 20" cx="8.5" cy="15.5" rx="4.5" ry="5.5" fill="#0EA102"/>
<ellipse id="Ellipse 21" cx="26" cy="15.5" rx="5" ry="5.5" fill="#0EA102"/>
<g id="Market Watch">
<path id="Vector" d="M8.45421 22.1601C7.35618 22.1601 6.28281 21.7853 5.36982 21.0831C4.45682 20.3809 3.74522 19.3827 3.325 18.2149C2.90478 17.0471 2.79481 15.7621 3.00899 14.5223C3.22318 13.2826 3.7519 12.1438 4.52831 11.25C5.30471 10.3561 6.29392 9.7474 7.37084 9.50077C8.44776 9.25413 9.56403 9.38067 10.5785 9.86436C11.5929 10.3481 12.46 11.1672 13.0701 12.2182C13.6801 13.2692 14.0058 14.5048 14.0058 15.7688C14.0042 17.4633 13.4188 19.0878 12.378 20.286C11.3372 21.4841 9.92611 22.1581 8.45421 22.1601ZM8.45421 10.7002C7.58335 10.7002 6.73203 10.9974 6.00793 11.5544C5.28382 12.1113 4.71944 12.903 4.38616 13.8292C4.05288 14.7554 3.96568 15.7746 4.13557 16.7578C4.30546 17.7411 4.72481 18.6443 5.34061 19.3532C5.9564 20.0621 6.74097 20.5448 7.5951 20.7404C8.44923 20.936 9.33456 20.8356 10.1391 20.4519C10.9437 20.0683 11.6314 19.4186 12.1152 18.585C12.599 17.7514 12.8572 16.7714 12.8572 15.7688C12.8559 14.425 12.3916 13.1366 11.5662 12.1864C10.7407 11.2362 9.62155 10.7017 8.45421 10.7002Z" fill="#1D9312"/>
<path id="Vector_2" d="M25.8746 22.1601C24.7766 22.1601 23.7032 21.7852 22.7903 21.0829C21.8773 20.3807 21.1658 19.3825 20.7456 18.2147C20.3254 17.0469 20.2155 15.7619 20.4297 14.5221C20.6439 13.2824 21.1726 12.1436 21.9491 11.2498C22.7255 10.356 23.7147 9.74735 24.7916 9.50074C25.8685 9.25414 26.9848 9.38069 27.9992 9.86439C29.0136 10.3481 29.8807 11.1672 30.4907 12.2182C31.1008 13.2692 31.4264 14.5048 31.4264 15.7688C31.4248 17.4633 30.8394 19.0879 29.7986 20.2861C28.7577 21.4843 27.3465 22.1582 25.8746 22.1601ZM25.8746 10.7002C25.0037 10.7002 24.1524 10.9976 23.4284 11.5546C22.7043 12.1115 22.14 12.9032 21.8067 13.8294C21.4735 14.7556 21.3863 15.7748 21.5563 16.758C21.7262 17.7413 22.1456 18.6444 22.7614 19.3533C23.3772 20.0622 24.1617 20.5449 25.0159 20.7404C25.87 20.936 26.7553 20.8356 27.5598 20.4519C28.3644 20.0682 29.052 19.4185 29.5358 18.5849C30.0196 17.7514 30.2778 16.7714 30.2778 15.7688C30.2765 14.425 29.8122 13.1365 28.9867 12.1863C28.1612 11.236 27.042 10.7016 25.8746 10.7002Z" fill="#1D9312"/>
<path id="Vector_3" d="M17.0344 12.8955C16.7504 12.8955 16.4728 12.7986 16.2367 12.617C16.0006 12.4354 15.8166 12.1772 15.7079 11.8752C15.5993 11.5732 15.5708 11.2409 15.6262 10.9202C15.6816 10.5996 15.8184 10.3051 16.0192 10.074C16.22 9.8428 16.4758 9.68538 16.7543 9.6216C17.0328 9.55783 17.3215 9.59056 17.5839 9.71566C17.8462 9.84076 18.0705 10.0526 18.2282 10.3244C18.386 10.5962 18.4702 10.9158 18.4702 11.2427C18.4697 11.6809 18.3183 12.101 18.0492 12.4109C17.78 12.7207 17.4151 12.895 17.0344 12.8955ZM17.0344 10.9121C16.9776 10.9121 16.9221 10.9315 16.8749 10.9678C16.8277 11.0042 16.7908 11.0558 16.7691 11.1162C16.7474 11.1766 16.7417 11.2431 16.7528 11.3072C16.7639 11.3713 16.7912 11.4302 16.8314 11.4764C16.8715 11.5227 16.9227 11.5542 16.9784 11.5669C17.0341 11.5797 17.0918 11.5731 17.1443 11.5481C17.1968 11.5231 17.2416 11.4807 17.2732 11.4263C17.3047 11.372 17.3216 11.3081 17.3216 11.2427C17.3215 11.155 17.2912 11.071 17.2374 11.009C17.1836 10.947 17.1106 10.9122 17.0344 10.9121Z" fill="#0EA102"/>
<path id="Vector_4" d="M30.1971 8.66431C27.1343 3.97437 26.0957 2.2752 23.8522 2.02503C21.8124 1.79575 20.2053 3.16714 19.0584 6.08965C18.5113 5.46074 17.7849 5.08108 17.0135 5.02082C16.2408 5.07615 15.5131 5.45785 14.9698 6.09276C13.8231 3.16774 12.2167 1.79365 10.1748 2.02503C8.00926 2.2665 6.96357 3.7599 3.37183 9.37146C2.48454 10.3039 1.8038 11.4671 1.38639 12.764C0.968978 14.0609 0.827002 15.4539 0.972304 16.8268C1.11761 18.1997 1.54597 19.5127 2.22167 20.6562C2.89737 21.7998 3.80081 22.7408 4.85664 23.4007C5.91246 24.0606 7.09005 24.4204 8.29119 24.4499C9.49232 24.4794 10.6822 24.1778 11.7615 23.5704C12.8408 22.9629 13.7783 22.0671 14.4958 20.9578C15.2132 19.8484 15.6899 18.5577 15.8859 17.1932H18.4423C18.6452 18.6052 19.1483 19.9376 19.9069 21.0716C20.6655 22.2055 21.6559 23.1059 22.79 23.6924C23.9241 24.279 25.1666 24.5335 26.4069 24.4332C27.6471 24.333 28.8465 23.8812 29.8983 23.1181C30.9501 22.3549 31.8216 21.3042 32.4352 20.0593C33.0487 18.8145 33.3853 17.4143 33.4149 15.9834C33.4444 14.5526 33.1661 13.1355 32.6047 11.8585C32.0433 10.5815 31.2162 9.48418 30.1971 8.66431ZM10.2858 3.34085C11.8393 3.16976 13.0633 4.31687 14.0038 6.84299C13.6994 7.0057 13.3674 7.08867 13.0318 7.08591C12.8794 7.08591 12.7334 7.15557 12.6257 7.27956C12.5179 7.40354 12.4574 7.57171 12.4574 7.74705C12.4574 7.9224 12.5179 8.09056 12.6257 8.21455C12.7334 8.33854 12.8794 8.40819 13.0318 8.40819C15.2266 8.40819 15.8602 6.3431 17.0135 6.3431C18.1547 6.3431 18.8319 8.40819 20.9953 8.40819C21.1476 8.40819 21.2937 8.33854 21.4014 8.21455C21.5091 8.09056 21.5696 7.9224 21.5696 7.74705C21.5696 7.57171 21.5091 7.40354 21.4014 7.27956C21.2937 7.15557 21.1476 7.08591 20.9953 7.08591C20.6598 7.08792 20.3282 7.00334 20.0249 6.83839C20.9651 4.31558 22.1861 3.16983 23.7412 3.34085C25.4767 3.53511 26.238 4.97956 27.9083 7.41564C26.6631 7.00667 25.3469 6.97762 24.089 7.33133C22.8311 7.68504 21.6747 8.40935 20.7335 9.43311C19.2401 9.23275 18.683 7.39034 17.0329 7.39034C15.449 7.39034 14.92 9.04583 13.5467 9.38288C12.5535 8.32192 11.3285 7.59174 10.0026 7.27044C8.67673 6.94914 7.29993 7.04881 6.01947 7.55879C7.8109 4.93942 8.56239 3.53376 10.2858 3.34085ZM8.45381 23.1295C7.1892 23.1295 5.95299 22.6978 4.90151 21.889C3.85002 21.0802 3.03049 19.9307 2.54654 18.5857C2.0626 17.2407 1.93598 15.7607 2.18269 14.3329C2.4294 12.905 3.03837 11.5935 3.93258 10.5641C4.8268 9.53468 5.9661 8.83364 7.20641 8.54963C8.44672 8.26561 9.73233 8.41138 10.9007 8.96849C12.069 9.5256 13.0676 10.469 13.7702 11.6795C14.4728 12.89 14.8478 14.3131 14.8478 15.7689C14.8459 17.7204 14.1717 19.5913 12.973 20.9713C11.7743 22.3512 10.149 23.1274 8.45381 23.1295ZM15.9919 15.8709C16.0158 13.9131 15.4578 12.0047 14.4104 10.462C15.6302 9.8633 16.1522 8.71262 17.0329 8.71262C17.9488 8.71262 18.5161 9.99574 19.8617 10.5482C18.8502 12.076 18.3131 13.9501 18.3363 15.8709H15.9919ZM25.8744 23.1295C24.6098 23.1295 23.3736 22.6978 22.3221 21.889C21.2706 21.0802 20.4511 19.9307 19.9671 18.5857C19.4832 17.2407 19.3566 15.7607 19.6033 14.3329C19.85 12.905 20.4589 11.5935 21.3532 10.5641C22.2474 9.53468 23.3867 8.83364 24.627 8.54963C25.8673 8.26561 27.1529 8.41138 28.3213 8.96849C29.4896 9.5256 30.4882 10.469 31.1908 11.6795C31.8934 12.89 32.2684 14.3131 32.2684 15.7689C32.2665 17.7204 31.5922 19.5913 30.3935 20.9713C29.1948 22.3512 27.5696 23.1274 25.8744 23.1295Z" fill="#0EA102"/>
<path id="Vector_5" d="M28.3774 13.334H26.9416C26.7893 13.334 26.6432 13.4036 26.5355 13.5276C26.4278 13.6516 26.3673 13.8198 26.3673 13.9951C26.3673 14.1705 26.4278 14.3386 26.5355 14.4626C26.6432 14.5866 26.7893 14.6563 26.9416 14.6563H27.1334L26.2388 15.861L24.8647 15.0982C24.7462 15.0324 24.6117 15.0154 24.4836 15.0502C24.3555 15.0849 24.2417 15.1692 24.1612 15.289L22.9172 17.1378C22.8264 17.2766 22.7868 17.451 22.8069 17.6232C22.8269 17.7954 22.9051 17.9516 23.0244 18.058C23.1437 18.1645 23.2946 18.2125 23.4445 18.1918C23.5944 18.1711 23.7311 18.0833 23.8252 17.9474L24.7846 16.5218L26.1382 17.2734C26.2525 17.3367 26.3817 17.3547 26.5058 17.3247C26.6299 17.2947 26.7419 17.2183 26.8244 17.1074L27.8232 15.7626C27.8475 15.9242 27.9238 16.0695 28.0367 16.1695C28.1497 16.2696 28.2913 16.3171 28.4332 16.3027C28.5752 16.2883 28.7073 16.213 28.8034 16.0917C28.8994 15.9704 28.9524 15.812 28.9517 15.648V13.9951C28.9517 13.9083 28.9369 13.8223 28.908 13.7421C28.8791 13.6619 28.8368 13.589 28.7835 13.5276C28.7302 13.4662 28.6669 13.4175 28.5972 13.3843C28.5275 13.3511 28.4528 13.334 28.3774 13.334Z" fill="white"/>
</g>
<path id="Vector_6" d="M10.9561 13.334H9.52035C9.36803 13.334 9.22196 13.4036 9.11425 13.5276C9.00655 13.6516 8.94604 13.8198 8.94604 13.9951C8.94604 14.1705 9.00655 14.3386 9.11425 14.4626C9.22196 14.5866 9.36803 14.6563 9.52035 14.6563H9.71217L8.81758 15.861L7.44349 15.0982C7.32497 15.0324 7.19043 15.0155 7.06236 15.0502C6.93429 15.0849 6.82046 15.1692 6.73991 15.289L5.49595 17.1378C5.40486 17.2766 5.36496 17.4511 5.38491 17.6236C5.40486 17.796 5.48304 17.9525 5.60252 18.059C5.72199 18.1655 5.87312 18.2136 6.02315 18.1927C6.17317 18.1718 6.31 18.0837 6.40397 17.9474L7.3633 16.5218L8.71695 17.2734C8.83122 17.3367 8.96046 17.3547 9.08456 17.3247C9.20867 17.2947 9.32067 17.2183 9.40315 17.1074L10.402 15.7626C10.4263 15.9242 10.5025 16.0695 10.6155 16.1695C10.7285 16.2696 10.87 16.3171 11.012 16.3027C11.154 16.2883 11.2861 16.213 11.3821 16.0917C11.4782 15.9704 11.5311 15.812 11.5305 15.648V13.9951C11.5305 13.9083 11.5156 13.8223 11.4868 13.7421C11.4579 13.6619 11.4156 13.589 11.3622 13.5276C11.3089 13.4662 11.2456 13.4175 11.1759 13.3843C11.1062 13.3511 11.0316 13.334 10.9561 13.334Z" fill="white"/>
</g>
</g>
</svg>
