<svg width="34" height="23" viewBox="0 0 34 23" fill="none" xmlns="http://www.w3.org/2000/svg">
<g id="Market Watch" opacity="0.75">
<path id="Vector" d="M8.4536 20.1601C7.35557 20.1601 6.2822 19.7853 5.36921 19.0831C4.45621 18.3809 3.74461 17.3827 3.32439 16.2149C2.90417 15.0471 2.7942 13.7621 3.00838 12.5223C3.22257 11.2826 3.75129 10.1438 4.5277 9.24995C5.3041 8.35612 6.29331 7.7474 7.37023 7.50077C8.44715 7.25413 9.56342 7.38067 10.5779 7.86436C11.5923 8.34806 12.4594 9.16719 13.0695 10.2182C13.6795 11.2692 14.0051 12.5048 14.0052 13.7688C14.0036 15.4633 13.4182 17.0878 12.3774 18.286C11.3366 19.4841 9.9255 20.1581 8.4536 20.1601ZM8.4536 8.70021C7.58274 8.70018 6.73142 8.99744 6.00732 9.55439C5.28321 10.1113 4.71883 10.903 4.38555 11.8292C4.05227 12.7554 3.96507 13.7746 4.13496 14.7578C4.30485 15.7411 4.7242 16.6443 5.34 17.3532C5.95579 18.0621 6.74036 18.5448 7.59449 18.7404C8.44862 18.936 9.33395 18.8356 10.1385 18.4519C10.9431 18.0683 11.6308 17.4186 12.1146 16.585C12.5984 15.7514 12.8566 14.7714 12.8566 13.7688C12.8553 12.425 12.391 11.1366 11.5655 10.1864C10.7401 9.23617 9.62094 8.70168 8.4536 8.70021Z" fill="#646464"/>
<path id="Vector_2" d="M25.8745 20.1601C24.7764 20.1601 23.7031 19.7852 22.7901 19.0829C21.8772 18.3807 21.1656 17.3825 20.7455 16.2147C20.3253 15.0469 20.2153 13.7619 20.4296 12.5221C20.6438 11.2824 21.1725 10.1436 21.9489 9.24984C22.7254 8.35604 23.7146 7.74735 24.7915 7.50074C25.8684 7.25414 26.9846 7.38069 27.9991 7.86439C29.0135 8.3481 29.8806 9.16723 30.4906 10.2182C31.1007 11.2692 31.4263 12.5048 31.4263 13.7688C31.4247 15.4633 30.8393 17.0879 29.7984 18.2861C28.7576 19.4843 27.3464 20.1582 25.8745 20.1601ZM25.8745 8.70021C25.0036 8.70025 24.1523 8.99756 23.4282 9.55455C22.7042 10.1115 22.1398 10.9032 21.8066 11.8294C21.4734 12.7556 21.3862 13.7748 21.5561 14.758C21.7261 15.7413 22.1454 16.6444 22.7612 17.3533C23.377 18.0622 24.1616 18.5449 25.0157 18.7404C25.8699 18.936 26.7552 18.8356 27.5597 18.4519C28.3643 18.0682 29.0519 17.4185 29.5357 16.5849C30.0195 15.7514 30.2777 14.7714 30.2777 13.7688C30.2764 12.425 29.8121 11.1365 28.9866 10.1863C28.1611 9.23604 27.0419 8.70159 25.8745 8.70021Z" fill="#646464"/>
<path id="Vector_3" d="M17.0342 10.8955C16.7502 10.8955 16.4726 10.7986 16.2365 10.617C16.0004 10.4354 15.8164 10.1772 15.7077 9.87521C15.599 9.5732 15.5706 9.24086 15.626 8.92024C15.6814 8.59962 15.8181 8.30511 16.0189 8.07395C16.2197 7.8428 16.4755 7.68538 16.7541 7.6216C17.0326 7.55783 17.3213 7.59056 17.5836 7.71566C17.846 7.84076 18.0702 8.05261 18.228 8.32442C18.3857 8.59623 18.4699 8.91579 18.4699 9.2427C18.4695 9.6809 18.3181 10.101 18.0489 10.4109C17.7798 10.7207 17.4148 10.895 17.0342 10.8955ZM17.0342 8.91213C16.9774 8.91213 16.9219 8.93151 16.8746 8.96784C16.8274 9.00416 16.7906 9.05579 16.7689 9.11619C16.7471 9.1766 16.7414 9.24306 16.7525 9.30719C16.7636 9.37131 16.791 9.43021 16.8311 9.47644C16.8713 9.52268 16.9224 9.55416 16.9781 9.56691C17.0338 9.57967 17.0916 9.57312 17.1441 9.5481C17.1965 9.52308 17.2414 9.48071 17.2729 9.42635C17.3045 9.37199 17.3213 9.30808 17.3213 9.2427C17.3213 9.15504 17.291 9.07099 17.2372 9.00901C17.1833 8.94703 17.1103 8.91218 17.0342 8.91213Z" fill="#646464"/>
<path id="Vector_4" d="M30.1968 6.66431C27.134 1.97437 26.0955 0.2752 23.852 0.0250314C21.8121 -0.204252 20.205 1.16714 19.0582 4.08965C18.511 3.46074 17.7847 3.08108 17.0133 3.02082C16.2406 3.07615 15.5129 3.45785 14.9696 4.09276C13.8229 1.16774 12.2164 -0.206354 10.1745 0.0250314C8.00902 0.2665 6.96333 1.7599 3.37159 7.37146C2.4843 8.30392 1.80356 9.4671 1.38614 10.764C0.968734 12.0609 0.826758 13.4539 0.97206 14.8268C1.11736 16.1997 1.54573 17.5127 2.22143 18.6562C2.89713 19.7998 3.80057 20.7408 4.85639 21.4007C5.91221 22.0606 7.08981 22.4204 8.29094 22.4499C9.49208 22.4794 10.6819 22.1778 11.7613 21.5704C12.8406 20.9629 13.7781 20.0671 14.4955 18.9578C15.213 17.8484 15.6896 16.5577 15.8857 15.1932H18.442C18.6449 16.6052 19.1481 17.9376 19.9067 19.0716C20.6652 20.2055 21.6557 21.1059 22.7898 21.6924C23.9239 22.279 25.1664 22.5335 26.4066 22.4332C27.6468 22.333 28.8463 21.8812 29.8981 21.1181C30.9499 20.3549 31.8214 19.3042 32.4349 18.0593C33.0485 16.8145 33.385 15.4143 33.4146 13.9834C33.4442 12.5526 33.1659 11.1355 32.6044 9.85852C32.043 8.58151 31.2159 7.48418 30.1968 6.66431ZM10.2856 1.34085C11.8391 1.16976 13.063 2.31687 14.0036 4.84299C13.6992 5.0057 13.3672 5.08867 13.0315 5.08591C12.8792 5.08591 12.7331 5.15557 12.6254 5.27956C12.5177 5.40354 12.4572 5.57171 12.4572 5.74705C12.4572 5.9224 12.5177 6.09056 12.6254 6.21455C12.7331 6.33854 12.8792 6.40819 13.0315 6.40819C15.2263 6.40819 15.86 4.3431 17.0133 4.3431C18.1545 4.3431 18.8317 6.40819 20.995 6.40819C21.1473 6.40819 21.2934 6.33854 21.4011 6.21455C21.5088 6.09056 21.5693 5.9224 21.5693 5.74705C21.5693 5.57171 21.5088 5.40354 21.4011 5.27956C21.2934 5.15557 21.1473 5.08591 20.995 5.08591C20.6596 5.08792 20.328 5.00334 20.0247 4.83839C20.9648 2.31558 22.1858 1.16983 23.7409 1.34085C25.4764 1.53511 26.2378 2.97956 27.9081 5.41564C26.6629 5.00667 25.3467 4.97762 24.0887 5.33133C22.8308 5.68504 21.6745 6.40935 20.7332 7.43311C19.2398 7.23275 18.6827 5.39034 17.0326 5.39034C15.4488 5.39034 14.9198 7.04583 13.5465 7.38288C12.5533 6.32192 11.3282 5.59174 10.0024 5.27044C8.67649 4.94914 7.29969 5.04881 6.01923 5.55879C7.81065 2.93942 8.56215 1.53376 10.2856 1.34085ZM8.45357 21.1295C7.18896 21.1295 5.95275 20.6978 4.90126 19.889C3.84978 19.0802 3.03025 17.9307 2.5463 16.5857C2.06236 15.2407 1.93573 13.7607 2.18245 12.3329C2.42916 10.905 3.03813 9.59349 3.93234 8.56408C4.82655 7.53468 5.96585 6.83364 7.20616 6.54963C8.44647 6.26561 9.73209 6.41138 10.9004 6.96849C12.0688 7.5256 13.0674 8.46904 13.77 9.67949C14.4725 10.89 14.8475 12.3131 14.8475 13.7689C14.8457 15.7204 14.1714 17.5913 12.9727 18.9713C11.774 20.3512 10.1488 21.1274 8.45357 21.1295ZM15.9917 13.8709C16.0155 11.9131 15.4575 10.0047 14.4102 8.46195C15.63 7.8633 16.152 6.71262 17.0326 6.71262C17.9485 6.71262 18.5159 7.99574 19.8615 8.54822C18.8499 10.076 18.3128 11.9501 18.336 13.8709H15.9917ZM25.8741 21.1295C24.6095 21.1295 23.3733 20.6978 22.3218 19.889C21.2704 19.0802 20.4508 17.9307 19.9669 16.5857C19.4829 15.2407 19.3563 13.7607 19.603 12.3329C19.8497 10.905 20.4587 9.59349 21.3529 8.56408C22.2471 7.53468 23.3864 6.83364 24.6267 6.54963C25.867 6.26561 27.1527 6.41138 28.321 6.96849C29.4894 7.5256 30.488 8.46904 31.1905 9.67949C31.8931 10.89 32.2681 12.3131 32.2681 13.7689C32.2663 15.7204 31.592 17.5913 30.3933 18.9713C29.1946 20.3512 27.5694 21.1274 25.8741 21.1295Z" fill="#646464"/>
<path id="Vector_5" d="M10.9565 11.334H9.52072C9.3684 11.334 9.22232 11.4036 9.11462 11.5276C9.00691 11.6516 8.94641 11.8198 8.94641 11.9951C8.94641 12.1705 9.00691 12.3386 9.11462 12.4626C9.22232 12.5866 9.3684 12.6563 9.52072 12.6563H9.71254L8.81794 13.861L7.44386 13.0982C7.32534 13.0324 7.1908 13.0155 7.06273 13.0502C6.93466 13.0849 6.82083 13.1692 6.74028 13.289L5.49632 15.1378C5.40523 15.2766 5.36533 15.4511 5.38528 15.6236C5.40522 15.796 5.48341 15.9525 5.60288 16.059C5.72236 16.1655 5.87349 16.2136 6.02351 16.1927C6.17354 16.1718 6.31037 16.0837 6.40434 15.9474L7.36367 14.5218L8.71732 15.2734C8.83158 15.3367 8.96083 15.3547 9.08493 15.3247C9.20904 15.2947 9.32104 15.2183 9.40352 15.1074L10.4023 13.7626C10.4267 13.9242 10.5029 14.0695 10.6159 14.1695C10.7289 14.2696 10.8704 14.3171 11.0124 14.3027C11.1544 14.2883 11.2865 14.213 11.3825 14.0917C11.4785 13.9704 11.5315 13.812 11.5308 13.648V11.9951C11.5308 11.9083 11.516 11.8223 11.4871 11.7421C11.4583 11.6619 11.4159 11.589 11.3626 11.5276C11.3093 11.4662 11.246 11.4175 11.1763 11.3843C11.1066 11.3511 11.0319 11.334 10.9565 11.334Z" fill="#646464"/>
<path id="Vector_6" d="M28.3773 11.334H26.9415C26.7892 11.334 26.6431 11.4036 26.5354 11.5276C26.4277 11.6516 26.3672 11.8198 26.3672 11.9951C26.3672 12.1705 26.4277 12.3386 26.5354 12.4626C26.6431 12.5866 26.7892 12.6563 26.9415 12.6563H27.1333L26.2387 13.861L24.8646 13.0982C24.7461 13.0324 24.6116 13.0154 24.4835 13.0502C24.3554 13.0849 24.2416 13.1692 24.161 13.289L22.9171 15.1378C22.8263 15.2766 22.7867 15.451 22.8067 15.6232C22.8268 15.7954 22.9049 15.9516 23.0243 16.058C23.1436 16.1645 23.2945 16.2125 23.4444 16.1918C23.5942 16.1711 23.731 16.0833 23.8251 15.9474L24.7844 14.5218L26.1381 15.2734C26.2523 15.3367 26.3816 15.3547 26.5057 15.3247C26.6298 15.2947 26.7418 15.2183 26.8243 15.1074L27.8231 13.7626C27.8474 13.9242 27.9236 14.0695 28.0366 14.1695C28.1496 14.2696 28.2911 14.3171 28.4331 14.3027C28.5751 14.2883 28.7072 14.213 28.8033 14.0917C28.8993 13.9704 28.9522 13.812 28.9516 13.648V11.9951C28.9516 11.9083 28.9367 11.8223 28.9079 11.7421C28.879 11.6619 28.8367 11.589 28.7834 11.5276C28.73 11.4662 28.6667 11.4175 28.597 11.3843C28.5274 11.3511 28.4527 11.334 28.3773 11.334Z" fill="#646464"/>
</g>
</svg>
