<svg xmlns="http://www.w3.org/2000/svg" xmlns:xlink="http://www.w3.org/1999/xlink" width="512" height="512" viewBox="0 0 512 512">
  <defs>
    <clipPath id="clip-add">
      <rect width="512" height="512"/>
    </clipPath>
  </defs>
  <g id="add" clip-path="url(#clip-add)">
    <rect width="512" height="512" fill="#fff"/>
    <path id="rectangle-history-circle-plus-solid" d="M174.5,200.675A95.827,95.827,0,0,0,215.289,279.2H34.9A34.915,34.915,0,0,1,0,244.3V122.15a34.915,34.915,0,0,1,34.9-34.9H244.3a34.729,34.729,0,0,1,30.265,17.559c-1.363-.055-2.727-.109-4.09-.109A95.976,95.976,0,0,0,174.5,200.675Zm65.437-157.05a13.087,13.087,0,1,1,0,26.175H39.262a13.087,13.087,0,1,1,0-26.175ZM213.762,0a13.088,13.088,0,0,1,0,26.175H65.437A13.088,13.088,0,0,1,65.437,0ZM191.95,200.675A78.525,78.525,0,1,1,270.475,279.2,78.545,78.545,0,0,1,191.95,200.675Zm87.25-35.391a8.725,8.725,0,0,0-17.45,0v26.175H235.575a9.086,9.086,0,0,0-8.725,8.725,8.45,8.45,0,0,0,8.725,8.725H261.75v26.175a8.725,8.725,0,1,0,17.45,0V208.909h26.175a8.45,8.45,0,0,0,8.725-8.725,9.086,9.086,0,0,0-8.725-8.725H279.2Z" transform="translate(82 116)" fill="#e2e2e2"/>
  </g>
</svg>
