<svg width="18" height="24" viewBox="0 0 18 24" fill="none" xmlns="http://www.w3.org/2000/svg">
<g clip-path="url(#clip0_0_1)">
<path d="M17.6908 6.57187V22.4531C17.6908 23.3062 16.9971 24 16.1439 24H1.85645C1.00332 24 0.30957 23.3062 0.30957 22.4531V1.54688C0.30957 0.69375 1.00332 0 1.85645 0H11.1189L17.6908 6.57187Z" fill="#29B6F6"/>
<path d="M4.55664 12.0518H13.4441V13.0408H4.55664V12.0518Z" fill="white"/>
<path d="M4.55664 14.2549H13.4441V15.2439H4.55664V14.2549Z" fill="white"/>
<path d="M4.55664 16.4629H13.4441V17.452H4.55664V16.4629Z" fill="white"/>
<path d="M4.55664 18.666H10.8801V19.6551H4.55664V18.666Z" fill="white"/>
<path opacity="0.19" d="M12.0137 6.32344L17.6902 10.9219V6.6L14.4746 4.73438L12.0137 6.32344Z" fill="#1565C0"/>
<path d="M17.691 6.57187H12.666C11.8129 6.57187 11.1191 5.87812 11.1191 5.025V0L17.691 6.57187Z" fill="#007CB4"/>
</g>
<defs>
<clipPath id="clip0_0_1">
<rect width="24" height="24" fill="white" transform="translate(-3)"/>
</clipPath>
</defs>
</svg>
