<svg width="20" height="20" viewBox="0 0 20 20" fill="none" xmlns="http://www.w3.org/2000/svg">
<rect width="20" height="20" rx="10" fill="#E6CF00"/>
<path d="M9.8233 5V16.5741" stroke="white" stroke-width="1.5" stroke-linecap="round" stroke-linejoin="round"/>
<path d="M12.4537 7.10437H8.50802C8.01967 7.10437 7.55132 7.29837 7.206 7.64368C6.86068 7.989 6.66669 8.45735 6.66669 8.9457C6.66669 9.43405 6.86068 9.9024 7.206 10.2477C7.55132 10.593 8.01967 10.787 8.50802 10.787H11.1385C11.6268 10.787 12.0952 10.981 12.4405 11.3263C12.7858 11.6717 12.9798 12.14 12.9798 12.6284C12.9798 13.1167 12.7858 13.5851 12.4405 13.9304C12.0952 14.2757 11.6268 14.4697 11.1385 14.4697H6.66669" stroke="white" stroke-width="1.5" stroke-linecap="round" stroke-linejoin="round"/>
</svg>
