<svg width="280" height="240" viewBox="0 0 280 240" fill="none" xmlns="http://www.w3.org/2000/svg">
<g clip-path="url(#clip0_15_149)">
<path d="M82.2866 237.496C86.7814 233.693 89.5117 227.685 88.7957 221.836C88.0797 215.988 83.6449 210.611 77.8925 209.369C72.14 208.127 65.5826 211.565 63.8354 217.192C62.8738 206.344 61.7658 195.041 56.0058 185.803C50.7903 177.439 41.757 171.453 31.9669 170.383C22.1768 169.312 11.8691 173.356 5.7634 181.093C-0.342319 188.83 -1.83728 200.079 2.43901 208.962C5.5892 215.506 11.393 220.376 17.4739 224.338C37.1234 237.032 60.6905 242.195 83.8389 238.875" fill="#F2F2F2"/>
<path d="M15.4446 173.58C23.5226 180.168 30.9333 187.537 37.5696 195.579C47.9553 208.122 56.3596 222.184 62.4895 237.277C62.9383 238.378 61.1527 238.857 60.709 237.768C56.8107 228.226 51.9879 219.089 46.3096 210.489C37.455 197.054 26.6068 185.049 14.1389 174.888C13.217 174.136 14.5303 172.835 15.4446 173.58V173.58Z" fill="white"/>
<path d="M85.3913 237.496C80.8964 233.693 78.1662 227.685 78.8822 221.836C79.5982 215.988 84.0329 210.611 89.7854 209.369C95.5378 208.127 102.095 211.565 103.843 217.192C104.804 206.344 105.912 195.041 111.672 185.803C116.888 177.439 125.921 171.453 135.711 170.383C145.501 169.312 155.809 173.356 161.914 181.093C168.02 188.83 169.515 200.079 165.239 208.962C162.089 215.506 156.285 220.376 150.204 224.338C130.554 237.032 106.987 242.195 83.839 238.875" fill="#F2F2F2"/>
<path d="M152.233 173.58C144.155 180.168 136.744 187.537 130.108 195.579C119.722 208.122 111.318 222.184 105.188 237.277C104.739 238.378 106.525 238.857 106.969 237.768C116.998 213.24 133.01 191.62 153.539 174.888C154.461 174.136 153.147 172.835 152.233 173.58V173.58Z" fill="white"/>
<path d="M98.7295 107.964C107.045 107.964 113.786 101.214 113.786 92.8875C113.786 84.5613 107.045 77.8115 98.7295 77.8115C90.4141 77.8115 83.6731 84.5613 83.6731 92.8875C83.6731 101.214 90.4141 107.964 98.7295 107.964Z" fill="#F2F2F2"/>
<path d="M52.3066 40.918H156.041V46.6008H65.5492C60.2286 46.6008 54.9602 47.6502 50.0446 49.6889C45.129 51.7276 40.6626 54.7159 36.9004 58.483C33.1381 62.2501 30.1538 66.7223 28.1177 71.6443C26.0816 76.5662 25.0336 81.8416 25.0336 87.1691V151.733H13.6828C13.1811 151.733 12.6999 151.533 12.3451 151.178C11.9903 150.822 11.791 150.341 11.791 149.838V81.4862C11.791 76.1587 12.839 70.8834 14.8751 65.9614C16.9112 61.0395 19.8955 56.5673 23.6578 52.8001C27.42 49.033 31.8864 46.0448 36.8019 44.0061C41.7175 41.9673 46.986 40.918 52.3066 40.918Z" fill="#F2F2F2"/>
<path d="M72.2594 237.812V151.489H97.5153V237.812C97.5147 238.392 97.2842 238.948 96.8744 239.358C96.4647 239.769 95.9091 239.999 95.3297 240H74.445C73.8655 239.999 73.31 239.769 72.9003 239.358C72.4905 238.948 72.2601 238.392 72.2594 237.812Z" fill="#3F3D56"/>
<path d="M6.44849 149.787V79.5942C6.46109 68.4199 10.8999 57.7069 18.791 49.8055C26.6821 41.904 37.3812 37.4595 48.541 37.4468H155.555V152.219H8.87694C8.2331 152.218 7.61585 151.962 7.16058 151.506C6.70532 151.05 6.44922 150.432 6.44849 149.787ZM154.584 38.4195H48.541C37.6387 38.4318 27.1866 42.7738 19.4776 50.4929C11.7685 58.212 7.43219 68.6778 7.41987 79.5942V149.787C7.42029 150.174 7.57394 150.545 7.8471 150.818C8.12026 151.092 8.49063 151.246 8.87694 151.246H154.584V38.4195Z" fill="#3F3D56"/>
<path d="M98.7296 100.669C96.4117 100.666 94.1896 99.743 92.5506 98.1019C90.9116 96.4608 89.9897 94.2357 89.9871 91.9149V29.1793C89.9867 28.7925 89.833 28.4217 89.5599 28.1482C89.2867 27.8746 88.9164 27.7208 88.53 27.7204H54.5317C53.8879 27.7196 53.2706 27.4632 52.8154 27.0073C52.3601 26.5515 52.104 25.9334 52.1033 25.2888V2.43161C52.104 1.78694 52.3601 1.16888 52.8154 0.713024C53.2706 0.25717 53.8879 0.000746524 54.5317 0H105.044C105.687 0.000737533 106.305 0.257161 106.76 0.713017C107.215 1.16887 107.471 1.78693 107.472 2.43161V91.9149C107.469 94.2357 106.547 96.4608 104.909 98.1019C103.27 99.743 101.047 100.666 98.7296 100.669Z" fill="#0EA102"/>
<path d="M159.441 36.4742C166.768 36.4588 173.801 39.3585 178.993 44.5353C184.184 49.7121 187.11 56.742 187.125 64.0785V143.986H241.522C243.708 143.981 245.805 144.846 247.354 146.39C248.902 147.934 249.775 150.031 249.779 152.219H131.756V64.0785C131.772 56.742 134.697 49.7121 139.889 44.5353C145.081 39.3585 152.114 36.4588 159.441 36.4742Z" fill="#3F3D56"/>
<path d="M152.798 81.9781L158.53 105.689L270.667 78.508L264.934 54.7968C264.865 54.5069 264.724 54.2392 264.524 54.0186C264.323 53.7979 264.071 53.6315 263.789 53.5348C263.581 53.4616 263.361 53.4284 263.141 53.4371L198.321 19.8313C197.942 19.6371 197.505 19.5853 197.09 19.6851C196.676 19.7849 196.31 20.0298 196.06 20.3757L164.82 63.9957L153.043 80.4445C153.022 80.4733 153.007 80.5064 153 80.5415C152.992 80.5766 152.992 80.6129 153 80.6479C152.761 81.0473 152.688 81.5253 152.798 81.9781Z" fill="white"/>
<path d="M153 80.6479C153.006 80.6787 153.017 80.7082 153.034 80.7345C153.051 80.7609 153.073 80.7837 153.099 80.8015C153.129 80.8224 153.164 80.8368 153.2 80.844C153.236 80.8511 153.273 80.8508 153.309 80.8431C153.368 80.8275 153.419 80.7918 153.454 80.7423L153.495 80.6862L154.108 79.8276L165.244 64.2826L196.475 20.6726C196.653 20.4254 196.914 20.2505 197.21 20.1794C197.506 20.1084 197.817 20.146 198.088 20.2853L262.406 53.6308L262.983 53.9308C263.006 53.9406 263.03 53.949 263.055 53.9559C263.098 53.948 263.142 53.9437 263.186 53.9433C263.247 53.923 263.297 53.8804 263.327 53.8242C263.343 53.7946 263.353 53.7622 263.356 53.7288C263.359 53.6955 263.355 53.6619 263.345 53.6298C263.336 53.5978 263.319 53.5681 263.298 53.5423C263.277 53.5165 263.251 53.4952 263.221 53.4796L263.141 53.4371L198.321 19.8313C197.942 19.6371 197.505 19.5853 197.09 19.6851C196.675 19.7849 196.31 20.0298 196.06 20.3757L164.82 63.9957L153.043 80.4445C153.022 80.4733 153.007 80.5064 153 80.5415C152.992 80.5766 152.992 80.6129 153 80.6479Z" fill="#3F3D56"/>
<path d="M186.678 83.0657L189.174 83.343L207.7 85.3979L219.981 86.7592L220.706 86.84L236.031 74.8547L236.618 74.3956L240.238 71.5651L253.115 61.4952L253.192 60.7879L257.773 19.395C257.835 18.825 257.669 18.2535 257.311 17.8057C256.954 17.358 256.433 17.0705 255.864 17.0064L194.737 10.2262C194.168 10.164 193.597 10.3301 193.15 10.6883C192.703 11.0464 192.416 11.5674 192.352 12.1371L189.122 41.3347L187.33 57.5223L185.727 72.0042L184.984 78.7297L184.767 80.6777C184.706 81.2479 184.872 81.8194 185.23 82.267C185.588 82.7146 186.109 83.0018 186.678 83.0657Z" fill="#E6E6E6"/>
<path d="M203.476 46.7831L229.954 49.7195L239.344 50.7606C239.759 50.8066 240.179 50.7704 240.579 50.654C240.98 50.5376 241.353 50.3433 241.679 50.0823C242.005 49.8213 242.276 49.4986 242.477 49.1327C242.678 48.7668 242.805 48.3648 242.851 47.9497C242.897 47.5345 242.861 47.1144 242.744 46.7133C242.628 46.3122 242.434 45.9379 242.174 45.6119C241.913 45.2859 241.591 45.0144 241.225 44.8131C240.86 44.6118 240.458 44.4845 240.044 44.4385L228.364 43.1433L204.177 40.4579C203.34 40.3652 202.5 40.6094 201.842 41.1366C201.184 41.6639 200.763 42.4311 200.67 43.2696C200.577 44.1081 200.82 44.9492 201.346 45.6081C201.873 46.267 202.639 46.6896 203.476 46.7831Z" fill="white"/>
<path d="M201.968 58.5113C202.037 58.5235 202.105 58.5357 202.175 58.5424L232.912 61.952L238.043 62.5224C238.881 62.6152 239.721 62.371 240.379 61.8435C241.037 61.3161 241.458 60.5486 241.551 59.7099C241.644 58.8712 241.4 58.03 240.873 57.3713C240.346 56.7127 239.58 56.2906 238.742 56.1978L231.322 55.3757L206.974 52.6743L202.876 52.2197C202.057 52.1281 201.234 52.3593 200.582 52.8642C199.93 53.3691 199.499 54.1083 199.381 54.9253C199.263 55.7424 199.467 56.5734 199.95 57.2426C200.433 57.9118 201.157 58.3667 201.968 58.5112V58.5113Z" fill="white"/>
<path d="M198.49 68.9107C198.742 69.3294 199.086 69.6844 199.498 69.948C199.909 70.2116 200.375 70.3767 200.86 70.4306L213.458 71.8277L235.896 74.3167L235.901 74.3155L236.618 74.3956L240.238 71.5651C240.26 71.3501 240.26 71.1333 240.238 70.9183C240.162 70.1963 239.842 69.522 239.331 69.007C238.82 68.4919 238.148 68.167 237.428 68.086L234.311 67.7393L221.947 66.3692L213.05 65.3813L201.559 64.106C200.97 64.0408 200.374 64.1417 199.84 64.3975C199.305 64.6533 198.853 65.0538 198.533 65.5536C198.214 66.0534 198.041 66.6326 198.033 67.2259C198.025 67.8191 198.184 68.4027 198.49 68.9107L198.49 68.9107Z" fill="white"/>
<path d="M216.185 32.4472L222.773 33.1778L225.683 33.5014L230.078 33.9885C230.916 34.0813 231.756 33.8371 232.414 33.3096C233.072 32.7822 233.493 32.0147 233.586 31.176C233.679 30.3373 233.435 29.4961 232.908 28.8374C232.381 28.1788 231.615 27.7566 230.777 27.6639L216.887 26.1244C216.049 26.0313 215.209 26.2749 214.551 26.8019C213.893 27.3289 213.472 28.096 213.378 28.9344C213.285 29.7729 213.529 30.614 214.055 31.2728C214.581 31.9316 215.347 32.354 216.185 32.4472V32.4472Z" fill="white"/>
<path d="M162.314 50.058L170.346 83.2805L183.752 85.8329L196.153 88.1968L209.457 90.7317L213.709 91.5418C213.958 91.5889 214.214 91.5824 214.46 91.5227C214.706 91.463 214.937 91.3516 215.136 91.1957L218.547 88.5285L220.706 86.84L236.031 74.8547L226.287 34.5514C226.191 34.1504 225.981 33.7858 225.683 33.5014C225.421 33.2497 225.101 33.068 224.75 32.9731C224.4 32.8781 224.032 32.873 223.679 32.9581L163.906 47.4469C163.349 47.5822 162.869 47.9332 162.57 48.4228C162.272 48.9124 162.18 49.5005 162.314 50.058Z" fill="#0EA102"/>
<path d="M180.732 76.4877C180.931 77.3073 181.446 78.0143 182.165 78.4536C182.884 78.8929 183.748 79.0286 184.567 78.8308L219.641 70.3291C220.459 70.1296 221.165 69.6133 221.603 68.8935C222.042 68.1737 222.178 67.3091 221.981 66.4892C221.972 66.4486 221.96 66.4085 221.946 66.3693C221.722 65.5788 221.202 64.9059 220.493 64.4915C219.785 64.077 218.943 63.9533 218.146 64.1461L183.072 72.6478C182.254 72.847 181.547 73.3632 181.109 74.0831C180.67 74.803 180.534 75.6679 180.732 76.4877Z" fill="white"/>
<path d="M183.752 85.8329L196.153 88.1968L222.421 81.8295C223.24 81.6311 223.946 81.115 224.385 80.3949C224.824 79.6748 224.959 78.8096 224.761 77.9897C224.563 77.1697 224.048 76.4622 223.328 76.0228C222.609 75.5834 221.745 75.4481 220.926 75.6465L185.852 84.1482C185.119 84.3245 184.474 84.7578 184.032 85.3696C183.926 85.5158 183.832 85.6708 183.752 85.8329Z" fill="white"/>
<path d="M209.458 90.7317L213.709 91.5418C213.958 91.5889 214.214 91.5824 214.46 91.5227C214.706 91.463 214.937 91.3516 215.136 91.1957L218.547 88.5285L209.458 90.7317Z" fill="white"/>
<path d="M187.799 58.6731C187.998 59.4927 188.513 60.1997 189.232 60.639C189.951 61.0783 190.815 61.214 191.634 61.0162L205.219 57.7233C206.037 57.5238 206.743 57.0075 207.182 56.2877C207.62 55.5679 207.756 54.7033 207.559 53.8834C207.453 53.4429 207.254 53.0304 206.974 52.6743C206.598 52.1929 206.092 51.83 205.515 51.629C204.939 51.4279 204.317 51.3971 203.724 51.5403L190.139 54.8332C189.32 55.0318 188.614 55.5479 188.175 56.268C187.736 56.9881 187.601 57.8532 187.799 58.6731V58.6731Z" fill="white"/>
<path d="M196.152 88.1966L209.459 90.7321L213.709 91.5425C213.957 91.5891 214.213 91.5823 214.459 91.5227C214.705 91.4631 214.936 91.3519 215.136 91.1966L218.549 88.5288L217.351 88.8191L214.823 90.794C214.68 90.905 214.515 90.9843 214.339 91.0269C214.164 91.0695 213.981 91.0743 213.803 91.0411L210.656 90.4418L197.349 87.9063L196.152 88.1966ZM235.9 74.3175L236.029 74.8533L236.619 74.3938L235.9 74.3175ZM196.152 88.1966L209.459 90.7321L213.709 91.5425C213.957 91.5891 214.213 91.5823 214.459 91.5227C214.705 91.4631 214.936 91.3519 215.136 91.1966L218.549 88.5288L217.351 88.8191L214.823 90.794C214.68 90.905 214.515 90.9843 214.339 91.0269C214.164 91.0695 213.981 91.0743 213.803 91.0411L210.656 90.4418L197.349 87.9063L196.152 88.1966ZM196.152 88.1966L209.459 90.7321L213.709 91.5425C213.957 91.5891 214.213 91.5823 214.459 91.5227C214.705 91.4631 214.936 91.3519 215.136 91.1966L218.549 88.5288L217.351 88.8191L214.823 90.794C214.68 90.905 214.515 90.9843 214.339 91.0269C214.164 91.0695 213.981 91.0743 213.803 91.0411L210.656 90.4418L197.349 87.9063L196.152 88.1966ZM152.798 81.9781L167.813 144.086C167.925 144.545 168.213 144.941 168.616 145.187C169.019 145.433 169.502 145.509 169.961 145.399L278.639 119.056C279.098 118.944 279.493 118.655 279.739 118.252C279.985 117.849 280.06 117.364 279.95 116.905L264.934 54.7968C264.865 54.5069 264.724 54.2392 264.524 54.0185C264.323 53.7979 264.071 53.6315 263.789 53.5347C263.581 53.4615 263.361 53.4284 263.141 53.4371C262.885 53.4445 262.633 53.5108 262.406 53.6308C262.301 53.6806 262.202 53.7422 262.111 53.8142L253.192 60.7879L240.238 70.9197L235.899 74.3138L235.9 74.3175L235.896 74.3184L219.982 86.7575L217.351 88.819L214.823 90.794C214.68 90.9049 214.515 90.9843 214.339 91.0269C214.164 91.0695 213.981 91.0743 213.803 91.0411L210.656 90.4418L197.349 87.9063L184.031 85.3698L154.86 79.8113C154.611 79.7619 154.354 79.7675 154.108 79.8276C153.776 79.9087 153.475 80.0836 153.24 80.3313C153.15 80.4286 153.069 80.5347 153 80.6479C152.761 81.0473 152.688 81.5253 152.798 81.9781ZM196.152 88.1966L209.459 90.7321L213.709 91.5425C213.957 91.5891 214.213 91.5823 214.459 91.5227C214.705 91.4631 214.936 91.3519 215.136 91.1966L218.549 88.5288L217.351 88.8191L214.823 90.794C214.68 90.905 214.515 90.9843 214.339 91.0269C214.164 91.0695 213.981 91.0743 213.803 91.0411L210.656 90.4418L197.349 87.9063L196.152 88.1966ZM196.152 88.1966L209.459 90.7321L213.709 91.5425C213.957 91.5891 214.213 91.5823 214.459 91.5227C214.705 91.4631 214.936 91.3519 215.136 91.1966L218.549 88.5288L217.351 88.8191L214.823 90.794C214.68 90.905 214.515 90.9843 214.339 91.0269C214.164 91.0695 213.981 91.0743 213.803 91.0411L210.656 90.4418L197.349 87.9063L196.152 88.1966ZM196.152 88.1966L209.459 90.7321L213.709 91.5425C213.957 91.5891 214.213 91.5823 214.459 91.5227C214.705 91.4631 214.936 91.3519 215.136 91.1966L218.549 88.5288L217.351 88.8191L214.823 90.794C214.68 90.905 214.515 90.9843 214.339 91.0269C214.164 91.0695 213.981 91.0743 213.803 91.0411L210.656 90.4418L197.349 87.9063L196.152 88.1966Z" fill="white"/>
<path d="M196.152 88.1966L209.459 90.7321L213.709 91.5425C213.957 91.5891 214.213 91.5823 214.459 91.5227C214.705 91.463 214.936 91.3519 215.136 91.1966L218.549 88.5287L217.351 88.8191L214.823 90.794C214.68 90.9049 214.515 90.9843 214.339 91.0269C214.164 91.0695 213.981 91.0743 213.803 91.0411L210.656 90.4418L197.349 87.9063L196.152 88.1966ZM235.9 74.3175L236.029 74.8533L236.619 74.3938L235.9 74.3175ZM196.152 88.1966L209.459 90.7321L213.709 91.5425C213.957 91.5891 214.213 91.5823 214.459 91.5227C214.705 91.463 214.936 91.3519 215.136 91.1966L218.549 88.5287L217.351 88.8191L214.823 90.794C214.68 90.9049 214.515 90.9843 214.339 91.0269C214.164 91.0695 213.981 91.0743 213.803 91.0411L210.656 90.4418L197.349 87.9063L196.152 88.1966ZM196.152 88.1966L209.459 90.7321L213.709 91.5425C213.957 91.5891 214.213 91.5823 214.459 91.5227C214.705 91.463 214.936 91.3519 215.136 91.1966L218.549 88.5287L217.351 88.8191L214.823 90.794C214.68 90.9049 214.515 90.9843 214.339 91.0269C214.164 91.0695 213.981 91.0743 213.803 91.0411L210.656 90.4418L197.349 87.9063L196.152 88.1966ZM153.495 80.6862L153.561 80.7358C153.572 80.7177 153.591 80.7014 153.606 80.6825C153.753 80.5291 153.936 80.4147 154.138 80.3496C154.34 80.2844 154.555 80.2705 154.764 80.3091L183.753 85.8308L196.152 88.1966L209.459 90.7321L213.709 91.5425C213.957 91.5891 214.213 91.5823 214.459 91.5227C214.705 91.463 214.936 91.3519 215.136 91.1966L218.549 88.5287L217.351 88.819L214.823 90.794C214.68 90.9049 214.515 90.9843 214.339 91.0269C214.164 91.0695 213.981 91.0743 213.803 91.0411L210.656 90.4418L197.349 87.9063L184.031 85.3698L154.86 79.8113C154.611 79.7619 154.354 79.7675 154.108 79.8275L153.495 80.6862ZM152.798 81.9781L167.813 144.086C167.925 144.545 168.213 144.941 168.616 145.187C169.019 145.433 169.502 145.509 169.961 145.399L278.639 119.056C279.098 118.944 279.493 118.655 279.739 118.252C279.985 117.849 280.06 117.364 279.95 116.905L264.934 54.7968C264.865 54.5069 264.724 54.2392 264.524 54.0186C264.323 53.7979 264.071 53.6315 263.789 53.5348C263.581 53.4616 263.361 53.4284 263.141 53.4371C262.885 53.4445 262.633 53.5108 262.406 53.6308C262.301 53.6807 262.202 53.7422 262.111 53.8142L253.192 60.788L240.238 70.9197L235.899 74.3138L235.9 74.3175L235.896 74.3184L219.982 86.7575L217.351 88.8191L214.823 90.794C214.68 90.9049 214.515 90.9843 214.339 91.0269C214.164 91.0695 213.981 91.0743 213.803 91.0411L210.656 90.4418L197.349 87.9063L184.031 85.3698L154.86 79.8113C154.611 79.7619 154.354 79.7675 154.108 79.8275C153.776 79.9087 153.475 80.0836 153.24 80.3313C153.15 80.4286 153.069 80.5347 153 80.6479C152.761 81.0473 152.688 81.5253 152.798 81.9781ZM153.293 81.8581C153.248 81.675 153.246 81.4843 153.284 81.3C153.323 81.1157 153.403 80.9424 153.517 80.7928C153.527 80.7708 153.542 80.7513 153.561 80.7358C153.572 80.7177 153.591 80.7015 153.606 80.6825C153.753 80.5291 153.936 80.4147 154.138 80.3496C154.34 80.2844 154.555 80.2705 154.764 80.3091L183.753 85.8308L196.152 88.1966L209.459 90.7321L213.709 91.5425C213.957 91.5891 214.213 91.5823 214.459 91.5227C214.705 91.463 214.936 91.3519 215.136 91.1966L218.549 88.5287L220.707 86.8403L236.029 74.8533L236.619 74.3938L240.236 71.5646L253.116 61.4932L262.427 54.2122C262.568 54.1017 262.732 54.0226 262.906 53.9802C262.955 53.9683 263.005 53.9602 263.055 53.9559C263.098 53.948 263.142 53.9437 263.186 53.9432C263.335 53.9418 263.483 53.966 263.624 54.0147C263.825 54.0847 264.005 54.2038 264.148 54.3612C264.291 54.5186 264.392 54.7093 264.443 54.9159L279.458 117.024C279.498 117.187 279.505 117.356 279.479 117.521C279.453 117.687 279.395 117.846 279.308 117.989C279.221 118.132 279.107 118.256 278.971 118.355C278.836 118.453 278.683 118.524 278.52 118.564L169.842 144.907C169.514 144.986 169.168 144.931 168.881 144.754C168.593 144.578 168.387 144.295 168.308 143.966L153.293 81.8581ZM196.152 88.1966L209.459 90.7321L213.709 91.5425C213.957 91.5891 214.213 91.5823 214.459 91.5227C214.705 91.4631 214.936 91.3519 215.136 91.1966L218.549 88.5288L217.351 88.8191L214.823 90.794C214.68 90.905 214.515 90.9843 214.339 91.0269C214.164 91.0695 213.981 91.0743 213.803 91.0411L210.656 90.4418L197.349 87.9063L196.152 88.1966ZM196.152 88.1966L209.459 90.7321L213.709 91.5425C213.957 91.5891 214.213 91.5823 214.459 91.5227C214.705 91.4631 214.936 91.3519 215.136 91.1966L218.549 88.5288L217.351 88.8191L214.823 90.794C214.68 90.905 214.515 90.9843 214.339 91.0269C214.164 91.0695 213.981 91.0743 213.803 91.0411L210.656 90.4418L197.349 87.9063L196.152 88.1966ZM196.152 88.1966L209.459 90.7321L213.709 91.5425C213.957 91.5891 214.213 91.5823 214.459 91.5227C214.705 91.4631 214.936 91.3519 215.136 91.1966L218.549 88.5288L217.351 88.8191L214.823 90.794C214.68 90.905 214.515 90.9843 214.339 91.0269C214.164 91.0695 213.981 91.0743 213.803 91.0411L210.656 90.4418L197.349 87.9063L196.152 88.1966Z" fill="#3F3D56"/>
<path d="M250.314 106.853C250.07 105.836 250.238 104.762 250.782 103.869C251.327 102.975 252.203 102.334 253.219 102.087L266.936 98.762C267.951 98.5198 269.02 98.6902 269.91 99.236C270.8 99.7818 271.437 100.658 271.683 101.674C271.928 102.689 271.762 103.761 271.22 104.654C270.678 105.546 269.805 106.188 268.791 106.437L255.075 109.762C254.058 110.007 252.986 109.839 252.094 109.293C251.202 108.748 250.562 107.871 250.314 106.853Z" fill="#0EA102"/>
<path d="M98.7296 95.3192C100.607 95.3192 102.129 93.795 102.129 91.9149C102.129 90.0348 100.607 88.5106 98.7296 88.5106C96.8519 88.5106 95.3297 90.0348 95.3297 91.9149C95.3297 93.795 96.8519 95.3192 98.7296 95.3192Z" fill="white"/>
</g>
<defs>
<clipPath id="clip0_15_149">
<rect width="280" height="240" fill="white"/>
</clipPath>
</defs>
</svg>
