<svg width="20" height="24" viewBox="0 0 20 24" fill="none" xmlns="http://www.w3.org/2000/svg">
<path d="M10.4999 2.07999V2.5131L10.9286 2.57488C14.0735 3.02812 16.4999 5.73449 16.4999 8.99999V11.788C16.4999 13.9135 17.4312 15.9206 19.0547 17.2936C19.3427 17.5409 19.4999 17.8865 19.4999 18.25C19.4999 18.9389 18.9388 19.5 18.2499 19.5H1.74994C1.06108 19.5 0.499939 18.9389 0.499939 18.25C0.499939 17.8847 0.658558 17.5398 0.936067 17.3017C2.56821 15.9211 3.49994 13.9141 3.49994 11.788V8.99999C3.49994 5.73443 5.92548 3.02812 9.07124 2.57488L9.49994 2.51312V2.07999V0.999992C9.49994 0.72346 9.72376 0.499992 9.99994 0.499992C10.2761 0.499992 10.4999 0.72346 10.4999 0.999992V2.07999Z" stroke="#0EA102"/>
<path d="M12.9994 21.5C12.5087 22.6732 11.3481 23.5 9.99993 23.5C8.65171 23.5 7.49116 22.6732 7.00046 21.5H12.9994Z" stroke="#0EA102"/>
</svg>
