<svg width="24" height="22" viewBox="0 0 24 22" fill="none" xmlns="http://www.w3.org/2000/svg">
<path fill-rule="evenodd" clip-rule="evenodd" d="M13.2883 1.87317L15.4203 6.13238C15.6292 6.55052 16.0325 6.84045 16.5002 6.90755L21.2696 7.59405C22.4479 7.76418 22.9168 9.1923 22.064 10.0106L18.6152 13.3245C18.2763 13.6504 18.122 14.1188 18.2022 14.5789L19.0161 19.2575C19.2165 20.4148 17.9847 21.2978 16.9315 20.7503L12.6687 18.5398C12.2509 18.3229 11.7504 18.3229 11.3313 18.5398L7.0685 20.7503C6.01527 21.2978 4.78346 20.4148 4.98512 19.2575L5.79782 14.5789C5.878 14.1188 5.72372 13.6504 5.38479 13.3245L1.93596 10.0106C1.08317 9.1923 1.55208 7.76418 2.73044 7.59405L7.49976 6.90755C7.96746 6.84045 8.37199 6.55052 8.58094 6.13238L10.7117 1.87317C11.2389 0.820053 12.7611 0.820053 13.2883 1.87317Z" stroke="#0EA102" stroke-width="1.5" stroke-linecap="round" stroke-linejoin="round"/>
</svg>
