<svg width="237" height="307" viewBox="0 0 237 307" fill="none" xmlns="http://www.w3.org/2000/svg">
<path d="M69.8988 115.219L3.74573 100.976L2.88601 100.792C2.4482 100.697 1.99245 100.727 1.57116 100.879C1.14986 101.031 0.780141 101.299 0.504507 101.652C0.228872 102.004 0.0585119 102.427 0.0130296 102.872C-0.0324527 103.317 0.0487936 103.765 0.247406 104.166L26.5129 157.402C26.6829 157.744 26.9327 158.04 27.2413 158.266C27.55 158.492 27.9084 158.64 28.2864 158.698C28.6657 158.757 29.0535 158.723 29.4165 158.599C29.7796 158.475 30.1068 158.264 30.3701 157.985L48.6134 138.786C48.7432 138.646 48.9006 138.535 49.0758 138.458C49.2509 138.382 49.44 138.343 49.6311 138.343C49.8909 138.339 50.1467 138.406 50.3713 138.536C50.5959 138.667 50.7808 138.855 50.9061 139.083L54.6429 145.981C54.8814 146.441 55.2673 146.808 55.739 147.024C56.2108 147.24 56.7413 147.292 57.2461 147.172L57.2647 147.167C57.7756 147.059 58.2354 146.783 58.57 146.383C58.9045 145.983 59.0946 145.482 59.1094 144.961L59.858 129.037C59.8669 128.838 59.9166 128.643 60.0041 128.464C60.0979 128.288 60.2253 128.131 60.3792 128.002L70.9039 119.379C71.2499 119.096 71.5088 118.721 71.651 118.298C71.7933 117.874 71.8131 117.419 71.7082 116.985C71.6033 116.551 71.3779 116.155 71.0579 115.842C70.7379 115.53 70.3361 115.314 69.8988 115.219H69.8988ZM70.3029 118.646L59.7781 127.269C59.641 127.38 59.5167 127.505 59.4077 127.643L3.62616 102.394C3.57696 102.371 3.52564 102.353 3.47293 102.34C3.25777 102.285 3.03 102.306 2.829 102.401C2.628 102.495 2.46642 102.657 2.3722 102.858C2.27798 103.059 2.25704 103.286 2.31301 103.501C2.36898 103.715 2.49834 103.904 2.67871 104.033L48.5436 137.659C48.3109 137.78 48.1007 137.939 47.9224 138.132L29.6793 157.33C29.521 157.497 29.3248 157.622 29.1074 157.697C28.89 157.771 28.6579 157.792 28.4307 157.758C28.2035 157.723 27.9879 157.635 27.8023 157.499C27.6168 157.364 27.4667 157.186 27.3648 156.981L1.09931 103.745C0.981892 103.504 0.934519 103.236 0.962601 102.969C0.990683 102.703 1.09308 102.45 1.25814 102.24C1.42319 102.029 1.64427 101.868 1.89617 101.777C2.14807 101.685 2.42068 101.666 2.68292 101.722L3.56306 101.912L69.6955 116.149C69.9581 116.206 70.1993 116.335 70.3917 116.523C70.584 116.71 70.7196 116.947 70.783 117.208C70.8464 117.468 70.835 117.742 70.75 117.996C70.6651 118.25 70.5102 118.476 70.3029 118.646Z" fill="#0EA102"/>
<path d="M84.0001 305.129C78.0662 303.529 70.8446 296.876 72.3907 287.732C73.1575 283.197 76.1004 280.261 79.1519 278.363C83.3727 275.737 88.1798 274.747 92.8123 274.497C98.1556 274.209 103.493 274.936 108.796 275.705C114.032 276.464 119.268 277.144 124.527 277.558C145.105 279.169 165.809 277.635 185.923 273.009C190.888 271.865 195.822 270.524 200.727 268.984C205.375 267.619 209.919 265.924 214.325 263.912C220.157 261.117 229.64 255.68 228.867 245.61C228.457 240.271 225.306 236.006 222.129 233.035C218.286 229.443 213.84 227.079 209.485 224.784C189.23 214.108 168.935 203.558 148.66 192.946C143.928 190.469 139.164 188.059 134.572 185.157C130.272 182.439 125.993 179.283 122.533 174.918C119.51 171.106 116.81 165.989 116.905 160.268C116.984 155.524 119.147 151.498 121.797 148.489C128.356 141.04 137.634 138.019 146.02 136.437C156.439 134.472 167.008 134.482 177.434 132.584C185.852 131.051 194.846 128.093 201.692 121.16C204.588 118.34 206.637 114.768 207.606 110.848C208.48 106.742 208.055 102.466 206.39 98.6111C204.536 94.19 201.577 90.6682 198.467 87.7843C194.894 84.5177 190.841 81.8154 186.45 79.7713C177.203 75.3737 167.48 73.084 158.009 69.7092C153.364 68.0541 148.672 66.2393 144.359 63.3964C140.705 60.9879 136.724 57.7415 134.692 52.9138C130.497 42.9531 140.504 37.0166 146.174 34.768C150.028 33.3091 153.997 32.1749 158.041 31.3773C158.896 31.1941 158.533 29.4907 157.682 29.6731C153.426 30.5013 149.254 31.717 145.22 33.3049C141.801 34.7227 138.273 36.5861 135.587 39.7926C134.364 41.2403 133.46 42.9285 132.934 44.7476C132.407 46.5667 132.269 48.476 132.53 50.3516C133.241 55.1308 136.334 58.8134 139.238 61.4807C143.078 65.008 147.457 67.3115 151.897 69.1893C156.573 71.1669 161.348 72.7082 166.122 74.2199C175.66 77.2408 185.626 79.9329 194.237 86.361C200.26 90.8578 208.443 99.2889 206.439 109.739C205.55 114.379 202.849 118.006 199.935 120.673C196.512 123.714 192.565 126.109 188.285 127.743C169.204 135.407 148.203 129.926 129.614 140.336C123.293 143.875 115.616 150.32 115.554 160.459C115.522 165.726 117.638 170.557 120.253 174.375C123.385 178.948 127.442 182.33 131.568 185.156C135.914 188.024 140.426 190.631 145.081 192.965C150.166 195.63 155.252 198.293 160.339 200.951L191.212 217.11L206.551 225.138C211.232 227.588 216.034 229.939 220.291 233.536C223.776 236.481 227.894 241.313 227.538 247.312C227.256 252.077 224.084 255.515 221.186 257.814C217.434 260.791 213.219 262.716 209.024 264.316C204.187 266.162 199.269 267.693 194.343 269.069C184.251 271.884 173.951 273.896 163.54 275.086C153.155 276.28 142.694 276.669 132.249 276.251C126.971 276.039 121.702 275.617 116.441 274.987C111.018 274.335 105.618 273.33 100.181 272.885C95.2628 272.482 90.2976 272.575 85.4544 273.871C81.4104 274.952 77.1381 276.88 74.0684 280.642C71.8059 283.514 70.6728 287.112 70.8826 290.759C71.0904 294.399 72.3907 297.893 74.6143 300.785C76.873 303.739 80.0466 305.866 83.6415 306.833C84.4892 307.062 84.8517 305.359 84.0003 305.129L84.0001 305.129Z" fill="#E6E6E6"/>
<path d="M237 305.936H82.8223V307H237V305.936Z" fill="#3F3D56"/>
<path d="M224.647 255.809C230.21 255.809 234.719 251.309 234.719 245.757C234.719 240.205 230.21 235.704 224.647 235.704C219.085 235.704 214.575 240.205 214.575 245.757C214.575 251.309 219.085 255.809 224.647 255.809Z" fill="#E6E6E6"/>
<path d="M206.272 114.124C211.835 114.124 216.344 109.623 216.344 104.071C216.344 98.5196 211.835 94.0189 206.272 94.0189C200.709 94.0189 196.2 98.5196 196.2 104.071C196.2 109.623 200.709 114.124 206.272 114.124Z" fill="#E6E6E6"/>
<path d="M183.5 0.420515L155.533 12.5548C154.298 13.0924 153.327 14.097 152.833 15.3483C152.339 16.5995 152.363 17.9953 152.899 19.2293L161.583 39.1668C162.121 40.3996 163.128 41.3688 164.382 41.8618C165.635 42.3548 167.034 42.3313 168.27 41.7965L196.237 29.6623C197.472 29.1247 198.443 28.1201 198.937 26.8688C199.431 25.6175 199.407 24.2218 198.872 22.9878L190.187 3.05024C189.649 1.81745 188.642 0.848242 187.389 0.355244C186.135 -0.137753 184.736 -0.114279 183.5 0.420515ZM184.658 3.07885C184.825 3.00707 185.001 2.95659 185.181 2.92862L175.725 20.7333L156.306 15.4292C156.426 15.3443 156.556 15.2719 156.691 15.2131L184.658 3.07885ZM195.079 27.0039L167.112 39.1382C166.582 39.3674 165.983 39.3774 165.446 39.1661C164.908 38.9549 164.477 38.5395 164.246 38.0112L155.64 18.2526L176.081 23.8356C176.399 23.9225 176.738 23.8987 177.04 23.7679C177.343 23.6372 177.593 23.4074 177.747 23.1164L187.644 4.48045L196.208 24.1434C196.438 24.6723 196.448 25.2704 196.236 25.8067C196.024 26.343 195.608 26.7735 195.079 27.0039Z" fill="#E6E6E6"/>
<path d="M152.132 173.362C166.196 173.362 177.597 161.983 177.597 147.946C177.597 133.91 166.196 122.531 152.132 122.531C138.068 122.531 126.667 133.91 126.667 147.946C126.667 161.983 138.068 173.362 152.132 173.362Z" fill="#0EA102"/>
<path d="M148.119 306.249H141.097C140.277 306.248 139.491 305.922 138.911 305.344C138.331 304.765 138.005 303.98 138.004 303.162V244.744C138.005 243.926 138.331 243.141 138.911 242.562C139.491 241.984 140.277 241.658 141.097 241.657H148.119C148.939 241.658 149.726 241.984 150.305 242.562C150.885 243.141 151.211 243.926 151.212 244.744V303.162C151.211 303.98 150.885 304.765 150.305 305.344C149.726 305.922 148.939 306.248 148.119 306.249Z" fill="#2F2E41"/>
<path d="M162.01 306.249H154.987C154.167 306.248 153.381 305.922 152.801 305.344C152.221 304.765 151.895 303.98 151.894 303.162V244.744C151.895 243.926 152.221 243.141 152.801 242.562C153.381 241.984 154.167 241.658 154.987 241.657H162.01C162.83 241.658 163.616 241.984 164.195 242.562C164.775 243.141 165.101 243.926 165.102 244.744V303.162C165.101 303.98 164.775 304.765 164.195 305.344C163.616 305.922 162.83 306.248 162.01 306.249Z" fill="#2F2E41"/>
<path d="M191.112 238.635C190.803 238.635 190.496 238.589 190.201 238.499C189.813 238.381 189.451 238.187 189.138 237.929C188.824 237.67 188.566 237.353 188.376 236.994L160.939 185.392C160.748 185.034 160.63 184.642 160.592 184.238C160.553 183.835 160.594 183.428 160.713 183.04C160.833 182.653 161.027 182.292 161.285 181.98C161.544 181.667 161.862 181.409 162.221 181.219L168.424 177.933C168.782 177.743 169.175 177.625 169.58 177.586C169.984 177.548 170.392 177.589 170.78 177.708C171.169 177.827 171.53 178.021 171.843 178.279C172.156 178.537 172.415 178.854 172.606 179.212L200.043 230.814C200.233 231.173 200.351 231.564 200.39 231.968C200.429 232.372 200.387 232.779 200.268 233.166C200.149 233.554 199.955 233.914 199.696 234.227C199.437 234.539 199.12 234.798 198.761 234.988L192.558 238.274C192.113 238.511 191.616 238.635 191.112 238.635Z" fill="#0EA102"/>
<path d="M133.994 191.072C133.623 191.072 133.255 191.005 132.908 190.874H132.907L78.1522 170.228C77.7724 170.085 77.4246 169.869 77.1287 169.591C76.8329 169.313 76.5947 168.98 76.4279 168.611C76.2611 168.242 76.1688 167.843 76.1565 167.438C76.1441 167.033 76.2118 166.629 76.3558 166.25L78.8329 159.693C79.1253 158.928 79.7092 158.31 80.457 157.974C81.2048 157.638 82.0556 157.611 82.8232 157.899L137.577 178.54C138.343 178.831 138.962 179.412 139.3 180.158C139.637 180.903 139.666 181.751 139.379 182.517L136.897 189.075C136.673 189.662 136.275 190.168 135.757 190.524C135.238 190.881 134.624 191.072 133.994 191.072Z" fill="#0EA102"/>
<path d="M167.797 177.778H135.888C134.312 177.778 133.033 179.053 133.033 180.627V248.287C133.033 249.861 134.312 251.137 135.888 251.137H167.797C169.374 251.137 170.652 249.861 170.652 248.287V180.627C170.652 179.053 169.374 177.778 167.797 177.778Z" fill="#2F2E41"/>
<path d="M170.941 123.057C172.437 126.334 173.87 130.295 172.259 133.8C171.668 135.216 170.56 136.355 169.159 136.986C167.499 137.646 165.69 137.269 164.152 136.47C160.913 134.788 158.826 131.663 155.934 129.521C154.618 128.498 153.061 127.829 151.412 127.576C149.512 127.329 147.626 127.776 145.768 128.122C143.791 128.489 141.749 128.683 139.919 127.683C138.31 126.744 137.051 125.308 136.331 123.591C135.955 122.757 134.724 123.48 135.099 124.31C136.654 127.756 139.871 130.105 143.736 129.833C145.781 129.689 147.756 129.03 149.805 128.936C151.674 128.874 153.506 129.459 154.993 130.591C158.167 132.85 160.322 136.318 163.964 137.959C165.682 138.733 167.65 139.055 169.462 138.389C171.024 137.782 172.326 136.651 173.143 135.189C175.533 131.082 173.998 126.334 172.174 122.338C171.793 121.505 170.563 122.228 170.941 123.057Z" fill="#2F2E41"/>
<path d="M154.947 156.432C153.374 156.388 151.416 156.334 149.909 155.234C149.46 154.893 149.091 154.459 148.828 153.96C148.565 153.462 148.414 152.913 148.386 152.35C148.359 151.951 148.424 151.55 148.578 151.18C148.731 150.81 148.969 150.48 149.271 150.217C150.058 149.552 151.208 149.396 152.449 149.76L151.164 140.393L152.107 140.264L153.617 151.276L152.83 150.916C151.918 150.498 150.664 150.285 149.885 150.942C149.694 151.114 149.545 151.327 149.45 151.565C149.355 151.804 149.316 152.061 149.337 152.317C149.36 152.735 149.473 153.144 149.669 153.515C149.864 153.886 150.137 154.211 150.47 154.467C151.644 155.323 153.204 155.434 154.974 155.483L154.947 156.432Z" fill="#2F2E41"/>
<path d="M146.502 141.201H141.376V142.15H146.502V141.201Z" fill="#2F2E41"/>
<path d="M162.679 141.201H157.554V142.15H162.679V141.201Z" fill="#2F2E41"/>
<path d="M132.991 190.652L110.488 183.803C109.787 183.59 109.194 183.115 108.834 182.477C108.474 181.839 108.374 181.087 108.554 180.377L111.181 170.046C111.285 169.638 111.478 169.258 111.746 168.933C112.015 168.608 112.352 168.347 112.734 168.168C113.116 167.989 113.533 167.897 113.954 167.898C114.376 167.899 114.793 167.993 115.174 168.174L137.493 178.762C138.2 179.03 138.773 179.567 139.084 180.255C139.396 180.943 139.422 181.726 139.156 182.433L136.674 188.991C136.406 189.699 135.867 190.271 135.177 190.582C134.486 190.893 133.7 190.918 132.991 190.652Z" fill="#2F2E41"/>
<path d="M161.343 184.808L170.994 206.221C171.295 206.889 171.842 207.416 172.521 207.692C173.201 207.968 173.961 207.972 174.644 207.703L184.58 203.797C184.972 203.642 185.325 203.403 185.614 203.096C185.903 202.789 186.12 202.422 186.25 202.022C186.379 201.621 186.419 201.197 186.364 200.779C186.31 200.362 186.164 199.961 185.936 199.607L172.591 178.848C172.235 178.181 171.63 177.683 170.906 177.461C170.183 177.239 169.401 177.313 168.732 177.665L162.528 180.951C161.859 181.307 161.358 181.912 161.136 182.635C160.914 183.358 160.988 184.139 161.343 184.808Z" fill="#2F2E41"/>
<path d="M69.8988 115.219L3.74573 100.976L2.88601 100.792C2.4482 100.697 1.99245 100.727 1.57116 100.879C1.14986 101.031 0.780141 101.299 0.504507 101.652C0.228872 102.004 0.0585119 102.427 0.0130296 102.872C-0.0324527 103.317 0.0487936 103.765 0.247406 104.166L26.5129 157.402C26.6829 157.744 26.9327 158.04 27.2413 158.266C27.55 158.492 27.9084 158.64 28.2864 158.698C28.6657 158.757 29.0535 158.723 29.4165 158.599C29.7796 158.475 30.1068 158.264 30.3701 157.985L48.6134 138.786C48.7432 138.646 48.9006 138.535 49.0758 138.458C49.2509 138.382 49.44 138.343 49.6311 138.343C49.8909 138.339 50.1467 138.406 50.3713 138.536C50.5959 138.667 50.7808 138.855 50.9061 139.083L54.6429 145.981C54.8814 146.441 55.2673 146.808 55.739 147.024C56.2108 147.24 56.7413 147.292 57.2461 147.172L57.2647 147.167C57.7756 147.059 58.2354 146.783 58.57 146.383C58.9045 145.983 59.0946 145.482 59.1094 144.961L59.858 129.037C59.8669 128.838 59.9166 128.643 60.0041 128.464C60.0979 128.288 60.2253 128.131 60.3792 128.002L70.9039 119.379C71.2499 119.096 71.5088 118.721 71.651 118.298C71.7933 117.874 71.8131 117.419 71.7082 116.985C71.6033 116.551 71.3779 116.155 71.0579 115.842C70.7379 115.53 70.3361 115.314 69.8988 115.219H69.8988ZM70.3029 118.646L59.7781 127.269C59.641 127.38 59.5167 127.505 59.4077 127.643C59.3093 127.766 59.2244 127.899 59.1543 128.039C59.0809 128.183 59.0231 128.335 58.9818 128.491L58.9828 128.495C58.9392 128.658 58.914 128.825 58.9078 128.993L58.1595 144.917C58.1532 145.23 58.0404 145.532 57.8395 145.773C57.6387 146.013 57.3617 146.178 57.0543 146.241L57.045 146.243C56.7421 146.318 56.4226 146.289 56.1384 146.16C55.8542 146.031 55.622 145.811 55.4793 145.534L51.7415 138.631C51.5489 138.275 51.2686 137.975 50.9272 137.759C50.5858 137.542 50.1946 137.416 49.7908 137.393L49.7863 137.394C49.7319 137.391 49.6778 137.389 49.6247 137.391C49.2479 137.391 48.8768 137.483 48.5436 137.659C48.3109 137.78 48.1007 137.939 47.9224 138.132L29.6793 157.33C29.521 157.497 29.3248 157.622 29.1074 157.697C28.89 157.771 28.6579 157.792 28.4307 157.758C28.2035 157.723 27.9879 157.635 27.8024 157.499C27.6168 157.364 27.4667 157.186 27.3648 156.981L1.09931 103.745C0.981892 103.504 0.934519 103.236 0.962601 102.969C0.990683 102.703 1.09308 102.45 1.25814 102.24C1.42319 102.029 1.64427 101.868 1.89617 101.777C2.14807 101.685 2.42068 101.666 2.68292 101.722L3.56306 101.912L69.6955 116.149C69.9581 116.206 70.1993 116.335 70.3917 116.523C70.584 116.71 70.7196 116.947 70.783 117.208C70.8464 117.468 70.835 117.742 70.75 117.996C70.6651 118.25 70.5102 118.476 70.3029 118.646Z" fill="#3F3D56"/>
<path d="M59.6187 127.737L59.2256 128.602L58.9827 128.495L58.9817 128.491L3.24437 103.266L49.7862 137.394L49.7907 137.393L49.914 137.487L49.3528 138.253L48.5435 137.659L2.67865 104.033C2.49828 103.903 2.36892 103.715 2.31295 103.501C2.25698 103.286 2.27792 103.059 2.37214 102.858C2.46636 102.657 2.62795 102.495 2.82894 102.401C3.02994 102.306 3.25771 102.285 3.47287 102.34C3.52558 102.353 3.57691 102.371 3.6261 102.394L59.4076 127.643L59.6187 127.737Z" fill="#3F3D56"/>
</svg>
