<svg width="20" height="16" viewBox="0 0 20 16" fill="none" xmlns="http://www.w3.org/2000/svg">
<path d="M4.19417 15.3421C4.13609 15.3919 4.06713 15.4314 3.99124 15.4584C3.91535 15.4853 3.834 15.4992 3.75185 15.4992C3.6697 15.4992 3.58836 15.4853 3.51246 15.4584C3.43657 15.4314 3.36761 15.3919 3.30953 15.3421L0.186489 12.6619C0.0979498 12.5872 0.0374093 12.4915 0.0125932 12.3871C-0.0122228 12.2827 -0.000188889 12.1744 0.0471593 12.0759C0.0945076 11.9774 0.175023 11.8932 0.27843 11.8341C0.381838 11.775 0.503448 11.7436 0.627741 11.744C1.66404 11.744 2.50413 10.9039 2.50413 9.86764V1.03604C2.50413 0.965648 2.52031 0.895943 2.55175 0.830908C2.58318 0.765872 2.62925 0.706779 2.68733 0.657003C2.74541 0.607227 2.81436 0.567742 2.89024 0.540804C2.96613 0.513865 3.04746 0.5 3.1296 0.5H4.38053C4.54641 0.5 4.7055 0.556476 4.8228 0.657003C4.94009 0.757531 5.00599 0.893875 5.00599 1.03604V9.87345C5.00599 10.9086 5.84512 11.7477 6.88024 11.7477C7.00454 11.7473 7.12615 11.7787 7.22955 11.8378C7.33296 11.8969 7.41348 11.9811 7.46083 12.0795C7.50817 12.178 7.52021 12.2864 7.49539 12.3908C7.47058 12.4951 7.41004 12.5908 7.3215 12.6656L4.19417 15.3421ZM8.75235 2.10813V1.03604C8.75235 0.893875 8.81825 0.757531 8.93555 0.657003C9.05284 0.556476 9.21193 0.5 9.37782 0.5H19.3745C19.5404 0.5 19.6995 0.556476 19.8168 0.657003C19.9341 0.757531 20 0.893875 20 1.03604V2.10813C20 2.25029 19.9341 2.38664 19.8168 2.48717C19.6995 2.58769 19.5404 2.64417 19.3745 2.64417H9.37568C9.21016 2.64368 9.05162 2.58699 8.93479 2.48652C8.81795 2.38604 8.75235 2.24998 8.75235 2.10813ZM8.75235 5.32254C8.75235 5.18038 8.81825 5.04403 8.93555 4.9435C9.05284 4.84298 9.21193 4.7865 9.37782 4.7865H16.8748C17.04 4.78698 17.1982 4.84342 17.315 4.9435C17.4317 5.04358 17.4976 5.17918 17.4981 5.32071V6.39279C17.4981 6.53496 17.4322 6.6713 17.3149 6.77183C17.1977 6.87236 17.0386 6.92883 16.8727 6.92883H9.37568C9.20979 6.92883 9.0507 6.87236 8.9334 6.77183C8.81611 6.6713 8.75021 6.53496 8.75021 6.39279L8.75235 5.32254ZM8.75235 9.60721C8.75235 9.46504 8.81825 9.3287 8.93555 9.22817C9.05284 9.12764 9.21193 9.07117 9.37782 9.07117H14.3751C14.541 9.07117 14.7001 9.12764 14.8174 9.22817C14.9347 9.3287 15.0006 9.46504 15.0006 9.60721V10.6775C15.0006 10.8196 14.9347 10.956 14.8174 11.0565C14.7001 11.157 14.541 11.2135 14.3751 11.2135H9.37568C9.20979 11.2135 9.0507 11.157 8.9334 11.0565C8.81611 10.956 8.75021 10.8196 8.75021 10.6775L8.75235 9.60721ZM8.75235 13.8919C8.75235 13.7497 8.81825 13.6134 8.93555 13.5128C9.05284 13.4123 9.21193 13.3558 9.37782 13.3558H11.8754C12.0413 13.3558 12.2004 13.4123 12.3177 13.5128C12.435 13.6134 12.5009 13.7497 12.5009 13.8919V14.964C12.5009 15.1061 12.435 15.2425 12.3177 15.343C12.2004 15.4435 12.0413 15.5 11.8754 15.5H9.37568C9.20979 15.5 9.0507 15.4435 8.9334 15.343C8.81611 15.2425 8.75021 15.1061 8.75021 14.964L8.75235 13.8919Z" fill="black"/>
</svg>
