<svg width="22" height="22" viewBox="0 0 22 22" fill="none" xmlns="http://www.w3.org/2000/svg">
<path d="M19 0.25H3C1.48122 0.25 0.25 1.48122 0.25 3V19C0.25 20.5188 1.48122 21.75 3 21.75H19C20.5188 21.75 21.75 20.5188 21.75 19V3C21.75 1.48122 20.5188 0.25 19 0.25Z" fill="#29B6F6"/>
<path d="M16.62 20.2499C15.7 13.4899 9.49 8.24993 2 8.24993C1.91654 8.24826 1.83306 8.2516 1.75 8.25993C1.24865 8.26001 0.74776 8.29006 0.250001 8.34993V18.9999C0.249738 19.3611 0.320689 19.7189 0.458796 20.0526C0.596904 20.3864 0.799457 20.6896 1.05487 20.9451C1.31028 21.2005 1.61355 21.403 1.94731 21.5411C2.28107 21.6792 2.63879 21.7502 3 21.7499H16.74C16.7406 21.2475 16.7005 20.7459 16.62 20.2499Z" fill="#1565C0"/>
<path d="M16 8.75C17.5188 8.75 18.75 7.51878 18.75 6C18.75 4.48122 17.5188 3.25 16 3.25C14.4812 3.25 13.25 4.48122 13.25 6C13.25 7.51878 14.4812 8.75 16 8.75Z" fill="#E1F5FE"/>
</svg>
