<svg width="17" height="16" viewBox="0 0 17 16" fill="none" xmlns="http://www.w3.org/2000/svg">
<path d="M15.3983 7.62502C15.401 8.61492 15.1584 9.59144 14.6903 10.475C14.1352 11.5338 13.2819 12.4244 12.2259 13.047C11.1699 13.6696 9.95299 13.9996 8.7114 14C7.67306 14.0026 6.64877 13.7713 5.72195 13.325L1.23777 14.75L2.7325 10.475C2.26436 9.59144 2.02176 8.61492 2.02447 7.62502C2.02495 6.44134 2.3711 5.28116 3.02414 4.27443C3.67718 3.26771 4.61133 2.4542 5.72195 1.92502C6.64877 1.47872 7.67306 1.24744 8.7114 1.25002H9.10474C10.7445 1.33627 12.2933 1.99609 13.4545 3.10317C14.6157 4.21024 15.3079 5.68676 15.3983 7.25002V7.62502Z" stroke="#0EA102" stroke-width="1.5" stroke-linecap="round" stroke-linejoin="round"/>
</svg>
