<svg width="512" height="512" viewBox="0 0 512 512" fill="none" xmlns="http://www.w3.org/2000/svg">
<path d="M384.204 198.97C401.365 304.354 305.489 400.312 200.067 383.049C235.243 427.713 305.943 443.798 357.804 416.884L395.846 429.566C397.383 430.065 399.016 430.195 400.613 429.945C402.209 429.696 403.724 429.073 405.036 428.128C406.347 427.184 407.417 425.943 408.159 424.508C408.901 423.072 409.294 421.482 409.307 419.866V371.823C446.592 318.636 434.266 238.616 384.204 198.97Z" fill="#E2E2E2"/>
<path d="M365.49 222.689C365.49 144.569 301.934 81.012 223.815 81.012C113.894 79.583 44.079 206.392 104.045 298.36V354.14C104.058 355.756 104.451 357.346 105.194 358.781C105.936 360.217 107.006 361.457 108.317 362.402C109.628 363.347 111.143 363.969 112.74 364.219C114.336 364.469 115.969 364.339 117.506 363.84L160.58 349.479C252.753 396.898 366.737 326.436 365.49 222.688V222.689ZM257.403 189.164C257.903 175.615 277.356 175.614 277.857 189.164V200.118C277.357 213.667 257.904 213.668 257.403 200.118V189.164ZM190.223 200.118C189.723 213.667 170.27 213.668 169.769 200.118V189.164C170.269 175.615 189.722 175.614 190.223 189.164V200.118ZM200.149 258.624C198.231 256.706 197.154 254.105 197.154 251.392C197.154 248.68 198.231 246.079 200.149 244.161C206.431 237.899 214.939 234.382 223.809 234.382C232.68 234.382 241.188 237.899 247.47 244.161C248.444 245.105 249.22 246.233 249.754 247.479C250.287 248.726 250.568 250.066 250.579 251.422C250.59 252.778 250.331 254.123 249.817 255.378C249.303 256.633 248.545 257.774 247.587 258.733C246.628 259.692 245.489 260.451 244.234 260.966C242.98 261.481 241.635 261.741 240.279 261.731C238.923 261.722 237.583 261.442 236.335 260.91C235.088 260.377 233.96 259.602 233.015 258.629C230.572 256.194 227.264 254.827 223.815 254.827C220.366 254.827 217.058 256.194 214.615 258.629C213.665 259.579 212.537 260.332 211.296 260.846C210.055 261.36 208.725 261.625 207.381 261.624C206.038 261.624 204.708 261.359 203.467 260.844C202.226 260.33 201.098 259.574 200.149 258.624Z" fill="#E2E2E2"/>
</svg>
