<svg width="24" height="22" viewBox="0 0 24 22" fill="none" xmlns="http://www.w3.org/2000/svg">
<path d="M22.9913 10.7302H21.524C21.5158 4.80317 16.7408 0 10.8502 0C7.90246 0 5.23439 1.20331 3.30203 3.14724C1.29765 5.10608 0.0231442 7.7485 0.00333277 10.7302H0L0.00166638 10.7609L0 10.7981H0.00333277C0.0397155 16.7094 4.79493 21.52 10.6673 21.52C13.615 21.52 16.2831 20.3158 18.2154 18.3678L15.8221 16.0598C14.5096 17.3839 12.6691 18.1915 10.6673 18.2015C6.55676 18.2206 3.33508 14.8234 3.33508 10.7841C3.32518 8.66473 4.26937 6.81181 5.6945 5.45213C7.00779 4.12967 8.84748 3.32277 10.8502 3.31286C14.9615 3.29379 18.1824 6.68683 18.1824 10.7187V10.7303H16.7325C15.8338 10.7303 15.4672 11.332 15.9166 12.0643L19.0456 15.1595C19.7614 15.8753 19.9683 15.8687 20.6792 15.1595L23.8082 12.0643C24.2575 11.3302 23.89 10.7302 22.9913 10.7302Z" fill="black"/>
</svg>
