<svg width="24" height="24" viewBox="0 0 24 24" fill="none" xmlns="http://www.w3.org/2000/svg">
<g clip-path="url(#clip0_741_939)">
<path d="M22.0002 10.882C21.4482 10.882 21.0002 10.434 21.0002 9.882C21.0002 7.077 19.9082 4.44101 17.9252 2.45701C17.5342 2.06601 17.5342 1.43401 17.9252 1.04301C18.3162 0.652006 18.9482 0.652006 19.3392 1.04301C21.7002 3.40401 23.0002 6.543 23.0002 9.882C23.0002 10.434 22.5522 10.882 22.0002 10.882Z" fill="#0EA102"/>
<path d="M2.00005 10.882C1.44805 10.882 1.00005 10.434 1.00005 9.882C1.00005 6.543 2.30005 3.40401 4.66104 1.04301C5.05204 0.652006 5.68404 0.652006 6.07504 1.04301C6.46604 1.43401 6.46604 2.06601 6.07504 2.45701C4.09204 4.44001 3.00005 7.077 3.00005 9.882C3.00005 10.434 2.55205 10.882 2.00005 10.882Z" fill="#0EA102"/>
<path d="M21.3789 16.913C19.8669 15.635 18.9999 13.767 18.9999 11.788V9C18.9999 5.481 16.3859 2.568 12.9999 2.08V1C12.9999 0.447 12.5519 0 11.9999 0C11.4479 0 10.9999 0.447 10.9999 1V2.08C7.61294 2.568 4.99994 5.481 4.99994 9V11.788C4.99994 13.767 4.13294 15.635 2.61194 16.921C2.22294 17.254 1.99994 17.738 1.99994 18.25C1.99994 19.215 2.78494 20 3.74994 20H20.2499C21.2149 20 21.9999 19.215 21.9999 18.25C21.9999 17.738 21.7769 17.254 21.3789 16.913Z" fill="#0EA102"/>
<path d="M12 24C13.811 24 15.326 22.709 15.674 21H8.32596C8.67396 22.709 10.189 24 12 24Z" fill="#0EA102"/>
</g>
<defs>
<clipPath id="clip0_741_939">
<rect width="24" height="24" fill="white"/>
</clipPath>
</defs>
</svg>
