<svg width="22" height="20" viewBox="0 0 22 20" fill="none" xmlns="http://www.w3.org/2000/svg">
<path fill-rule="evenodd" clip-rule="evenodd" d="M12.2883 0.873177L14.4203 5.13239C14.6292 5.55052 15.0325 5.84046 15.5002 5.90755L20.2696 6.59405C21.4479 6.76418 21.9168 8.19231 21.064 9.0106L17.6152 12.3245C17.2763 12.6504 17.122 13.1189 17.2022 13.5789L18.0161 18.2575C18.2165 19.4148 16.9847 20.2978 15.9315 19.7503L11.6687 17.5398C11.2509 17.3229 10.7504 17.3229 10.3313 17.5398L6.0685 19.7503C5.01527 20.2978 3.78346 19.4148 3.98512 18.2575L4.79782 13.5789C4.878 13.1189 4.72372 12.6504 4.38479 12.3245L0.93596 9.0106C0.0831678 8.19231 0.552082 6.76418 1.73044 6.59405L6.49976 5.90755C6.96746 5.84046 7.37199 5.55052 7.58094 5.13239L9.7117 0.873177C10.2389 -0.179944 11.7611 -0.179944 12.2883 0.873177Z" fill="#0EA102"/>
</svg>
