<?xml version="1.0" encoding="iso-8859-1"?>
<!-- Generator: Adobe Illustrator 19.0.0, SVG Export Plug-In . SVG Version: 6.00 Build 0)  -->
<svg version="1.1" id="Layer_1" xmlns="http://www.w3.org/2000/svg" xmlns:xlink="http://www.w3.org/1999/xlink" x="0px" y="0px"
	 viewBox="0 0 464 464" style="enable-background:new 0 0 464 464;" xml:space="preserve">
<g>
	<g>
		<g>
			<path style="fill:#A2B0C4;" d="M72,128.004c-3.352,0-6.473-2.121-7.59-5.477l-4.352-13.059c-1.09-3.27-4.141-5.469-7.59-5.469H16
				c-4.418,0-8-3.582-8-8s3.582-8,8-8h36.469c10.344,0,19.496,6.594,22.77,16.41l4.352,13.063c1.398,4.191-0.867,8.719-5.063,10.117
				C73.691,127.871,72.836,128.004,72,128.004z"/>
		</g>
	</g>
	<g>
		<g>
			<path style="fill:#A2B0C4;" d="M392,128.004c-0.836,0-1.691-0.133-2.527-0.414c-4.195-1.398-6.461-5.926-5.063-10.117
				l4.352-13.059C392.035,94.594,401.188,88,411.531,88H448c4.418,0,8,3.582,8,8s-3.582,8-8,8h-36.469
				c-3.449,0-6.5,2.199-7.59,5.473l-4.352,13.055C398.473,125.883,395.352,128.004,392,128.004z"/>
		</g>
	</g>
	<path style="fill:#96A5B9;" d="M194.246,35l4-19h67.508l4,19h17.243l-5.72-22.883C279.492,4.98,273.109,0,265.754,0h-67.508
		c-7.355,0-13.738,4.98-15.523,12.117L177.003,35H194.246z"/>
	<g>
		<path style="fill:#AFBBD0;" d="M392,64H72c-4.418,0-8-3.582-8-8l0,0c0-4.418,3.582-8,8-8h320c4.418,0,8,3.582,8,8l0,0
			C400,60.418,396.418,64,392,64z"/>
	</g>
	<g>
		<path style="fill:#A2B0C4;" d="M368,48H96l0,0c0-8.837,7.163-16,16-16h240C360.837,32,368,39.163,368,48L368,48z"/>
	</g>
	<g>
		<path style="fill:#BEC8DC;" d="M388.28,80.916c2.422-1.274,3.72-3.997,3.72-6.733V64H72v10.183c0,2.736,1.298,5.459,3.72,6.733
			C78.265,82.255,80,84.924,80,88c0,2.859-1.51,5.339-3.773,6.734c-2.391,1.474-3.706,4.197-3.572,7.002l15.059,300.543
			c0.134,2.666,1.408,5.359,3.805,6.535C94.173,410.115,96,412.844,96,416c0,3.075-1.735,5.745-4.28,7.084
			c-2.422,1.274-3.72,3.997-3.72,6.733V448h288v-18.183c0-2.736-1.298-5.459-3.72-6.733c-2.545-1.339-4.28-4.009-4.28-7.084
			c0-3.156,1.827-5.885,4.482-7.187c2.397-1.176,3.671-3.868,3.805-6.535l15.059-300.543c0.134-2.805-1.182-5.528-3.572-7.002
			C385.51,93.339,384,90.859,384,88C384,84.924,385.735,82.255,388.28,80.916z"/>
	</g>
	<g>
		<path style="fill:#AFBBD0;" d="M154.846,423.084c1.4-1.339,2.354-4.009,2.354-7.084c0-3.156-1.005-5.885-2.465-7.187
			c-1.318-1.176-2.019-3.868-2.093-6.535l-8.282-300.542c-0.074-2.805,0.65-5.528,1.965-7.002c1.245-1.395,2.075-3.875,2.075-6.734
			c0-3.076-0.954-5.746-2.354-7.084c-1.332-1.274-2.046-3.997-2.046-6.733V64H72v10.183c0,2.736,1.298,5.459,3.72,6.733
			C78.265,82.254,80,84.924,80,88c0,2.859-1.51,5.339-3.773,6.734c-2.391,1.474-3.706,4.197-3.572,7.002l15.059,300.542
			c0.133,2.667,1.408,5.359,3.805,6.535C94.173,410.115,96,412.844,96,416c0,3.075-1.735,5.745-4.28,7.084
			c-2.421,1.274-3.72,3.997-3.72,6.733V448h64.8v-18.183C152.8,427.081,153.514,424.358,154.846,423.084z"/>
	</g>
	<g>
		<path style="fill:#AFBBD0;" d="M376,464H88c-4.418,0-8-3.582-8-8l0,0c0-4.418,3.582-8,8-8h288c4.418,0,8,3.582,8,8l0,0
			C384,460.418,380.418,464,376,464z"/>
	</g>
	<g>
		<path style="fill:#AFBBD0;" d="M372.482,408.813c0.427-0.209,0.774-0.517,1.129-0.813H90.389c0.355,0.296,0.703,0.604,1.129,0.813
			C94.173,410.115,96,412.844,96,416c0,3.075-1.735,5.745-4.28,7.084c-0.46,0.242-0.84,0.579-1.218,0.916h282.996
			c-0.378-0.337-0.758-0.673-1.218-0.916c-2.545-1.339-4.28-4.009-4.28-7.084C368,412.844,369.827,410.115,372.482,408.813z"/>
	</g>
	<g>
		<path style="fill:#AFBBD0;" d="M388.28,80.916c0.46-0.242,0.84-0.579,1.218-0.916H74.502c0.378,0.337,0.758,0.673,1.218,0.916
			C78.265,82.254,80,84.924,80,88c0,2.859-1.51,5.339-3.773,6.734c-0.573,0.353-1.075,0.786-1.519,1.266h314.585
			c-0.444-0.48-0.946-0.913-1.519-1.266C385.51,93.339,384,90.859,384,88C384,84.924,385.735,82.254,388.28,80.916z"/>
	</g>
	<g>
		<g>
			<path style="fill:#AFBBD0;" d="M232,384c-8.836,0-16-7.164-16-16V136c0-8.836,7.164-16,16-16s16,7.164,16,16v232
				C248,376.836,240.836,384,232,384z"/>
		</g>
	</g>
	<g>
		<g>
			<path style="fill:#AFBBD0;" d="M276.215,384c-0.086,0-0.176,0-0.266-0.004c-8.836-0.141-15.879-7.422-15.734-16.258l3.789-232
				c0.141-8.746,7.277-15.738,15.992-15.738c0.086,0,0.176,0,0.266,0.004c8.836,0.141,15.879,7.422,15.734,16.258l-3.789,232
				C292.066,377.008,284.93,384,276.215,384z"/>
		</g>
	</g>
	<g>
		<g>
			<path style="fill:#AFBBD0;" d="M187.785,384c-8.715,0-15.852-6.992-15.992-15.738l-3.789-232
				c-0.145-8.836,6.898-16.117,15.734-16.258c9.148-0.391,16.113,6.902,16.258,15.734l3.789,232
				c0.145,8.836-6.898,16.117-15.734,16.258C187.961,384,187.871,384,187.785,384z"/>
		</g>
	</g>
	<g>
		<g>
			<path style="fill:#A2B0C4;" d="M143.574,384c-8.598,0-15.699-6.824-15.984-15.477l-7.582-232
				c-0.289-8.832,6.637-16.227,15.469-16.516c8.996-0.266,16.223,6.637,16.516,15.469l7.582,232
				c0.289,8.832-6.637,16.227-15.469,16.516C143.926,383.996,143.75,384,143.574,384z"/>
		</g>
	</g>
	<g>
		<g>
			<path style="fill:#C7D2E5;" d="M320.426,384c-0.176,0-0.352-0.004-0.531-0.008c-8.832-0.289-15.758-7.684-15.469-16.516
				l7.582-232c0.293-8.832,7.543-15.734,16.516-15.469c8.832,0.289,15.758,7.684,15.469,16.516l-7.582,232
				C336.125,377.176,329.023,384,320.426,384z"/>
		</g>
	</g>
	<g>
		<path style="fill:#C7D2E5;" d="M390.011,128.382c-2.581-4.735-7.447-8.078-13.226-8.362c-8.902-0.383-16.336,6.375-16.766,15.195
			l-11.371,232c-0.434,8.828,6.371,16.332,15.195,16.766c0.27,0.012,0.535,0.02,0.797,0.02c5.256,0,9.965-2.566,12.89-6.551
			L390.011,128.382z"/>
	</g>
	<g>
		<path style="fill:#A2B0C4;" d="M99.359,384c0.262,0,0.527-0.008,0.797-0.02c8.824-0.434,15.629-7.938,15.195-16.766l-11.371-232
			c-0.434-8.824-7.891-15.707-16.766-15.195c-5.779,0.284-10.645,3.628-13.226,8.363l12.48,249.066
			C89.395,381.434,94.103,384,99.359,384z"/>
	</g>
	<g>
		<path style="fill:#A2B0C4;" d="M148.4,88c0-3.076-0.954-5.746-2.354-7.084c-0.253-0.242-0.462-0.579-0.67-0.916H74.502
			c0.378,0.337,0.758,0.673,1.218,0.916C78.265,82.254,80,84.924,80,88c0,2.859-1.51,5.339-3.773,6.734
			c-0.573,0.353-1.075,0.786-1.519,1.266h70.782c0.244-0.48,0.521-0.913,0.835-1.266C147.569,93.339,148.4,90.859,148.4,88z"/>
	</g>
	<g>
		<path style="fill:#A2B0C4;" d="M154.846,423.084c1.4-1.339,2.354-4.009,2.354-7.084c0-3.156-1.005-5.885-2.465-7.187
			c-0.234-0.209-0.426-0.517-0.622-0.813H90.389c0.355,0.296,0.703,0.604,1.129,0.813C94.173,410.115,96,412.844,96,416
			c0,3.075-1.735,5.745-4.28,7.084c-0.46,0.242-0.84,0.579-1.218,0.916h63.674C154.383,423.663,154.593,423.327,154.846,423.084z"/>
	</g>
	<g>
		<path style="fill:#A2B0C4;" d="M160,56c0-4.418,3.582-8,8-8H72c-4.418,0-8,3.582-8,8s3.582,8,8,8h96C163.582,64,160,60.418,160,56
			z"/>
	</g>
	<path style="fill:#A2B0C4;" d="M145,456c0-4.418,3.582-8,8-8H88c-4.418,0-8,3.582-8,8s3.582,8,8,8h65
		C148.582,464,145,460.418,145,456z"/>
</g>
<g>
</g>
<g>
</g>
<g>
</g>
<g>
</g>
<g>
</g>
<g>
</g>
<g>
</g>
<g>
</g>
<g>
</g>
<g>
</g>
<g>
</g>
<g>
</g>
<g>
</g>
<g>
</g>
<g>
</g>
</svg>
