<svg width="274" height="273" viewBox="0 0 274 273" fill="none" xmlns="http://www.w3.org/2000/svg">
<g clip-path="url(#clip0_741_1275)">
<path d="M180.732 72.3278H135.759C134.775 72.3308 133.803 72.1089 132.917 71.679C132.031 71.2491 131.254 70.6226 130.647 69.8471C130.028 69.0642 129.596 68.1504 129.383 67.1751C129.17 66.1998 129.183 65.1887 129.419 64.2189C133.564 46.8378 133.564 28.7239 129.419 11.3428C129.182 10.373 129.17 9.36202 129.383 8.38679C129.596 7.41156 130.028 6.49776 130.646 5.71491C131.254 4.93933 132.031 4.31277 132.917 3.88288C133.803 3.453 134.775 3.23113 135.759 3.23416H180.732C182.285 3.23863 183.785 3.79475 184.967 4.80348C186.148 5.8122 186.934 7.20804 187.183 8.74236C190.143 27.9881 190.143 47.5739 187.183 66.8196C186.934 68.3539 186.148 69.7498 184.967 70.7585C183.785 71.7672 182.285 72.3233 180.732 72.3278Z" fill="#E6E6E6"/>
<path d="M135.76 6.62197C135.287 6.62037 134.82 6.72677 134.394 6.93307C133.969 7.13936 133.596 7.44011 133.304 7.81244C133.003 8.19392 132.793 8.63903 132.69 9.11391C132.587 9.58879 132.594 10.0809 132.709 10.5529C136.978 28.4534 136.978 47.1086 132.71 65.0091C132.594 65.4809 132.587 65.973 132.69 66.4478C132.793 66.9226 133.003 67.3676 133.304 67.749L133.304 67.7493C133.596 68.1217 133.969 68.4225 134.394 68.6289C134.82 68.8352 135.287 68.9416 135.76 68.94H180.732C181.478 68.9403 182.199 68.6755 182.768 68.193C183.337 67.7104 183.717 67.0413 183.839 66.3049C186.746 47.4003 186.746 28.1616 183.839 9.25709C183.717 8.52065 183.337 7.85158 182.768 7.36901C182.199 6.88644 181.478 6.6217 180.732 6.62196L135.76 6.62197Z" fill="white"/>
<path d="M170.918 22.9121H147.318C146.421 22.9111 145.561 22.5538 144.927 21.9187C144.292 21.2837 143.936 20.4226 143.935 19.5244V18.2005C143.936 17.3024 144.292 16.4413 144.927 15.8062C145.561 15.1711 146.421 14.8138 147.318 14.8129H170.918C171.815 14.8138 172.675 15.1711 173.31 15.8062C173.944 16.4413 174.301 17.3024 174.302 18.2005V19.5244C174.301 20.4226 173.944 21.2837 173.31 21.9188C172.675 22.5539 171.815 22.9111 170.918 22.9121Z" fill="#E6E6E6"/>
<path d="M170.918 39.6398H147.318C146.421 39.6388 145.561 39.2816 144.927 38.6465C144.292 38.0114 143.936 37.1503 143.935 36.2522V34.9283C143.936 34.0301 144.292 33.169 144.927 32.5339C145.561 31.8988 146.421 31.5416 147.318 31.5406H170.918C171.815 31.5416 172.675 31.8988 173.31 32.5339C173.944 33.169 174.301 34.0301 174.302 34.9283V36.2522C174.301 37.1503 173.944 38.0114 173.31 38.6465C172.675 39.2816 171.815 39.6388 170.918 39.6398Z" fill="#E6E6E6"/>
<path d="M170.918 56.3675H147.318C146.421 56.3665 145.561 56.0093 144.927 55.3742C144.292 54.7391 143.936 53.878 143.935 52.9798V51.656C143.936 50.7578 144.292 49.8967 144.927 49.2616C145.561 48.6265 146.421 48.2693 147.318 48.2683H170.918C171.815 48.2693 172.675 48.6265 173.31 49.2616C173.944 49.8967 174.301 50.7578 174.302 51.656V52.9798C174.301 53.878 173.944 54.7391 173.31 55.3742C172.675 56.0093 171.815 56.3665 170.918 56.3675Z" fill="#E6E6E6"/>
<path d="M265.329 115.24H220.356C219.372 115.243 218.399 115.021 217.513 114.591C216.628 114.161 215.851 113.535 215.243 112.759C214.625 111.976 214.192 111.062 213.98 110.087C213.767 109.112 213.779 108.101 214.016 107.131C218.161 89.7499 218.161 71.636 214.016 54.2549C213.779 53.2851 213.767 52.2741 213.98 51.2989C214.193 50.3237 214.625 49.4099 215.243 48.627C215.851 47.8514 216.627 47.2249 217.513 46.795C218.399 46.3651 219.372 46.1432 220.356 46.1463H265.329C266.881 46.1507 268.382 46.7069 269.564 47.7156C270.745 48.7243 271.531 50.1201 271.78 51.6545C274.74 70.9002 274.74 90.486 271.78 109.732C271.531 111.266 270.745 112.662 269.564 113.671C268.382 114.679 266.881 115.235 265.329 115.24Z" fill="#E6E6E6"/>
<path d="M220.356 49.5341C219.883 49.5325 219.416 49.6389 218.991 49.8452C218.565 50.0515 218.192 50.3522 217.9 50.7245C217.6 51.106 217.39 51.5511 217.287 52.026C217.184 52.5009 217.19 52.993 217.306 53.465C221.575 71.3655 221.575 90.0207 217.306 107.921C217.191 108.393 217.184 108.885 217.287 109.36C217.39 109.835 217.6 110.28 217.9 110.661L217.9 110.661C218.192 111.034 218.565 111.335 218.991 111.541C219.416 111.747 219.883 111.854 220.356 111.852H265.329C266.074 111.852 266.796 111.588 267.365 111.105C267.934 110.623 268.313 109.953 268.436 109.217C271.343 90.3124 271.343 71.0738 268.436 52.1692C268.313 51.4328 267.934 50.7637 267.365 50.2811C266.796 49.7985 266.074 49.5338 265.329 49.5341L220.356 49.5341Z" fill="white"/>
<path d="M175.656 164.081H130.684C129.656 164.084 128.642 163.852 127.718 163.404C126.793 162.955 125.983 162.302 125.349 161.492C124.704 160.676 124.253 159.723 124.032 158.706C123.81 157.689 123.823 156.635 124.069 155.624C128.204 138.286 128.204 120.217 124.069 102.879C123.822 101.868 123.81 100.814 124.032 99.7968C124.253 98.7799 124.704 97.827 125.349 97.0107C125.983 96.2015 126.793 95.5478 127.718 95.0993C128.642 94.6508 129.656 94.4193 130.684 94.4224H175.656C177.276 94.4272 178.842 95.0076 180.074 96.0602C181.307 97.1127 182.126 98.5691 182.386 100.17C185.35 119.444 185.35 139.059 182.386 158.333C182.126 159.934 181.307 161.39 180.074 162.443C178.842 163.495 177.276 164.076 175.656 164.081Z" fill="#F2F2F2"/>
<path d="M255.515 74.2936H231.915C231.018 74.2927 230.158 73.9354 229.523 73.3003C228.889 72.6652 228.532 71.8041 228.531 70.906V69.5821C228.532 68.684 228.889 67.8229 229.523 67.1878C230.158 66.5527 231.018 66.1954 231.915 66.1945H255.515C256.412 66.1954 257.272 66.5527 257.906 67.1878C258.541 67.8229 258.898 68.684 258.898 69.5821V70.906C258.897 71.8042 258.541 72.6652 257.906 73.3003C257.272 73.9354 256.412 74.2927 255.515 74.2936Z" fill="#E6E6E6"/>
<path d="M255.515 91.0213H231.915C231.018 91.0203 230.158 90.6631 229.523 90.028C228.889 89.3929 228.532 88.5318 228.531 87.6336V86.3098C228.532 85.4116 228.889 84.5505 229.523 83.9154C230.158 83.2803 231.018 82.9231 231.915 82.9221H255.515C256.412 82.9231 257.272 83.2803 257.906 83.9154C258.541 84.5505 258.898 85.4116 258.898 86.3098V87.6336C258.898 88.5318 258.541 89.3929 257.906 90.028C257.272 90.6631 256.412 91.0203 255.515 91.0213Z" fill="#E6E6E6"/>
<path d="M153.296 142.005C160.46 142.005 166.267 136.191 166.267 129.019C166.267 121.846 160.46 116.032 153.296 116.032C146.132 116.032 140.324 121.846 140.324 129.019C140.324 136.191 146.132 142.005 153.296 142.005Z" fill="white"/>
<path d="M159.5 127.325H154.988V122.808C154.988 122.358 154.809 121.928 154.492 121.61C154.175 121.292 153.744 121.114 153.296 121.114C152.847 121.114 152.417 121.292 152.099 121.61C151.782 121.928 151.604 122.358 151.604 122.808V127.325H147.092C146.643 127.325 146.213 127.503 145.896 127.821C145.578 128.139 145.4 128.569 145.4 129.019C145.4 129.468 145.578 129.899 145.896 130.216C146.213 130.534 146.643 130.713 147.092 130.713H151.604V135.23C151.604 135.679 151.782 136.11 152.099 136.427C152.417 136.745 152.847 136.923 153.296 136.923C153.744 136.923 154.175 136.745 154.492 136.427C154.809 136.11 154.988 135.679 154.988 135.23V130.713H159.5C159.948 130.713 160.379 130.534 160.696 130.216C161.013 129.899 161.191 129.468 161.191 129.019C161.191 128.569 161.013 128.139 160.696 127.821C160.379 127.503 159.948 127.325 159.5 127.325Z" fill="#E6E6E6"/>
<path d="M169.651 9.59876H145.964C145.291 9.598 144.646 9.33006 144.17 8.85372C143.694 8.37739 143.427 7.73155 143.426 7.05791V2.54085C143.427 1.86721 143.694 1.22137 144.17 0.745035C144.646 0.268698 145.291 0.000759182 145.964 0H169.651C170.324 0.000759182 170.969 0.268698 171.445 0.745035C171.921 1.22137 172.188 1.86721 172.189 2.54085V7.05791C172.188 7.73155 171.921 8.37739 171.445 8.85372C170.969 9.33006 170.324 9.598 169.651 9.59876Z" fill="#CCCCCC"/>
<path d="M255.376 53.0754H231.689C231.016 53.0747 230.371 52.8067 229.895 52.3304C229.419 51.8541 229.152 51.2082 229.151 50.5346V46.0175C229.152 45.3439 229.419 44.6981 229.895 44.2217C230.371 43.7454 231.016 43.4774 231.689 43.4767H255.376C256.049 43.4774 256.694 43.7454 257.17 44.2217C257.645 44.6981 257.913 45.3439 257.914 46.0175V50.5346C257.913 51.2082 257.645 51.8541 257.17 52.3304C256.694 52.8067 256.049 53.0747 255.376 53.0754Z" fill="#CCCCCC"/>
<path d="M49.9662 265.976H56.8805L59.0423 239.276H49.965L49.9662 265.976Z" fill="#FFB8B8"/>
<path d="M48.2028 263.717L61.8194 263.716H61.82C62.9595 263.716 64.088 263.941 65.1408 264.377C66.1936 264.814 67.1502 265.454 67.956 266.261C68.7618 267.067 69.401 268.025 69.8371 269.079C70.2732 270.133 70.4976 271.263 70.4976 272.404V272.686L48.2033 272.687L48.2028 263.717Z" fill="#2F2E41"/>
<path d="M12.7436 265.976H19.6579L22.9476 239.276H12.7424L12.7436 265.976Z" fill="#FFB8B8"/>
<path d="M10.9802 263.717L24.5968 263.716H24.5974C25.7369 263.716 26.8654 263.941 27.9182 264.377C28.971 264.814 29.9276 265.454 30.7334 266.261C31.5392 267.067 32.1784 268.025 32.6145 269.079C33.0506 270.133 33.275 271.263 33.275 272.404V272.686L10.9807 272.687L10.9802 263.717Z" fill="#2F2E41"/>
<path d="M13.9705 257.542C13.2652 257.542 12.5857 257.276 12.0671 256.797C11.7887 256.543 11.5644 256.235 11.4078 255.892C11.2512 255.549 11.1655 255.177 11.1558 254.8L8.38293 155.304L47.755 165.159L59.9028 201.644C61.4693 206.337 62.1474 211.282 61.9023 216.225L60.3939 251.592C60.3595 252.316 60.0477 253 59.5232 253.5C58.9986 254 58.3017 254.279 57.5772 254.279H50.9736C50.292 254.276 49.6342 254.027 49.121 253.578C48.6077 253.129 48.2733 252.51 48.1792 251.834L43.4593 212.794C43.0469 209.749 41.9827 206.828 40.3395 204.232L31.0511 189.509C30.989 189.411 30.898 189.334 30.7907 189.289C30.6834 189.245 30.5649 189.234 30.4515 189.26C30.338 189.285 30.2352 189.345 30.157 189.431C30.0788 189.517 30.0291 189.625 30.0147 189.74L22.7255 254.723C22.6472 255.382 22.3392 255.993 21.8557 256.447C21.3722 256.901 20.7441 257.169 20.0821 257.206L14.131 257.537C14.0775 257.54 14.0241 257.542 13.9705 257.542Z" fill="#2F2E41"/>
<path d="M41.203 90.8873C48.8532 90.8873 55.0549 84.6784 55.0549 77.0193C55.0549 69.3603 48.8532 63.1514 41.203 63.1514C33.5528 63.1514 27.3511 69.3603 27.3511 77.0193C27.3511 84.6784 33.5528 90.8873 41.203 90.8873Z" fill="#FFB8B8"/>
<path d="M47.5663 169.205C47.328 169.204 47.0906 169.174 46.8597 169.115H46.8593L7.7957 159.087C7.09728 158.908 6.49393 158.468 6.1097 157.857C5.72547 157.247 5.58955 156.512 5.72992 155.804L14.7012 107.42C15.2601 104.623 16.4887 102.004 18.2815 99.787C20.0742 97.5703 22.3775 95.8223 24.9937 94.6931C27.5428 93.5636 30.3304 93.0797 33.1106 93.284C35.8907 93.4884 38.5779 94.3747 40.9349 95.8649C41.4818 96.2065 42.0327 96.5789 42.5719 96.9721C44.7426 98.5752 46.5128 100.66 47.7436 103.063C48.9745 105.466 49.6325 108.122 49.6661 110.822L50.3795 166.342C50.3843 166.715 50.3151 167.086 50.176 167.432C50.0369 167.779 49.8306 168.094 49.5691 168.36C49.3075 168.627 48.9958 168.838 48.6521 168.983C48.3084 169.128 47.9393 169.203 47.5663 169.205Z" fill="#0EA102"/>
<path d="M11.8149 169.774C11.3489 169.087 11.0389 168.307 10.9068 167.487C10.7747 166.668 10.8237 165.829 11.0503 165.031C11.2768 164.233 11.6755 163.494 12.2183 162.866C12.761 162.239 13.4346 161.738 14.1915 161.399L12.454 141.297L21.6615 146.293L21.8998 164.616C22.3839 165.927 22.3709 167.37 21.8632 168.672C21.3556 169.974 20.3886 171.044 19.1455 171.68C17.9024 172.316 16.4695 172.473 15.1185 172.121C13.7674 171.77 12.5919 170.935 11.8149 169.774H11.8149Z" fill="#FFB8B8"/>
<path d="M15.1045 158.74C14.8447 158.74 14.5859 158.707 14.3342 158.643C13.7929 158.505 13.2989 158.223 12.9046 157.826C12.5103 157.43 12.2302 156.935 12.0941 156.392L7.56923 138.389C5.98789 132.102 6.74172 125.453 9.69048 119.68L19.1703 101.114C19.7696 98.8914 21.2175 96.9933 23.2018 95.8295C25.1861 94.6656 27.5479 94.3292 29.7777 94.8928C30.8891 95.1738 31.9337 95.6729 32.851 96.3611C33.7683 97.0493 34.54 97.913 35.1213 98.9021C35.7146 99.9053 36.1027 101.017 36.2628 102.171C36.423 103.326 36.352 104.501 36.0542 105.629L22.5596 135.84L22.7198 153.928C22.724 154.566 22.5323 155.19 22.1708 155.716C21.8092 156.241 21.2952 156.643 20.6983 156.867L16.1823 158.546C15.8375 158.674 15.4724 158.74 15.1045 158.74Z" fill="#0EA102"/>
<path d="M79.7001 162.38C78.8764 162.286 78.0833 162.012 77.3768 161.577C76.6702 161.143 76.0674 160.559 75.6107 159.866C75.154 159.173 74.8547 158.389 74.7336 157.567C74.6126 156.746 74.6729 155.909 74.9103 155.113L58.5586 143.318L68.3473 139.591L82.3744 151.363C83.6825 151.851 84.7665 152.802 85.4209 154.036C86.0753 155.271 86.2546 156.703 85.925 158.061C85.5954 159.418 84.7796 160.608 83.6323 161.404C82.485 162.2 81.0859 162.547 79.7001 162.38H79.7001Z" fill="#FFB8B8"/>
<path d="M71.1402 153.767C70.6581 153.766 70.1826 153.654 69.7513 153.438L53.1708 145.129C47.3795 142.227 42.838 137.318 40.3907 131.315L32.5191 112.01C31.2273 110.105 30.735 107.768 31.1483 105.503C31.5616 103.238 32.8475 101.226 34.7286 99.9015C35.6685 99.2399 36.7305 98.7721 37.8527 98.5256C38.975 98.279 40.1351 98.2585 41.2653 98.4654C42.4088 98.6712 43.5001 99.1022 44.4761 99.7334C45.452 100.365 46.2931 101.183 46.9507 102.142L61.0192 132.09L74.8173 143.768C75.3032 144.181 75.6507 144.734 75.8128 145.351C75.9748 145.968 75.9437 146.62 75.7235 147.219L74.0486 151.741C73.83 152.334 73.4349 152.846 72.9168 153.207C72.3959 153.571 71.7757 153.767 71.1402 153.767Z" fill="#0EA102"/>
<path d="M38.2943 91.0996C39.0303 91.422 40.5374 85.5508 39.8623 84.3765C38.8583 82.6301 38.9176 82.6427 38.2511 81.4873C37.5846 80.3319 37.4355 78.7504 38.2986 77.7338C39.1617 76.7172 41.1591 76.8521 41.553 78.1267C41.2996 75.7057 43.6915 73.7595 46.0609 73.2126C48.4302 72.6657 50.9294 73.0053 53.3118 72.5186C56.0766 71.9538 58.9533 69.6335 57.8502 66.5896C57.6609 66.0828 57.3775 65.6164 57.0149 65.2152C55.7404 63.7805 53.9575 63.1679 52.2143 62.5755C48.5879 61.3433 44.8623 60.0955 41.0351 60.2315C37.8817 60.3966 34.8447 61.4784 32.2958 63.3446C29.747 65.2108 27.7968 67.7804 26.6839 70.7389C26.4201 71.479 26.2158 72.2391 26.0728 73.0118C24.7592 80.0834 28.861 87.0586 35.523 89.7515L38.2943 91.0996Z" fill="#2F2E41"/>
<path opacity="0.2" d="M21.9388 154.338L22.253 135.746L32.0905 115.943L24.1948 136.27L21.9388 154.338Z" fill="black"/>
<path d="M111.147 200.999L69.617 183.724C68.7066 183.349 67.8938 182.77 67.2404 182.033C66.587 181.296 66.1101 180.419 65.8462 179.469C65.5748 178.509 65.5259 177.499 65.7032 176.516C65.8806 175.534 66.2795 174.605 66.8695 173.8C77.3583 159.342 84.3002 142.614 87.1335 124.971C87.2869 123.985 87.6631 123.046 88.2333 122.227C88.8035 121.409 89.5527 120.731 90.424 120.245C91.2824 119.763 92.2395 119.482 93.2225 119.426C94.2055 119.369 95.1883 119.538 96.0964 119.919L137.627 137.194C139.059 137.794 140.232 138.884 140.936 140.27C141.641 141.655 141.831 143.246 141.474 144.759C136.831 163.668 129.325 181.755 119.216 198.391C118.398 199.712 117.137 200.699 115.66 201.177C114.182 201.655 112.583 201.592 111.147 200.999Z" fill="#E6E6E6"/>
<path d="M94.798 123.047C94.3619 122.864 93.8899 122.783 93.4179 122.81C92.9458 122.837 92.4862 122.972 92.0738 123.203C91.65 123.44 91.2856 123.77 91.0086 124.169C90.7315 124.568 90.5489 125.025 90.4748 125.506C87.5568 143.676 80.4075 160.903 69.6053 175.794C69.3176 176.185 69.1229 176.637 69.036 177.115C68.949 177.593 68.9722 178.085 69.1036 178.552L69.1038 178.553C69.2306 179.009 69.4597 179.43 69.7736 179.784C70.0875 180.138 70.478 180.416 70.9152 180.596L112.446 197.871C113.134 198.158 113.902 198.19 114.612 197.963C115.323 197.736 115.929 197.264 116.325 196.631C126.254 180.29 133.627 162.524 138.188 143.949C138.357 143.222 138.263 142.459 137.923 141.794C137.582 141.13 137.017 140.609 136.328 140.322L94.798 123.047Z" fill="white"/>
<path d="M116.911 161.503L95.1177 152.437C94.2897 152.092 93.6323 151.432 93.2899 150.601C92.9475 149.771 92.948 148.839 93.2913 148.009L93.7986 146.787C94.1438 145.958 94.8033 145.3 95.6325 144.957C96.4617 144.614 97.3929 144.614 98.2217 144.958L120.015 154.023C120.843 154.369 121.501 155.029 121.843 155.859C122.185 156.69 122.185 157.622 121.842 158.452L121.334 159.674C120.989 160.503 120.33 161.161 119.5 161.504C118.671 161.847 117.74 161.846 116.911 161.503Z" fill="#0EA102"/>
<path d="M110.5 176.95L88.7069 167.885C87.8788 167.539 87.2214 166.879 86.879 166.049C86.5366 165.219 86.5371 164.287 86.8804 163.457L87.3878 162.234C87.7329 161.405 88.3924 160.747 89.2216 160.404C90.0508 160.061 90.982 160.062 91.8108 160.406L113.604 169.471C114.432 169.816 115.09 170.477 115.432 171.307C115.775 172.137 115.774 173.069 115.431 173.899L114.923 175.122C114.578 175.951 113.919 176.609 113.09 176.952C112.26 177.294 111.329 177.294 110.5 176.95Z" fill="#0EA102"/>
<path d="M125.644 139.793C125.318 139.793 124.995 139.729 124.692 139.606L102.732 130.718C102.109 130.464 101.611 129.974 101.348 129.354C101.085 128.734 101.079 128.034 101.33 127.41L103.022 123.222C103.274 122.597 103.764 122.098 104.384 121.835C105.003 121.572 105.702 121.566 106.326 121.819L128.286 130.708C128.91 130.961 129.407 131.451 129.67 132.071C129.933 132.691 129.939 133.391 129.688 134.015L127.996 138.203C127.806 138.672 127.481 139.074 127.062 139.357C126.643 139.64 126.149 139.792 125.644 139.793Z" fill="#CCCCCC"/>
<path d="M79.521 273H0.563979C0.414402 273 0.27096 272.94 0.165194 272.834C0.0594272 272.729 0 272.585 0 272.435C0 272.285 0.0594272 272.142 0.165194 272.036C0.27096 271.93 0.414402 271.871 0.563979 271.871H79.521C79.6706 271.871 79.8141 271.93 79.9198 272.036C80.0256 272.142 80.085 272.285 80.085 272.435C80.085 272.585 80.0256 272.729 79.9198 272.834C79.8141 272.94 79.6706 273 79.521 273Z" fill="#CCCCCC"/>
</g>
<defs>
<clipPath id="clip0_741_1275">
<rect width="274" height="273" fill="white"/>
</clipPath>
</defs>
</svg>
