<svg width="271" height="215" viewBox="0 0 271 215" fill="none" xmlns="http://www.w3.org/2000/svg">
<g clip-path="url(#clip0_2714_2104)">
<path d="M217.585 51.0213H216.407V18.7043C216.407 16.248 215.924 13.8158 214.986 11.5465C214.047 9.27715 212.671 7.21521 210.937 5.47836C209.203 3.74151 207.144 2.36376 204.878 1.42378C202.612 0.483802 200.184 1.16229e-06 197.731 0H129.367C124.414 -1.09538e-05 119.663 1.9706 116.161 5.47831C112.658 8.98603 110.691 13.7435 110.691 18.7042V195.998C110.691 200.959 112.658 205.716 116.161 209.224C119.663 212.732 124.413 214.702 129.367 214.702H197.731C202.684 214.702 207.435 212.732 210.937 209.224C214.44 205.716 216.407 200.959 216.407 195.998V74.0252H217.585L217.585 51.0213Z" fill="#E6E6E6"/>
<path d="M212.432 18.8348V195.868C212.432 199.573 210.963 203.126 208.347 205.745C205.731 208.365 202.184 209.837 198.485 209.837H129.792C126.093 209.837 122.545 208.365 119.929 205.745C117.314 203.126 115.844 199.573 115.844 195.868V18.8348C115.844 15.13 117.314 11.5771 119.929 8.95743C122.545 6.33779 126.093 4.86606 129.792 4.86599H138.125C137.716 5.87374 137.56 6.96682 137.671 8.04909C137.782 9.13136 138.158 10.1697 138.764 11.0726C139.37 11.9756 140.188 12.7156 141.146 13.2275C142.105 13.7394 143.175 14.0076 144.261 14.0084H183.426C184.513 14.0076 185.582 13.7394 186.541 13.2275C187.499 12.7156 188.318 11.9756 188.924 11.0726C189.53 10.1696 189.905 9.13135 190.016 8.04909C190.128 6.96682 189.972 5.87374 189.562 4.86599H198.485C202.184 4.86606 205.731 6.33779 208.347 8.95742C210.963 11.5771 212.432 15.13 212.432 18.8348Z" fill="white"/>
<path d="M133.453 21.2854C130.953 21.2854 128.556 22.28 126.788 24.0504C125.02 25.8208 124.027 28.222 124.027 30.7257C124.027 33.2294 125.02 35.6306 126.788 37.401C128.556 39.1714 130.953 40.1661 133.453 40.1661H133.453C135.953 40.1661 138.351 39.1715 140.119 37.4011C141.886 35.6307 142.88 33.2295 142.88 30.7257C142.88 28.222 141.886 25.8208 140.119 24.0504C138.351 22.28 135.953 21.2854 133.453 21.2854Z" fill="#E6E6E6"/>
<path d="M201.892 38.6911H152.405C151.78 38.6911 151.181 38.4424 150.739 37.9998C150.297 37.5572 150.049 36.9569 150.049 36.331C150.049 35.705 150.297 35.1047 150.739 34.6621C151.181 34.2195 151.78 33.9709 152.405 33.9709H201.892C202.517 33.9709 203.117 34.2195 203.559 34.6621C204.001 35.1047 204.249 35.705 204.249 36.331C204.249 36.9569 204.001 37.5572 203.559 37.9998C203.117 38.4424 202.517 38.6911 201.892 38.6911Z" fill="#E6E6E6"/>
<path d="M168.017 28.6607H152.405C151.78 28.6607 151.181 28.412 150.739 27.9694C150.297 27.5268 150.049 26.9265 150.049 26.3006C150.049 25.6747 150.297 25.0744 150.739 24.6318C151.181 24.1892 151.78 23.9405 152.405 23.9405H168.017C168.642 23.9405 169.242 24.1892 169.684 24.6318C170.126 25.0744 170.374 25.6747 170.374 26.3006C170.374 26.9265 170.126 27.5268 169.684 27.9694C169.242 28.412 168.642 28.6607 168.017 28.6607Z" fill="#E6E6E6"/>
<path d="M133.453 60.8168C130.953 60.8168 128.556 61.8114 126.788 63.5818C125.02 65.3522 124.027 67.7534 124.027 70.2571C124.027 72.7609 125.02 75.1621 126.788 76.9325C128.556 78.7029 130.953 79.6975 133.453 79.6975H133.453C135.953 79.6975 138.351 78.7029 140.119 76.9325C141.886 75.1621 142.88 72.7609 142.88 70.2572C142.88 67.7534 141.886 65.3523 140.119 63.5819C138.351 61.8114 135.953 60.8168 133.453 60.8168Z" fill="#E6E6E6"/>
<path d="M201.892 78.2225H152.405C151.78 78.2225 151.181 77.9739 150.739 77.5313C150.297 77.0887 150.049 76.4884 150.049 75.8624C150.049 75.2365 150.297 74.6362 150.739 74.1936C151.181 73.751 151.78 73.5023 152.405 73.5023H201.892C202.517 73.5023 203.117 73.751 203.559 74.1936C204.001 74.6362 204.249 75.2365 204.249 75.8624C204.249 76.4884 204.001 77.0887 203.559 77.5313C203.117 77.9739 202.517 78.2225 201.892 78.2225Z" fill="#E6E6E6"/>
<path d="M168.017 68.1921H152.405C151.78 68.1921 151.181 67.9435 150.739 67.5009C150.297 67.0583 150.049 66.458 150.049 65.832C150.049 65.2061 150.297 64.6058 150.739 64.1632C151.181 63.7206 151.78 63.472 152.405 63.472H168.017C168.642 63.472 169.242 63.7206 169.684 64.1632C170.126 64.6058 170.374 65.2061 170.374 65.832C170.374 66.458 170.126 67.0583 169.684 67.5009C169.242 67.9435 168.642 68.1921 168.017 68.1921Z" fill="#E6E6E6"/>
<path d="M133.453 139.88C130.953 139.88 128.556 140.874 126.788 142.645C125.02 144.415 124.027 146.816 124.027 149.32C124.027 151.824 125.02 154.225 126.788 155.995C128.556 157.766 130.953 158.76 133.453 158.76H133.453C135.953 158.76 138.351 157.766 140.119 155.995C141.886 154.225 142.88 151.824 142.88 149.32C142.88 146.816 141.886 144.415 140.119 142.645C138.351 140.874 135.953 139.88 133.453 139.88Z" fill="#E6E6E6"/>
<path d="M201.892 157.285H152.405C151.78 157.285 151.181 157.037 150.739 156.594C150.297 156.152 150.049 155.551 150.049 154.925C150.049 154.299 150.297 153.699 150.739 153.256C151.181 152.814 151.78 152.565 152.405 152.565H201.892C202.517 152.565 203.117 152.814 203.559 153.256C204.001 153.699 204.249 154.299 204.249 154.925C204.249 155.551 204.001 156.152 203.559 156.594C203.117 157.037 202.517 157.285 201.892 157.285Z" fill="#E6E6E6"/>
<path d="M168.017 147.255H152.405C151.78 147.255 151.181 147.006 150.739 146.564C150.297 146.121 150.049 145.521 150.049 144.895C150.049 144.269 150.297 143.669 150.739 143.226C151.181 142.784 151.78 142.535 152.405 142.535H168.017C168.642 142.535 169.242 142.784 169.684 143.226C170.126 143.669 170.374 144.269 170.374 144.895C170.374 145.521 170.126 146.121 169.684 146.564C169.242 147.006 168.642 147.255 168.017 147.255Z" fill="#E6E6E6"/>
<path d="M133.453 179.411C130.953 179.411 128.556 180.406 126.788 182.176C125.02 183.947 124.027 186.348 124.027 188.852C124.027 191.355 125.02 193.756 126.788 195.527C128.556 197.297 130.953 198.292 133.453 198.292H133.453C135.953 198.292 138.351 197.297 140.119 195.527C141.886 193.756 142.88 191.355 142.88 188.852C142.88 186.348 141.886 183.947 140.119 182.176C138.351 180.406 135.953 179.411 133.453 179.411Z" fill="#E6E6E6"/>
<path d="M201.892 196.817H152.405C151.78 196.817 151.181 196.568 150.739 196.126C150.297 195.683 150.049 195.083 150.049 194.457C150.049 193.831 150.297 193.231 150.739 192.788C151.181 192.345 151.78 192.097 152.405 192.097H201.892C202.517 192.097 203.117 192.345 203.559 192.788C204.001 193.231 204.249 193.831 204.249 194.457C204.249 195.083 204.001 195.683 203.559 196.126C203.117 196.568 202.517 196.817 201.892 196.817Z" fill="#E6E6E6"/>
<path d="M168.017 186.786H152.405C151.78 186.786 151.181 186.538 150.739 186.095C150.297 185.653 150.049 185.052 150.049 184.426C150.049 183.8 150.297 183.2 150.739 182.758C151.181 182.315 151.78 182.066 152.405 182.066H168.017C168.642 182.066 169.242 182.315 169.684 182.758C170.126 183.2 170.374 183.8 170.374 184.426C170.374 185.052 170.126 185.653 169.684 186.095C169.242 186.538 168.642 186.786 168.017 186.786Z" fill="#E6E6E6"/>
<path d="M220.989 132.505H107.287C105.998 132.503 104.763 131.99 103.852 131.077C102.941 130.165 102.428 128.927 102.427 127.637V91.0555C102.428 89.765 102.941 88.5277 103.852 87.6151C104.763 86.7026 105.998 86.1893 107.287 86.1878H220.989C222.278 86.1893 223.513 86.7026 224.424 87.6151C225.336 88.5277 225.848 89.765 225.85 91.0555V127.637C225.848 128.927 225.336 130.165 224.424 131.077C223.513 131.99 222.278 132.503 220.989 132.505Z" fill="white"/>
<path d="M121.251 122.836C118.587 122.836 115.982 122.045 113.767 120.562C111.552 119.08 109.826 116.973 108.807 114.508C107.787 112.044 107.52 109.331 108.04 106.715C108.56 104.098 109.843 101.694 111.726 99.8076C113.61 97.921 116.01 96.6362 118.623 96.1157C121.236 95.5952 123.944 95.8624 126.405 96.8834C128.866 97.9044 130.97 99.6334 132.45 101.852C133.93 104.07 134.72 106.678 134.72 109.346C134.716 112.923 133.295 116.351 130.77 118.88C128.245 121.409 124.822 122.832 121.251 122.836ZM121.251 96.4465C118.703 96.4465 116.213 97.2031 114.095 98.6205C111.977 100.038 110.326 102.053 109.351 104.41C108.376 106.767 108.121 109.361 108.618 111.863C109.115 114.365 110.342 116.664 112.143 118.468C113.944 120.272 116.239 121.5 118.738 121.998C121.236 122.496 123.826 122.24 126.18 121.264C128.533 120.288 130.545 118.634 131.96 116.513C133.375 114.392 134.131 111.898 134.131 109.346C134.127 105.926 132.769 102.647 130.354 100.229C127.939 97.8107 124.665 96.4504 121.251 96.4465Z" fill="#3F3D56"/>
<path d="M216.907 120.479H147.739C147.307 120.48 146.878 120.395 146.478 120.229C146.078 120.064 145.715 119.821 145.408 119.514C145.102 119.208 144.859 118.844 144.694 118.444C144.528 118.043 144.443 117.614 144.443 117.181C144.443 116.747 144.528 116.318 144.694 115.918C144.859 115.517 145.102 115.153 145.408 114.847C145.715 114.541 146.078 114.298 146.478 114.132C146.878 113.967 147.307 113.882 147.739 113.882H216.907C217.34 113.882 217.768 113.967 218.168 114.132C218.568 114.298 218.932 114.541 219.238 114.847C219.544 115.153 219.787 115.517 219.953 115.918C220.119 116.318 220.204 116.747 220.204 117.181C220.204 117.614 220.119 118.043 219.953 118.444C219.787 118.844 219.544 119.208 219.238 119.514C218.932 119.821 218.568 120.064 218.168 120.229C217.768 120.395 217.34 120.48 216.907 120.479Z" fill="#0EA102"/>
<path d="M169.56 106.46H147.739C147.307 106.46 146.878 106.375 146.478 106.21C146.078 106.044 145.715 105.801 145.408 105.495C145.102 105.189 144.859 104.825 144.694 104.424C144.528 104.024 144.443 103.595 144.443 103.161C144.443 102.728 144.528 102.299 144.694 101.898C144.859 101.498 145.102 101.134 145.408 100.828C145.715 100.521 146.078 100.278 146.478 100.113C146.878 99.9472 147.307 99.8621 147.739 99.8625H169.56C169.993 99.8621 170.422 99.9472 170.822 100.113C171.222 100.278 171.585 100.521 171.891 100.828C172.197 101.134 172.44 101.498 172.606 101.898C172.772 102.299 172.857 102.728 172.857 103.161C172.857 103.595 172.772 104.024 172.606 104.424C172.44 104.825 172.197 105.189 171.891 105.495C171.585 105.801 171.222 106.044 170.822 106.21C170.422 106.375 169.993 106.46 169.56 106.46Z" fill="#0EA102"/>
<path d="M220.989 132.505H107.287C105.998 132.503 104.763 131.99 103.852 131.077C102.941 130.165 102.428 128.927 102.427 127.637V91.0555C102.428 89.765 102.941 88.5277 103.852 87.6151C104.763 86.7026 105.998 86.1893 107.287 86.1878H220.989C222.278 86.1893 223.513 86.7026 224.424 87.6151C225.336 88.5277 225.848 89.765 225.85 91.0555V127.637C225.848 128.927 225.336 130.165 224.424 131.077C223.513 131.99 222.278 132.503 220.989 132.505ZM107.287 86.4828C106.077 86.4842 104.916 86.9664 104.06 87.8236C103.204 88.6809 102.723 89.8432 102.721 91.0555V127.637C102.723 128.849 103.204 130.011 104.06 130.869C104.916 131.726 106.077 132.208 107.287 132.21H220.989C222.2 132.208 223.36 131.726 224.216 130.869C225.072 130.011 225.554 128.849 225.555 127.637V91.0555C225.554 89.8432 225.072 88.6809 224.216 87.8236C223.36 86.9664 222.2 86.4842 220.989 86.4828H107.287Z" fill="#3F3D56"/>
<path d="M121.012 115.911C124.047 115.911 126.507 113.447 126.507 110.408C126.507 107.368 124.047 104.905 121.012 104.905C117.978 104.905 115.518 107.368 115.518 110.408C115.518 113.447 117.978 115.911 121.012 115.911Z" fill="#2F2E41"/>
<path d="M116.724 107.441C117.612 106.551 117.791 105.29 117.126 104.623C116.46 103.956 115.2 104.136 114.312 105.025C113.424 105.914 113.244 107.176 113.91 107.843C114.576 108.51 115.836 108.33 116.724 107.441Z" fill="#2F2E41"/>
<path d="M126.74 105.693C127.109 104.825 126.473 103.722 125.318 103.228C124.164 102.734 122.928 103.036 122.558 103.904C122.188 104.771 122.824 105.875 123.979 106.369C125.133 106.863 126.37 106.56 126.74 105.693Z" fill="#2F2E41"/>
<path d="M121.187 116.392C123.762 116.392 125.85 114.301 125.85 111.721C125.85 109.142 123.762 107.051 121.187 107.051C118.611 107.051 116.523 109.142 116.523 111.721C116.523 114.301 118.611 116.392 121.187 116.392Z" fill="#FFB8B8"/>
<path d="M116.287 108.784C117.352 109.519 118.617 109.911 119.911 109.906C119.45 110.226 118.924 110.443 118.371 110.54C120.092 110.91 121.87 110.92 123.595 110.57C123.978 110.508 124.348 110.381 124.689 110.194C124.858 110.099 125.006 109.969 125.122 109.813C125.239 109.658 125.321 109.479 125.364 109.289C125.478 108.634 124.968 108.038 124.438 107.636C123.626 107.031 122.69 106.614 121.698 106.415C120.705 106.217 119.681 106.241 118.699 106.488C118.045 106.62 117.45 106.957 116.999 107.45C116.583 107.965 116.46 108.76 116.856 109.291L116.287 108.784Z" fill="#2F2E41"/>
<path d="M52.3545 150.799C52.2181 150.357 52.1803 149.889 52.2438 149.43C52.3072 148.971 52.4703 148.532 52.7217 148.143C52.973 147.754 53.3065 147.425 53.6986 147.179C54.0906 146.933 54.5318 146.776 54.9909 146.72L70.1118 129.024L73.6385 132.732L58.5772 149.7C58.6212 150.478 58.3784 151.246 57.8949 151.858C57.4114 152.469 56.7206 152.882 55.9536 153.018C55.1866 153.153 54.3966 153.002 53.7332 152.593C53.0699 152.185 52.5793 151.546 52.3545 150.799Z" fill="#A0616A"/>
<path d="M65.1926 131.787C65.1771 131.597 65.2028 131.406 65.2679 131.226C65.333 131.047 65.436 130.884 65.5697 130.748L70.2412 126.004C70.8159 125.215 71.6796 124.687 72.6426 124.535C73.6056 124.384 74.5895 124.621 75.3782 125.195C76.167 125.768 76.6963 126.632 76.8501 127.596C77.0038 128.56 76.7693 129.546 76.1982 130.337L73.0921 136.254C73.0035 136.423 72.8795 136.571 72.7287 136.687C72.5779 136.804 72.4038 136.886 72.2182 136.929C72.0327 136.973 71.84 136.975 71.6534 136.937C71.4668 136.899 71.2906 136.821 71.1368 136.708L65.7317 132.752C65.5778 132.639 65.45 132.495 65.357 132.328C65.2639 132.162 65.2079 131.977 65.1926 131.787Z" fill="#0EA102"/>
<path d="M76.1616 120.929C80.1573 120.929 83.3964 117.685 83.3964 113.684C83.3964 109.682 80.1573 106.438 76.1616 106.438C72.1659 106.438 68.9268 109.682 68.9268 113.684C68.9268 117.685 72.1659 120.929 76.1616 120.929Z" fill="#A0616A"/>
<path d="M72.2277 146.108C72.0839 146 71.9636 145.865 71.8741 145.709C71.7846 145.554 71.728 145.382 71.7076 145.203C71.2074 141.016 70.4795 136.859 69.5271 132.751C69.1054 130.905 69.3673 128.969 70.2641 127.301C71.1608 125.634 72.6314 124.35 74.4026 123.687C76.1737 123.024 78.125 123.028 79.8937 123.697C81.6624 124.367 83.1282 125.657 84.0187 127.327C86.864 132.675 87.0813 140.017 87.0427 142.926C87.0383 143.236 86.9252 143.536 86.7232 143.771C86.5212 144.006 86.243 144.163 85.9372 144.214L73.2429 146.354C73.1689 146.367 73.094 146.373 73.019 146.373C72.7334 146.373 72.4557 146.28 72.2277 146.108Z" fill="#2F2E41"/>
<path d="M99.634 122.515C99.5978 122.674 99.5742 122.836 99.5635 122.999L86.9097 130.31L83.834 128.537L80.5552 132.836L85.6954 136.505C86.1107 136.801 86.6108 136.955 87.1206 136.943C87.6304 136.93 88.1224 136.752 88.5227 136.436L101.571 126.127C102.16 126.345 102.801 126.379 103.409 126.223C104.018 126.067 104.565 125.73 104.977 125.256C105.389 124.781 105.647 124.192 105.717 123.567C105.787 122.942 105.665 122.311 105.368 121.757C105.071 121.203 104.613 120.753 104.054 120.466C103.495 120.179 102.862 120.07 102.24 120.152C101.617 120.235 101.034 120.505 100.569 120.927C100.103 121.349 99.7773 121.903 99.634 122.515Z" fill="#A0616A"/>
<path d="M86.4865 130.656L82.3968 135.965C82.2805 136.116 82.133 136.24 81.9644 136.329C81.7958 136.418 81.6101 136.469 81.4199 136.479C81.2297 136.49 81.0395 136.459 80.8622 136.389C80.6849 136.319 80.5248 136.212 80.3926 136.075L75.7629 131.26C74.9947 130.659 74.4958 129.778 74.3754 128.809C74.255 127.841 74.5229 126.864 75.1205 126.093C75.7181 125.322 76.5965 124.82 77.5632 124.697C78.5299 124.573 79.506 124.839 80.2776 125.435L86.0843 128.687C86.2506 128.78 86.3948 128.908 86.5072 129.062C86.6196 129.216 86.6975 129.392 86.7357 129.579C86.7739 129.766 86.7714 129.959 86.7284 130.145C86.6854 130.331 86.6029 130.505 86.4865 130.656H86.4865Z" fill="#0EA102"/>
<path d="M92.8622 211.358L96.4735 211.358L97.3237 197.453L92.8616 197.408L92.8622 211.358Z" fill="#A0616A"/>
<path d="M91.9412 210.177L99.0531 210.177H99.0534C99.6486 210.177 100.238 210.294 100.788 210.522C101.338 210.751 101.837 211.085 102.258 211.506C102.679 211.928 103.013 212.428 103.241 212.979C103.468 213.53 103.586 214.12 103.586 214.716V214.864L91.9414 214.864L91.9412 210.177Z" fill="#2F2E41"/>
<path d="M58.3983 211.358L62.0097 211.358L63.7276 197.407L58.3977 197.408L58.3983 211.358Z" fill="#A0616A"/>
<path d="M57.4771 210.177L64.589 210.177H64.5893C65.1845 210.177 65.7738 210.294 66.3237 210.522C66.8736 210.751 67.3733 211.085 67.7941 211.506C68.215 211.928 68.5488 212.428 68.7766 212.979C69.0044 213.53 69.1216 214.12 69.1216 214.716V214.864L57.4773 214.864L57.4771 210.177Z" fill="#2F2E41"/>
<path d="M62.3341 204.113L57.8524 203.527C57.6651 203.503 57.4852 203.439 57.3248 203.339C57.1643 203.239 57.027 203.106 56.922 202.949C56.8171 202.792 56.7469 202.614 56.7162 202.427C56.6854 202.241 56.6949 202.05 56.7439 201.867L63.2814 169.693C63.9313 166.569 64.3809 163.407 64.6276 160.226C64.8185 157.638 65.5751 153.978 68.0953 151.241C69.1203 150.118 70.0768 148.934 70.9599 147.696L72.9387 144.952L86.1212 142.852L86.1302 143.015C86.6997 153.506 89.4205 163.767 94.1232 173.159C96.2386 177.383 97.4527 182.001 97.6885 186.721L98.4355 201.31C98.4449 201.495 98.4155 201.679 98.3494 201.852C98.2834 202.025 98.1819 202.182 98.0517 202.313C97.922 202.445 97.7657 202.549 97.5933 202.616C97.4209 202.683 97.2363 202.713 97.0515 202.704L92.7671 202.508C92.4767 202.495 92.1987 202.386 91.976 202.199C91.7532 202.012 91.5979 201.757 91.5339 201.473L87.9568 185.489C87.9246 185.347 87.8628 185.212 87.7755 185.095L76.5495 170.105C76.4694 169.998 76.3618 169.915 76.2382 169.864C76.1146 169.814 75.9797 169.798 75.8478 169.818C75.7159 169.839 75.592 169.895 75.4894 169.98C75.3868 170.066 75.3093 170.177 75.2652 170.304L63.7567 203.235C63.6649 203.494 63.4953 203.719 63.271 203.878C63.0467 204.037 62.7788 204.123 62.5039 204.124C62.4471 204.124 62.3904 204.12 62.3341 204.113Z" fill="#2F2E41"/>
<path d="M68.162 108.654C68.7367 106.91 69.1609 105.119 69.43 103.301C69.5146 102.243 69.2439 101.105 68.4746 100.375C67.0347 99.0085 64.5884 99.6592 63.0826 100.952C60.9064 102.821 59.8211 105.693 59.4109 108.534C59.0008 111.375 59.1812 114.265 59.0825 117.134C58.9837 120.003 58.574 122.953 57.1135 125.424C55.6529 127.894 52.9426 129.79 50.0837 129.58C48.9298 129.517 47.8341 129.052 46.9867 128.265C46.5708 127.869 46.2558 127.379 46.0681 126.835C45.8805 126.292 45.8256 125.711 45.9082 125.142C44.447 127.763 45.1877 131.314 47.3672 133.374C49.5467 135.434 52.8992 136.017 55.7645 135.137C58.6297 134.257 60.9879 132.052 62.3965 129.403C63.8051 126.754 64.3212 123.694 64.2464 120.693C64.189 118.389 63.7979 116.066 64.1867 113.795C64.5755 111.523 65.995 109.216 68.2335 108.681L68.162 108.654Z" fill="#2F2E41"/>
<path d="M78.2144 111.641C78.596 112.918 80.0558 113.705 81.3691 113.489C82.6823 113.273 83.7622 112.19 84.1612 110.919C84.5219 109.62 84.3742 108.232 83.7483 107.039C83.4033 106.324 82.9209 105.684 82.3286 105.155C81.7364 104.627 81.0459 104.221 80.2967 103.96C79.5433 103.71 78.741 103.645 77.9572 103.77C77.1735 103.896 76.4313 104.208 75.7932 104.681C75.7252 104.394 75.5822 104.131 75.3787 103.917C75.1753 103.704 74.9188 103.549 74.6358 103.469C74.0657 103.315 73.4641 103.324 72.8988 103.494C71.27 103.959 69.8587 104.987 68.9156 106.396C67.9846 107.801 67.3687 109.391 67.1103 111.057C66.6659 113.555 66.8299 116.285 68.2309 118.4C69.6319 120.514 72.4982 121.763 74.8235 120.755C74.9685 120.012 74.625 119.265 74.2276 118.621C73.8302 117.978 73.3592 117.352 73.2066 116.611C73.0539 115.87 73.3466 114.964 74.0621 114.721C74.6725 114.515 75.3233 114.85 75.9664 114.89C76.3316 114.913 76.6964 114.839 77.0243 114.677C77.3521 114.514 77.6314 114.267 77.8342 113.962C78.037 113.657 78.1561 113.304 78.1796 112.939C78.2031 112.573 78.1302 112.207 77.9681 111.879L78.2144 111.641Z" fill="#2F2E41"/>
<path d="M270.705 215H0.294565C0.216442 215 0.141518 214.969 0.0862759 214.914C0.0310342 214.858 0 214.783 0 214.705C0 214.627 0.0310342 214.552 0.0862759 214.496C0.141518 214.441 0.216442 214.41 0.294565 214.41H270.705C270.784 214.41 270.859 214.441 270.914 214.496C270.969 214.552 271 214.627 271 214.705C271 214.783 270.969 214.858 270.914 214.914C270.859 214.969 270.784 215 270.705 215Z" fill="#CCCCCC"/>
</g>
<defs>
<clipPath id="clip0_2714_2104">
<rect width="271" height="215" fill="white"/>
</clipPath>
</defs>
</svg>
