<svg width="24" height="24" viewBox="0 0 24 24" fill="none" xmlns="http://www.w3.org/2000/svg">
<path d="M12 0V24C18.6274 24 24 18.6274 24 12C24 5.37257 18.6274 0 12 0Z" fill="#29B6F6"/>
<path d="M22.5513 12C22.5513 5.37257 17.8273 0 12 0C5.37257 0 0 5.37257 0 12C0 18.6274 5.37257 24 12 24C17.8273 24 22.5513 18.6274 22.5513 12Z" fill="#29B6F6"/>
<path d="M18.2041 10.7451C18.2041 10.7446 9.98518 5.99935 9.98518 5.99935C9.73576 5.85569 9.44761 5.78885 9.15942 5.80855L9.15918 18.1916C9.44737 18.2112 9.73552 18.1444 9.98474 18.0006L18.2041 13.2551C18.6376 13.0047 18.9295 12.5366 18.9295 12.0001C18.9295 11.4635 18.6376 10.9955 18.2041 10.7451Z" fill="#E1F5FE"/>
<path d="M16.85 13.2551C17.2269 13.0047 17.4809 12.5367 17.4809 12.0001C17.4809 11.4636 17.2269 10.9955 16.85 10.7451C16.85 10.7446 9.70181 5.99939 9.70181 5.99939C9.53575 5.88938 9.34988 5.82429 9.15938 5.80859C8.94608 5.82313 8.73278 5.88484 8.53513 5.99895C8.07044 6.26725 7.81108 6.75411 7.81098 7.25468C7.81055 7.25492 7.81055 16.7454 7.81055 16.7454C7.81108 17.2462 8.07044 17.7331 8.53513 18.0014C8.73269 18.1154 8.94598 18.1771 9.15913 18.1917C9.34964 18.176 9.53546 18.1108 9.70143 18.0006L16.85 13.2551Z" fill="white"/>
</svg>
