<svg width="33" height="33" viewBox="0 0 33 33" fill="none" xmlns="http://www.w3.org/2000/svg">
<rect width="33" height="33" rx="10" fill="white"/>
<path d="M26.3545 19.7482C24.9089 25.5466 19.0361 29.0753 13.2371 27.6294C7.44042 26.1838 3.91165 20.3107 5.35784 14.5128C6.80277 8.71375 12.6756 5.18471 18.4728 6.63027C24.2715 8.07583 27.8001 13.9497 26.3543 19.7483L26.3544 19.7482H26.3545Z" fill="#F7931A"/>
<path d="M20.6469 15.5794C20.8623 14.139 19.7657 13.3648 18.2662 12.8483L18.7526 10.8972L17.5649 10.6012L17.0914 12.501C16.7792 12.4231 16.4585 12.3497 16.1398 12.277L16.6168 10.3647L15.4298 10.0687L14.9431 12.0192C14.6847 11.9604 14.4309 11.9022 14.1847 11.841L14.1861 11.8348L12.5482 11.4258L12.2323 12.6944C12.2323 12.6944 13.1135 12.8964 13.0949 12.9088C13.5758 13.0288 13.6628 13.3472 13.6484 13.5996L13.0943 15.8223C13.1274 15.8308 13.1703 15.8429 13.2177 15.862C13.1781 15.8521 13.1359 15.8414 13.0922 15.8309L12.3155 18.9447C12.2567 19.0908 12.1075 19.3101 11.7713 19.2268C11.7832 19.2441 10.908 19.0114 10.908 19.0114L10.3184 20.371L11.864 20.7563C12.1515 20.8284 12.4333 20.9038 12.7108 20.9748L12.2193 22.9483L13.4056 23.2442L13.8923 21.2917C14.2164 21.3796 14.5309 21.4608 14.8388 21.5373L14.3537 23.4806L15.5415 23.7766L16.0329 21.8068C18.0582 22.1901 19.5811 22.0355 20.2221 20.2037C20.7386 18.7288 20.1964 17.8781 19.1309 17.3233C19.9069 17.1444 20.4915 16.634 20.6473 15.5796L20.6469 15.5793L20.6469 15.5794ZM17.9333 19.3846C17.5662 20.8595 15.083 20.0622 14.2779 19.8623L14.9301 17.2477C15.7351 17.4487 18.3169 17.8465 17.9333 19.3846H17.9333ZM18.3006 15.558C17.9657 16.8996 15.8989 16.218 15.2285 16.0509L15.8198 13.6797C16.4902 13.8468 18.6494 14.1587 18.3007 15.558H18.3006Z" fill="white"/>
</svg>
