<svg width="32" height="24" viewBox="0 0 32 24" fill="none" xmlns="http://www.w3.org/2000/svg">
<g clip-path="url(#clip0_785_2392)">
<path d="M7.18853 4.61133H1.43268C0.71047 4.61133 0.125 5.1959 0.125 5.917C0.125 6.63811 0.71047 7.22268 1.43268 7.22268H7.18853C7.91074 7.22268 8.49621 6.63811 8.49621 5.917C8.49621 5.1959 7.91074 4.61133 7.18853 4.61133Z" fill="#0EA102"/>
<path d="M7.18854 9.83411H3.04255C2.32033 9.83411 1.73486 10.4187 1.73486 11.1398C1.73486 11.8609 2.32033 12.4455 3.04255 12.4455H7.18854C7.91076 12.4455 8.49623 11.8609 8.49623 11.1398C8.49623 10.4187 7.91076 9.83411 7.18854 9.83411Z" fill="#0EA102"/>
<path d="M7.18856 15.0568H4.65241C3.9302 15.0568 3.34473 15.6413 3.34473 16.3624C3.34473 17.0835 3.9302 17.6681 4.65241 17.6681H7.18856C7.91077 17.6681 8.49624 17.0835 8.49624 16.3624C8.49624 15.6413 7.91077 15.0568 7.18856 15.0568Z" fill="#0EA102"/>
<path d="M27.8195 2H15.2521C12.9434 2 11.0718 3.86872 11.0718 6.17391V15.7791C11.0718 18.0843 12.9434 19.953 15.2521 19.953H27.8195C30.1282 19.953 31.9998 18.0843 31.9998 15.7791V6.17391C31.9998 3.86872 30.1282 2 27.8195 2Z" fill="#0EA102"/>
<path fill-rule="evenodd" clip-rule="evenodd" d="M25.0673 10.9102C25.5649 10.4955 25.8827 9.86444 25.8827 9.15769C25.8827 7.90881 24.8906 6.89636 23.6668 6.89636C22.6548 6.89636 21.8012 7.58867 21.5361 8.53453C21.2709 7.58867 20.4174 6.89637 19.4053 6.89637C18.1815 6.89637 17.1895 7.90881 17.1895 9.15769C17.1895 9.86439 17.5071 10.4953 18.0047 10.91C18.0217 10.9424 18.0424 10.9736 18.0671 11.0031L21.1346 14.678C21.3435 14.9282 21.7285 14.9282 21.9374 14.678L25.005 11.0031C25.0296 10.9737 25.0503 10.9425 25.0673 10.9102Z" fill="white"/>
<path d="M16.1671 17.8311C16.0986 17.0237 16.9218 16.441 17.6458 16.7846L21.3794 18.5562C22.1006 18.8984 22.1825 19.9036 21.5271 20.3676L18.1469 22.7599C17.4914 23.2238 16.5888 22.7993 16.5206 21.995L16.1671 17.8311Z" fill="#0EA102"/>
</g>
<defs>
<clipPath id="clip0_785_2392">
<rect width="31.875" height="24" fill="white" transform="translate(0.125)"/>
</clipPath>
</defs>
</svg>
