<svg width="12" height="13" viewBox="0 0 12 13" fill="none" xmlns="http://www.w3.org/2000/svg">
<circle cx="6" cy="6.68384" r="4.21509" fill="white"/>
<path d="M6 0.683594C2.68203 0.683594 0 3.36562 0 6.68359C0 10.0016 2.68203 12.6836 6 12.6836C9.31797 12.6836 12 10.0016 12 6.68359C12 3.36562 9.31797 0.683594 6 0.683594ZM8.90323 5.43935L5.35023 8.97852C5.23963 9.08912 5.10138 9.14442 4.96313 9.14442C4.82488 9.14442 4.67281 9.08912 4.57604 8.97852L2.82028 7.23659C2.59908 7.01539 2.59908 6.66977 2.82028 6.44857C3.04147 6.22737 3.3871 6.22737 3.60829 6.44857L4.96313 7.80341L8.11521 4.65134C8.33641 4.43014 8.68203 4.43014 8.90323 4.65134C9.1106 4.87253 9.1106 5.23198 8.90323 5.43935Z" fill="#0EA102"/>
</svg>
