<svg width="20" height="23" viewBox="0 0 20 23" fill="none" xmlns="http://www.w3.org/2000/svg">
<g id="Group 954">
<path id="Vector" d="M19.9067 2.61529V14.3489H10.2092C9.6512 14.3466 9.10751 14.1719 8.65255 13.8488C8.19758 13.5257 7.85356 13.0699 7.66755 12.5437L11.5507 12.5578C12.0295 12.5578 12.6686 12.5578 12.6686 12.5578C12.6686 12.5578 12.686 11.2173 12.686 10.7386L12.6686 1.6173C15.3788 3.55765 16.9698 3.69067 19.9067 2.61529ZM2.63061 12.5578H12.6686L12.6752 5.0974C12.6752 4.37925 12.6697 2.19925 12.6686 1.6173C12.1608 1.1095 11.472 0.824219 10.7539 0.824219H0.825439V22.4863H2.63061V12.5578Z" fill="#858585"/>
<rect id="Rectangle 184" x="7.32422" y="4.07373" width="8.66482" height="8.66482" rx="1.0831" fill="#858585"/>
</g>
</svg>
