<svg width="21" height="21" viewBox="0 0 21 21" fill="none" xmlns="http://www.w3.org/2000/svg">
<g id="vuesax/linear/wallet-3">
<path id="Vector" d="M11.8134 9.63184H6.81335" stroke="#0EA102" stroke-width="1.25" stroke-linecap="round" stroke-linejoin="round"/>
<path id="Vector_2" d="M2.64661 9.63105V5.78106C2.64661 4.08106 4.02161 2.70605 5.72161 2.70605H10.4049C12.1049 2.70605 13.4799 3.76439 13.4799 5.46439" stroke="#0EA102" stroke-width="1.25" stroke-linecap="round" stroke-linejoin="round"/>
<path id="Vector_3" d="M15.5466 10.5065C15.1299 10.9065 14.9299 11.5232 15.0966 12.1565C15.3049 12.9315 16.0716 13.4232 16.8716 13.4232H17.6466V14.6315C17.6466 16.4732 16.1549 17.9648 14.3133 17.9648H5.97994C4.13827 17.9648 2.64661 16.4732 2.64661 14.6315V8.79818C2.64661 6.95651 4.13827 5.46484 5.97994 5.46484H14.3133C16.1466 5.46484 17.6466 6.96484 17.6466 8.79818V10.0065H16.7466C16.2799 10.0065 15.8549 10.1898 15.5466 10.5065Z" stroke="#0EA102" stroke-width="1.25" stroke-linecap="round" stroke-linejoin="round"/>
<path id="Vector_4" d="M19.3133 10.8559V12.5725C19.3133 13.0392 18.93 13.4226 18.455 13.4226H16.8466C15.9466 13.4226 15.1217 12.7642 15.0467 11.8642C14.9967 11.3392 15.1966 10.8476 15.5466 10.5059C15.855 10.1892 16.28 10.0059 16.7466 10.0059H18.455C18.93 10.0059 19.3133 10.3892 19.3133 10.8559Z" stroke="#0EA102" stroke-width="1.25" stroke-linecap="round" stroke-linejoin="round"/>
</g>
</svg>
