<svg width="19" height="19" viewBox="0 0 19 19" fill="none" xmlns="http://www.w3.org/2000/svg">
<g id="Group 1686">
<path id="Vector" d="M9.13425 18.7539C8.77219 18.7539 8.4071 18.6261 8.11654 18.3675L5.26575 15.9662H3.04247C1.36455 15.9662 0 14.6017 0 12.9238V3.79637C0 2.11845 1.36455 0.753906 3.04247 0.753906H15.2123C16.8903 0.753906 18.2548 2.11845 18.2548 3.79637V12.9238C18.2548 14.6017 16.8903 15.9662 15.2123 15.9662H13.0431L10.117 18.385C9.84238 18.6299 9.48946 18.7539 9.13425 18.7539Z" fill="#858585"/>
<path id="Vector_2" d="M12.3333 5.08723H11.3C11.1405 4.31177 10.4584 3.75491 9.66666 3.75391H8.99998C8.20828 3.75491 7.52612 4.31177 7.36666 5.08723H6.33333C6.14923 5.08723 6 5.23647 6 5.42056C6 5.60466 6.14923 5.75391 6.33333 5.75391H6.66666V10.0872C6.66777 11.0073 7.41331 11.7528 8.33333 11.7539H10.3333C11.2533 11.7528 11.9989 11.0073 12 10.0872V5.75391H12.3333C12.5174 5.75391 12.6667 5.60467 12.6667 5.42058C12.6667 5.23648 12.5174 5.08723 12.3333 5.08723ZM9 9.42058C9 9.60467 8.85077 9.75391 8.66667 9.75391C8.48256 9.75391 8.33333 9.60467 8.33333 9.42058V7.42058C8.33333 7.23648 8.48256 7.08725 8.66666 7.08725C8.85075 7.08725 8.99998 7.23648 8.99998 7.42058V9.42058H9ZM10.3333 9.42058C10.3333 9.60467 10.1841 9.75391 10 9.75391C9.81591 9.75391 9.66667 9.60467 9.66667 9.42058V7.42058C9.66667 7.23648 9.81591 7.08725 10 7.08725C10.1841 7.08725 10.3333 7.23648 10.3333 7.42058V9.42058ZM8.057 5.08723C8.19878 4.688 8.57634 4.42108 9 4.42056H9.66667C10.0903 4.42108 10.4679 4.688 10.6097 5.08723H8.057Z" fill="white"/>
</g>
</svg>
