<svg width="12" height="13" viewBox="0 0 12 13" fill="none" xmlns="http://www.w3.org/2000/svg">
<path fill-rule="evenodd" clip-rule="evenodd" d="M5.99257 0.683594C9.30855 0.683594 12 3.36017 12 6.67616C12 9.99214 9.30855 12.6836 5.99257 12.6836C2.67658 12.6836 0 9.99214 0 6.67616C0 3.36017 2.67658 0.683594 5.99257 0.683594ZM5.99257 5.9624L7.61338 4.34159C8.08922 3.86575 8.81784 4.5795 8.34201 5.05534L6.72119 6.67616L8.34201 8.29698C8.81784 8.77281 8.08922 9.50144 7.61338 9.0256L5.99257 7.40478L4.37175 9.0256C3.89591 9.50144 3.18216 8.77281 3.65799 8.29698L5.27881 6.67616L3.65799 5.05534C3.18216 4.5795 3.89591 3.86575 4.37175 4.34159L5.99257 5.9624Z" fill="#FF0000"/>
</svg>
