<svg width="204" height="115" viewBox="0 0 204 115" fill="none" xmlns="http://www.w3.org/2000/svg">
<path d="M42.8654 113.949H11.7475C11.7475 113.949 11.1168 104.697 14.8487 104.592C18.5806 104.487 18.1601 108.692 22.8384 102.91C27.5167 97.1282 33.1934 97.4436 33.9293 100.86C34.6652 104.277 32.5102 107.01 36.4524 106.169C40.3946 105.328 46.0717 107.536 42.8654 113.949Z" fill="#0EA102"/>
<path d="M26.7813 113.951L26.6761 113.947C26.9212 107.856 28.1966 103.943 29.2238 101.732C30.3388 99.3322 31.4133 98.3606 31.4242 98.3511L31.4941 98.4296C31.4835 98.4392 30.4216 99.401 29.3154 101.785C28.294 103.986 27.0254 107.883 26.7813 113.951Z" fill="white"/>
<path d="M38.0435 113.964L37.9426 113.934C38.7252 111.353 40.1359 109.006 42.0484 107.104L42.119 107.181C40.2207 109.07 38.8204 111.401 38.0435 113.964Z" fill="white"/>
<path d="M16.6489 113.956L16.5447 113.942C16.884 111.658 16.525 109.325 15.5149 107.249C15.1008 106.379 14.5526 105.578 13.8904 104.878L13.9632 104.802C14.6344 105.511 15.1901 106.321 15.6101 107.203C16.6293 109.298 16.9914 111.652 16.6489 113.956Z" fill="white"/>
<path d="M47.0885 114.089H8.39142L8.38257 113.958C8.36043 113.632 7.86667 105.94 10.359 103.195C10.6062 102.906 10.9115 102.671 11.255 102.506C11.5986 102.341 11.9729 102.25 12.3537 102.238C13.9783 102.192 14.9992 102.801 15.8227 103.289C17.3749 104.21 18.4 104.818 22.1282 100.21C26.1667 95.2188 30.5243 94.1447 33.0292 94.7419C34.6477 95.1278 35.7632 96.2183 36.0897 97.7341C36.3995 99.1694 36.3003 100.518 36.2211 101.602C36.1363 102.761 36.0695 103.677 36.5458 104.092C36.9442 104.438 37.7367 104.47 39.0425 104.191C41.6984 103.625 45.4051 104.109 47.2653 106.513C48.2661 107.806 49.0547 110.157 47.1274 114.011L47.0885 114.089ZM8.65546 113.808H46.9143C48.3504 110.894 48.3954 108.433 47.0429 106.685C45.3363 104.48 41.7559 103.9 39.1012 104.466C37.6823 104.769 36.8371 104.719 36.361 104.304C35.7787 103.797 35.8502 102.819 35.9405 101.582C36.0184 100.516 36.1151 99.19 35.8145 97.7941C35.5118 96.3885 34.4727 95.3759 32.9637 95.0163C30.5387 94.4378 26.3019 95.4981 22.3467 100.388C18.466 105.184 17.2968 104.491 15.6791 103.531C14.8454 103.036 13.899 102.476 12.3615 102.519C12.0186 102.53 11.6818 102.613 11.3727 102.762C11.0637 102.911 10.7892 103.123 10.567 103.384C8.32768 105.851 8.60079 112.768 8.65568 113.808H8.65546Z" fill="#B0B0B0"/>
<path d="M173.53 114.246H135.415L135.407 114.032L133.587 61.9814H175.357L173.53 114.246ZM135.842 113.803H173.102L174.899 62.4241H134.045L135.842 113.803Z" fill="#B0B0B0"/>
<path d="M144.507 71.6255H141.608V107.501H144.507V71.6255Z" fill="#7EBA00"/>
<path d="M155.922 71.6255H153.023V107.501H155.922V71.6255Z" fill="#7EBA00"/>
<path d="M167.336 71.6255H164.437V107.501H167.336V71.6255Z" fill="#7EBA00"/>
<path d="M199.577 77.2661L199.39 77.1479L152.046 47.2289L156.153 40.7305L156.34 40.8487L203.684 70.7676L199.577 77.2661ZM152.657 47.0912L199.439 76.6553L203.073 70.9055L156.291 41.341L152.657 47.0912Z" fill="#B0B0B0"/>
<path d="M188.146 44.8174C186.77 43.9465 185.173 43.4886 183.544 43.4982C181.916 43.5078 180.324 43.9843 178.958 44.8714C177.593 45.7584 176.51 47.0186 175.839 48.5025C175.168 49.9864 174.936 51.6317 175.172 53.2431L177.43 54.6698C176.863 53.3525 176.732 51.8882 177.057 50.4912C177.382 49.0943 178.146 47.8381 179.236 46.9066C180.327 45.9751 181.687 45.4173 183.118 45.3147C184.548 45.2122 185.974 45.5704 187.187 46.3368C188.399 47.1032 189.334 48.2376 189.855 49.5739C190.376 50.9103 190.456 52.3783 190.082 53.763C189.708 55.1477 188.901 56.3765 187.778 57.2693C186.656 58.1621 185.277 58.6721 183.844 58.7246L186.101 60.1513C187.658 59.6733 189.045 58.7587 190.098 57.5161C191.151 56.2734 191.825 54.7548 192.04 53.1405C192.256 51.5262 192.004 49.884 191.314 48.4087C190.624 46.9334 189.525 45.687 188.148 44.8174H188.146Z" fill="#7EBA00"/>
<path d="M201.182 113.94H0V114.383H201.182V113.94Z" fill="#B0B0B0"/>
<path d="M87.873 110.92H84.6497L83.1155 98.4873H87.8739L87.873 110.92Z" fill="#FEB8B8"/>
<path d="M78.4335 113.912H88.5636V109.999H82.2931C81.2695 109.999 80.2878 110.405 79.5639 111.129C78.8401 111.853 78.4335 112.835 78.4335 113.858V113.912Z" fill="#2F2E41"/>
<path d="M86.7401 91.6547L88.9635 93.9886L99.023 86.524L95.7417 83.0796L86.7401 91.6547Z" fill="#FEB8B8"/>
<path d="M91.254 95.0579L86.9274 90.5181L84.0938 93.2186L91.0835 100.553L91.1228 100.515C91.4898 100.166 91.7842 99.7471 91.9894 99.2836C92.1946 98.8201 92.3065 98.3206 92.3187 97.8139C92.3309 97.3071 92.2431 96.8029 92.0605 96.33C91.8778 95.8571 91.6038 95.4249 91.254 95.0579Z" fill="#2F2E41"/>
<path d="M64.3047 57.5938C64.1007 57.2656 63.9711 56.8967 63.9251 56.513C63.879 56.1293 63.9177 55.7403 64.0383 55.3731C64.1588 55.006 64.3584 54.6697 64.623 54.3881C64.8876 54.1064 65.2106 53.8862 65.5695 53.7428L78.2245 21.4902L83.1573 24.4438L69.0994 55.3846C69.3003 56.0036 69.2671 56.6748 69.0061 57.271C68.7451 57.8672 68.2745 58.3469 67.6835 58.6192C67.0924 58.8916 66.4219 58.9376 65.7992 58.7486C65.1764 58.5596 64.6447 58.1487 64.3047 57.5938Z" fill="#FEB8B8"/>
<path d="M112.339 59.9054C111.953 59.8778 111.578 59.7661 111.241 59.5779C110.903 59.3898 110.611 59.1299 110.384 58.8165C110.158 58.5031 110.003 58.1439 109.93 57.7642C109.858 57.3845 109.87 56.9935 109.965 56.6188L91.2952 27.4333L96.5828 25.1758L113.367 54.7274C113.987 54.9277 114.511 55.3487 114.841 55.9104C115.171 56.472 115.283 57.1353 115.157 57.7742C115.03 58.4132 114.673 58.9833 114.153 59.3763C113.634 59.7693 112.988 59.9579 112.339 59.9063V59.9054Z" fill="#FEB8B8"/>
<path d="M78.3491 54.3643L81.6537 103.479L89.5509 102.782L91.1767 66.5465L95.5899 82.1085L105.113 82.8053L101.344 52.0415L78.3491 54.3643Z" fill="#2F2E41"/>
<path d="M96.9835 79.7861L95.5892 82.1089L85.8348 88.8446L92.8029 92.5611C92.8029 92.5611 106.275 85.1284 105.113 82.8056L96.9835 79.7861Z" fill="#2F2E41"/>
<path d="M71.4337 34.4929L74.1828 26.7467C74.7944 25.0231 75.7417 23.4379 76.97 22.0829C78.1983 20.7279 79.6831 19.6299 81.3385 18.8525C85.0594 17.4818 89.1062 17.2603 92.9544 18.2167L93.9548 18.465C96.6224 19.1116 99.1218 20.3187 101.287 22.0062C102.981 23.3416 104.505 25.0325 104.64 26.8513C104.641 26.8552 104.642 26.859 104.644 26.8626C105.113 28.9192 105.345 39.6035 105.345 39.6035H101.206L101.861 54.0042L101.808 53.9C101.808 53.9 77.9373 58.4174 77.9373 56.0946V41.2289L77.4479 35.8463L71.4337 34.4929Z" fill="#0EA102"/>
<path d="M93.7148 16.2033C97.3682 16.2033 100.33 13.2417 100.33 9.58824C100.33 5.93482 97.3682 2.97314 93.7148 2.97314C90.0614 2.97314 87.0997 5.93482 87.0997 9.58824C87.0997 13.2417 90.0614 16.2033 93.7148 16.2033Z" fill="#FEB8B8"/>
<path d="M94.7057 6.62156L99.8422 6.82739C100.488 6.8254 101.194 6.8026 101.686 6.38475C102.428 5.7542 102.303 4.56438 101.906 3.67555C100.8 1.20072 98.3314 0.314108 95.6209 0.386923C92.9104 0.459738 90.0701 1.37844 88.6105 3.66249C87.1509 5.94653 86.7565 8.8308 87.3063 11.4849C87.9418 10.1353 88.9203 8.97606 90.1439 8.12284C91.3676 7.26962 92.7936 6.75227 94.2797 6.62245L94.7057 6.62156Z" fill="#2F2E41"/>
<path d="M125.207 71.3264L106.616 58.2965C106.443 58.175 106.325 57.9899 106.289 57.7819C106.252 57.5739 106.3 57.3598 106.42 57.1866L121.013 36.3663C121.134 36.1935 121.319 36.076 121.527 36.0394C121.735 36.0028 121.949 36.0502 122.122 36.171L140.714 49.2009C140.887 49.3225 141.004 49.5075 141.041 49.7155C141.077 49.9236 141.03 50.1376 140.909 50.3108L126.317 71.1306C126.196 71.3036 126.011 71.4213 125.803 71.458C125.595 71.4947 125.38 71.4473 125.207 71.3264Z" fill="#E6CF00"/>
<path d="M129.388 57.1882L118.479 49.5425C118.353 49.4541 118.245 49.3417 118.163 49.2117C118.08 49.0818 118.024 48.9368 117.997 48.785C117.97 48.6333 117.974 48.4778 118.007 48.3274C118.041 48.177 118.103 48.0347 118.192 47.9085C118.28 47.7824 118.392 47.6749 118.522 47.5921C118.652 47.5094 118.797 47.4531 118.949 47.4264C119.101 47.3997 119.256 47.4032 119.407 47.4366C119.557 47.47 119.699 47.5327 119.826 47.6211L130.735 55.2668C130.99 55.4454 131.163 55.7179 131.217 56.0243C131.271 56.3308 131.201 56.6461 131.022 56.9008C130.844 57.1556 130.571 57.3291 130.265 57.383C129.958 57.4368 129.643 57.3668 129.388 57.1882Z" fill="white"/>
<path d="M126.884 60.7606L115.975 53.1149C115.849 53.0265 115.741 52.9141 115.659 52.7842C115.576 52.6542 115.519 52.5091 115.492 52.3573C115.466 52.2055 115.469 52.0499 115.503 51.8995C115.536 51.749 115.599 51.6065 115.687 51.4803C115.776 51.3541 115.888 51.2465 116.018 51.1638C116.148 51.081 116.293 51.0248 116.445 50.9981C116.597 50.9715 116.753 50.975 116.903 51.0086C117.053 51.0421 117.196 51.1049 117.322 51.1935L128.231 58.8392C128.486 59.0179 128.659 59.2903 128.712 59.5966C128.766 59.9029 128.696 60.218 128.518 60.4726C128.339 60.7273 128.067 60.9006 127.761 60.9546C127.454 61.0086 127.139 60.9388 126.884 60.7606Z" fill="white"/>
<path d="M124.354 64.3714L113.445 56.7256C113.319 56.6372 113.211 56.5248 113.128 56.3948C113.046 56.2649 112.989 56.1199 112.963 55.9682C112.936 55.8164 112.939 55.6609 112.973 55.5105C113.006 55.3601 113.069 55.2178 113.157 55.0916C113.246 54.9655 113.358 54.858 113.488 54.7753C113.618 54.6925 113.763 54.6362 113.915 54.6095C114.067 54.5828 114.222 54.5863 114.372 54.6197C114.523 54.6531 114.665 54.7158 114.791 54.8043L125.7 62.45C125.955 62.6285 126.129 62.901 126.183 63.2074C126.236 63.5139 126.166 63.8292 125.988 64.084C125.809 64.3387 125.537 64.5122 125.23 64.5661C124.924 64.62 124.609 64.5499 124.354 64.3714Z" fill="white"/>
<path d="M129.358 50.1212L125.132 47.1598C125.006 47.0715 124.898 46.9591 124.815 46.8291C124.732 46.6991 124.676 46.5541 124.649 46.4023C124.622 46.2504 124.626 46.0949 124.659 45.9444C124.693 45.7939 124.755 45.6515 124.844 45.5252C124.932 45.399 125.045 45.2914 125.175 45.2087C125.305 45.126 125.45 45.0697 125.602 45.043C125.754 45.0164 125.909 45.02 126.06 45.0535C126.21 45.087 126.353 45.1498 126.479 45.2384L130.704 48.1998C130.959 48.3784 131.132 48.6509 131.186 48.9573C131.24 49.2637 131.17 49.579 130.991 49.8338C130.813 50.0886 130.54 50.262 130.234 50.3159C129.928 50.3698 129.612 50.2998 129.358 50.1212Z" fill="white"/>
</svg>
