<svg width="13" height="16" viewBox="0 0 13 16" fill="none" xmlns="http://www.w3.org/2000/svg">
<path d="M11.875 2.8828H9.9375C9.63847 1.4288 8.35942 0.384688 6.87498 0.382812H5.62497C4.14053 0.384688 2.86148 1.4288 2.56248 2.8828H0.62499C0.279814 2.8828 0 3.16262 0 3.50779C0 3.85297 0.279814 4.13281 0.62499 4.13281H1.24998V12.2578C1.25206 13.9828 2.64996 15.3808 4.37499 15.3828H8.12499C9.85002 15.3808 11.2479 13.9828 11.25 12.2578V4.13281H11.875C12.2202 4.13281 12.5 3.853 12.5 3.50782C12.5 3.16265 12.2202 2.8828 11.875 2.8828ZM5.625 11.0078C5.625 11.353 5.34519 11.6328 5.00001 11.6328C4.6548 11.6328 4.37499 11.353 4.37499 11.0078V7.25782C4.37499 6.91265 4.6548 6.63283 4.99998 6.63283C5.34516 6.63283 5.62497 6.91265 5.62497 7.25782V11.0078H5.625ZM8.12499 11.0078C8.12499 11.353 7.84518 11.6328 7.5 11.6328C7.15482 11.6328 6.87501 11.353 6.87501 11.0078V7.25782C6.87501 6.91265 7.15482 6.63283 7.5 6.63283C7.84518 6.63283 8.12499 6.91265 8.12499 7.25782V11.0078ZM3.85688 2.8828C4.12271 2.13424 4.83064 1.63376 5.625 1.63279H6.87501C7.66937 1.63376 8.3773 2.13424 8.64314 2.8828H3.85688Z" fill="#3C3C3C"/>
</svg>
