<svg width="31" height="30" viewBox="0 0 31 30" fill="none" xmlns="http://www.w3.org/2000/svg">
<path d="M24.8122 11.2125L19.3241 5.72441C19.2756 5.67598 19.1971 5.67598 19.1487 5.72442L6.01921 18.8551C5.97078 18.9035 5.97079 18.982 6.01923 19.0305L11.5073 24.5174C11.5558 24.5658 11.6343 24.5658 11.6827 24.5174L24.8122 11.3879C24.8606 11.3395 24.8606 11.261 24.8122 11.2125Z" fill="white"/>
<path d="M1.9019 23.4938L0.987404 28.9786C0.959928 29.1433 1.09992 29.2876 1.26546 29.2651L7.48034 28.4204C7.53408 28.4131 7.58396 28.3883 7.62231 28.35L8.90175 27.0705C8.99862 26.9737 8.99862 26.8166 8.90175 26.7198L3.93158 21.7496C3.83471 21.6527 3.67767 21.6527 3.58081 21.7496L1.97117 23.3592C1.93462 23.3958 1.9104 23.4429 1.9019 23.4938Z" fill="white"/>
<path d="M24.271 0.52628C24.5077 0.278771 24.9002 0.269993 25.1477 0.506673L30.0579 5.20208C30.3054 5.43876 30.3142 5.83127 30.0775 6.07878L27.1875 9.10103L21.381 3.54853L24.271 0.52628Z" fill="white"/>
</svg>
