<svg width="18" height="17" viewBox="0 0 18 17" fill="none" xmlns="http://www.w3.org/2000/svg">
<rect y="0.402344" width="18" height="16" rx="3" fill="#858585"/>
<g clip-path="url(#clip0_241_223)">
<path d="M14.1505 6.60624L12.3727 4.82837C12.2862 4.74488 12.1704 4.69868 12.0503 4.69972C11.9301 4.70077 11.8151 4.74897 11.7302 4.83395C11.6452 4.91893 11.597 5.03388 11.5959 5.15406C11.5949 5.27423 11.6411 5.39001 11.7246 5.47645L13.5025 7.25433C13.5553 7.30819 13.6014 7.3682 13.64 7.43307C13.6331 7.43307 13.6276 7.42941 13.6207 7.42941L6.43221 7.44407C6.31065 7.44407 6.19407 7.49236 6.10812 7.57832C6.02217 7.66427 5.97388 7.78085 5.97388 7.90241C5.97388 8.02397 6.02217 8.14054 6.10812 8.2265C6.19407 8.31245 6.31065 8.36074 6.43221 8.36074L13.618 8.34608C13.6308 8.34608 13.6413 8.33966 13.6537 8.33874C13.6131 8.41627 13.5615 8.48758 13.5006 8.55049L11.7228 10.3284C11.679 10.3706 11.6441 10.4212 11.62 10.4771C11.596 10.5331 11.5834 10.5932 11.5828 10.6541C11.5823 10.7149 11.5939 10.7753 11.617 10.8316C11.64 10.8879 11.674 10.9391 11.7171 10.9821C11.7601 11.0252 11.8113 11.0592 11.8676 11.0822C11.9239 11.1053 11.9843 11.1169 12.0451 11.1164C12.106 11.1158 12.1661 11.1032 12.2221 11.0792C12.278 11.0551 12.3286 11.0202 12.3708 10.9764L14.1487 9.19858C14.4924 8.85477 14.6855 8.38854 14.6855 7.90241C14.6855 7.41627 14.4924 6.95004 14.1487 6.60624H14.1505Z" fill="white"/>
<path d="M6.89583 12.4857H5.97917C5.61449 12.4857 5.26476 12.3408 5.0069 12.0829C4.74903 11.8251 4.60417 11.4754 4.60417 11.1107V4.69401C4.60417 4.32934 4.74903 3.9796 5.0069 3.72174C5.26476 3.46388 5.61449 3.31901 5.97917 3.31901H6.89583C7.01739 3.31901 7.13397 3.27072 7.21992 3.18477C7.30588 3.09881 7.35417 2.98223 7.35417 2.86068C7.35417 2.73912 7.30588 2.62254 7.21992 2.53659C7.13397 2.45063 7.01739 2.40234 6.89583 2.40234H5.97917C5.3716 2.40307 4.78913 2.64475 4.35952 3.07436C3.9299 3.50397 3.68823 4.08645 3.6875 4.69401L3.6875 11.1107C3.68823 11.7182 3.9299 12.3007 4.35952 12.7303C4.78913 13.1599 5.3716 13.4016 5.97917 13.4023H6.89583C7.01739 13.4023 7.13397 13.3541 7.21992 13.2681C7.30588 13.1821 7.35417 13.0656 7.35417 12.944C7.35417 12.8225 7.30588 12.7059 7.21992 12.6199C7.13397 12.534 7.01739 12.4857 6.89583 12.4857Z" fill="white"/>
</g>
<defs>
<clipPath id="clip0_241_223">
<rect width="11.6875" height="11" fill="white" transform="translate(3 2.40234)"/>
</clipPath>
</defs>
</svg>
