<svg width="12" height="12" viewBox="0 0 12 12" fill="none" xmlns="http://www.w3.org/2000/svg">
<g id="edit (3) 1" clip-path="url(#clip0_92_3355)">
<rect width="11.6875" height="11" transform="translate(0.126953 0.90625)" fill="#3C3C3C"/>
<g id="Group 1685">
<path id="Vector" d="M11.2775 5.11015L9.49962 3.33227C9.41318 3.24878 9.2974 3.20259 9.17723 3.20363C9.05706 3.20467 8.9421 3.25288 8.85712 3.33786C8.77214 3.42283 8.72394 3.53779 8.7229 3.65796C8.72185 3.77814 8.76805 3.89391 8.85154 3.98036L10.6294 5.75823C10.6822 5.8121 10.7284 5.87211 10.7669 5.93698C10.76 5.93698 10.7545 5.93331 10.7477 5.93331L3.55916 5.94798C3.43761 5.94798 3.32103 5.99627 3.23507 6.08222C3.14912 6.16818 3.10083 6.28476 3.10083 6.40631C3.10083 6.52787 3.14912 6.64445 3.23507 6.7304C3.32103 6.81636 3.43761 6.86465 3.55916 6.86465L10.7449 6.84998C10.7577 6.84998 10.7683 6.84356 10.7807 6.84265C10.74 6.92018 10.6885 6.99149 10.6276 7.0544L8.8497 8.83227C8.80593 8.87455 8.77101 8.92513 8.74699 8.98105C8.72297 9.03696 8.71033 9.09711 8.7098 9.15796C8.70927 9.21882 8.72087 9.27917 8.74391 9.3355C8.76696 9.39183 8.80099 9.443 8.84402 9.48604C8.88706 9.52907 8.93823 9.5631 8.99456 9.58615C9.05089 9.60919 9.11124 9.62079 9.1721 9.62026C9.23295 9.61973 9.2931 9.60709 9.34902 9.58307C9.40493 9.55905 9.45551 9.52413 9.49779 9.48036L11.2757 7.70248C11.6194 7.35868 11.8124 6.89245 11.8124 6.40631C11.8124 5.92018 11.6194 5.45395 11.2757 5.11015H11.2775Z" fill="white"/>
<path id="Vector_2" d="M4.02279 10.9896H3.10612C2.74145 10.9896 2.39171 10.8447 2.13385 10.5869C1.87599 10.329 1.73112 9.97926 1.73112 9.61458V3.19792C1.73112 2.83324 1.87599 2.48351 2.13385 2.22564C2.39171 1.96778 2.74145 1.82292 3.10612 1.82292H4.02279C4.14434 1.82292 4.26092 1.77463 4.34688 1.68867C4.43283 1.60272 4.48112 1.48614 4.48112 1.36458C4.48112 1.24303 4.43283 1.12645 4.34688 1.04049C4.26092 0.954539 4.14434 0.90625 4.02279 0.90625H3.10612C2.49856 0.906978 1.91608 1.14865 1.48647 1.57827C1.05686 2.00788 0.815181 2.59035 0.814453 3.19792L0.814453 9.61458C0.815181 10.2221 1.05686 10.8046 1.48647 11.2342C1.91608 11.6638 2.49856 11.9055 3.10612 11.9062H4.02279C4.14434 11.9062 4.26092 11.858 4.34688 11.772C4.43283 11.6861 4.48112 11.5695 4.48112 11.4479C4.48112 11.3264 4.43283 11.2098 4.34688 11.1238C4.26092 11.0379 4.14434 10.9896 4.02279 10.9896Z" fill="white"/>
</g>
</g>
<defs>
<clipPath id="clip0_92_3355">
<rect width="11.6875" height="11" fill="white" transform="translate(0.126953 0.90625)"/>
</clipPath>
</defs>
</svg>
