<svg width="17" height="16" viewBox="0 0 17 16" fill="none" xmlns="http://www.w3.org/2000/svg">
<g id="Frame 17957">
<rect x="0.166504" width="16.6957" height="16" rx="4.17391" fill="#DADADA"/>
<g id="Group 15324">
<path id="Vector" d="M13.8323 6.26649H12.8899V5.32406C12.8899 5.21694 12.8473 5.11421 12.7716 5.03847C12.6958 4.96272 12.5931 4.92017 12.486 4.92017C12.3788 4.92017 12.2761 4.96272 12.2004 5.03847C12.1246 5.11421 12.0821 5.21694 12.0821 5.32406V6.26649H11.1396C11.0325 6.26649 10.9298 6.30905 10.854 6.38479C10.7783 6.46054 10.7357 6.56327 10.7357 6.67039C10.7357 6.77751 10.7783 6.88025 10.854 6.95599C10.9298 7.03174 11.0325 7.07429 11.1396 7.07429H12.0821V8.01672C12.0821 8.12384 12.1246 8.22657 12.2004 8.30232C12.2761 8.37806 12.3788 8.42062 12.486 8.42062C12.5931 8.42062 12.6958 8.37806 12.7716 8.30232C12.8473 8.22657 12.8899 8.12384 12.8899 8.01672V7.07429H13.8323C13.9394 7.07429 14.0421 7.03174 14.1179 6.95599C14.1936 6.88025 14.2362 6.77751 14.2362 6.67039C14.2362 6.56327 14.1936 6.46054 14.1179 6.38479C14.0421 6.30905 13.9394 6.26649 13.8323 6.26649Z" fill="#404040"/>
<path id="Vector_2" d="M3.56557 8.2052C3.06461 8.84332 2.79237 9.63115 2.79248 10.4424V10.9809C2.79311 11.5164 3.00608 12.0297 3.38467 12.4082C3.76326 12.7868 4.27656 12.9998 4.81197 13.0004H8.85096C9.38636 12.9998 9.89966 12.7868 10.2783 12.4082C10.6568 12.0297 10.8698 11.5164 10.8704 10.9809V10.4424C10.8706 9.63097 10.5981 8.84301 10.0968 8.20493C9.94502 8.01901 9.72759 7.8985 9.48946 7.8683C9.25133 7.83811 9.0107 7.90054 8.81729 8.0427C8.23811 8.4573 7.54369 8.68021 6.83141 8.68016C6.11913 8.68011 5.42474 8.45711 4.84562 8.04243C4.65204 7.90036 4.41131 7.83804 4.17311 7.86833C3.93491 7.89861 3.71743 8.0192 3.56557 8.2052ZM4.28659 8.66695C4.31551 8.66699 4.34368 8.67619 4.36705 8.69324C5.0857 9.20795 5.94746 9.48475 6.83142 9.4848C7.71538 9.48485 8.57717 9.20814 9.29587 8.69351C9.32017 8.67409 9.3509 8.66458 9.38192 8.66687C9.41293 8.66916 9.44194 8.68309 9.46311 8.70586C9.85179 9.20124 10.0629 9.81276 10.0626 10.4424V10.9809C10.0623 11.3022 9.93447 11.6102 9.70731 11.8373C9.48016 12.0645 9.17219 12.1922 8.85096 12.1926H4.81197C4.49073 12.1922 4.18276 12.0645 3.95561 11.8373C3.72846 11.6102 3.60067 11.3022 3.60028 10.9809V10.4424C3.60003 9.81293 3.81095 9.20156 4.19929 8.70613C4.20996 8.69346 4.22335 8.68336 4.23847 8.67658C4.25358 8.6698 4.27003 8.66651 4.28659 8.66695Z" fill="#404040"/>
<path id="Vector 32" d="M5.87365 9.10283C5.33104 8.96718 4.24582 8.61448 4.24582 8.28892C4.24582 7.96335 3.70321 8.96718 3.4319 9.50979V10.7307L3.83886 11.9515L5.05973 12.3585H7.09452H9.12932C9.40062 12.0872 10.0246 11.5446 10.3502 11.5446C10.6758 11.5446 10.4858 11.002 10.3502 10.7307C10.2145 10.3237 9.94323 9.4284 9.94323 9.10283C9.94323 8.77727 9.40062 8.42457 9.12932 8.28892L7.90844 9.10283H5.87365Z" fill="#404040"/>
<path id="Ellipse 289" d="M8.72243 5.03406C8.72243 6.25493 7.50155 7.47581 6.68764 7.06885C5.56385 7.06885 4.65285 6.15784 4.65285 5.03406C4.65285 3.91027 5.56385 2.99927 6.68764 2.99927C7.81142 2.99927 8.72243 3.91027 8.72243 5.03406Z" fill="#404040"/>
</g>
</g>
</svg>
