<svg width="18" height="19" viewBox="0 0 18 19" fill="none" xmlns="http://www.w3.org/2000/svg">
<g id="Group 1687">
<path id="Vector" d="M9.00073 6.68213C9.63161 6.68213 10.1431 6.17068 10.1431 5.53979C10.1431 4.90891 9.63161 4.39746 9.00073 4.39746C8.36985 4.39746 7.8584 4.90891 7.8584 5.53979C7.8584 6.17068 8.36985 6.68213 9.00073 6.68213Z" fill="#858585"/>
<path id="Vector_2" d="M15.001 0.722656H3.00023C1.33235 0.735841 -0.00992965 2.09693 5.53524e-05 3.76485V12.8929C-0.00992965 14.5609 1.33224 15.9222 3.00023 15.9358H5.19261L8.00377 18.336C8.56061 18.8449 9.41148 18.8523 9.97715 18.3532L12.8611 15.9351H15.001C16.669 15.9215 18.0111 14.5602 18.0011 12.8922V3.76485C18.0112 2.09693 16.6689 0.735841 15.001 0.722656ZM9.00062 3.0043C12.4621 3.09582 12.4613 8.23739 9.00062 8.32964C5.53916 8.23735 5.5399 3.09803 9.00062 3.0043ZM12.1876 13.6295C11.7862 13.7319 11.3778 13.4895 11.2754 13.0881C11.2749 13.0863 11.2745 13.0845 11.274 13.0827C10.8901 11.8269 9.56087 11.1201 8.30511 11.504C7.54921 11.7351 6.95756 12.3268 6.72646 13.0827C6.62166 13.4837 6.21164 13.7238 5.81066 13.619C5.40968 13.5141 5.16958 13.1041 5.27439 12.7031C5.85436 10.645 7.99298 9.4467 10.0511 10.0267C11.3483 10.3922 12.362 11.406 12.7276 12.7031C12.832 13.1077 12.5911 13.521 12.1876 13.6295Z" fill="#858585"/>
</g>
</svg>
