<svg width="20" height="17" viewBox="0 0 20 17" fill="none" xmlns="http://www.w3.org/2000/svg">
<path d="M18.5095 5.72976H17.0015V4.22174C17.0015 4.05033 16.9334 3.88594 16.8122 3.76473C16.691 3.64353 16.5266 3.57544 16.3552 3.57544C16.1838 3.57544 16.0194 3.64353 15.8982 3.76473C15.777 3.88594 15.7089 4.05033 15.7089 4.22174V5.72976H14.2009C14.0295 5.72976 13.8651 5.79785 13.7439 5.91905C13.6227 6.04026 13.5546 6.20465 13.5546 6.37605C13.5546 6.54746 13.6227 6.71185 13.7439 6.83305C13.8651 6.95426 14.0295 7.02235 14.2009 7.02235H15.7089V8.53037C15.7089 8.70178 15.777 8.86617 15.8982 8.98737C16.0194 9.10858 16.1838 9.17667 16.3552 9.17667C16.5266 9.17667 16.691 9.10858 16.8122 8.98737C16.9334 8.86617 17.0015 8.70178 17.0015 8.53037V7.02235H18.5095C18.6809 7.02235 18.8453 6.95426 18.9665 6.83305C19.0877 6.71185 19.1558 6.54746 19.1558 6.37605C19.1558 6.20465 19.0877 6.04026 18.9665 5.91905C18.8453 5.79785 18.6809 5.72976 18.5095 5.72976Z" fill="#F2F2F2"/>
<path d="M2.08117 8.8269C1.27956 9.84799 0.843943 11.1086 0.844116 12.4068V13.2685C0.845124 14.1252 1.18591 14.9466 1.79171 15.5524C2.39751 16.1582 3.21886 16.499 4.07559 16.5H10.5386C11.3953 16.499 12.2166 16.1582 12.8224 15.5524C13.4282 14.9466 13.769 14.1252 13.77 13.2685V12.4068C13.7702 11.1084 13.3343 9.84749 12.5321 8.82648C12.2892 8.52897 11.9413 8.33614 11.5602 8.28782C11.1792 8.23951 10.7942 8.33941 10.4847 8.56687C9.55791 9.2303 8.44673 9.58699 7.30699 9.58691C6.16724 9.58684 5.05611 9.23 4.12944 8.56645C3.81968 8.33912 3.43447 8.23939 3.05332 8.28786C2.67217 8.33632 2.32417 8.52928 2.08117 8.8269ZM3.2349 9.56577C3.28119 9.56583 3.32627 9.58056 3.36366 9.60784C4.5136 10.4315 5.89254 10.8744 7.307 10.8745C8.72147 10.8745 10.1005 10.4318 11.2505 9.60826C11.2894 9.5772 11.3385 9.56198 11.3882 9.56565C11.4378 9.56931 11.4842 9.5916 11.5181 9.62804C12.14 10.4207 12.4779 11.3992 12.4774 12.4068V13.2685C12.4768 13.7825 12.2723 14.2753 11.9089 14.6388C11.5454 15.0023 11.0526 15.2068 10.5386 15.2074H4.07559C3.56156 15.2068 3.06877 15.0023 2.70529 14.6388C2.34182 14.2753 2.13734 13.7825 2.13671 13.2685V12.4068C2.13632 11.3995 2.47382 10.4212 3.09521 9.62846C3.11229 9.60819 3.13372 9.59203 3.1579 9.58118C3.18209 9.57033 3.2084 9.56506 3.2349 9.56577Z" fill="#F2F2F2"/>
<path d="M5.77443 10.2676C4.90618 10.0506 3.16966 9.48621 3.16966 8.96526C3.16966 8.4443 2.30141 10.0506 1.86728 10.9188V12.8724L2.51847 14.826L4.47205 15.4772H7.72801H10.984C11.4181 15.043 12.4166 14.1748 12.9375 14.1748C13.4585 14.1748 13.1546 13.3065 12.9375 12.8724C12.7205 12.2212 12.2864 10.7886 12.2864 10.2676C12.2864 9.74668 11.4181 9.18232 10.984 8.96525L9.03039 10.2676H5.77443Z" fill="#F2F2F2"/>
<path d="M10.3329 3.75596C10.3329 5.70954 8.37936 7.66311 7.07697 7.01192C5.27876 7.01192 3.82101 5.55418 3.82101 3.75596C3.82101 1.95774 5.27876 0.5 7.07697 0.5C8.87519 0.5 10.3329 1.95774 10.3329 3.75596Z" fill="#F2F2F2"/>
</svg>
