<svg width="15" height="19" viewBox="0 0 15 19" fill="none" xmlns="http://www.w3.org/2000/svg">
<path id="Vector" d="M11.25 0.121094H3.75C1.68225 0.121094 0 1.80334 0 3.87109V14.3711C0 16.4388 1.68225 18.1211 3.75 18.1211H11.25C13.3178 18.1211 15 16.4388 15 14.3711V3.87109C15 1.80334 13.3178 0.121094 11.25 0.121094ZM6 14.3711C6 14.7851 5.664 15.1211 5.25 15.1211H3.75C3.336 15.1211 3 14.7851 3 14.3711V12.8711C3 12.4571 3.336 12.1211 3.75 12.1211H5.25C5.664 12.1211 6 12.4571 6 12.8711V14.3711ZM6 9.87109C6 10.2851 5.664 10.6211 5.25 10.6211H3.75C3.336 10.6211 3 10.2851 3 9.87109V8.37109C3 7.95709 3.336 7.62109 3.75 7.62109H5.25C5.664 7.62109 6 7.95709 6 8.37109V9.87109ZM6 5.37109C6 5.78509 5.664 6.12109 5.25 6.12109H3.75C3.336 6.12109 3 5.78509 3 5.37109V3.87109C3 3.45709 3.336 3.12109 3.75 3.12109H5.25C5.664 3.12109 6 3.45709 6 3.87109V5.37109ZM11.25 14.3711H8.25C7.269 14.3666 7.26975 12.8756 8.25 12.8711H11.25C12.231 12.8756 12.2303 14.3666 11.25 14.3711ZM11.25 9.87109H8.25C7.269 9.86659 7.26975 8.37559 8.25 8.37109H11.25C12.231 8.37559 12.2303 9.86659 11.25 9.87109ZM11.25 5.37109H8.25C7.269 5.36659 7.26975 3.87559 8.25 3.87109H11.25C12.231 3.87559 12.2303 5.36659 11.25 5.37109Z" fill="#858585"/>
</svg>
