<svg width="391" height="223" viewBox="0 0 391 223" fill="none" xmlns="http://www.w3.org/2000/svg">
<path d="M391.39 164.196C209.357 86.3292 132.569 165.689 0.964111 222.45V0.953613H391.39V164.196Z" fill="url(#paint0_linear_368_220)"/>
<circle cx="195.964" cy="106.504" r="67.1328" fill="url(#paint1_linear_368_220)"/>
<path fill-rule="evenodd" clip-rule="evenodd" d="M171.954 124.528H220.183L227.72 103.656C228.11 103.782 228.531 103.848 228.964 103.848C231.248 103.848 233.105 101.997 233.105 99.7073C233.105 97.4236 231.254 95.5665 228.964 95.5665C226.68 95.5665 224.823 97.4176 224.823 99.7073C224.823 100.609 225.112 101.438 225.598 102.117L221.319 105.639C215.327 110.567 211.571 108.283 212.743 100.627L213.404 96.3178C213.633 96.3598 213.873 96.3779 214.113 96.3779C216.397 96.3779 218.254 94.5268 218.254 92.237C218.254 89.9533 216.403 88.0962 214.113 88.0962C211.83 88.0962 209.973 89.9473 209.973 92.237C209.973 93.5412 210.58 94.7071 211.523 95.4643L210.495 97.087C205.459 104.647 201.745 101.751 200.261 94.2804L197.61 82.0743C199.095 81.4433 200.14 79.9768 200.14 78.258C200.14 75.9742 198.289 74.1172 196 74.1172C193.716 74.1172 191.859 75.9682 191.859 78.258C191.859 80.1692 193.151 81.7738 194.906 82.2546L193.187 89.2141C191.696 95.5906 189.912 108.295 181.84 97.4656L180.524 95.6747C181.564 94.9235 182.243 93.6974 182.243 92.3152C182.243 90.0314 180.392 88.1743 178.102 88.1743C175.818 88.1743 173.961 90.0254 173.961 92.3152C173.961 94.5989 175.812 96.456 178.102 96.456C178.421 96.456 178.733 96.4199 179.034 96.3478L179.31 99.1604C179.851 103.001 180.542 108.199 176.131 107.953C173.943 107.833 173.12 107.087 171.449 105.898L166.677 102.514C167.212 101.817 167.531 100.945 167.531 99.9958C167.531 97.7121 165.68 95.855 163.39 95.855C161.106 95.855 159.249 97.706 159.249 99.9958C159.249 102.286 161.1 104.137 163.39 104.137C163.931 104.137 164.442 104.034 164.916 103.848L171.954 124.528ZM171.918 130.304H220.304V138.892H171.918V130.304Z" fill="#FFCA00"/>
<defs>
<linearGradient id="paint0_linear_368_220" x1="201.957" y1="280.945" x2="201.957" y2="-37.1327" gradientUnits="userSpaceOnUse">
<stop stop-color="#16C49A"/>
<stop offset="0.873995" stop-color="#D9D9D9" stop-opacity="0"/>
</linearGradient>
<linearGradient id="paint1_linear_368_220" x1="195.964" y1="178.863" x2="195.964" y2="7.40913" gradientUnits="userSpaceOnUse">
<stop stop-color="#13A074"/>
<stop offset="1" stop-color="#0BFFB4"/>
</linearGradient>
</defs>
</svg>
