<svg width="114" height="139" viewBox="0 0 114 139" fill="none" xmlns="http://www.w3.org/2000/svg">
<g id="Group 1717">
<path id="Vector" d="M1.26009 105.442C0.469203 106.218 0.016517 107.275 0.000443074 108.383C-0.0156308 109.49 0.406206 110.56 1.17425 111.358L26.9876 137.72C27.374 138.12 27.8362 138.439 28.3471 138.659C28.858 138.879 29.4075 138.994 29.9637 139C30.5198 139.005 31.0715 138.9 31.5865 138.69C32.1016 138.48 32.5698 138.17 32.9639 137.778L112.534 57.0338C112.977 56.5927 113.315 56.0581 113.525 55.4692C113.735 54.8803 113.811 54.2519 113.746 53.6301C113.682 53.0083 113.48 52.4086 113.154 51.8751C112.828 51.3415 112.387 50.8875 111.863 50.5463L82.263 30.9206C81.4655 30.3957 80.5121 30.1604 79.562 30.2539C78.6119 30.3475 77.7227 30.7641 77.0428 31.4344L1.26009 105.442Z" fill="#3F3D56"/>
<path id="Vector_2" d="M107.87 53.9122L104.57 51.8081C104.917 52.4275 105.045 53.1463 104.932 53.8476C104.819 54.5488 104.471 55.1911 103.947 55.6698C103.422 56.1485 102.751 56.4354 102.042 56.4838C101.333 56.5323 100.629 56.3393 100.044 55.9365L78.6888 41.2547C78.2034 40.9215 77.8213 40.4586 77.5862 39.9188C77.351 39.379 77.2723 38.784 77.3589 38.2016C77.4455 37.6193 77.6939 37.0729 78.076 36.6249C78.458 36.1769 78.9582 35.8452 79.5196 35.6677L77.8194 34.5837C77.5988 34.443 77.3366 34.3822 77.0766 34.4115C76.8166 34.4407 76.5745 34.5581 76.3906 34.7442L4.54974 105.344C4.44256 105.453 4.35815 105.582 4.30146 105.723C4.24478 105.865 4.21696 106.016 4.21966 106.169C4.22236 106.321 4.25551 106.472 4.31717 106.611C4.37883 106.75 4.46774 106.876 4.5787 106.981L30.6695 132.403C30.8858 132.607 31.173 132.719 31.4702 132.715C31.7675 132.711 32.0514 132.591 32.262 132.381L108.062 55.6871C108.184 55.5661 108.276 55.4194 108.333 55.2578C108.39 55.0962 108.41 54.9238 108.392 54.7534C108.373 54.583 108.317 54.4189 108.227 54.2733C108.136 54.1277 108.014 54.0043 107.87 53.9122Z" fill="white"/>
<path id="Vector_3" d="M24.9539 89.755L46.9924 110.534L99.4126 58.7437L72.8088 41.4277L24.9539 89.755Z" fill="#E6E6E6"/>
<path id="Vector_4" d="M97.3747 71.5252C97.5201 71.6638 97.7132 71.7412 97.9141 71.7412C98.1149 71.7412 98.3081 71.6638 98.4534 71.5252L103.038 66.9411C103.18 66.7979 103.26 66.604 103.26 66.4018C103.26 66.1996 103.18 66.0057 103.038 65.8625C102.892 65.7239 102.699 65.6465 102.498 65.6465C102.297 65.6465 102.104 65.7239 101.959 65.8625L97.3747 70.4466C97.232 70.5898 97.1519 70.7837 97.1519 70.9859C97.1519 71.188 97.232 71.382 97.3747 71.5252Z" fill="#3F3D56"/>
<path id="Vector_5" d="M89.6526 79.247C89.7958 79.3898 89.9898 79.4699 90.192 79.4699C90.3942 79.4699 90.5881 79.3898 90.7313 79.247L95.3155 74.6629C95.3864 74.5921 95.4427 74.508 95.4811 74.4154C95.5195 74.3229 95.5393 74.2236 95.5393 74.1234C95.5394 74.0232 95.5196 73.924 95.4813 73.8314C95.443 73.7388 95.3868 73.6546 95.3159 73.5838C95.2451 73.5129 95.1609 73.4567 95.0683 73.4184C94.9757 73.38 94.8765 73.3603 94.7763 73.3604C94.676 73.3604 94.5768 73.3802 94.4843 73.4186C94.3917 73.457 94.3076 73.5133 94.2368 73.5842L89.6526 78.1683C89.5099 78.3115 89.4297 78.5055 89.4297 78.7077C89.4297 78.9099 89.5099 79.1038 89.6526 79.247Z" fill="#3F3D56"/>
<path id="Vector_6" d="M25.4629 112.739C28.3061 112.739 30.611 110.434 30.611 107.591C30.611 104.748 28.3061 102.443 25.4629 102.443C22.6196 102.443 20.3147 104.748 20.3147 107.591C20.3147 110.434 22.6196 112.739 25.4629 112.739Z" fill="#0EA102"/>
<path id="Vector_7" d="M54.5403 90.6212C62.3856 90.6212 68.7454 87.1639 68.7454 82.899C68.7454 78.6341 62.3856 75.1768 54.5403 75.1768C46.695 75.1768 40.3352 78.6341 40.3352 82.899C40.3352 87.1639 46.695 90.6212 54.5403 90.6212Z" fill="#E6CF00"/>
<path id="Vector_8" d="M36.2288 15.951L36.059 17.493L35.9591 18.4055L35.4675 22.8687C35.4675 22.8687 35.0927 23.5646 34.4226 24.5403C33.308 26.1619 31.371 28.5559 28.9673 29.8158C25.1156 31.834 23.5965 17.339 23.5965 17.339C23.5965 17.339 22.7643 11.719 24.8091 11.5127C26.8538 11.3064 26.1505 13.7272 26.3059 17.7099C26.4613 21.6927 29.132 25.0617 29.132 25.0617C29.132 25.0617 31.9746 21.1176 33.2236 18.4713C33.8742 17.0926 34.6632 16.4661 35.2686 16.1839L35.2704 16.1831C35.4701 16.0874 35.6816 16.0186 35.8994 15.9785C36.0078 15.9571 36.1183 15.9479 36.2288 15.951Z" fill="#FFB8B8"/>
<path id="Vector_9" d="M29.9028 22.2942L36.1724 25.939L39.5863 19.8559L38.8152 17.1123C37.9232 16.4142 36.8096 16.0606 35.6783 16.116C34.5469 16.1715 33.4734 16.6323 32.6539 17.4143L29.9028 22.2942Z" fill="#0EA102"/>
<path id="Vector_10" d="M32.1967 0.565741C28.5674 2.06605 26.975 6.54745 28.64 10.5752L30.7555 15.6925L32.3293 15.0419L32.4567 12.7693L33.0127 14.7594L43.1288 10.5776L43.2446 8.51151L43.7501 10.3208L44.889 9.84992L43.228 5.8319C41.312 1.19702 36.3732 -1.16073 32.1967 0.565741Z" fill="#2F2E41"/>
<path id="Vector_11" d="M35.8049 26.7761L36.4431 31.4113L46.4798 26.8362L44.8691 23.4551C44.8691 23.4551 36.4015 24.6124 35.8049 26.7761Z" fill="#A0616A"/>
<path id="Vector_12" d="M32.8999 47.5739L39.1822 53.4967L40.6957 48.3982L36.0433 44.3574L32.8999 47.5739Z" fill="#FFB8B8"/>
<path id="Vector_13" d="M52.1406 70.9307L55.9636 79.1483L59.9658 77.494L55.9607 69.3516L52.1406 70.9307Z" fill="#FFB8B8"/>
<path id="Vector_14" d="M33.1987 38.5048L37.4995 43.756L52.2603 71.7342C52.2603 71.7342 55.1079 71.4091 56.551 69.7475L55.2604 65.595L46.5128 42.373C46.5128 42.373 49.2172 39.1251 47.8005 36.7287C46.3839 34.3323 44.0455 31.252 44.0455 31.252L33.1987 38.5048Z" fill="#2F2E41"/>
<path id="Vector_15" d="M55.6824 76.9222L54.5909 77.3734C54.5909 77.3734 52.852 81.9262 51.9109 82.7412C50.9698 83.5563 46.6089 88.98 51.3823 87.6458C56.1558 86.3115 58.0888 82.7434 58.0888 82.7434C58.0888 82.7434 59.9201 83.0514 61.6203 81.4965C63.3206 79.9416 61.3267 78.2099 61.3267 78.2099C61.3267 78.2099 58.9355 75.3027 58.9086 75.3447C58.8816 75.3866 58.4669 77.4751 55.6824 76.9222Z" fill="#2F2E41"/>
<path id="Vector_16" d="M35.6037 12.3762C37.9145 11.421 39.0133 8.77336 38.0581 6.46259C37.1029 4.15182 34.4552 3.05294 32.1445 4.00818C29.8337 4.96342 28.7348 7.61104 29.6901 9.92181C30.6453 12.2326 33.2929 13.3315 35.6037 12.3762Z" fill="#FFB8B8"/>
<path id="Vector_17" d="M42.3146 11.0923L41.0532 13.4925L40.8837 13.8139L41.6042 16.072L34.5095 19.0049C34.5095 19.0049 35.1306 17.7662 35.6706 16.527C35.6805 16.4994 35.6915 16.4693 35.705 16.4403C35.778 16.2717 35.8421 16.1174 35.8997 15.9786C35.9299 15.9022 35.9598 15.8302 35.9857 15.7641C36.0279 15.655 36.0699 15.5504 36.1118 15.4457C36.1124 15.4443 36.1125 15.4428 36.1121 15.4413C36.2177 15.1695 36.3078 14.8919 36.3819 14.6099L36.3829 14.6073C36.4027 14.5313 36.4185 14.4544 36.4304 14.3768C36.6001 13.2416 34.5747 11.9489 34.5747 11.9489L37.7496 8.29346C38.7048 10.2075 40.9174 10.835 41.8678 11.0214C42.1455 11.0749 42.3146 11.0923 42.3146 11.0923Z" fill="#FFB8B8"/>
<path id="Vector_18" d="M64.7715 37.5935C62.3436 39.4491 59.9057 34.0669 59.9057 34.0669L53.1023 28.158C51.6647 26.9094 50.427 25.4479 49.4321 23.8243L46.351 18.7962L46.2194 19.2148L46.2202 19.2166L45.8489 19.6427L41.1274 16.2695L39.8042 15.3255L39.2026 13.8702L41.4049 11.4688L42.4964 11.0176C42.4964 11.0176 42.5186 11.0042 42.5589 10.9832C43.0392 10.7229 46.2161 9.15403 47.7017 12.2738C48.285 13.4981 48.7079 14.5374 49.0102 15.3651C49.8371 17.6587 50.9825 19.8247 52.4129 21.7992C52.9321 22.5097 53.4258 23.109 53.788 23.3899C55.042 24.3625 61.7248 33.3149 61.7248 33.3149C61.7248 33.3149 67.1994 35.7378 64.7715 37.5935Z" fill="#FFB8B8"/>
<path id="Vector_19" d="M36.3815 14.6099C36.3825 14.6329 36.3639 14.8301 35.9854 15.7641C36.142 15.3882 36.2743 15.0027 36.3815 14.6099Z" fill="#D0CDE1"/>
<path id="Vector_20" d="M46.2976 18.9249L46.2202 19.2168L46.1641 25.2208C46.1641 25.2208 43.7854 29.5247 41.0882 30.2136C39.5548 30.5583 36.68 29.0479 36.4229 30.5984L35.3538 25.6854L34.4228 24.541C34.3141 24.407 34.1914 24.2596 34.0561 24.0919C32.7583 22.4984 33.9322 19.6701 33.9322 19.6701L35.2688 16.1845L35.2706 16.1838C35.4703 16.0881 35.6818 16.0193 35.8996 15.9792C35.842 16.118 35.7779 16.2723 35.7049 16.4409C35.6914 16.4699 35.6804 16.5 35.6705 16.5276C35.2678 17.5269 35.7117 17.5755 36.0592 17.4937C36.1737 17.4656 36.2851 17.426 36.3916 17.3754C37.1953 17.171 38.5809 15.8186 39.5696 14.7581C40.2427 14.0368 40.7331 13.4507 40.7331 13.4507L41.7197 11.3389L41.8677 11.022C42.1454 11.0755 42.3145 11.093 42.3145 11.093L42.4964 11.0178C42.4964 11.0178 42.5186 11.0043 42.5589 10.9834L41.9847 11.9404C41.6988 12.417 41.5366 12.9575 41.5129 13.5127C41.4892 14.0679 41.6047 14.6202 41.849 15.1194L46.2976 18.9249Z" fill="#0EA102"/>
<path id="Vector_21" d="M38.5271 28.2072L36.2969 30.3452C36.2969 30.3452 19.5472 30.7282 19.2442 36.1785C18.9413 41.6287 33.2767 48.4827 33.2767 48.4827L36.8154 44.6769L32.7402 39.9714C32.7402 39.9714 46.9761 44.5236 49.3116 37.8071C51.6471 31.0906 45.8655 25.3489 45.8655 25.3489C45.8655 25.3489 42.2477 24.3261 38.5271 28.2072Z" fill="#2F2E41"/>
<path id="Vector_22" d="M39.0827 51.1944L37.9719 53.1446C37.9719 53.1446 41.8336 58.3643 41.6639 59.4994C41.4942 60.6346 41.4555 63.6326 43.3813 62.6235C45.3072 61.6144 46.2118 57.6194 45.9425 56.4527C45.6732 55.2861 45.593 51.4852 45.593 51.4852C45.593 51.4852 45.6703 45.4892 43.9579 45.9841C42.2455 46.479 39.5875 47.4352 39.5875 47.4352L39.0827 51.1944Z" fill="#2F2E41"/>
<path id="Vector_23" d="M34.8962 1.8026C34.4044 1.50868 33.8515 1.33201 33.2805 1.2863C32.7094 1.24059 32.1354 1.32708 31.6032 1.53904L31.4742 1.59237C28.9866 2.62069 27.9006 5.70524 29.0484 8.48194L29.8819 8.13738L29.593 7.05712L30.2139 8.00015L35.1574 5.95659L35.2133 4.91855L35.468 5.82819L36.4406 5.42616C37.8261 7.49233 38.1057 10.0157 37.2794 12.9961L38.9361 12.3113L39.0478 10.2352L39.5574 12.0545L42.7154 10.749L41.6883 6.50471C40.4539 3.51846 37.672 1.70345 34.8962 1.8026Z" fill="#2F2E41"/>
<path id="Vector_24" d="M53.5937 17.5177L44.0348 21.4691L40.969 14.0528L42.2258 11.0246C43.3404 10.3494 44.6608 10.0981 45.9455 10.3165C47.2302 10.5349 48.3933 11.2085 49.2221 12.214L53.5937 17.5177Z" fill="#0EA102"/>
</g>
</svg>
