<svg width="8" height="8" viewBox="0 0 8 8" fill="none" xmlns="http://www.w3.org/2000/svg">
<path fill-rule="evenodd" clip-rule="evenodd" d="M2.09877 5.7251H6.71468L7.43598 3.72746C7.47336 3.73954 7.51363 3.74587 7.55504 3.74587C7.77361 3.74587 7.95135 3.56871 7.95135 3.34956C7.95135 3.13099 7.77419 2.95325 7.55504 2.95325C7.33647 2.95325 7.15873 3.13041 7.15873 3.34956C7.15873 3.43584 7.18634 3.51521 7.23293 3.58021L6.8234 3.91727C6.24993 4.38893 5.89043 4.17036 6.0026 3.43756L6.06587 3.02515C6.08773 3.02918 6.11073 3.0309 6.13374 3.0309C6.35231 3.0309 6.53005 2.85374 6.53005 2.63459C6.53005 2.41602 6.35289 2.23829 6.13374 2.23829C5.91517 2.23829 5.73743 2.41545 5.73743 2.63459C5.73743 2.75941 5.79553 2.871 5.88583 2.94347L5.78748 3.09877C5.30546 3.82237 4.95 3.54512 4.80792 2.83016L4.55426 1.66194C4.69634 1.60155 4.79642 1.4612 4.79642 1.2967C4.79642 1.07812 4.61926 0.900391 4.40011 0.900391C4.18154 0.900391 4.0038 1.07755 4.0038 1.2967C4.0038 1.47961 4.12747 1.63319 4.29543 1.6792L4.13092 2.34527C3.98827 2.95555 3.81744 4.17151 3.04496 3.13501L2.91899 2.9636C3.0185 2.89171 3.0835 2.77437 3.0835 2.64207C3.0835 2.4235 2.90634 2.24576 2.68719 2.24576C2.46862 2.24576 2.29088 2.42292 2.29088 2.64207C2.29088 2.86064 2.46804 3.03838 2.68719 3.03838C2.71768 3.03838 2.74758 3.03493 2.77634 3.02803L2.8028 3.29722C2.85457 3.66476 2.92072 4.1623 2.49853 4.13872C2.28916 4.12722 2.21036 4.05589 2.05045 3.94201L1.59375 3.61817C1.64494 3.55145 1.67543 3.46805 1.67543 3.37717C1.67543 3.15859 1.49827 2.98086 1.27912 2.98086C1.06055 2.98086 0.882812 3.15802 0.882812 3.37717C0.882812 3.59632 1.05997 3.77347 1.27912 3.77347C1.33089 3.77347 1.37978 3.7637 1.42522 3.74587L2.09877 5.7251ZM2.09532 6.27786H6.72619V7.09981H2.09532V6.27786Z" fill="#F9FFF9"/>
</svg>
