<svg width="15" height="15" viewBox="0 0 15 15" fill="none" xmlns="http://www.w3.org/2000/svg">
<g id="Group 17845">
<g id="Group 17840">
<g id="Mask group">
<mask id="mask0_102_669" style="mask-type:alpha" maskUnits="userSpaceOnUse" x="0" y="0" width="15" height="15">
<rect id="Rectangle 4807" x="0.0695801" y="0.21875" width="14" height="14" fill="#FE9900"/>
</mask>
<g mask="url(#mask0_102_669)">
<g id="Group 17839">
<path id="Vector" d="M6.00336 7.2523L5.82648 7.22008L5.82648 7.39987L5.82648 9.05697C5.82648 9.14509 5.86149 9.22961 5.92381 9.29193C5.98612 9.35425 6.07064 9.38926 6.15877 9.38926C6.2469 9.38926 6.33142 9.35425 6.39374 9.29193C6.45606 9.22961 6.49106 9.1451 6.49106 9.05697L6.49106 7.39987L6.49106 7.22008L6.31418 7.2523C6.21142 7.27102 6.10612 7.27102 6.00336 7.2523Z" fill="#FE9900" stroke="#FE9900" stroke-width="0.3"/>
<path id="Vector_2" d="M7.23572 5.97207H7.05593L7.08815 6.14895C7.10686 6.25171 7.10686 6.35701 7.08815 6.45977L7.05593 6.63665H7.23572H7.98135C8.06948 6.63665 8.154 6.60165 8.21632 6.53933C8.27863 6.47701 8.31364 6.39249 8.31364 6.30436C8.31364 6.21623 8.27863 6.13171 8.21632 6.0694C8.154 6.00708 8.06948 5.97207 7.98135 5.97207H7.23572Z" fill="#FE9900" stroke="#FE9900" stroke-width="0.3"/>
<path id="Vector_3" d="M5.27847 6.30419V6.30436C5.27847 6.47825 5.33003 6.64822 5.42663 6.7928C5.52324 6.93738 5.66054 7.05006 5.82119 7.11661C5.98184 7.18315 6.15861 7.20056 6.32915 7.16664C6.49969 7.13271 6.65634 7.04898 6.7793 6.92603C6.90225 6.80307 6.98598 6.64642 7.01991 6.47588C7.05383 6.30534 7.03642 6.12857 6.96988 5.96792C6.90334 5.80727 6.79065 5.66997 6.64607 5.57336C6.50149 5.47676 6.33152 5.4252 6.15763 5.4252L6.15746 5.4252C5.92442 5.42546 5.701 5.51816 5.53621 5.68294C5.37143 5.84773 5.27873 6.07115 5.27847 6.30419ZM6.15763 6.08978C6.20007 6.08978 6.24156 6.10236 6.27685 6.12594C6.31214 6.14952 6.33964 6.18303 6.35588 6.22224C6.37212 6.26145 6.37637 6.3046 6.36809 6.34623C6.35981 6.38785 6.33938 6.42609 6.30937 6.4561C6.27936 6.48611 6.24112 6.50654 6.1995 6.51482C6.15787 6.5231 6.11473 6.51885 6.07552 6.50261C6.03631 6.48637 6.00279 6.45887 5.97921 6.42358C5.95564 6.38829 5.94305 6.3468 5.94305 6.30436H5.79305L5.94305 6.30453C5.94312 6.2476 5.96576 6.19301 6.00602 6.15275C6.04628 6.11249 6.10087 6.08984 6.15781 6.08978L6.15763 5.93978V6.08978Z" fill="#FE9900" stroke="#FE9900" stroke-width="0.3"/>
<path id="Vector_4" d="M4.57247 11.1205L4.6782 11.1553L4.74212 11.0642C4.76314 11.0342 4.78823 11.0073 4.81666 10.9843C4.81677 10.9842 4.81687 10.9841 4.81698 10.984L5.03265 10.8113L5.26111 10.6283L4.97917 10.5497C4.35504 10.3757 3.77759 10.0664 3.2875 9.64449L3.71245 9.21953L3.71274 9.21925C3.77477 9.15688 3.80955 9.07245 3.80943 8.98448C3.80931 8.89651 3.77431 8.81218 3.71211 8.74997C3.6499 8.68777 3.56557 8.65277 3.4776 8.65265C3.38963 8.65253 3.30521 8.6873 3.24283 8.74934L3.24255 8.74963L2.81748 9.1747C2.20376 8.46314 1.83455 7.5732 1.76432 6.63617H2.36653C2.45466 6.63617 2.53918 6.60116 2.60149 6.53884C2.66381 6.47652 2.69882 6.392 2.69882 6.30387C2.69882 6.21575 2.66381 6.13123 2.60149 6.06891C2.53918 6.00659 2.45466 5.97158 2.36653 5.97158H1.76432C1.83455 5.03455 2.20376 4.14461 2.81748 3.43305L3.24255 3.85812L3.24275 3.85832C3.30511 3.92044 3.38956 3.95528 3.47757 3.9552C3.56559 3.95511 3.64997 3.92011 3.71221 3.85788C3.77444 3.79564 3.80945 3.71126 3.80953 3.62324C3.80961 3.53523 3.77477 3.45078 3.71266 3.38842L3.71246 3.38822L3.28739 2.96315C3.99894 2.34943 4.88888 1.98022 5.82591 1.90999V2.5122C5.82591 2.60033 5.86092 2.68485 5.92324 2.74716C5.98556 2.80948 6.07008 2.84449 6.1582 2.84449C6.24633 2.84449 6.33085 2.80948 6.39317 2.74716C6.45549 2.68485 6.4905 2.60033 6.4905 2.5122V1.91002C7.42742 1.98046 8.31719 2.34982 9.02856 2.96362L8.60399 3.38819C8.60398 3.3882 8.60397 3.38821 8.60396 3.38822C8.5731 3.41906 8.54862 3.45568 8.53192 3.49598C8.51521 3.5363 8.5066 3.57952 8.5066 3.62316C8.50659 3.6668 8.51518 3.71002 8.53188 3.75034L8.67046 3.69295L8.53188 3.75034C8.54858 3.79067 8.57306 3.8273 8.60391 3.85816C8.63477 3.88902 8.67141 3.9135 8.71174 3.9302C8.75206 3.9469 8.79528 3.95549 8.83892 3.95548C8.88256 3.95548 8.92578 3.94687 8.9661 3.93016C9.00641 3.91345 9.04304 3.88896 9.07389 3.85809L9.49846 3.43352C10.1123 4.14489 10.4816 5.03466 10.5521 5.97158H9.94988C9.86175 5.97158 9.77723 6.00659 9.71492 6.06891C9.6526 6.13123 9.61759 6.21574 9.61759 6.30387C9.61759 6.392 9.6526 6.47652 9.71492 6.53884C9.77723 6.60116 9.86175 6.63617 9.94988 6.63617H10.5523C10.482 7.57322 10.1127 8.46316 9.49893 9.1747L9.07386 8.74963L9.07366 8.74942C9.0113 8.68731 8.92685 8.65247 8.83884 8.65255C8.75082 8.65264 8.66644 8.68764 8.6042 8.74987C8.54197 8.81211 8.50697 8.89649 8.50688 8.98451C8.5068 9.07252 8.54164 9.15697 8.60375 9.21933L8.60396 9.21953L9.14118 9.75675L9.21361 9.68432L9.29035 9.80287C9.6441 9.64994 9.97911 9.45689 10.2888 9.2275L10.3087 9.21276L10.3228 9.19241C10.9295 8.31706 11.2451 7.27288 11.2248 6.20803C11.2046 5.14318 10.8495 4.11176 10.2099 3.26013C9.57036 2.40849 8.67884 1.7799 7.66187 1.46356C6.64489 1.14722 5.55412 1.15919 4.54433 1.49778C3.53454 1.83636 2.65703 2.48437 2.03633 3.34983C1.41562 4.2153 1.08324 5.25427 1.08635 6.3193C1.08946 7.38434 1.42791 8.42135 2.05367 9.28317C2.67943 10.145 3.56072 10.7879 4.57247 11.1205Z" fill="#FE9900" stroke="#FE9900" stroke-width="0.3"/>
<path id="Vector_5" d="M12.6698 5.60293L12.6696 5.60293C12.5893 5.60305 12.5118 5.63224 12.4513 5.68508C12.391 5.73782 12.3518 5.81057 12.3409 5.88993C12.1718 7.1021 11.5709 8.21253 10.6488 9.01722C9.73619 9.81353 8.56958 10.2575 7.35932 10.2699V9.71813V9.7181C7.35931 9.65551 7.34162 9.59419 7.30829 9.54121C7.27496 9.48822 7.22734 9.44573 7.17092 9.41863L7.10596 9.55383L7.17092 9.41863C7.1145 9.39152 7.05157 9.3809 6.98938 9.38798C6.92719 9.39507 6.86826 9.41958 6.81939 9.45868L6.81934 9.45872L4.85619 11.0308L4.85618 11.0308C4.8173 11.062 4.78592 11.1014 4.76435 11.1463C4.74279 11.1912 4.73159 11.2404 4.73159 11.2902C4.73159 11.34 4.74279 11.3892 4.76435 11.4341C4.78592 11.479 4.8173 11.5185 4.85618 11.5496L4.85619 11.5496L6.81934 13.1217L6.81939 13.1217C6.86826 13.1609 6.92719 13.1854 6.98938 13.1924C7.05157 13.1995 7.1145 13.1889 7.17092 13.1618C7.22734 13.1347 7.27495 13.0922 7.30828 13.0392L7.18132 12.9594L7.30828 13.0392C7.34162 12.9863 7.35931 12.9249 7.35932 12.8623V12.8623V12.4084C8.16529 12.4019 8.96102 12.2257 9.69461 11.8912C10.4396 11.5514 11.1033 11.0562 11.6411 10.4387C12.1789 9.82126 12.5783 9.09587 12.8126 8.31127C13.0468 7.52667 13.1105 6.70103 12.9992 5.88979L12.9992 5.88956C12.9882 5.8101 12.9488 5.73731 12.8883 5.68463C12.8278 5.63195 12.7503 5.60293 12.6701 5.60293L12.6698 5.60293ZM10.532 9.94437C11.1536 9.52331 11.6836 8.98695 12.0955 8.36811C11.812 9.16569 11.3313 9.8857 10.6904 10.457C9.76286 11.2839 8.56419 11.7418 7.32157 11.744C7.32147 11.744 7.32137 11.744 7.32127 11.744L7.02712 11.7439H7.02704C6.93897 11.7439 6.85441 11.7789 6.79208 11.8412C6.72978 11.9035 6.69476 11.988 6.69474 12.0761V12.0762V12.1705L5.59549 11.2902L6.69474 10.41V10.6023C6.69474 10.6023 6.69474 10.6023 6.69474 10.6024C6.69474 10.646 6.70332 10.6892 6.72002 10.7295C6.73671 10.7698 6.76118 10.8064 6.79203 10.8373L6.89642 10.7329L6.79203 10.8373C6.82288 10.8682 6.85951 10.8926 6.89982 10.9093C6.94012 10.926 6.98332 10.9346 7.02694 10.9346C7.02695 10.9346 7.02696 10.9346 7.02698 10.9346L7.32143 10.9347L7.32195 10.9347C8.46665 10.9312 9.58429 10.5864 10.532 9.94437Z" fill="#FE9900" stroke="#FE9900" stroke-width="0.3"/>
</g>
</g>
</g>
</g>
</g>
</svg>
