<svg width="15" height="15" viewBox="0 0 15 15" fill="none" xmlns="http://www.w3.org/2000/svg">
<g id="Mask group">
<mask id="mask0_102_777" style="mask-type:alpha" maskUnits="userSpaceOnUse" x="0" y="0" width="15" height="15">
<rect id="Rectangle 4807" x="14.0696" y="14.625" width="14" height="14" transform="rotate(180 14.0696 14.625)" fill="#CD009B"/>
</mask>
<g mask="url(#mask0_102_777)">
<g id="Group 17839">
<path id="Vector" d="M7.82612 9.46773L7.64923 9.43551V9.6153V11.2724C7.64923 11.3605 7.68424 11.445 7.74656 11.5074C7.80888 11.5697 7.8934 11.6047 7.98153 11.6047C8.06966 11.6047 8.15418 11.5697 8.21649 11.5074C8.27881 11.445 8.31382 11.3605 8.31382 11.2724V9.6153V9.43551L8.13694 9.46773C8.03418 9.48645 7.92888 9.48645 7.82612 9.46773Z" fill="#CD009B" stroke="#CD009B" stroke-width="0.3"/>
<path id="Vector_2" d="M6.90393 8.87031H7.08372L7.0515 8.69343C7.03278 8.59067 7.03278 8.48537 7.0515 8.38261L7.08372 8.20573H6.90393H6.1583C6.07017 8.20573 5.98565 8.24074 5.92333 8.30305C5.86101 8.36537 5.82601 8.44989 5.82601 8.53802C5.82601 8.62615 5.86101 8.71067 5.92333 8.77298C5.98565 8.8353 6.07017 8.87031 6.1583 8.87031H6.90393Z" fill="#CD009B" stroke="#CD009B" stroke-width="0.3"/>
<path id="Vector_3" d="M8.86069 8.53819V8.53802C8.86069 8.36414 8.80913 8.19416 8.71253 8.04958C8.61592 7.905 8.47862 7.79232 8.31797 7.72577C8.15732 7.65923 7.98055 7.64182 7.81001 7.67574C7.63947 7.70967 7.48282 7.7934 7.35986 7.91635C7.23691 8.03931 7.15318 8.19596 7.11925 8.3665C7.08533 8.53704 7.10274 8.71381 7.16928 8.87446C7.23582 9.03511 7.34851 9.17241 7.49309 9.26902C7.63767 9.36562 7.80764 9.41719 7.98153 9.41719L7.9817 9.41719C8.21474 9.41692 8.43816 9.32422 8.60295 9.15944C8.76773 8.99465 8.86043 8.77123 8.86069 8.53819ZM7.98153 8.7526C7.93909 8.7526 7.8976 8.74002 7.86231 8.71644C7.82702 8.69286 7.79952 8.65935 7.78328 8.62014C7.76704 8.58093 7.76279 8.53778 7.77107 8.49616C7.77935 8.45453 7.79978 8.41629 7.82979 8.38628C7.8598 8.35627 7.89804 8.33584 7.93966 8.32756C7.98129 8.31928 8.02443 8.32353 8.06364 8.33977C8.10285 8.35601 8.13637 8.38351 8.15995 8.4188C8.18352 8.45409 8.19611 8.49558 8.19611 8.53802H8.34611L8.19611 8.53785C8.19604 8.59478 8.1734 8.64937 8.13314 8.68963C8.09288 8.72989 8.03829 8.75254 7.98135 8.7526L7.98153 8.9026V8.7526Z" fill="#CD009B" stroke="#CD009B" stroke-width="0.3"/>
<path id="Vector_4" d="M9.56706 3.72049L9.46133 3.68572L9.39741 3.77683C9.37638 3.8068 9.35129 3.8337 9.32286 3.85676C9.32276 3.85685 9.32265 3.85693 9.32255 3.85702L9.10688 4.02972L8.87842 4.21268L9.16035 4.2913C9.78448 4.46533 10.3619 4.77464 10.852 5.19653L10.4271 5.62148L10.4268 5.62177C10.3648 5.68414 10.33 5.76857 10.3301 5.85654C10.3302 5.94451 10.3652 6.02884 10.4274 6.09104C10.4896 6.15325 10.574 6.18825 10.6619 6.18836C10.7499 6.18848 10.8343 6.15371 10.8967 6.09167L10.897 6.09139L11.322 5.66632C11.9358 6.37787 12.305 7.26782 12.3752 8.20485H11.773C11.6849 8.20485 11.6004 8.23986 11.538 8.30217C11.4757 8.36449 11.4407 8.44901 11.4407 8.53714C11.4407 8.62527 11.4757 8.70979 11.538 8.77211C11.6004 8.83442 11.6849 8.86943 11.773 8.86943H12.3752C12.305 9.80646 11.9358 10.6964 11.322 11.408L10.897 10.9829L10.8968 10.9827C10.8344 10.9206 10.75 10.8857 10.662 10.8858C10.5739 10.8859 10.4896 10.9209 10.4273 10.9831C10.3651 11.0454 10.3301 11.1298 10.33 11.2178C10.3299 11.3058 10.3648 11.3902 10.4269 11.4526L10.4271 11.4528L10.8521 11.8779C10.1406 12.4916 9.25064 12.8608 8.31361 12.931V12.3288C8.31361 12.2407 8.27861 12.1562 8.21629 12.0939C8.15397 12.0315 8.06945 11.9965 7.98132 11.9965C7.89319 11.9965 7.80867 12.0315 7.74636 12.0939C7.68404 12.1562 7.64903 12.2407 7.64903 12.3288V12.931C6.71211 12.8606 5.82234 12.4912 5.11097 11.8774L5.53554 11.4528C5.53555 11.4528 5.53556 11.4528 5.53557 11.4528C5.56643 11.422 5.5909 11.3853 5.60761 11.345C5.62432 11.3047 5.63292 11.2615 5.63293 11.2179C5.63294 11.1742 5.62435 11.131 5.60765 11.0907L5.46906 11.1481L5.60765 11.0907C5.59095 11.0503 5.56647 11.0137 5.53561 10.9829C5.50475 10.952 5.46811 10.9275 5.42779 10.9108C5.38747 10.8941 5.34425 10.8855 5.30061 10.8855C5.25696 10.8855 5.21375 10.8941 5.17343 10.9109C5.13311 10.9276 5.09648 10.9521 5.06563 10.9829L4.64106 11.4075C4.02727 10.6961 3.65791 9.80635 3.58747 8.86943H4.18964C4.27777 8.86943 4.36229 8.83442 4.42461 8.77211C4.48693 8.70979 4.52194 8.62527 4.52194 8.53714C4.52194 8.44901 4.48693 8.36449 4.42461 8.30217C4.36229 8.23986 4.27777 8.20485 4.18964 8.20485H3.58722C3.65753 7.2678 4.02682 6.37786 4.64059 5.66631L5.06567 6.09139L5.06587 6.09159C5.12822 6.15371 5.21267 6.18855 5.30069 6.18846C5.3887 6.18838 5.47309 6.15338 5.53532 6.09114C5.59756 6.02891 5.63256 5.94452 5.63264 5.85651C5.63273 5.76849 5.59789 5.68404 5.53577 5.62169L5.53557 5.62148L4.99835 5.08426L4.92591 5.1567L4.84918 5.03815C4.49543 5.19107 4.16041 5.38412 3.85073 5.61351L3.83083 5.62825L3.81673 5.6486C3.21003 6.52395 2.89442 7.56813 2.91469 8.63298C2.93495 9.69783 3.29005 10.7293 3.92961 11.5809C4.56916 12.4325 5.46068 13.0611 6.47766 13.3775C7.49463 13.6938 8.58541 13.6818 9.59519 13.3432C10.605 13.0047 11.4825 12.3566 12.1032 11.4912C12.7239 10.6257 13.0563 9.58675 13.0532 8.52171C13.0501 7.45667 12.7116 6.41967 12.0859 5.55785C11.4601 4.69602 10.5788 4.05316 9.56706 3.72049Z" fill="#CD009B" stroke="#CD009B" stroke-width="0.3"/>
<path id="Vector_5" d="M1.46936 9.23672L1.4696 9.23672C1.54988 9.23659 1.6274 9.20741 1.68784 9.15457C1.74815 9.10183 1.78737 9.02908 1.7983 8.94972C1.96739 7.73755 2.56822 6.62712 3.49039 5.82243C4.40297 5.02612 5.56958 4.58215 6.77984 4.56975V5.12152V5.12155C6.77985 5.18414 6.79754 5.24546 6.83087 5.29844C6.86421 5.35142 6.91182 5.39391 6.96824 5.42102C7.02466 5.44813 7.08759 5.45875 7.14978 5.45167C7.21197 5.44458 7.2709 5.42007 7.31977 5.38097L7.31983 5.38093L9.28297 3.80884L9.28298 3.80884C9.32186 3.7777 9.35324 3.73822 9.37481 3.69332C9.39637 3.64842 9.40757 3.59924 9.40757 3.54943C9.40757 3.49962 9.39637 3.45045 9.37481 3.40555C9.35324 3.36064 9.32186 3.32117 9.28298 3.29003L9.28297 3.29002L7.31982 1.71794L7.31977 1.7179C7.2709 1.67879 7.21197 1.65429 7.14978 1.6472C7.08759 1.64011 7.02466 1.65074 6.96824 1.67784C6.91182 1.70495 6.86421 1.74744 6.83088 1.80042L6.95784 1.8803L6.83088 1.80042C6.79754 1.8534 6.77985 1.91471 6.77984 1.97731V1.97734V2.43127C5.97387 2.43774 5.17814 2.61391 4.44455 2.94846C3.69954 3.28822 3.03586 3.78346 2.49808 4.40092C1.96029 5.01839 1.56086 5.74378 1.32661 6.52838C1.09236 7.31298 1.02871 8.13862 1.13993 8.94986L1.13996 8.95009C1.15098 9.02955 1.19038 9.10234 1.25087 9.15502C1.31137 9.2077 1.38888 9.23672 1.46909 9.23672L1.46936 9.23672ZM7.11204 3.09577H7.11212C7.20019 3.09574 7.28475 3.06076 7.34708 2.99843L7.24101 2.89236L7.34708 2.99843C7.40938 2.93612 7.4444 2.85163 7.44442 2.76351V2.76347V2.66916L8.54367 3.54943L7.44442 4.42969V4.23732C7.44442 4.23731 7.44442 4.2373 7.44442 4.23729C7.44442 4.19367 7.43584 4.15047 7.41914 4.11016C7.40245 4.06984 7.37798 4.03321 7.34713 4.00235L7.24274 4.10672L7.34713 4.00235C7.31628 3.97149 7.27965 3.94701 7.23934 3.93031C7.19904 3.91361 7.15584 3.90501 7.11222 3.905C7.11221 3.905 7.1122 3.905 7.11218 3.905L6.81773 3.90491L6.81721 3.90491C5.67251 3.90848 4.55487 4.25329 3.60713 4.89528C2.98553 5.31634 2.45553 5.8527 2.04364 6.47154C2.32716 5.67396 2.80786 4.95395 3.44873 4.38264C4.3763 3.55575 5.57497 3.09784 6.81759 3.09568C6.81769 3.09568 6.81779 3.09567 6.81789 3.09567L7.11204 3.09577Z" fill="#CD009B" stroke="#CD009B" stroke-width="0.3"/>
</g>
</g>
</g>
</svg>
