<svg width="20" height="19" viewBox="0 0 20 19" fill="none" xmlns="http://www.w3.org/2000/svg">
<path d="M10.4874 1.8631L11.8702 6.11885C12.0989 6.8227 12.7548 7.29924 13.4948 7.29924H17.9696C18.6557 7.29924 18.941 8.17725 18.3859 8.58055L14.7658 11.2107C14.167 11.6457 13.9165 12.4168 14.1452 13.1207L15.528 17.3764C15.74 18.029 14.9931 18.5716 14.438 18.1683L10.8179 15.5381C10.2191 15.1031 9.4084 15.1031 8.80966 15.5381L5.18952 18.1683C4.63442 18.5716 3.88754 18.029 4.09957 17.3764L5.48235 13.1207C5.71104 12.4168 5.46051 11.6457 4.86177 11.2107L1.24162 8.58055C0.686528 8.17725 0.97181 7.29924 1.65794 7.29924H6.1327C6.87277 7.29924 7.52868 6.8227 7.75737 6.11885L9.14015 1.86311C9.35218 1.21055 10.2754 1.21055 10.4874 1.8631Z" stroke="#D6D6D6"/>
</svg>
