<svg width="23" height="17" viewBox="0 0 23 17" fill="none" xmlns="http://www.w3.org/2000/svg">
<g clip-path="url(#clip0_1_27874)">
<path d="M5.00333 3.26562H0.926277C0.414708 3.26562 0 3.6797 0 4.19048C0 4.70126 0.414708 5.11533 0.926277 5.11533H5.00333C5.5149 5.11533 5.92961 4.70126 5.92961 4.19048C5.92961 3.6797 5.5149 3.26562 5.00333 3.26562Z" fill="#B6B6B6"/>
<path d="M5.00365 6.9668H2.0669C1.55533 6.9668 1.14062 7.38087 1.14062 7.89165C1.14062 8.40243 1.55533 8.8165 2.0669 8.8165H5.00365C5.51522 8.8165 5.92993 8.40243 5.92993 7.89165C5.92993 7.38087 5.51522 6.9668 5.00365 6.9668Z" fill="#B6B6B6"/>
<path d="M5.00299 10.666H3.20655C2.69498 10.666 2.28027 11.0801 2.28027 11.5909C2.28027 12.1017 2.69498 12.5157 3.20655 12.5157H5.00299C5.51456 12.5157 5.92926 12.1017 5.92926 11.5909C5.92926 11.0801 5.51456 10.666 5.00299 10.666Z" fill="#B6B6B6"/>
<path d="M19.6169 1.41602H10.715C9.07962 1.41602 7.75391 2.7397 7.75391 4.37254V11.1762C7.75391 12.8091 9.07962 14.1328 10.715 14.1328H19.6169C21.2522 14.1328 22.5779 12.8091 22.5779 11.1762V4.37254C22.5779 2.7397 21.2522 1.41602 19.6169 1.41602Z" fill="#B6B6B6"/>
<path fill-rule="evenodd" clip-rule="evenodd" d="M17.667 7.72788C18.0196 7.43414 18.2446 6.98716 18.2446 6.48654C18.2446 5.60191 17.5419 4.88477 16.675 4.88477C15.9582 4.88477 15.3536 5.37515 15.1658 6.04513C14.9779 5.37515 14.3734 4.88477 13.6565 4.88477C12.7896 4.88477 12.0869 5.60191 12.0869 6.48654C12.0869 6.98712 12.3119 7.43403 12.6644 7.72776C12.6764 7.75068 12.6911 7.77281 12.7086 7.79373L14.8814 10.3967C15.0294 10.574 15.3021 10.574 15.4501 10.3967L17.6229 7.79373C17.6404 7.77285 17.655 7.75075 17.667 7.72788Z" fill="#303030"/>
</g>
<defs>
<clipPath id="clip0_1_27874">
<rect width="22.5781" height="17" fill="white"/>
</clipPath>
</defs>
</svg>
