<svg width="21" height="26" viewBox="0 0 21 26" fill="none" xmlns="http://www.w3.org/2000/svg">
<path d="M13.0986 21.5693H8.27863C7.69312 21.5693 7.44583 22.3156 7.91549 22.6653L10.356 24.4821C10.5737 24.6441 10.8724 24.6423 11.0882 24.4776L13.4676 22.6608C13.93 22.3077 13.6804 21.5693 13.0986 21.5693Z" fill="#D6D6D6" stroke="#D6D6D6" stroke-width="1.21625"/>
<path d="M18.1175 19.5756H2.37339C1.89103 19.5756 1.5 19.1846 1.5 18.7022V17.9996C1.5 17.6323 1.62832 17.2765 1.86278 16.9937L2.89725 15.746C3.80029 14.6569 4.2945 13.2866 4.2945 11.8718V7.92542C5.23088 0.267551 17.452 1.86966 17.452 7.92542L17.262 12.7816C17.2159 13.9598 17.6861 15.0995 18.5495 15.9025L19.2906 16.5917C19.641 16.9176 19.84 17.3746 19.84 17.8531C19.84 18.8044 19.0688 19.5756 18.1175 19.5756Z" fill="#D6D6D6" stroke="#D6D6D6" stroke-width="1.21625"/>
<mask id="path-3-inside-1_225_3821" fill="white">
<path d="M9.86328 1.36398C9.86328 1.02813 10.1355 0.755859 10.4714 0.755859H11.1692C11.505 0.755859 11.7773 1.02813 11.7773 1.36398V2.92356H9.86328V1.36398Z"/>
</mask>
<path d="M9.86328 1.36398C9.86328 1.02813 10.1355 0.755859 10.4714 0.755859H11.1692C11.505 0.755859 11.7773 1.02813 11.7773 1.36398V2.92356H9.86328V1.36398Z" fill="#D6D6D6" stroke="#D6D6D6" stroke-width="1.91404" mask="url(#path-3-inside-1_225_3821)"/>
</svg>
