<svg width="17" height="20" viewBox="0 0 17 20" fill="none" xmlns="http://www.w3.org/2000/svg">
<path d="M13.4364 6.66406C14.8219 6.66406 15.9451 5.54477 15.9451 4.16406C15.9451 2.78335 14.8219 1.66406 13.4364 1.66406C12.0509 1.66406 10.9277 2.78335 10.9277 4.16406C10.9277 5.54477 12.0509 6.66406 13.4364 6.66406Z" stroke="#C7C7C7" stroke-width="1.64391" stroke-linecap="round" stroke-linejoin="round"/>
<path d="M3.40126 12.5C4.78676 12.5 5.90993 11.3807 5.90993 10C5.90993 8.61929 4.78676 7.5 3.40126 7.5C2.01575 7.5 0.892578 8.61929 0.892578 10C0.892578 11.3807 2.01575 12.5 3.40126 12.5Z" stroke="#C7C7C7" stroke-width="1.64391" stroke-linecap="round" stroke-linejoin="round"/>
<path d="M13.4354 18.3281C14.8209 18.3281 15.9441 17.2088 15.9441 15.8281C15.9441 14.4474 14.8209 13.3281 13.4354 13.3281C12.0499 13.3281 10.9268 14.4474 10.9268 15.8281C10.9268 17.2088 12.0499 18.3281 13.4354 18.3281Z" stroke="#C7C7C7" stroke-width="1.64391" stroke-linecap="round" stroke-linejoin="round"/>
<path d="M5.56641 11.25L11.2778 14.5667" stroke="#C7C7C7" stroke-width="1.64391" stroke-linecap="round" stroke-linejoin="round"/>
<path d="M11.2695 5.42188L5.56641 8.73854" stroke="#C7C7C7" stroke-width="1.64391" stroke-linecap="round" stroke-linejoin="round"/>
</svg>
