<svg width="42" height="43" viewBox="0 0 42 43" fill="none" xmlns="http://www.w3.org/2000/svg">
<ellipse cx="21" cy="21.5" rx="21" ry="21.5" fill="#0DA102"/>
<path d="M23.9281 17.1242C23.3899 16.586 22.6698 16.2878 21.9134 16.2878H20.7279V17.4733C20.7279 18.2297 21.0261 18.9571 21.5643 19.488L26.5392 24.4629C27.1574 25.0811 28.1684 25.1975 28.8448 24.6447C29.623 24.0047 29.6667 22.8555 28.9757 22.1645L23.9354 17.1242H23.9281ZM12.0727 11.9093C12.4146 10.251 13.8838 9 15.6366 9H25.8191C27.572 9 29.0412 10.251 29.383 11.9093H12.0727ZM29.4557 13.3639V19.9098C29.4557 20.128 29.4339 20.339 29.3976 20.5426L24.9536 16.0987C24.1463 15.2913 23.048 14.8404 21.9061 14.8404H20.0006C19.6005 14.8404 19.2732 15.1677 19.2732 15.5677V17.4806C19.2732 18.6225 19.7242 19.7207 20.5315 20.5281L23.5572 23.5537H15.6366C13.6292 23.5537 12 21.9245 12 19.9171V13.3639H29.4557Z" fill="#E8E8E8"/>
<path d="M15.72 32.136C16.0347 32.1947 16.2933 32.352 16.496 32.608C16.6987 32.864 16.8 33.1573 16.8 33.488C16.8 33.7867 16.7253 34.0507 16.576 34.28C16.432 34.504 16.2213 34.68 15.944 34.808C15.6667 34.936 15.3387 35 14.96 35H12.552V29.416H14.856C15.2347 29.416 15.56 29.4773 15.832 29.6C16.1093 29.7227 16.3173 29.8933 16.456 30.112C16.6 30.3307 16.672 30.5787 16.672 30.856C16.672 31.1813 16.584 31.4533 16.408 31.672C16.2373 31.8907 16.008 32.0453 15.72 32.136ZM13.672 31.72H14.696C14.9627 31.72 15.168 31.6613 15.312 31.544C15.456 31.4213 15.528 31.248 15.528 31.024C15.528 30.8 15.456 30.6267 15.312 30.504C15.168 30.3813 14.9627 30.32 14.696 30.32H13.672V31.72ZM14.8 34.088C15.072 34.088 15.2827 34.024 15.432 33.896C15.5867 33.768 15.664 33.5867 15.664 33.352C15.664 33.112 15.584 32.9253 15.424 32.792C15.264 32.6533 15.048 32.584 14.776 32.584H13.672V34.088H14.8ZM18.6926 29.08V35H17.5726V29.08H18.6926ZM21.6472 35.072C21.2205 35.072 20.8365 34.9787 20.4952 34.792C20.1539 34.6 19.8845 34.3307 19.6872 33.984C19.4952 33.6373 19.3992 33.2373 19.3992 32.784C19.3992 32.3307 19.4979 31.9307 19.6952 31.584C19.8979 31.2373 20.1725 30.9707 20.5192 30.784C20.8659 30.592 21.2525 30.496 21.6792 30.496C22.1059 30.496 22.4925 30.592 22.8392 30.784C23.1859 30.9707 23.4579 31.2373 23.6552 31.584C23.8579 31.9307 23.9592 32.3307 23.9592 32.784C23.9592 33.2373 23.8552 33.6373 23.6472 33.984C23.4445 34.3307 23.1672 34.6 22.8152 34.792C22.4685 34.9787 22.0792 35.072 21.6472 35.072ZM21.6472 34.096C21.8499 34.096 22.0392 34.048 22.2152 33.952C22.3965 33.8507 22.5405 33.7013 22.6472 33.504C22.7539 33.3067 22.8072 33.0667 22.8072 32.784C22.8072 32.3627 22.6952 32.04 22.4712 31.816C22.2525 31.5867 21.9832 31.472 21.6632 31.472C21.3432 31.472 21.0739 31.5867 20.8552 31.816C20.6419 32.04 20.5352 32.3627 20.5352 32.784C20.5352 33.2053 20.6392 33.5307 20.8472 33.76C21.0605 33.984 21.3272 34.096 21.6472 34.096ZM26.3968 30.496C26.7274 30.496 27.0181 30.5627 27.2688 30.696C27.5194 30.824 27.7168 30.992 27.8608 31.2V30.568H28.9888V35.032C28.9888 35.4427 28.9061 35.808 28.7408 36.128C28.5754 36.4533 28.3274 36.7093 27.9968 36.896C27.6661 37.088 27.2661 37.184 26.7968 37.184C26.1674 37.184 25.6501 37.0373 25.2448 36.744C24.8448 36.4507 24.6181 36.0507 24.5648 35.544H25.6768C25.7354 35.7467 25.8608 35.9067 26.0528 36.024C26.2501 36.1467 26.4874 36.208 26.7648 36.208C27.0901 36.208 27.3541 36.1093 27.5568 35.912C27.7594 35.72 27.8608 35.4267 27.8608 35.032V34.344C27.7168 34.552 27.5168 34.7253 27.2608 34.864C27.0101 35.0027 26.7221 35.072 26.3968 35.072C26.0234 35.072 25.6821 34.976 25.3728 34.784C25.0634 34.592 24.8181 34.3227 24.6368 33.976C24.4608 33.624 24.3728 33.2213 24.3728 32.768C24.3728 32.32 24.4608 31.9227 24.6368 31.576C24.8181 31.2293 25.0608 30.9627 25.3648 30.776C25.6741 30.5893 26.0181 30.496 26.3968 30.496ZM27.8608 32.784C27.8608 32.512 27.8074 32.28 27.7008 32.088C27.5941 31.8907 27.4501 31.7413 27.2688 31.64C27.0874 31.5333 26.8928 31.48 26.6848 31.48C26.4768 31.48 26.2848 31.5307 26.1088 31.632C25.9328 31.7333 25.7888 31.8827 25.6768 32.08C25.5701 32.272 25.5168 32.5013 25.5168 32.768C25.5168 33.0347 25.5701 33.2693 25.6768 33.472C25.7888 33.6693 25.9328 33.8213 26.1088 33.928C26.2901 34.0347 26.4821 34.088 26.6848 34.088C26.8928 34.088 27.0874 34.0373 27.2688 33.936C27.4501 33.8293 27.5941 33.68 27.7008 33.488C27.8074 33.2907 27.8608 33.056 27.8608 32.784Z" fill="white"/>
</svg>
