<svg width="42" height="43" viewBox="0 0 42 43" fill="none" xmlns="http://www.w3.org/2000/svg">
<ellipse cx="21" cy="21.5" rx="21" ry="21.5" fill="#0DA102"/>
<rect x="12" y="8" width="17.0356" height="13.5073" rx="3.13627" fill="#E8E8E8"/>
<rect x="14.8164" y="11.7422" width="7.98323" height="1.92453" rx="0.962264" fill="#0EA102"/>
<rect x="14.8164" y="15.2349" width="11.4046" height="1.92453" rx="0.962264" fill="#0EA102"/>
<rect x="14.8164" y="23.0757" width="11.4046" height="1.92453" rx="0.962264" fill="#E8E8E8"/>
<path d="M13.72 32.136C14.0347 32.1947 14.2933 32.352 14.496 32.608C14.6987 32.864 14.8 33.1573 14.8 33.488C14.8 33.7867 14.7253 34.0507 14.576 34.28C14.432 34.504 14.2213 34.68 13.944 34.808C13.6667 34.936 13.3387 35 12.96 35H10.552V29.416H12.856C13.2347 29.416 13.56 29.4773 13.832 29.6C14.1093 29.7227 14.3173 29.8933 14.456 30.112C14.6 30.3307 14.672 30.5787 14.672 30.856C14.672 31.1813 14.584 31.4533 14.408 31.672C14.2373 31.8907 14.008 32.0453 13.72 32.136ZM11.672 31.72H12.696C12.9627 31.72 13.168 31.6613 13.312 31.544C13.456 31.4213 13.528 31.248 13.528 31.024C13.528 30.8 13.456 30.6267 13.312 30.504C13.168 30.3813 12.9627 30.32 12.696 30.32H11.672V31.72ZM12.8 34.088C13.072 34.088 13.2827 34.024 13.432 33.896C13.5867 33.768 13.664 33.5867 13.664 33.352C13.664 33.112 13.584 32.9253 13.424 32.792C13.264 32.6533 13.048 32.584 12.776 32.584H11.672V34.088H12.8ZM19.8126 30.568L17.0686 37.096H15.8766L16.8366 34.888L15.0606 30.568H16.3166L17.4606 33.664L18.6206 30.568H19.8126ZM21.6004 31.488V33.632C21.6004 33.7813 21.635 33.8907 21.7044 33.96C21.779 34.024 21.9017 34.056 22.0724 34.056H22.5924V35H21.8884C20.9444 35 20.4724 34.5413 20.4724 33.624V31.488H19.9444V30.568H20.4724V29.472H21.6004V30.568H22.5924V31.488H21.6004ZM27.3979 32.688C27.3979 32.848 27.3873 32.992 27.3659 33.12H24.1259C24.1526 33.44 24.2646 33.6907 24.4619 33.872C24.6593 34.0533 24.9019 34.144 25.1899 34.144C25.6059 34.144 25.9019 33.9653 26.0779 33.608H27.2859C27.1579 34.0347 26.9126 34.3867 26.5499 34.664C26.1873 34.936 25.7419 35.072 25.2139 35.072C24.7873 35.072 24.4033 34.9787 24.0619 34.792C23.7259 34.6 23.4619 34.3307 23.2699 33.984C23.0833 33.6373 22.9899 33.2373 22.9899 32.784C22.9899 32.3253 23.0833 31.9227 23.2699 31.576C23.4566 31.2293 23.7179 30.9627 24.0539 30.776C24.3899 30.5893 24.7766 30.496 25.2139 30.496C25.6353 30.496 26.0113 30.5867 26.3419 30.768C26.6779 30.9493 26.9366 31.208 27.1179 31.544C27.3046 31.8747 27.3979 32.256 27.3979 32.688ZM26.2379 32.368C26.2326 32.08 26.1286 31.8507 25.9259 31.68C25.7233 31.504 25.4753 31.416 25.1819 31.416C24.9046 31.416 24.6699 31.5013 24.4779 31.672C24.2913 31.8373 24.1766 32.0693 24.1339 32.368H26.2379ZM29.7914 35.072C29.4288 35.072 29.1034 35.008 28.8154 34.88C28.5274 34.7467 28.2981 34.568 28.1274 34.344C27.9621 34.12 27.8714 33.872 27.8554 33.6H28.9834C29.0048 33.7707 29.0874 33.912 29.2314 34.024C29.3808 34.136 29.5648 34.192 29.7834 34.192C29.9968 34.192 30.1621 34.1493 30.2794 34.064C30.4021 33.9787 30.4634 33.8693 30.4634 33.736C30.4634 33.592 30.3888 33.4853 30.2394 33.416C30.0954 33.3413 29.8634 33.2613 29.5434 33.176C29.2128 33.096 28.9408 33.0133 28.7274 32.928C28.5194 32.8427 28.3381 32.712 28.1834 32.536C28.0341 32.36 27.9594 32.1227 27.9594 31.824C27.9594 31.5787 28.0288 31.3547 28.1674 31.152C28.3114 30.9493 28.5141 30.7893 28.7754 30.672C29.0421 30.5547 29.3541 30.496 29.7114 30.496C30.2394 30.496 30.6608 30.6293 30.9754 30.896C31.2901 31.1573 31.4634 31.512 31.4954 31.96H30.4234C30.4074 31.784 30.3328 31.6453 30.1994 31.544C30.0714 31.4373 29.8981 31.384 29.6794 31.384C29.4768 31.384 29.3194 31.4213 29.2074 31.496C29.1008 31.5707 29.0474 31.6747 29.0474 31.808C29.0474 31.9573 29.1221 32.072 29.2714 32.152C29.4208 32.2267 29.6528 32.304 29.9674 32.384C30.2874 32.464 30.5514 32.5467 30.7594 32.632C30.9674 32.7173 31.1461 32.8507 31.2954 33.032C31.4501 33.208 31.5301 33.4427 31.5354 33.736C31.5354 33.992 31.4634 34.2213 31.3194 34.424C31.1808 34.6267 30.9781 34.7867 30.7114 34.904C30.4501 35.016 30.1434 35.072 29.7914 35.072Z" fill="white"/>
</svg>
