<svg width="42" height="43" viewBox="0 0 42 43" fill="none" xmlns="http://www.w3.org/2000/svg">
<ellipse cx="21" cy="21.5" rx="21" ry="21.5" fill="#0DA102"/>
<path d="M9.48 35.056C9.09067 35.056 8.73867 34.9893 8.424 34.856C8.11467 34.7227 7.86933 34.5307 7.688 34.28C7.50667 34.0293 7.41333 33.7333 7.408 33.392H8.608C8.624 33.6213 8.704 33.8027 8.848 33.936C8.99733 34.0693 9.2 34.136 9.456 34.136C9.71733 34.136 9.92267 34.0747 10.072 33.952C10.2213 33.824 10.296 33.6587 10.296 33.456C10.296 33.2907 10.2453 33.1547 10.144 33.048C10.0427 32.9413 9.91467 32.8587 9.76 32.8C9.61067 32.736 9.40267 32.6667 9.136 32.592C8.77333 32.4853 8.47733 32.3813 8.248 32.28C8.024 32.1733 7.82933 32.016 7.664 31.808C7.504 31.5947 7.424 31.312 7.424 30.96C7.424 30.6293 7.50667 30.3413 7.672 30.096C7.83733 29.8507 8.06933 29.664 8.368 29.536C8.66667 29.4027 9.008 29.336 9.392 29.336C9.968 29.336 10.4347 29.4773 10.792 29.76C11.1547 30.0373 11.3547 30.4267 11.392 30.928H10.16C10.1493 30.736 10.0667 30.5787 9.912 30.456C9.76267 30.328 9.56267 30.264 9.312 30.264C9.09333 30.264 8.91733 30.32 8.784 30.432C8.656 30.544 8.592 30.7067 8.592 30.92C8.592 31.0693 8.64 31.1947 8.736 31.296C8.83733 31.392 8.96 31.472 9.104 31.536C9.25333 31.5947 9.46133 31.664 9.728 31.744C10.0907 31.8507 10.3867 31.9573 10.616 32.064C10.8453 32.1707 11.0427 32.3307 11.208 32.544C11.3733 32.7573 11.456 33.0373 11.456 33.384C11.456 33.6827 11.3787 33.96 11.224 34.216C11.0693 34.472 10.8427 34.6773 10.544 34.832C10.2453 34.9813 9.89067 35.056 9.48 35.056ZM16.491 30.568V35H15.363V34.44C15.219 34.632 15.0297 34.784 14.795 34.896C14.5657 35.0027 14.315 35.056 14.043 35.056C13.6963 35.056 13.3897 34.984 13.123 34.84C12.8563 34.6907 12.6457 34.4747 12.491 34.192C12.3417 33.904 12.267 33.5627 12.267 33.168V30.568H13.387V33.008C13.387 33.36 13.475 33.632 13.651 33.824C13.827 34.0107 14.067 34.104 14.371 34.104C14.6803 34.104 14.923 34.0107 15.099 33.824C15.275 33.632 15.363 33.36 15.363 33.008V30.568H16.491ZM18.5961 31.256C18.7401 31.0213 18.9267 30.8373 19.1561 30.704C19.3907 30.5707 19.6574 30.504 19.9561 30.504V31.68H19.6601C19.3081 31.68 19.0414 31.7627 18.8601 31.928C18.6841 32.0933 18.5961 32.3813 18.5961 32.792V35H17.4761V30.568H18.5961V31.256ZM22.4384 33.968L23.5584 30.568H24.7504L23.1104 35H21.7504L20.1184 30.568H21.3184L22.4384 33.968ZM29.3795 32.688C29.3795 32.848 29.3688 32.992 29.3475 33.12H26.1075C26.1342 33.44 26.2462 33.6907 26.4435 33.872C26.6408 34.0533 26.8835 34.144 27.1715 34.144C27.5875 34.144 27.8835 33.9653 28.0595 33.608H29.2675C29.1395 34.0347 28.8942 34.3867 28.5315 34.664C28.1688 34.936 27.7235 35.072 27.1955 35.072C26.7688 35.072 26.3848 34.9787 26.0435 34.792C25.7075 34.6 25.4435 34.3307 25.2515 33.984C25.0648 33.6373 24.9715 33.2373 24.9715 32.784C24.9715 32.3253 25.0648 31.9227 25.2515 31.576C25.4382 31.2293 25.6995 30.9627 26.0355 30.776C26.3715 30.5893 26.7582 30.496 27.1955 30.496C27.6168 30.496 27.9928 30.5867 28.3235 30.768C28.6595 30.9493 28.9182 31.208 29.0995 31.544C29.2862 31.8747 29.3795 32.256 29.3795 32.688ZM28.2195 32.368C28.2142 32.08 28.1102 31.8507 27.9075 31.68C27.7048 31.504 27.4568 31.416 27.1635 31.416C26.8862 31.416 26.6515 31.5013 26.4595 31.672C26.2728 31.8373 26.1582 32.0693 26.1155 32.368H28.2195ZM34.317 30.568L31.573 37.096H30.381L31.341 34.888L29.565 30.568H30.821L31.965 33.664L33.125 30.568H34.317Z" fill="white"/>
<path d="M15.7273 9C15.3244 9 15 9.32436 15 9.72727V24.2727C15 24.6756 15.3244 25 15.7273 25H25.9091C26.312 25 26.6364 24.6756 26.6364 24.2727V9.72727C26.6364 9.32436 26.312 9 25.9091 9H15.7273ZM16.4545 10.6364H19.7273C19.9177 10.6364 20.0909 10.8096 20.0909 11V13.5455C20.0909 13.7359 19.9177 13.9091 19.7273 13.9091H16.4545C16.2641 13.9091 16.0909 13.7359 16.0909 13.5455V11C16.0909 10.8322 16.2573 10.6363 16.4545 10.6364ZM16.8182 11.3636V13.1818H19.3636V11.3636H16.8182ZM21.1818 11.9091H25.1818C25.3827 11.9091 25.5455 12.0719 25.5455 12.2727C25.5455 12.4736 25.3827 12.6364 25.1818 12.6364H21.1818C20.981 12.6364 20.8182 12.4736 20.8182 12.2727C20.8182 12.0719 20.981 11.9091 21.1818 11.9091ZM20.4205 14.6307C20.5593 14.6153 20.704 14.6881 20.7745 14.8087C20.8449 14.9293 20.8373 15.0912 20.7557 15.2045L19.1193 17.5682C19.0123 17.726 18.7712 17.772 18.6136 17.6648L17.5227 16.9375C17.3645 16.83 17.3179 16.5886 17.4247 16.4299C17.5315 16.2712 17.7726 16.2235 17.9318 16.3295L18.7216 16.858L20.1534 14.7898C20.2132 14.7009 20.3139 14.6409 20.4205 14.6307ZM16.4545 15H18.6364C18.8285 14.9973 19.0057 15.1715 19.0057 15.3636C19.0057 15.5558 18.8285 15.73 18.6364 15.7273H16.8182V18.2727H19.3636C19.3609 18.0806 19.5351 17.9034 19.7273 17.9034C19.9194 17.9034 20.0936 18.0806 20.0909 18.2727V18.6364C20.0909 18.8268 19.9177 19 19.7273 19H16.4545C16.2641 19 16.0909 18.8268 16.0909 18.6364V15.3636C16.0909 15.1963 16.2578 15.0062 16.4545 15ZM21.1818 16.6364H25.1818C25.3827 16.6364 25.5455 16.7992 25.5455 17C25.5455 17.2008 25.3827 17.3636 25.1818 17.3636H21.1818C20.981 17.3636 20.8182 17.2008 20.8182 17C20.8182 16.7992 20.981 16.6364 21.1818 16.6364ZM16.4545 20.0909H19.7273C19.9177 20.0909 20.0909 20.2641 20.0909 20.4545V23C20.0909 23.1904 19.9177 23.3636 19.7273 23.3636H16.4545C16.2641 23.3636 16.0909 23.1904 16.0909 23V20.4545C16.0909 20.2867 16.2573 20.0908 16.4545 20.0909ZM16.8182 20.8182V22.6364H19.3636V20.8182H16.8182ZM21.1818 21.3636H25.1818C25.3827 21.3636 25.5455 21.5264 25.5455 21.7273C25.5455 21.9281 25.3827 22.0909 25.1818 22.0909H21.1818C20.981 22.0909 20.8182 21.9281 20.8182 21.7273C20.8182 21.5264 20.981 21.3636 21.1818 21.3636Z" fill="#E8E8E8"/>
</svg>
