<svg width="249" height="44" viewBox="0 0 249 44" fill="none" xmlns="http://www.w3.org/2000/svg">
<path d="M31.4961 1.24414H35.1423V32.2928L31.4961 35.6491V1.24414Z" fill="#0EA102"/>
<path d="M24.4805 12.6494H28.1266V37.3616L24.4805 38.1726V12.6494Z" fill="#7EBA00"/>
<path d="M17.4648 19.5693H21.111V38.2677L17.4648 37.7067V19.5693Z" fill="#E6CF00"/>
<path d="M10.9258 24.4297H14.5719V36.0227L10.9258 33.1244V24.4297Z" fill="#EE6F00"/>
<path d="M10.4551 30.0311L10.928 30.9381L21.8157 26.6284L25.5967 30.8051L25.9564 31.2024L26.3385 30.8266L45.9717 11.5153L46.5965 12.0211L47.2263 12.5309L47.4194 11.744L48.6816 6.60199L48.8948 5.7334L48.0369 5.98617L42.8013 7.52879L42.0391 7.75336L42.5562 8.35666L43.0878 8.97679L26.0081 26.0565L22.8633 22.3667L22.568 22.0202L22.1883 22.2713L10.4551 30.0311Z" fill="black" stroke="white" stroke-width="1.02841"/>
<path d="M41.2889 19.0239C41.9101 23.0676 41.1715 27.2064 39.186 30.809C37.2004 34.4116 34.0768 37.2801 30.2918 38.9768C26.5069 40.6735 22.2683 41.1052 18.223 40.2062C14.1776 39.3071 10.5475 37.1265 7.88666 33.9972C5.22578 30.868 3.6802 26.9617 3.48574 22.8746C3.29128 18.7875 4.45862 14.744 6.80965 11.3609C9.16068 7.97788 12.5663 5.44109 16.5069 4.13764C20.4474 2.83419 24.7066 2.83567 28.6344 4.14183" stroke="black" stroke-width="2.80475" stroke-linecap="round"/>
<mask id="path-7-outside-1_232_189" maskUnits="userSpaceOnUse" x="62" y="11.731" width="187" height="20" fill="black">
<rect fill="white" x="62" y="11.731" width="187" height="20"/>
<path d="M76.312 12.965V15.903H71.476V31.113H67.836V15.903H63V12.965H76.312Z"/>
<path d="M88.3279 31.113L84.3239 24.041H82.6079V31.113H78.9679V12.965H85.7799C87.1839 12.965 88.3799 13.2163 89.3679 13.719C90.3559 14.2043 91.0925 14.8716 91.5779 15.721C92.0805 16.553 92.3319 17.489 92.3319 18.529C92.3319 19.725 91.9852 20.8083 91.2919 21.779C90.5985 22.7323 89.5672 23.391 88.1979 23.755L92.5399 31.113H88.3279ZM82.6079 21.311H85.6499C86.6379 21.311 87.3745 21.077 87.8599 20.609C88.3452 20.1236 88.5879 19.4563 88.5879 18.607C88.5879 17.775 88.3452 17.1336 87.8599 16.683C87.3745 16.215 86.6379 15.981 85.6499 15.981H82.6079V21.311Z"/>
<path d="M106.752 27.655H99.5241L98.3281 31.113H94.5061L101.032 12.939H105.27L111.796 31.113H107.948L106.752 27.655ZM105.764 24.743L103.138 17.151L100.512 24.743H105.764Z"/>
<path d="M120.579 12.965C122.486 12.965 124.159 13.3376 125.597 14.083C127.053 14.8283 128.171 15.8943 128.951 17.281C129.749 18.6503 130.147 20.245 130.147 22.065C130.147 23.885 129.749 25.4796 128.951 26.849C128.171 28.201 127.053 29.2496 125.597 29.995C124.159 30.7403 122.486 31.113 120.579 31.113H114.235V12.965H120.579ZM120.449 28.019C122.356 28.019 123.829 27.499 124.869 26.459C125.909 25.419 126.429 23.9543 126.429 22.065C126.429 20.1756 125.909 18.7023 124.869 17.645C123.829 16.5703 122.356 16.033 120.449 16.033H117.875V28.019H120.449Z"/>
<path d="M136.512 15.903V20.453H142.622V23.339H136.512V28.149H143.402V31.113H132.872V12.939H143.402V15.903H136.512Z"/>
<path d="M177.163 12.965L172.093 31.113H167.803L164.397 18.191L160.835 31.113L156.571 31.139L151.683 12.965H155.583L158.781 27.057L162.473 12.965H166.529L170.013 26.979L173.237 12.965H177.163Z"/>
<path d="M190.668 27.655H183.44L182.244 31.113H178.422L184.948 12.939H189.186L195.712 31.113H191.864L190.668 27.655ZM189.68 24.743L187.054 17.151L184.428 24.743H189.68Z"/>
<path d="M210.501 12.965V15.903H205.665V31.113H202.025V15.903H197.189V12.965H210.501Z"/>
<path d="M212.273 22.013C212.273 20.2276 212.672 18.633 213.469 17.229C214.284 15.8076 215.385 14.707 216.771 13.927C218.175 13.1296 219.744 12.731 221.477 12.731C223.505 12.731 225.282 13.251 226.807 14.291C228.333 15.331 229.399 16.7696 230.005 18.607H225.819C225.403 17.7403 224.814 17.0903 224.051 16.657C223.306 16.2236 222.439 16.007 221.451 16.007C220.394 16.007 219.449 16.2583 218.617 16.761C217.803 17.2463 217.161 17.9396 216.693 18.841C216.243 19.7423 216.017 20.7996 216.017 22.013C216.017 23.209 216.243 24.2663 216.693 25.185C217.161 26.0863 217.803 26.7883 218.617 27.291C219.449 27.7763 220.394 28.019 221.451 28.019C222.439 28.019 223.306 27.8023 224.051 27.369C224.814 26.9183 225.403 26.2596 225.819 25.393H230.005C229.399 27.2476 228.333 28.695 226.807 29.735C225.299 30.7576 223.523 31.269 221.477 31.269C219.744 31.269 218.175 30.879 216.771 30.099C215.385 29.3016 214.284 28.201 213.469 26.797C212.672 25.393 212.273 23.7983 212.273 22.013Z"/>
<path d="M248.168 12.965V31.113H244.528V23.391H236.754V31.113H233.114V12.965H236.754V20.427H244.528V12.965H248.168Z"/>
</mask>
<path d="M76.312 12.965V15.903H71.476V31.113H67.836V15.903H63V12.965H76.312Z" fill="black"/>
<path d="M88.3279 31.113L84.3239 24.041H82.6079V31.113H78.9679V12.965H85.7799C87.1839 12.965 88.3799 13.2163 89.3679 13.719C90.3559 14.2043 91.0925 14.8716 91.5779 15.721C92.0805 16.553 92.3319 17.489 92.3319 18.529C92.3319 19.725 91.9852 20.8083 91.2919 21.779C90.5985 22.7323 89.5672 23.391 88.1979 23.755L92.5399 31.113H88.3279ZM82.6079 21.311H85.6499C86.6379 21.311 87.3745 21.077 87.8599 20.609C88.3452 20.1236 88.5879 19.4563 88.5879 18.607C88.5879 17.775 88.3452 17.1336 87.8599 16.683C87.3745 16.215 86.6379 15.981 85.6499 15.981H82.6079V21.311Z" fill="black"/>
<path d="M106.752 27.655H99.5241L98.3281 31.113H94.5061L101.032 12.939H105.27L111.796 31.113H107.948L106.752 27.655ZM105.764 24.743L103.138 17.151L100.512 24.743H105.764Z" fill="black"/>
<path d="M120.579 12.965C122.486 12.965 124.159 13.3376 125.597 14.083C127.053 14.8283 128.171 15.8943 128.951 17.281C129.749 18.6503 130.147 20.245 130.147 22.065C130.147 23.885 129.749 25.4796 128.951 26.849C128.171 28.201 127.053 29.2496 125.597 29.995C124.159 30.7403 122.486 31.113 120.579 31.113H114.235V12.965H120.579ZM120.449 28.019C122.356 28.019 123.829 27.499 124.869 26.459C125.909 25.419 126.429 23.9543 126.429 22.065C126.429 20.1756 125.909 18.7023 124.869 17.645C123.829 16.5703 122.356 16.033 120.449 16.033H117.875V28.019H120.449Z" fill="black"/>
<path d="M136.512 15.903V20.453H142.622V23.339H136.512V28.149H143.402V31.113H132.872V12.939H143.402V15.903H136.512Z" fill="black"/>
<path d="M177.163 12.965L172.093 31.113H167.803L164.397 18.191L160.835 31.113L156.571 31.139L151.683 12.965H155.583L158.781 27.057L162.473 12.965H166.529L170.013 26.979L173.237 12.965H177.163Z" fill="black"/>
<path d="M190.668 27.655H183.44L182.244 31.113H178.422L184.948 12.939H189.186L195.712 31.113H191.864L190.668 27.655ZM189.68 24.743L187.054 17.151L184.428 24.743H189.68Z" fill="black"/>
<path d="M210.501 12.965V15.903H205.665V31.113H202.025V15.903H197.189V12.965H210.501Z" fill="black"/>
<path d="M212.273 22.013C212.273 20.2276 212.672 18.633 213.469 17.229C214.284 15.8076 215.385 14.707 216.771 13.927C218.175 13.1296 219.744 12.731 221.477 12.731C223.505 12.731 225.282 13.251 226.807 14.291C228.333 15.331 229.399 16.7696 230.005 18.607H225.819C225.403 17.7403 224.814 17.0903 224.051 16.657C223.306 16.2236 222.439 16.007 221.451 16.007C220.394 16.007 219.449 16.2583 218.617 16.761C217.803 17.2463 217.161 17.9396 216.693 18.841C216.243 19.7423 216.017 20.7996 216.017 22.013C216.017 23.209 216.243 24.2663 216.693 25.185C217.161 26.0863 217.803 26.7883 218.617 27.291C219.449 27.7763 220.394 28.019 221.451 28.019C222.439 28.019 223.306 27.8023 224.051 27.369C224.814 26.9183 225.403 26.2596 225.819 25.393H230.005C229.399 27.2476 228.333 28.695 226.807 29.735C225.299 30.7576 223.523 31.269 221.477 31.269C219.744 31.269 218.175 30.879 216.771 30.099C215.385 29.3016 214.284 28.201 213.469 26.797C212.672 25.393 212.273 23.7983 212.273 22.013Z" fill="black"/>
<path d="M248.168 12.965V31.113H244.528V23.391H236.754V31.113H233.114V12.965H236.754V20.427H244.528V12.965H248.168Z" fill="black"/>
<path d="M76.312 12.965V15.903H71.476V31.113H67.836V15.903H63V12.965H76.312Z" stroke="black" stroke-width="0.4" mask="url(#path-7-outside-1_232_189)"/>
<path d="M88.3279 31.113L84.3239 24.041H82.6079V31.113H78.9679V12.965H85.7799C87.1839 12.965 88.3799 13.2163 89.3679 13.719C90.3559 14.2043 91.0925 14.8716 91.5779 15.721C92.0805 16.553 92.3319 17.489 92.3319 18.529C92.3319 19.725 91.9852 20.8083 91.2919 21.779C90.5985 22.7323 89.5672 23.391 88.1979 23.755L92.5399 31.113H88.3279ZM82.6079 21.311H85.6499C86.6379 21.311 87.3745 21.077 87.8599 20.609C88.3452 20.1236 88.5879 19.4563 88.5879 18.607C88.5879 17.775 88.3452 17.1336 87.8599 16.683C87.3745 16.215 86.6379 15.981 85.6499 15.981H82.6079V21.311Z" stroke="black" stroke-width="0.4" mask="url(#path-7-outside-1_232_189)"/>
<path d="M106.752 27.655H99.5241L98.3281 31.113H94.5061L101.032 12.939H105.27L111.796 31.113H107.948L106.752 27.655ZM105.764 24.743L103.138 17.151L100.512 24.743H105.764Z" stroke="black" stroke-width="0.4" mask="url(#path-7-outside-1_232_189)"/>
<path d="M120.579 12.965C122.486 12.965 124.159 13.3376 125.597 14.083C127.053 14.8283 128.171 15.8943 128.951 17.281C129.749 18.6503 130.147 20.245 130.147 22.065C130.147 23.885 129.749 25.4796 128.951 26.849C128.171 28.201 127.053 29.2496 125.597 29.995C124.159 30.7403 122.486 31.113 120.579 31.113H114.235V12.965H120.579ZM120.449 28.019C122.356 28.019 123.829 27.499 124.869 26.459C125.909 25.419 126.429 23.9543 126.429 22.065C126.429 20.1756 125.909 18.7023 124.869 17.645C123.829 16.5703 122.356 16.033 120.449 16.033H117.875V28.019H120.449Z" stroke="black" stroke-width="0.4" mask="url(#path-7-outside-1_232_189)"/>
<path d="M136.512 15.903V20.453H142.622V23.339H136.512V28.149H143.402V31.113H132.872V12.939H143.402V15.903H136.512Z" stroke="black" stroke-width="0.4" mask="url(#path-7-outside-1_232_189)"/>
<path d="M177.163 12.965L172.093 31.113H167.803L164.397 18.191L160.835 31.113L156.571 31.139L151.683 12.965H155.583L158.781 27.057L162.473 12.965H166.529L170.013 26.979L173.237 12.965H177.163Z" stroke="black" stroke-width="0.4" mask="url(#path-7-outside-1_232_189)"/>
<path d="M190.668 27.655H183.44L182.244 31.113H178.422L184.948 12.939H189.186L195.712 31.113H191.864L190.668 27.655ZM189.68 24.743L187.054 17.151L184.428 24.743H189.68Z" stroke="black" stroke-width="0.4" mask="url(#path-7-outside-1_232_189)"/>
<path d="M210.501 12.965V15.903H205.665V31.113H202.025V15.903H197.189V12.965H210.501Z" stroke="black" stroke-width="0.4" mask="url(#path-7-outside-1_232_189)"/>
<path d="M212.273 22.013C212.273 20.2276 212.672 18.633 213.469 17.229C214.284 15.8076 215.385 14.707 216.771 13.927C218.175 13.1296 219.744 12.731 221.477 12.731C223.505 12.731 225.282 13.251 226.807 14.291C228.333 15.331 229.399 16.7696 230.005 18.607H225.819C225.403 17.7403 224.814 17.0903 224.051 16.657C223.306 16.2236 222.439 16.007 221.451 16.007C220.394 16.007 219.449 16.2583 218.617 16.761C217.803 17.2463 217.161 17.9396 216.693 18.841C216.243 19.7423 216.017 20.7996 216.017 22.013C216.017 23.209 216.243 24.2663 216.693 25.185C217.161 26.0863 217.803 26.7883 218.617 27.291C219.449 27.7763 220.394 28.019 221.451 28.019C222.439 28.019 223.306 27.8023 224.051 27.369C224.814 26.9183 225.403 26.2596 225.819 25.393H230.005C229.399 27.2476 228.333 28.695 226.807 29.735C225.299 30.7576 223.523 31.269 221.477 31.269C219.744 31.269 218.175 30.879 216.771 30.099C215.385 29.3016 214.284 28.201 213.469 26.797C212.672 25.393 212.273 23.7983 212.273 22.013Z" stroke="black" stroke-width="0.4" mask="url(#path-7-outside-1_232_189)"/>
<path d="M248.168 12.965V31.113H244.528V23.391H236.754V31.113H233.114V12.965H236.754V20.427H244.528V12.965H248.168Z" stroke="black" stroke-width="0.4" mask="url(#path-7-outside-1_232_189)"/>
</svg>
