<svg width="50" height="44" viewBox="0 0 50 44" fill="none" xmlns="http://www.w3.org/2000/svg">
<path d="M31.4961 1.24414H35.1423V32.2928L31.4961 35.6491V1.24414Z" fill="#0EA102"/>
<path d="M24.4805 12.6494H28.1266V37.3616L24.4805 38.1726V12.6494Z" fill="#7EBA00"/>
<path d="M17.4648 19.5693H21.111V38.2677L17.4648 37.7067V19.5693Z" fill="#E6CF00"/>
<path d="M10.9258 24.4297H14.5719V36.0227L10.9258 33.1244V24.4297Z" fill="#EE6F00"/>
<path d="M10.4551 30.0311L10.928 30.9381L21.8157 26.6284L25.5967 30.8051L25.9564 31.2024L26.3385 30.8266L45.9717 11.5153L46.5965 12.0211L47.2263 12.5309L47.4194 11.744L48.6816 6.60199L48.8948 5.7334L48.0369 5.98617L42.8013 7.52879L42.0391 7.75336L42.5562 8.35666L43.0878 8.97679L26.0081 26.0565L22.8633 22.3667L22.568 22.0202L22.1883 22.2713L10.4551 30.0311Z" fill="black" stroke="white" stroke-width="1.02841"/>
<path d="M41.2889 19.0239C41.9101 23.0676 41.1715 27.2064 39.186 30.809C37.2004 34.4116 34.0768 37.2801 30.2918 38.9768C26.5069 40.6735 22.2683 41.1052 18.223 40.2062C14.1776 39.3071 10.5475 37.1265 7.88666 33.9972C5.22578 30.868 3.6802 26.9617 3.48574 22.8746C3.29128 18.7875 4.45862 14.744 6.80965 11.3609C9.16068 7.97788 12.5663 5.44109 16.5069 4.13764C20.4474 2.83419 24.7066 2.83567 28.6344 4.14183" stroke="black" stroke-width="2.80475" stroke-linecap="round"/>
</svg>
