<svg width="27" height="24" viewBox="0 0 27 24" fill="none" xmlns="http://www.w3.org/2000/svg">
<g opacity="0.75">
<path d="M8.46846 20.8604V15.0275H11.5679V20.8604C11.5679 21.6613 10.9187 22.3104 10.1179 22.3104H9.91846C9.11764 22.3104 8.46846 21.6612 8.46846 20.8604Z" stroke="#626161" stroke-width="1.1"/>
<path d="M15.3674 20.8605V11.1643H18.4674V20.8605C18.4674 21.6613 17.8182 22.3105 17.0174 22.3105H16.8174C16.0166 22.3105 15.3674 21.6613 15.3674 20.8605Z" stroke="#626161" stroke-width="1.1"/>
<path d="M22.2722 20.8605V6.73604H25.3722V20.8605C25.3722 21.6614 24.723 22.3105 23.9222 22.3105H23.7222C22.9214 22.3105 22.2722 21.6614 22.2722 20.8605Z" stroke="#626161" stroke-width="1.1"/>
<path d="M1.56318 20.8603V18.6511H4.66318V20.8603C4.66318 21.6611 4.014 22.3103 3.21318 22.3103H3.01318C2.21237 22.3103 1.56318 21.6612 1.56318 20.8603Z" stroke="#626161" stroke-width="1.1"/>
<path d="M1.28511 16.2526C1.32561 16.2526 1.36668 16.2441 1.40551 16.2264C8.56661 12.9006 16.7549 7.7927 23.3089 2.56264C23.4322 2.46449 23.4527 2.28473 23.354 2.16206C23.2558 2.0388 23.0766 2.0188 22.9533 2.11695C16.4325 7.32019 8.28759 12.4007 1.16466 15.7082C1.022 15.775 0.960387 15.9445 1.0266 16.0871C1.07452 16.1915 1.1778 16.2526 1.28511 16.2526Z" fill="#626161" stroke="#626161" stroke-width="0.3"/>
<path d="M20.98 1.56811L23.6757 1.95389L23.2894 4.64909C23.2671 4.80489 23.3756 4.94982 23.5313 4.97207C23.545 4.97378 23.5587 4.97493 23.5724 4.97493C23.7117 4.97493 23.8338 4.87221 23.8543 4.73011L24.2806 1.75246C24.3029 1.59608 24.1944 1.45171 24.0386 1.42945L21.0615 1.00317C20.9069 0.979798 20.7602 1.08822 20.738 1.24513C20.7157 1.40148 20.8247 1.54589 20.98 1.56811Z" fill="#626161"/>
</g>
</svg>
