<svg width="27" height="27" viewBox="0 0 27 27" fill="none" xmlns="http://www.w3.org/2000/svg">
<g id="Iconly/Light/Home" opacity="0.75">
<g id="Home">
<path id="Home_2" d="M10.1704 22.6706V19.3484C10.1703 18.5033 10.8593 17.8167 11.7128 17.811H14.8394C15.697 17.811 16.3923 18.4993 16.3923 19.3484V19.3484V22.681C16.3921 23.3984 16.9705 23.9848 17.695 24.0016H19.7794C21.8573 24.0016 23.5417 22.334 23.5417 20.2769V20.2769V10.826C23.5306 10.0167 23.1468 9.25676 22.4995 8.76241L15.3709 3.07737C14.1221 2.08749 12.3468 2.08749 11.0979 3.07737L4.00057 8.77273C3.35082 9.26507 2.96638 10.0263 2.95837 10.8363V20.2769C2.95837 22.334 4.64282 24.0016 6.72069 24.0016H8.80508C9.54759 24.0016 10.1495 23.4057 10.1495 22.6706V22.6706" stroke="#626161" stroke-width="1.6" stroke-linecap="round" stroke-linejoin="round"/>
</g>
</g>
</svg>
