<svg width="34" height="26" viewBox="0 0 34 26" fill="none" xmlns="http://www.w3.org/2000/svg">
<rect width="34" height="26" fill="#161616"/>
<g id="Watchlist" clip-path="url(#clip0_0_1)">
<rect width="390" height="844" transform="translate(-242 -795)" fill="#0E0F11"/>
<rect id="Rectangle 817" x="-242" y="-27" width="390" height="76" fill="#151618"/>
<g id="Group 15213">
<g id="Group 15212">
<g id="Group 15195">
<g id="Vector 23" filter="url(#filter0_d_0_1)">
<path d="M-102.162 -9.72412L-173.625 -3.875L-220.75 1H-230.5L-235.375 9.125L-237 45.9583H143.792L137.833 -3.875L71.2083 4.25L8.37498 -9.72412C-5.16669 -9.72412 -5.70834 -10.8895 -13.1832 -19.67C-26.3085 -35.0881 -38.7088 -38.3411 -45.7917 -37.973C-63.0562 -37.9731 -73.2532 -25.8741 -79.1423 -19.67C-88.5833 -9.72412 -91.5373 -10.0924 -102.162 -9.72412Z" fill="#0E0F11"/>
</g>
<g id="Rectangle 180" filter="url(#filter1_d_0_1)">
<path d="M-242 11.3307C-242 -0.635426 -232.3 -10.3359 -220.333 -10.3359H126.333C138.3 -10.3359 148 -0.63544 148 11.3307V50.3307H-242V11.3307Z" fill="#0E0F11"/>
</g>
</g>
</g>
<g id="Group 15013">
<g id="Group 18040">
<g id="Frame 13753">
<g id="Group 14513">
<ellipse id="Ellipse 20" cx="8.5" cy="15.5" rx="4.5" ry="5.5" fill="#E2E2E2"/>
<ellipse id="Ellipse 21" cx="26" cy="15.5" rx="5" ry="5.5" fill="#E2E2E2"/>
<g id="Market Watch">
<path id="Vector" d="M8.45421 22.1601C7.35618 22.1601 6.28281 21.7853 5.36982 21.0831C4.45682 20.3809 3.74522 19.3827 3.325 18.2149C2.90478 17.0471 2.79481 15.7621 3.00899 14.5223C3.22318 13.2826 3.7519 12.1438 4.52831 11.25C5.30471 10.3561 6.29392 9.7474 7.37084 9.50077C8.44776 9.25413 9.56403 9.38067 10.5785 9.86436C11.5929 10.3481 12.46 11.1672 13.0701 12.2182C13.6801 13.2692 14.0058 14.5048 14.0058 15.7688C14.0042 17.4633 13.4188 19.0878 12.378 20.286C11.3372 21.4841 9.92611 22.1581 8.45421 22.1601ZM8.45421 10.7002C7.58335 10.7002 6.73203 10.9974 6.00793 11.5544C5.28382 12.1113 4.71944 12.903 4.38616 13.8292C4.05288 14.7554 3.96568 15.7746 4.13557 16.7578C4.30546 17.7411 4.72481 18.6443 5.34061 19.3532C5.9564 20.0621 6.74097 20.5448 7.5951 20.7404C8.44923 20.936 9.33456 20.8356 10.1391 20.4519C10.9437 20.0683 11.6314 19.4186 12.1152 18.585C12.599 17.7514 12.8572 16.7714 12.8572 15.7688C12.8559 14.425 12.3916 13.1366 11.5662 12.1864C10.7407 11.2362 9.62155 10.7017 8.45421 10.7002Z" fill="#D3D3D3"/>
<path id="Vector_2" d="M25.8758 22.1601C24.7778 22.1601 23.7044 21.7852 22.7915 21.0829C21.8785 20.3807 21.167 19.3825 20.7468 18.2147C20.3266 17.0469 20.2167 15.7619 20.4309 14.5221C20.6451 13.2824 21.1739 12.1436 21.9503 11.2498C22.7267 10.356 23.7159 9.74735 24.7928 9.50074C25.8697 9.25414 26.986 9.38069 28.0004 9.86439C29.0149 10.3481 29.8819 11.1672 30.492 12.2182C31.102 13.2692 31.4276 14.5048 31.4277 15.7688C31.426 17.4633 30.8406 19.0879 29.7998 20.2861C28.7589 21.4843 27.3477 22.1582 25.8758 22.1601ZM25.8758 10.7002C25.0049 10.7002 24.1537 10.9976 23.4296 11.5546C22.7055 12.1115 22.1412 12.9032 21.808 13.8294C21.4747 14.7556 21.3876 15.7748 21.5575 16.758C21.7274 17.7413 22.1468 18.6444 22.7626 19.3533C23.3784 20.0622 24.163 20.5449 25.0171 20.7404C25.8712 20.936 26.7565 20.8356 27.5611 20.4519C28.3656 20.0682 29.0533 19.4185 29.5371 18.5849C30.0209 17.7514 30.2791 16.7714 30.279 15.7688C30.2778 14.425 29.8134 13.1365 28.9879 12.1863C28.1624 11.236 27.0432 10.7016 25.8758 10.7002Z" fill="#D3D3D3"/>
<path id="Vector_3" d="M17.0354 12.8955C16.7514 12.8955 16.4738 12.7986 16.2377 12.617C16.0016 12.4354 15.8176 12.1772 15.7089 11.8752C15.6002 11.5732 15.5718 11.2409 15.6272 10.9202C15.6826 10.5996 15.8193 10.3051 16.0201 10.074C16.2209 9.8428 16.4768 9.68538 16.7553 9.6216C17.0338 9.55783 17.3225 9.59056 17.5848 9.71566C17.8472 9.84076 18.0714 10.0526 18.2292 10.3244C18.387 10.5962 18.4712 10.9158 18.4712 11.2427C18.4707 11.6809 18.3193 12.101 18.0501 12.4109C17.781 12.7207 17.416 12.895 17.0354 12.8955ZM17.0354 10.9121C16.9786 10.9121 16.9231 10.9315 16.8759 10.9678C16.8286 11.0042 16.7918 11.0558 16.7701 11.1162C16.7484 11.1766 16.7427 11.2431 16.7537 11.3072C16.7648 11.3713 16.7922 11.4302 16.8323 11.4764C16.8725 11.5227 16.9237 11.5542 16.9794 11.5669C17.0351 11.5797 17.0928 11.5731 17.1453 11.5481C17.1977 11.5231 17.2426 11.4807 17.2741 11.4263C17.3057 11.372 17.3225 11.3081 17.3225 11.2427C17.3225 11.155 17.2922 11.071 17.2384 11.009C17.1845 10.947 17.1115 10.9122 17.0354 10.9121Z" fill="#D3D3D3"/>
<path id="Vector_4" d="M30.1981 8.66431C27.1353 3.97437 26.0967 2.2752 23.8532 2.02503C21.8133 1.79575 20.2063 3.16714 19.0594 6.08965C18.5123 5.46074 17.7859 5.08108 17.0145 5.02082C16.2418 5.07615 15.5141 5.45785 14.9708 6.09276C13.8241 3.16774 12.2176 1.79365 10.1758 2.02503C8.01024 2.2665 6.96455 3.7599 3.37281 9.37146C2.48552 10.3039 1.80478 11.4671 1.38737 12.764C0.969955 14.0609 0.827979 15.4539 0.973281 16.8268C1.11858 18.1997 1.54695 19.5127 2.22265 20.6562C2.89835 21.7998 3.80179 22.7408 4.85761 23.4007C5.91344 24.0606 7.09103 24.4204 8.29216 24.4499C9.4933 24.4794 10.6832 24.1778 11.7625 23.5704C12.8418 22.9629 13.7793 22.0671 14.4967 20.9578C15.2142 19.8484 15.6908 18.5577 15.8869 17.1932H18.4433C18.6462 18.6052 19.1493 19.9376 19.9079 21.0716C20.6665 22.2055 21.6569 23.1059 22.791 23.6924C23.9251 24.279 25.1676 24.5335 26.4078 24.4332C27.6481 24.333 28.8475 23.8812 29.8993 23.1181C30.9511 22.3549 31.8226 21.3042 32.4362 20.0593C33.0497 18.8145 33.3863 17.4143 33.4158 15.9834C33.4454 14.5526 33.1671 13.1355 32.6057 11.8585C32.0442 10.5815 31.2171 9.48418 30.1981 8.66431ZM10.2868 3.34085C11.8403 3.16976 13.0642 4.31687 14.0048 6.84299C13.7004 7.0057 13.3684 7.08867 13.0327 7.08591C12.8804 7.08591 12.7343 7.15557 12.6266 7.27956C12.5189 7.40354 12.4584 7.57171 12.4584 7.74705C12.4584 7.9224 12.5189 8.09056 12.6266 8.21455C12.7343 8.33854 12.8804 8.40819 13.0327 8.40819C15.2276 8.40819 15.8612 6.3431 17.0145 6.3431C18.1557 6.3431 18.8329 8.40819 20.9962 8.40819C21.1486 8.40819 21.2946 8.33854 21.4023 8.21455C21.51 8.09056 21.5706 7.9224 21.5706 7.74705C21.5706 7.57171 21.51 7.40354 21.4023 7.27956C21.2946 7.15557 21.1486 7.08591 20.9962 7.08591C20.6608 7.08792 20.3292 7.00334 20.0259 6.83839C20.966 4.31558 22.187 3.16983 23.7422 3.34085C25.4776 3.53511 26.239 4.97956 27.9093 7.41564C26.6641 7.00667 25.3479 6.97762 24.09 7.33133C22.832 7.68504 21.6757 8.40935 20.7345 9.43311C19.241 9.23275 18.6839 7.39034 17.0338 7.39034C15.45 7.39034 14.921 9.04583 13.5477 9.38288C12.5545 8.32192 11.3294 7.59174 10.0036 7.27044C8.67771 6.94914 7.30091 7.04881 6.02045 7.55879C7.81187 4.93942 8.56337 3.53376 10.2868 3.34085ZM8.45479 23.1295C7.19018 23.1295 5.95397 22.6978 4.90248 21.889C3.851 21.0802 3.03147 19.9307 2.54752 18.5857C2.06358 17.2407 1.93695 15.7607 2.18367 14.3329C2.43038 12.905 3.03935 11.5935 3.93356 10.5641C4.82778 9.53468 5.96707 8.83364 7.20738 8.54963C8.44769 8.26561 9.73331 8.41138 10.9017 8.96849C12.07 9.5256 13.0686 10.469 13.7712 11.6795C14.4738 12.89 14.8488 14.3131 14.8488 15.7689C14.8469 17.7204 14.1726 19.5913 12.9739 20.9713C11.7752 22.3512 10.15 23.1274 8.45479 23.1295ZM15.9929 15.8709C16.0167 13.9131 15.4587 12.0047 14.4114 10.462C15.6312 9.8633 16.1532 8.71262 17.0338 8.71262C17.9498 8.71262 18.5171 9.99574 19.8627 10.5482C18.8512 12.076 18.314 13.9501 18.3372 15.8709H15.9929ZM25.8754 23.1295C24.6108 23.1295 23.3745 22.6978 22.3231 21.889C21.2716 21.0802 20.452 19.9307 19.9681 18.5857C19.4842 17.2407 19.3575 15.7607 19.6042 14.3329C19.851 12.905 20.4599 11.5935 21.3541 10.5641C22.2484 9.53468 23.3876 8.83364 24.628 8.54963C25.8683 8.26561 27.1539 8.41138 28.3222 8.96849C29.4906 9.5256 30.4892 10.469 31.1918 11.6795C31.8943 12.89 32.2693 14.3131 32.2693 15.7689C32.2675 17.7204 31.5932 19.5913 30.3945 20.9713C29.1958 22.3512 27.5706 23.1274 25.8754 23.1295Z" fill="#E2E2E2"/>
<path id="Vector_5" d="M28.3784 13.334H26.9426C26.7903 13.334 26.6442 13.4036 26.5365 13.5276C26.4288 13.6516 26.3683 13.8198 26.3683 13.9951C26.3683 14.1705 26.4288 14.3386 26.5365 14.4626C26.6442 14.5866 26.7903 14.6563 26.9426 14.6563H27.1344L26.2398 15.861L24.8657 15.0982C24.7472 15.0324 24.6127 15.0154 24.4846 15.0502C24.3565 15.0849 24.2427 15.1692 24.1621 15.289L22.9182 17.1378C22.8274 17.2766 22.7878 17.451 22.8078 17.6232C22.8279 17.7954 22.906 17.9516 23.0254 18.058C23.1447 18.1645 23.2956 18.2125 23.4455 18.1918C23.5953 18.1711 23.7321 18.0833 23.8262 17.9474L24.7855 16.5218L26.1392 17.2734C26.2534 17.3367 26.3827 17.3547 26.5068 17.3247C26.6309 17.2947 26.7429 17.2183 26.8254 17.1074L27.8242 15.7626C27.8485 15.9242 27.9247 16.0695 28.0377 16.1695C28.1507 16.2696 28.2922 16.3171 28.4342 16.3027C28.5762 16.2883 28.7083 16.213 28.8044 16.0917C28.9004 15.9704 28.9533 15.812 28.9527 15.648V13.9951C28.9527 13.9083 28.9378 13.8223 28.909 13.7421C28.8801 13.6619 28.8378 13.589 28.7845 13.5276C28.7311 13.4662 28.6678 13.4175 28.5981 13.3843C28.5285 13.3511 28.4538 13.334 28.3784 13.334Z" fill="#0E0F11"/>
</g>
<path id="Vector_6" d="M10.9571 13.334H9.52133C9.36901 13.334 9.22293 13.4036 9.11523 13.5276C9.00752 13.6516 8.94702 13.8198 8.94702 13.9951C8.94702 14.1705 9.00752 14.3386 9.11523 14.4626C9.22293 14.5866 9.36901 14.6563 9.52133 14.6563H9.71315L8.81855 15.861L7.44447 15.0982C7.32595 15.0324 7.19141 15.0155 7.06334 15.0502C6.93527 15.0849 6.82144 15.1692 6.74089 15.289L5.49693 17.1378C5.40584 17.2766 5.36594 17.4511 5.38589 17.6236C5.40584 17.796 5.48402 17.9525 5.60349 18.059C5.72297 18.1655 5.8741 18.2136 6.02412 18.1927C6.17415 18.1718 6.31098 18.0837 6.40495 17.9474L7.36428 16.5218L8.71793 17.2734C8.8322 17.3367 8.96144 17.3547 9.08554 17.3247C9.20965 17.2947 9.32165 17.2183 9.40413 17.1074L10.4029 15.7626C10.4273 15.9242 10.5035 16.0695 10.6165 16.1695C10.7295 16.2696 10.871 16.3171 11.013 16.3027C11.155 16.2883 11.2871 16.213 11.3831 16.0917C11.4791 15.9704 11.5321 15.812 11.5315 15.648V13.9951C11.5315 13.9083 11.5166 13.8223 11.4877 13.7421C11.4589 13.6619 11.4166 13.589 11.3632 13.5276C11.3099 13.4662 11.2466 13.4175 11.1769 13.3843C11.1072 13.3511 11.0325 13.334 10.9571 13.334Z" fill="#0E0F11"/>
</g>
</g>
</g>
</g>
</g>
</g>
<defs>
<filter id="filter0_d_0_1" x="-241.333" y="-42.3333" width="389.458" height="92.6249" filterUnits="userSpaceOnUse" color-interpolation-filters="sRGB">
<feFlood flood-opacity="0" result="BackgroundImageFix"/>
<feColorMatrix in="SourceAlpha" type="matrix" values="0 0 0 0 0 0 0 0 0 0 0 0 0 0 0 0 0 0 127 0" result="hardAlpha"/>
<feOffset/>
<feGaussianBlur stdDeviation="2.16667"/>
<feComposite in2="hardAlpha" operator="out"/>
<feColorMatrix type="matrix" values="0 0 0 0 0.345098 0 0 0 0 0.345098 0 0 0 0 0.345098 0 0 0 0.2 0"/>
<feBlend mode="normal" in2="BackgroundImageFix" result="effect1_dropShadow_0_1"/>
<feBlend mode="normal" in="SourceGraphic" in2="effect1_dropShadow_0_1" result="shape"/>
</filter>
<filter id="filter1_d_0_1" x="-246" y="-14.3359" width="398" height="68.6667" filterUnits="userSpaceOnUse" color-interpolation-filters="sRGB">
<feFlood flood-opacity="0" result="BackgroundImageFix"/>
<feColorMatrix in="SourceAlpha" type="matrix" values="0 0 0 0 0 0 0 0 0 0 0 0 0 0 0 0 0 0 127 0" result="hardAlpha"/>
<feOffset/>
<feGaussianBlur stdDeviation="2"/>
<feComposite in2="hardAlpha" operator="out"/>
<feColorMatrix type="matrix" values="0 0 0 0 0.345599 0 0 0 0 0.345599 0 0 0 0 0.345599 0 0 0 0.2 0"/>
<feBlend mode="normal" in2="BackgroundImageFix" result="effect1_dropShadow_0_1"/>
<feBlend mode="normal" in="SourceGraphic" in2="effect1_dropShadow_0_1" result="shape"/>
</filter>
<clipPath id="clip0_0_1">
<rect width="390" height="844" fill="white" transform="translate(-242 -795)"/>
</clipPath>
</defs>
</svg>
