<svg width="19" height="18" viewBox="0 0 19 18" fill="none" xmlns="http://www.w3.org/2000/svg">
<rect y="10.0503" width="3.3" height="6.6" fill="#0EA102"/>
<rect x="0.450195" y="10.5005" width="2.4" height="5.7" fill="#0EA102"/>
<rect x="1.5" y="8.7002" width="0.45" height="1.35" fill="#0EA102"/>
<rect x="1.5" y="16.6504" width="0.45" height="1.35" fill="#0EA102"/>
<rect x="4.7998" y="3.94824" width="3.3" height="8.30323" fill="#0EA102"/>
<rect x="5.25" y="4.51465" width="2.4" height="7.17097" fill="#0EA102"/>
<rect x="6.2998" y="2.25" width="0.45" height="1.69839" fill="#0EA102"/>
<rect x="6.2998" y="12.252" width="0.45" height="1.69839" fill="#0EA102"/>
<rect x="14.8496" y="1.52441" width="3.3" height="7.45161" fill="#0EA102"/>
<rect x="15.2998" y="2.03223" width="2.4" height="6.43548" fill="#0EA102"/>
<rect x="16.3496" width="0.45" height="1.52419" fill="#0EA102"/>
<rect x="16.3496" y="8.97559" width="0.45" height="1.52419" fill="#0EA102"/>
<rect x="10.0498" y="9.01953" width="3.3" height="5.96129" fill="#0EA102"/>
<rect x="10.5" y="9.42627" width="2.4" height="5.14839" fill="#0EA102"/>
<rect x="11.5498" y="7.80029" width="0.45" height="1.21935" fill="#0EA102"/>
<rect x="11.5498" y="14.981" width="0.45" height="1.21935" fill="#0EA102"/>
</svg>
