<svg width="21" height="19" viewBox="0 0 21 19" fill="none" xmlns="http://www.w3.org/2000/svg">
<rect x="2.49805" y="6.93799" width="12.0622" height="2.49811" rx="1.24906" transform="rotate(90 2.49805 6.93799)" fill="#6C6C6C"/>
<rect x="14.8447" y="11.3911" width="7.4223" height="2.96892" rx="1.48446" transform="rotate(90 14.8447 11.3911)" fill="#6C6C6C"/>
<rect x="8.90723" y="1" width="17.8135" height="2.96892" rx="1.48446" transform="rotate(90 8.90723 1)" fill="#6C6C6C"/>
<path fill-rule="evenodd" clip-rule="evenodd" d="M19.5856 3.00839L19.3517 2.60259C19.1539 2.25922 18.7154 2.14076 18.3716 2.33778V2.33778C18.2079 2.4342 18.0126 2.46156 17.8287 2.41382C17.6449 2.36608 17.4875 2.24716 17.3915 2.0833C17.3296 1.97914 17.2964 1.86051 17.2952 1.73939V1.73939C17.3007 1.54522 17.2275 1.35705 17.0921 1.21776C16.9567 1.07847 16.7707 0.99992 16.5764 1H16.1053C15.9149 0.999998 15.7325 1.07583 15.5982 1.21073C15.464 1.34562 15.389 1.52845 15.3899 1.71876V1.71876C15.3843 2.11168 15.0641 2.42724 14.6712 2.4272C14.5501 2.42594 14.4314 2.39272 14.3273 2.33091V2.33091C13.9834 2.13388 13.545 2.25234 13.3472 2.59571L13.0961 3.00839C12.8985 3.35134 13.0153 3.7895 13.3575 3.98852V3.98852C13.5799 4.11691 13.7169 4.35419 13.7169 4.61098C13.7169 4.86777 13.5799 5.10506 13.3575 5.23345V5.23345C13.0158 5.43112 12.8988 5.86822 13.0961 6.21013V6.21013L13.3334 6.61938C13.4261 6.78664 13.5816 6.91007 13.7656 6.96235C13.9495 7.01463 14.1467 6.99145 14.3135 6.89794V6.89794C14.4775 6.80226 14.6729 6.77604 14.8563 6.82512C15.0397 6.8742 15.1959 6.99451 15.2902 7.15931C15.352 7.26346 15.3852 7.3821 15.3865 7.50321V7.50321C15.3865 7.90017 15.7083 8.22197 16.1053 8.22197H16.5764C16.972 8.22197 17.2933 7.90226 17.2952 7.50665V7.50665C17.2942 7.31574 17.3697 7.13239 17.5047 6.9974C17.6397 6.8624 17.823 6.78697 18.0139 6.78789C18.1347 6.79113 18.2529 6.82421 18.3578 6.88418V6.88418C18.7008 7.08179 19.1389 6.96494 19.3379 6.62282V6.62282L19.5856 6.21013C19.6814 6.04563 19.7077 5.8497 19.6586 5.66573C19.6096 5.48177 19.4892 5.32495 19.3242 5.23001V5.23001C19.1592 5.13507 19.0388 4.97825 18.9897 4.79429C18.9407 4.61032 18.967 4.41439 19.0628 4.24989C19.1251 4.14107 19.2154 4.05085 19.3242 3.98852V3.98852C19.6643 3.78961 19.7808 3.35401 19.5856 3.01183V3.01183V3.00839Z" stroke="#6C6C6C" stroke-width="0.8" stroke-linecap="round" stroke-linejoin="round"/>
<circle cx="16.343" cy="4.61105" r="0.990441" stroke="#6C6C6C" stroke-width="0.8" stroke-linecap="round" stroke-linejoin="round"/>
</svg>
