<svg width="18" height="18" viewBox="0 0 18 18" fill="none" xmlns="http://www.w3.org/2000/svg">
<mask id="mask0_74_2206" style="mask-type:alpha" maskUnits="userSpaceOnUse" x="0" y="0" width="18" height="18">
<rect width="18" height="18" fill="#D9D9D9"/>
</mask>
<g mask="url(#mask0_74_2206)">
<path d="M14.625 16.5H11.5V15.25H14.625C14.7908 15.25 14.9497 15.1842 15.0669 15.0669C15.1842 14.9497 15.25 14.7908 15.25 14.625V11.5H16.5V14.625C16.5 15.1223 16.3025 15.5992 15.9508 15.9508C15.5992 16.3025 15.1223 16.5 14.625 16.5Z" fill="#6C6C6C"/>
<path d="M2.75 6.5H1.5V3.375C1.5 2.87772 1.69754 2.40081 2.04917 2.04917C2.40081 1.69754 2.87772 1.5 3.375 1.5H6.5V2.75H3.375C3.20924 2.75 3.05027 2.81585 2.93306 2.93306C2.81585 3.05027 2.75 3.20924 2.75 3.375V6.5Z" fill="#6C6C6C"/>
<path d="M6.5 16.5H3.375C2.87772 16.5 2.40081 16.3025 2.04917 15.9508C1.69754 15.5992 1.5 15.1223 1.5 14.625L1.5 11.5H2.75V14.625C2.75 14.7908 2.81585 14.9497 2.93306 15.0669C3.05027 15.1842 3.20924 15.25 3.375 15.25H6.5V16.5Z" fill="#6C6C6C"/>
<path d="M16.5 6.5H15.25V3.375C15.25 3.20924 15.1842 3.05027 15.0669 2.93306C14.9497 2.81585 14.7908 2.75 14.625 2.75H11.5V1.5H14.625C15.1223 1.5 15.5992 1.69754 15.9508 2.04917C16.3025 2.40081 16.5 2.87772 16.5 3.375V6.5Z" fill="#6C6C6C"/>
</g>
</svg>
