<svg width="197" height="180" viewBox="0 0 197 180" fill="none" xmlns="http://www.w3.org/2000/svg">
<circle cx="120.282" cy="90.8844" r="70.1178" fill="#F0FFEF"/>
<circle cx="96.3405" cy="70.362" r="70.1178" fill="#F0FFEF"/>
<circle cx="70.1178" cy="90.8844" r="70.1178" fill="#F0FFEF"/>
<circle cx="96.3405" cy="109.127" r="70.1178" fill="#F0FFEF"/>
<circle cx="96.3405" cy="88.6042" r="69.5478" fill="#E7FFE6" stroke="#E1FFDE" stroke-width="1.14013"/>
<rect x="50" y="57.2441" width="94" height="68" rx="7" fill="#97A5B0"/>
<rect x="54" y="61.2441" width="86" height="34" rx="5" fill="#F9FFF9"/>
<rect x="80" y="102.244" width="59" height="3" rx="1.5" fill="#F9FFF9"/>
<rect x="80" y="107.244" width="53" height="3" rx="1.5" fill="#F9FFF9"/>
<rect x="80" y="112.244" width="42" height="3" rx="1.5" fill="#F9FFF9"/>
<circle cx="65" cy="109.244" r="10" fill="#F9FFF9"/>
<path d="M137.918 26.6191L141.219 45.7181" stroke="#0EA102" stroke-width="2.5" stroke-linecap="round"/>
<path d="M175.062 53.0596L155.964 56.361" stroke="#0EA102" stroke-width="2.5" stroke-linecap="round"/>
<path d="M159.73 34.2725L148.56 50.1119" stroke="#0EA102" stroke-width="2.5" stroke-linecap="round"/>
<circle cx="97" cy="78.2451" r="10" fill="#0EA102"/>
<path d="M98.6626 78.2309L101.66 75.2301C101.855 75.0089 101.958 74.7218 101.949 74.4273C101.939 74.1328 101.818 73.853 101.61 73.6446C101.401 73.4363 101.122 73.3151 100.827 73.3057C100.533 73.2963 100.246 73.3994 100.024 73.594L97.0235 76.5918L94.0173 73.5848C93.9096 73.4771 93.7818 73.3917 93.6411 73.3334C93.5004 73.2751 93.3496 73.2451 93.1973 73.2451C93.0451 73.2451 92.8943 73.2751 92.7536 73.3334C92.6129 73.3917 92.4851 73.4771 92.3774 73.5848C92.2697 73.6924 92.1843 73.8203 92.126 73.9609C92.0677 74.1016 92.0377 74.2524 92.0377 74.4047C92.0377 74.557 92.0677 74.7078 92.126 74.8485C92.1843 74.9891 92.2697 75.117 92.3774 75.2247L95.3844 78.2309L92.3867 81.2309C92.2691 81.336 92.1742 81.464 92.1078 81.607C92.0414 81.75 92.0049 81.9051 92.0005 82.0627C91.996 82.2204 92.0238 82.3772 92.0821 82.5238C92.1404 82.6703 92.228 82.8034 92.3395 82.9149C92.451 83.0264 92.5841 83.114 92.7306 83.1723C92.8771 83.2306 93.034 83.2583 93.1916 83.2539C93.3493 83.2495 93.5043 83.213 93.6474 83.1466C93.7904 83.0802 93.9184 82.9853 94.0235 82.8677L97.0235 79.87L100.02 82.8677C100.238 83.0852 100.533 83.2074 100.84 83.2074C101.148 83.2074 101.443 83.0852 101.66 82.8677C101.878 82.6503 102 82.3553 102 82.0478C102 81.7402 101.878 81.4453 101.66 81.2278L98.6626 78.2309Z" fill="#F9FFF9"/>
<path d="M37.9198 108.819L38.6915 106.396C38.7343 106.225 38.7103 106.044 38.6243 105.889C38.5383 105.735 38.3968 105.619 38.2286 105.566C38.0603 105.512 37.8779 105.524 37.7185 105.6C37.559 105.676 37.4345 105.81 37.3702 105.975L36.596 108.396L34.1679 107.621C34.0809 107.594 33.9894 107.583 33.8984 107.591C33.8074 107.599 33.7189 107.624 33.6378 107.666C33.5567 107.708 33.4846 107.765 33.4257 107.835C33.3668 107.905 33.3222 107.985 33.2944 108.072C33.2667 108.159 33.2563 108.251 33.264 108.342C33.2716 108.433 33.2971 108.521 33.339 108.602C33.3808 108.684 33.4383 108.756 33.508 108.814C33.5777 108.873 33.6584 108.918 33.7453 108.946L36.1737 109.72L35.4018 112.142C35.3681 112.231 35.3527 112.325 35.3567 112.42C35.3607 112.514 35.3838 112.607 35.4248 112.692C35.4658 112.777 35.5238 112.853 35.5951 112.915C35.6665 112.977 35.7497 113.024 35.8398 113.052C35.9298 113.081 36.0248 113.091 36.1189 113.082C36.2129 113.073 36.3041 113.044 36.3869 112.999C36.4696 112.953 36.5422 112.891 36.6001 112.816C36.658 112.742 36.7001 112.656 36.7238 112.564L37.4975 110.143L39.9181 110.915C40.0937 110.971 40.2844 110.955 40.4482 110.871C40.6121 110.786 40.7356 110.64 40.7916 110.464C40.8476 110.289 40.8316 110.098 40.7471 109.934C40.6625 109.77 40.5163 109.647 40.3407 109.591L37.9198 108.819Z" fill="#97A5B0"/>
<path d="M69.9198 41.8188L70.6915 39.3961C70.7343 39.2247 70.7103 39.0435 70.6243 38.8892C70.5383 38.735 70.3968 38.6192 70.2286 38.5655C70.0603 38.5118 69.8779 38.5242 69.7185 38.6002C69.559 38.6762 69.4345 38.81 69.3702 38.9745L68.596 41.3964L66.1679 40.6213C66.0809 40.5936 65.9894 40.5832 65.8984 40.5909C65.8074 40.5985 65.7189 40.624 65.6378 40.6659C65.5567 40.7078 65.4846 40.7652 65.4257 40.8349C65.3668 40.9046 65.3222 40.9853 65.2944 41.0723C65.2667 41.1592 65.2563 41.2508 65.264 41.3418C65.2716 41.4327 65.2971 41.5213 65.339 41.6024C65.3808 41.6835 65.4383 41.7556 65.508 41.8145C65.5777 41.8734 65.6584 41.918 65.7453 41.9458L68.1737 42.7202L67.4018 45.1425C67.3681 45.2308 67.3527 45.3251 67.3567 45.4195C67.3607 45.5139 67.3838 45.6066 67.4248 45.6918C67.4658 45.7769 67.5238 45.8529 67.5951 45.9149C67.6665 45.9769 67.7497 46.0237 67.8398 46.0524C67.9298 46.0812 68.0248 46.0912 68.1189 46.082C68.2129 46.0727 68.3041 46.0444 68.3869 45.9987C68.4696 45.953 68.5422 45.8909 68.6001 45.8162C68.658 45.7415 68.7001 45.6558 68.7238 45.5643L69.4975 43.1426L71.9181 43.9153C72.0937 43.9713 72.2844 43.9553 72.4482 43.8707C72.6121 43.7862 72.7356 43.64 72.7916 43.4643C72.8476 43.2887 72.8316 43.098 72.7471 42.9342C72.6625 42.7704 72.5163 42.6469 72.3407 42.5908L69.9198 41.8188Z" fill="#97A5B0"/>
<path d="M149.92 128.818L150.691 126.395C150.734 126.224 150.71 126.043 150.624 125.888C150.538 125.734 150.397 125.618 150.229 125.565C150.06 125.511 149.878 125.523 149.718 125.599C149.559 125.675 149.434 125.809 149.37 125.974L148.596 128.395L146.168 127.62C146.081 127.593 145.989 127.582 145.898 127.59C145.807 127.598 145.719 127.623 145.638 127.665C145.557 127.707 145.485 127.764 145.426 127.834C145.367 127.904 145.322 127.984 145.294 128.071C145.267 128.158 145.256 128.25 145.264 128.341C145.272 128.432 145.297 128.52 145.339 128.601C145.381 128.683 145.438 128.755 145.508 128.814C145.578 128.872 145.658 128.917 145.745 128.945L148.174 129.719L147.402 132.142C147.368 132.23 147.353 132.324 147.357 132.419C147.361 132.513 147.384 132.606 147.425 132.691C147.466 132.776 147.524 132.852 147.595 132.914C147.666 132.976 147.75 133.023 147.84 133.051C147.93 133.08 148.025 133.09 148.119 133.081C148.213 133.072 148.304 133.043 148.387 132.998C148.47 132.952 148.542 132.89 148.6 132.815C148.658 132.741 148.7 132.655 148.724 132.563L149.497 130.142L151.918 130.914C152.094 130.97 152.284 130.954 152.448 130.87C152.612 130.785 152.736 130.639 152.792 130.463C152.848 130.288 152.832 130.097 152.747 129.933C152.662 129.769 152.516 129.646 152.341 129.59L149.92 128.818Z" fill="#97A5B0"/>
<path d="M133.593 50.1274L133.999 48.8507C134.022 48.7604 134.009 48.6649 133.964 48.5836C133.919 48.5023 133.844 48.4413 133.755 48.413C133.667 48.3847 133.571 48.3913 133.487 48.4313C133.402 48.4713 133.337 48.5419 133.303 48.6285L132.895 49.9048L131.615 49.4964C131.57 49.4818 131.521 49.4763 131.473 49.4803C131.426 49.4844 131.379 49.4978 131.336 49.5199C131.293 49.5419 131.255 49.5722 131.224 49.6089C131.193 49.6457 131.17 49.6882 131.155 49.734C131.141 49.7798 131.135 49.8281 131.139 49.876C131.143 49.924 131.157 49.9706 131.179 50.0134C131.201 50.0561 131.231 50.0941 131.268 50.1252C131.304 50.1562 131.347 50.1797 131.393 50.1943L132.672 50.6024L132.266 51.8789C132.248 51.9255 132.24 51.9751 132.242 52.0249C132.244 52.0747 132.256 52.1235 132.278 52.1684C132.299 52.2133 132.33 52.2533 132.368 52.2859C132.405 52.3186 132.449 52.3433 132.496 52.3584C132.544 52.3736 132.594 52.3789 132.644 52.374C132.693 52.3691 132.741 52.3542 132.785 52.3301C132.828 52.3061 132.867 52.2733 132.897 52.234C132.928 52.1946 132.95 52.1494 132.962 52.1012L133.37 50.825L134.646 51.2322C134.738 51.2617 134.839 51.2533 134.925 51.2087C135.011 51.1642 135.076 51.0871 135.106 50.9946C135.136 50.902 135.127 50.8015 135.083 50.7152C135.038 50.6289 134.961 50.5638 134.868 50.5343L133.593 50.1274Z" fill="#97A5B0"/>
<circle cx="40" cy="76.2441" r="4" stroke="#0EA102" stroke-width="2"/>
<circle cx="153" cy="86.2441" r="3.2" stroke="#0EA102" stroke-width="1.6"/>
<circle cx="83" cy="137.244" r="2.4" stroke="#0EA102" stroke-width="1.2"/>
</svg>
