<svg width="241" height="241" viewBox="0 0 241 241" fill="none" xmlns="http://www.w3.org/2000/svg">
<path d="M155.338 203.011L154.682 204.155L155.537 205.261L154.306 204.598L153.281 205.429L153.879 204.24L153.088 203.178L154.263 203.788L155.338 203.011Z" fill="white"/>
<path d="M159.587 202.59C159.55 202.667 159.54 202.754 159.558 202.838C159.576 202.921 159.622 202.997 159.687 203.052C159.752 203.108 159.833 203.14 159.919 203.144C160.004 203.149 160.089 203.125 160.159 203.077C160.196 202.999 160.206 202.912 160.188 202.829C160.169 202.745 160.124 202.67 160.059 202.614C159.994 202.559 159.912 202.526 159.827 202.522C159.742 202.518 159.657 202.541 159.587 202.59Z" fill="white"/>
<path d="M157.659 201.832C157.623 201.886 157.608 201.953 157.617 202.018C157.626 202.083 157.659 202.142 157.709 202.185C157.759 202.227 157.823 202.25 157.889 202.249C157.954 202.247 158.017 202.222 158.066 202.177C158.102 202.123 158.117 202.056 158.108 201.991C158.098 201.926 158.066 201.867 158.016 201.824C157.966 201.782 157.902 201.759 157.836 201.76C157.77 201.762 157.707 201.787 157.659 201.832Z" fill="white"/>
<path d="M129.898 114.986H199.898C199.898 114.986 193.702 104.499 175.675 106.03C158.465 107.488 157.592 100.87 148.843 100.057C140.095 99.2443 132.817 105.505 129.898 114.986Z" fill="#EBEBEB"/>
<path d="M46.8984 92.9863H110.898C110.898 92.9863 105.233 82.4986 88.7513 84.0299C73.0166 85.4876 72.2182 78.8699 64.2195 78.0571C56.2208 77.2443 49.5664 83.5055 46.8984 92.9863Z" fill="#EBEBEB"/>
<path d="M116.898 56.9863H166.898C166.898 56.9863 162.472 49.2954 149.596 50.4182C137.303 51.4873 136.68 46.6343 130.431 46.0382C124.182 45.4422 118.983 50.0337 116.898 56.9863Z" fill="#EBEBEB"/>
<path d="M156.227 180.308C154.177 179.372 151.975 178.815 149.727 178.663C143.354 178.222 137.398 175.35 132.644 171.056C132.447 170.879 132.251 170.707 132.055 170.541C129.021 167.988 125.84 163.978 125.193 160.067C122.742 145.534 120.938 125.509 121.065 114.986H119.595C119.595 114.986 119.433 140.562 114.693 162.192C114.445 163.26 113.944 164.252 113.232 165.085C112.521 165.918 111.619 166.567 110.604 166.977C105.964 168.942 102.117 172.411 99.6827 176.828C98.9941 178.057 97.9483 179.048 96.6841 179.669C95.4198 180.29 93.9969 180.511 92.6043 180.303C88.33 179.709 83.9921 180.797 80.5033 183.34C77.0146 185.883 74.6469 189.682 73.8984 193.937L166.898 193.986C166.316 191.028 165.047 188.248 163.193 185.872C161.339 183.496 158.953 181.59 156.227 180.308Z" fill="#EBEBEB"/>
<path d="M99.7198 104.049C99.2884 104.045 83.242 111.437 82.273 129.67C81.3842 146.431 92.9616 162.361 94.4603 161.308C96.2936 160.019 93.19 149.574 96.7585 137.629C98.0251 133.392 103.554 129.641 103.554 129.641L99.7198 104.049Z" fill="#0EA102"/>
<path opacity="0.1" d="M103.552 129.633C101.944 130.774 100.474 132.098 99.1724 133.579C96.7911 128.25 92.3516 118.305 89.4794 111.857C94.182 106.431 99.4858 104.038 99.7199 104.027L103.552 129.633Z" fill="black"/>
<path d="M140.55 104.114C140.981 104.113 157.006 111.556 157.911 129.792C158.747 146.558 147.118 162.448 145.623 161.391C143.794 160.096 146.934 149.659 143.402 137.703C142.148 133.466 136.634 129.69 136.634 129.69L140.55 104.114Z" fill="#0EA102"/>
<path opacity="0.1" d="M150.827 112.044L141.085 133.759C139.764 132.235 138.267 130.873 136.623 129.703L140.54 104.127C140.796 104.115 146.151 106.532 150.827 112.044Z" fill="black"/>
<path d="M132.223 146.022L108.019 145.983C108.019 145.983 96.6461 125.568 98.0077 101.276C98.6979 89.1431 101.87 76.9425 105.71 66.8244C110.976 52.8657 117.485 42.9771 120.29 42.9747C123.095 42.9722 129.566 52.9105 134.807 66.8725C138.586 76.9866 141.728 89.2137 142.382 101.349C143.674 125.659 132.223 146.022 132.223 146.022Z" fill="#C7C7C7"/>
<path d="M134.686 98.1964C134.682 100.958 133.86 103.656 132.323 105.95C130.786 108.245 128.603 110.031 126.05 111.084C123.498 112.137 120.69 112.41 117.982 111.867C115.275 111.324 112.789 109.99 110.84 108.034C108.891 106.078 107.565 103.588 107.032 100.878C106.498 98.169 106.78 95.3622 107.842 92.8131C108.904 90.264 110.698 88.0871 112.997 86.5579C115.297 85.0287 117.998 84.2159 120.759 84.2223C124.458 84.2319 128.002 85.7088 130.613 88.3287C133.224 90.9487 134.689 94.4976 134.686 98.1964Z" fill="#A6A6A6"/>
<path d="M134.189 96.7733C134.185 99.5341 133.362 102.231 131.824 104.524C130.287 106.817 128.104 108.603 125.551 109.655C122.999 110.707 120.192 110.979 117.485 110.436C114.778 109.893 112.293 108.559 110.344 106.604C108.396 104.648 107.07 102.159 106.536 99.4504C106.002 96.7418 106.283 93.9357 107.344 91.3869C108.405 88.838 110.197 86.661 112.496 85.1311C114.794 83.6011 117.494 82.787 120.254 82.7916C123.956 82.7989 127.503 84.2757 130.116 86.8976C132.73 89.5194 134.195 93.0716 134.189 96.7733Z" fill="#0EA102"/>
<path d="M129.913 96.7587C129.913 98.674 129.344 100.546 128.28 102.138C127.215 103.73 125.702 104.971 123.932 105.703C122.162 106.434 120.214 106.625 118.336 106.25C116.458 105.874 114.733 104.95 113.38 103.595C112.027 102.239 111.107 100.512 110.735 98.6335C110.364 96.7545 110.558 94.8076 111.294 93.039C112.029 91.2705 113.273 89.7599 114.867 88.6983C116.461 87.6367 118.334 87.0719 120.25 87.0753C122.815 87.0798 125.273 88.1021 127.085 89.9177C128.897 91.7332 129.914 94.1937 129.913 96.7587Z" fill="white"/>
<path d="M129.913 96.7564C129.913 97.9562 129.691 99.1456 129.256 100.264L123.724 105.787C122.606 106.22 121.416 106.44 120.217 106.435C119.342 106.437 118.471 106.317 117.629 106.08L129.55 94.1767C129.788 95.016 129.91 95.8839 129.913 96.7564Z" fill="#EBEBEB"/>
<path d="M121.664 87.1765L110.661 98.1628C110.59 97.6928 110.555 97.218 110.555 96.7426C110.558 94.1773 111.58 91.7183 113.396 89.9062C115.212 88.094 117.673 87.077 120.238 87.0787C120.715 87.0751 121.192 87.1078 121.664 87.1765Z" fill="#EBEBEB"/>
<path d="M128.711 92.0691L115.541 105.212C115.285 105.074 115.036 104.923 114.797 104.758L128.262 91.3342C128.415 91.5623 128.566 91.8127 128.711 92.0691Z" fill="#EBEBEB"/>
<path d="M134.803 66.8729L105.697 66.8173C110.972 52.8662 117.481 42.9776 120.286 42.9751C123.091 42.9727 129.572 52.8992 134.803 66.8729Z" fill="#0EA102"/>
<path d="M110.724 63.8255C110.724 63.9866 110.676 64.1442 110.587 64.2783C110.497 64.4124 110.37 64.5168 110.221 64.5785C110.072 64.6402 109.908 64.6563 109.75 64.6248C109.592 64.5933 109.447 64.5156 109.333 64.4015C109.219 64.2875 109.142 64.1421 109.111 63.984C109.079 63.8259 109.096 63.6621 109.158 63.5133C109.22 63.3645 109.325 63.2374 109.459 63.1482C109.593 63.059 109.751 63.0116 109.912 63.0121C110.127 63.0127 110.334 63.0987 110.486 63.2511C110.638 63.4036 110.723 63.6101 110.724 63.8255Z" fill="white"/>
<path d="M115.895 63.8363C115.897 63.9445 115.877 64.052 115.837 64.1525C115.797 64.253 115.737 64.3444 115.661 64.4214C115.585 64.4985 115.495 64.5597 115.395 64.6013C115.295 64.6429 115.188 64.6642 115.079 64.664C114.971 64.6637 114.864 64.6419 114.764 64.5997C114.665 64.5576 114.574 64.496 114.499 64.4186C114.423 64.3411 114.364 64.2494 114.324 64.1487C114.284 64.0481 114.265 63.9405 114.267 63.8323C114.272 63.6191 114.36 63.4162 114.513 63.2672C114.665 63.1182 114.87 63.035 115.083 63.0356C115.297 63.0361 115.501 63.1203 115.653 63.27C115.805 63.4197 115.892 63.6231 115.895 63.8363Z" fill="white"/>
<path d="M121.071 63.8437C121.068 64.0034 121.017 64.1586 120.926 64.2899C120.836 64.4212 120.708 64.5229 120.56 64.5822C120.411 64.6416 120.249 64.656 120.092 64.6237C119.936 64.5914 119.793 64.5138 119.68 64.4006C119.567 64.2873 119.49 64.1434 119.459 63.9868C119.427 63.8302 119.443 63.6678 119.503 63.5198C119.563 63.3718 119.665 63.2448 119.797 63.1545C119.929 63.0643 120.084 63.0148 120.244 63.0122C120.354 63.0099 120.463 63.0299 120.564 63.0709C120.666 63.1119 120.758 63.1732 120.836 63.2509C120.913 63.3286 120.974 63.4212 121.014 63.5231C121.055 63.625 121.074 63.7341 121.071 63.8437Z" fill="white"/>
<path d="M126.251 63.8515C126.248 64.0112 126.198 64.1666 126.108 64.2983C126.017 64.4299 125.89 64.532 125.742 64.5919C125.594 64.6518 125.431 64.6668 125.275 64.635C125.118 64.6032 124.975 64.5261 124.861 64.4132C124.748 64.3003 124.671 64.1567 124.639 64.0001C124.607 63.8436 124.622 63.6811 124.682 63.5329C124.741 63.3847 124.843 63.2574 124.975 63.1667C125.106 63.076 125.262 63.0261 125.421 63.023C125.531 63.0209 125.639 63.0409 125.741 63.0818C125.842 63.1227 125.935 63.1836 126.012 63.2609C126.09 63.3383 126.151 63.4304 126.192 63.5319C126.233 63.6334 126.253 63.7421 126.251 63.8515Z" fill="white"/>
<path d="M131.442 63.8475C131.442 64.0084 131.394 64.1657 131.304 64.2993C131.215 64.433 131.088 64.5371 130.939 64.5985C130.79 64.6599 130.626 64.6758 130.469 64.6443C130.311 64.6127 130.166 64.5351 130.052 64.4212C129.938 64.3073 129.861 64.1623 129.83 64.0045C129.798 63.8466 129.814 63.683 129.876 63.5343C129.938 63.3856 130.042 63.2585 130.176 63.169C130.309 63.0796 130.467 63.0318 130.628 63.0317C130.735 63.0316 130.841 63.0526 130.94 63.0936C131.039 63.1346 131.129 63.1947 131.204 63.2705C131.28 63.3463 131.34 63.4363 131.381 63.5353C131.422 63.6343 131.443 63.7404 131.442 63.8475Z" fill="white"/>
<path d="M110.606 142.276C110.602 142.49 110.514 142.693 110.361 142.842C110.208 142.991 110.004 143.074 109.79 143.073C109.577 143.073 109.372 142.988 109.221 142.839C109.069 142.689 108.982 142.486 108.978 142.272C108.976 142.164 108.996 142.057 109.036 141.956C109.077 141.856 109.137 141.764 109.213 141.687C109.289 141.61 109.379 141.549 109.479 141.507C109.579 141.466 109.686 141.444 109.794 141.445C109.903 141.445 110.01 141.467 110.109 141.509C110.209 141.551 110.299 141.613 110.375 141.69C110.45 141.768 110.51 141.859 110.55 141.96C110.589 142.061 110.609 142.168 110.606 142.276Z" fill="#A6A6A6"/>
<path d="M115.798 142.271C115.795 142.431 115.745 142.587 115.655 142.718C115.564 142.85 115.437 142.952 115.289 143.012C115.141 143.072 114.978 143.087 114.822 143.055C114.665 143.023 114.521 142.946 114.408 142.833C114.295 142.72 114.218 142.577 114.186 142.42C114.154 142.264 114.169 142.101 114.228 141.953C114.288 141.805 114.39 141.677 114.522 141.587C114.653 141.496 114.808 141.446 114.968 141.443C115.078 141.441 115.186 141.461 115.288 141.502C115.389 141.543 115.482 141.604 115.559 141.681C115.636 141.758 115.698 141.85 115.739 141.952C115.78 142.053 115.8 142.162 115.798 142.271Z" fill="#A6A6A6"/>
<path d="M120.978 142.287C120.977 142.448 120.929 142.605 120.84 142.739C120.75 142.872 120.623 142.977 120.474 143.038C120.325 143.099 120.162 143.115 120.004 143.084C119.846 143.052 119.701 142.975 119.587 142.861C119.474 142.747 119.396 142.602 119.365 142.444C119.333 142.286 119.35 142.122 119.411 141.974C119.473 141.825 119.577 141.698 119.711 141.608C119.845 141.519 120.002 141.471 120.163 141.471C120.27 141.471 120.376 141.492 120.475 141.533C120.574 141.574 120.664 141.634 120.739 141.71C120.815 141.786 120.875 141.876 120.916 141.975C120.957 142.074 120.978 142.18 120.978 142.287Z" fill="#A6A6A6"/>
<path d="M126.145 142.291C126.143 142.451 126.093 142.606 126.002 142.738C125.912 142.869 125.785 142.972 125.637 143.031C125.488 143.091 125.326 143.106 125.169 143.074C125.013 143.043 124.869 142.966 124.756 142.853C124.643 142.74 124.566 142.596 124.534 142.44C124.502 142.283 124.516 142.121 124.576 141.972C124.636 141.824 124.738 141.697 124.869 141.606C125.001 141.515 125.156 141.466 125.316 141.462C125.425 141.46 125.534 141.48 125.635 141.521C125.737 141.562 125.829 141.623 125.907 141.7C125.984 141.778 126.045 141.87 126.086 141.971C126.127 142.073 126.147 142.182 126.145 142.291Z" fill="#A6A6A6"/>
<path d="M131.321 142.3C131.318 142.459 131.267 142.615 131.176 142.746C131.086 142.877 130.958 142.979 130.81 143.038C130.661 143.098 130.499 143.112 130.342 143.08C130.186 143.047 130.043 142.97 129.93 142.857C129.817 142.743 129.74 142.599 129.709 142.443C129.677 142.286 129.693 142.124 129.753 141.976C129.813 141.828 129.915 141.701 130.047 141.611C130.179 141.52 130.334 141.471 130.494 141.468C130.604 141.466 130.713 141.486 130.814 141.527C130.916 141.568 131.008 141.629 131.086 141.707C131.163 141.785 131.224 141.877 131.264 141.979C131.305 142.081 131.324 142.19 131.321 142.3Z" fill="#A6A6A6"/>
<path opacity="0.2" d="M119.304 43.291C112.876 52.051 105.711 70.5986 104.714 95.6764C103.973 114.206 112.327 135.29 117.256 145.999L108.022 145.985C108.022 145.985 96.6491 125.57 98.0108 101.278C98.7009 89.1447 101.873 76.9441 105.713 66.826C110.43 54.3128 116.143 45.0717 119.304 43.291Z" fill="white"/>
<path d="M129.98 153.298L110.297 153.264L109.384 145.986L130.916 146.023L129.98 153.298Z" fill="#0EA102"/>
<path opacity="0.1" d="M130.92 146.023L130.462 149.567L109.737 148.768L109.391 145.989L130.92 146.023Z" fill="black"/>
<path d="M136.211 68.3252L132.145 72.503L134.593 78.1755L130.054 73.9873L124.763 76.4317L128.614 71.9948L126.378 66.5843L130.744 70.4825L136.211 68.3252Z" fill="#FCFCFC"/>
<path d="M118.914 55.4928L116.643 57.8317L118.013 61.0016L115.475 58.6583L112.517 60.0246L114.669 57.5433L113.419 54.5212L115.861 56.7009L118.914 55.4928Z" fill="#FCFCFC"/>
<path d="M152.172 118.319L149.901 120.652L151.27 123.822L148.732 121.485L145.775 122.851L147.927 120.369L146.679 117.344L149.119 119.527L152.172 118.319Z" fill="#FCFCFC"/>
<path d="M92.8047 143.774L90.5308 146.11L91.9004 149.28L89.3651 146.94L86.4077 148.306L88.5594 145.825L87.3095 142.802L89.7487 144.98L92.8047 143.774Z" fill="#FCFCFC"/>
<path d="M145.845 195.851L145.186 196.993L146.043 198.101L144.812 197.432L143.788 198.269L144.386 197.079L143.592 196.016L144.769 196.628L145.845 195.851Z" fill="white"/>
<path d="M119.053 163.171L118.397 164.316L119.249 165.425L118.021 164.758L116.996 165.59L117.594 164.4L116.801 163.342L117.975 163.952L119.053 163.171Z" fill="white"/>
<path d="M122.175 156.67C122.138 156.747 122.128 156.834 122.146 156.918C122.164 157.002 122.209 157.077 122.275 157.132C122.34 157.188 122.421 157.22 122.507 157.225C122.592 157.229 122.677 157.205 122.747 157.157C122.784 157.08 122.794 156.992 122.775 156.909C122.757 156.825 122.712 156.75 122.647 156.694C122.582 156.639 122.5 156.607 122.415 156.602C122.33 156.598 122.245 156.621 122.175 156.67Z" fill="white"/>
<path d="M134.604 193.83C134.568 193.907 134.558 193.995 134.576 194.078C134.594 194.162 134.639 194.237 134.704 194.292C134.769 194.348 134.851 194.38 134.936 194.385C135.022 194.389 135.106 194.365 135.177 194.317C135.213 194.24 135.223 194.152 135.205 194.069C135.187 193.985 135.142 193.91 135.077 193.855C135.012 193.799 134.93 193.767 134.845 193.762C134.759 193.758 134.675 193.782 134.604 193.83Z" fill="white"/>
<path d="M124.508 185.418C124.462 185.472 124.44 185.541 124.445 185.611C124.451 185.681 124.484 185.746 124.538 185.792C124.591 185.837 124.661 185.86 124.731 185.854C124.801 185.848 124.866 185.815 124.911 185.762C124.957 185.708 124.979 185.639 124.973 185.569C124.968 185.499 124.935 185.434 124.881 185.388C124.827 185.343 124.758 185.32 124.688 185.326C124.618 185.332 124.553 185.365 124.508 185.418Z" fill="white"/>
<path d="M146.99 200.989C146.882 201.137 146.834 201.32 146.855 201.502C146.876 201.683 146.966 201.85 147.105 201.969C147.245 202.087 147.424 202.149 147.606 202.141C147.789 202.133 147.962 202.056 148.091 201.925C148.199 201.778 148.247 201.595 148.225 201.413C148.204 201.231 148.115 201.064 147.975 200.946C147.836 200.827 147.657 200.766 147.474 200.774C147.291 200.782 147.118 200.859 146.99 200.989Z" fill="white"/>
</svg>
