<svg width="21" height="20" viewBox="0 0 21 20" fill="none" xmlns="http://www.w3.org/2000/svg">
<path d="M9.61914 3.33337H3.78581C3.34378 3.33337 2.91986 3.50897 2.6073 3.82153C2.29474 4.13409 2.11914 4.55801 2.11914 5.00004V16.6667C2.11914 17.1087 2.29474 17.5327 2.6073 17.8452C2.91986 18.1578 3.34378 18.3334 3.78581 18.3334H15.4525C15.8945 18.3334 16.3184 18.1578 16.631 17.8452C16.9435 17.5327 17.1191 17.1087 17.1191 16.6667V10.8334" stroke="#0EA102" stroke-width="2" stroke-linecap="round" stroke-linejoin="round"/>
<path d="M15.8691 2.08332C16.2007 1.7518 16.6503 1.56555 17.1191 1.56555C17.588 1.56555 18.0376 1.7518 18.3691 2.08332C18.7007 2.41484 18.8869 2.86448 18.8869 3.33332C18.8869 3.80216 18.7007 4.2518 18.3691 4.58332L10.4525 12.5L7.11914 13.3333L7.95247 9.99999L15.8691 2.08332Z" stroke="#0EA102" stroke-width="2" stroke-linecap="round" stroke-linejoin="round"/>
</svg>
