<svg width="24" height="25" viewBox="0 0 24 25" fill="none" xmlns="http://www.w3.org/2000/svg">
<path fill-rule="evenodd" clip-rule="evenodd" d="M9.15721 21.276V18.2093C9.1572 17.4293 9.79312 16.7955 10.581 16.7902H13.4671C14.2587 16.7902 14.9005 17.4256 14.9005 18.2093V21.2856C14.9003 21.9478 15.4343 22.4891 16.103 22.5046H18.0271C19.9451 22.5046 21.5 20.9653 21.5 19.0665V10.3425C21.4898 9.59547 21.1355 8.89399 20.538 8.43767L13.9577 3.18994C12.8049 2.2762 11.1662 2.2762 10.0134 3.18994L3.46203 8.4472C2.86226 8.90166 2.50739 9.60431 2.5 10.352V19.0665C2.5 20.9653 4.05488 22.5046 5.97291 22.5046H7.89696C8.58235 22.5046 9.13797 21.9546 9.13797 21.276" fill="#0EA102"/>
</svg>
