<svg xmlns="http://www.w3.org/2000/svg" width="19" height="19.995" viewBox="0 0 19 19.995">
  <path id="Home_color" d="M9.157,21.276V18.209a1.426,1.426,0,0,1,1.424-1.419h2.886A1.426,1.426,0,0,1,14.9,18.209v3.076A1.225,1.225,0,0,0,16.1,22.5h1.924A3.456,3.456,0,0,0,21.5,19.066V10.342a2.439,2.439,0,0,0-.962-1.9L13.958,3.19a3.18,3.18,0,0,0-3.944,0L3.462,8.447a2.42,2.42,0,0,0-.962,1.9v8.714A3.456,3.456,0,0,0,5.973,22.5H7.9a1.235,1.235,0,0,0,1.241-1.229" transform="translate(-2.5 -2.505)" fill="#707070" fill-rule="evenodd"/>
</svg>
