<svg width="30" height="21" viewBox="0 0 30 21" fill="none" xmlns="http://www.w3.org/2000/svg">
<path d="M6.95708 18.6139C5.94351 18.6139 4.9527 18.2679 4.10994 17.6197C3.26718 16.9715 2.61032 16.0501 2.22242 14.9722C1.83452 13.8942 1.73301 12.708 1.93072 11.5636C2.12843 10.4192 2.61649 9.36804 3.33316 8.54296C4.04984 7.71789 4.96296 7.15599 5.95704 6.92833C6.95112 6.70067 7.98152 6.81747 8.91794 7.26396C9.85437 7.71044 10.6547 8.46657 11.2179 9.43671C11.781 10.4069 12.0816 11.5474 12.0816 12.7142C12.0801 14.2783 11.5397 15.7779 10.579 16.8839C9.61833 17.9899 8.31575 18.6121 6.95708 18.6139ZM6.95708 8.03551C6.1532 8.03548 5.36737 8.30987 4.69897 8.82398C4.03056 9.33809 3.50959 10.0688 3.20195 10.9238C2.89431 11.7788 2.81381 12.7195 2.97063 13.6272C3.12746 14.5348 3.51455 15.3685 4.08298 16.0229C4.6514 16.6772 5.37562 17.1229 6.16405 17.3034C6.95248 17.4839 7.7697 17.3913 8.51238 17.0371C9.25506 16.6829 9.88983 16.0832 10.3364 15.3138C10.783 14.5443 11.0214 13.6397 11.0213 12.7142C11.0202 11.4738 10.5916 10.2845 9.82964 9.40738C9.0677 8.53024 8.03462 8.03687 6.95708 8.03551Z" fill="black"/>
<path d="M23.0379 18.6139C22.0243 18.6138 21.0335 18.2678 20.1908 17.6196C19.3481 16.9713 18.6913 16.0499 18.3034 14.972C17.9155 13.894 17.8141 12.7078 18.0118 11.5634C18.2095 10.4191 18.6976 9.3679 19.4143 8.54285C20.131 7.71781 21.0441 7.15594 22.0382 6.92831C23.0323 6.70067 24.0627 6.81749 24.9991 7.26398C25.9355 7.71048 26.7358 8.46661 27.2989 9.43674C27.8621 10.4069 28.1626 11.5475 28.1627 12.7142C28.1612 14.2784 27.6208 15.778 26.66 16.884C25.6992 17.99 24.3966 18.6121 23.0379 18.6139ZM23.0379 8.03551C22.234 8.03554 21.4482 8.30998 20.7798 8.82413C20.1115 9.33828 19.5905 10.069 19.2829 10.924C18.9753 11.779 18.8949 12.7197 19.0517 13.6274C19.2086 14.535 19.5957 15.3686 20.1641 16.023C20.7326 16.6773 21.4568 17.1229 22.2452 17.3034C23.0336 17.4839 23.8508 17.3912 24.5935 17.0371C25.3362 16.6829 25.9709 16.0832 26.4175 15.3137C26.8641 14.5443 27.1024 13.6396 27.1024 12.7142C27.1012 11.4737 26.6726 10.2844 25.9106 9.40727C25.1486 8.53012 24.1155 8.03679 23.0379 8.03551Z" fill="black"/>
<path d="M14.8776 10.0622C14.6155 10.0622 14.3592 9.97268 14.1413 9.80503C13.9233 9.63738 13.7534 9.3991 13.6531 9.12031C13.5528 8.84153 13.5266 8.53476 13.5777 8.2388C13.6289 7.94284 13.7551 7.67099 13.9404 7.45761C14.1258 7.24424 14.3619 7.09893 14.619 7.04006C14.8761 6.98119 15.1426 7.0114 15.3848 7.12688C15.6269 7.24236 15.8339 7.43791 15.9796 7.68881C16.1252 7.93971 16.2029 8.23469 16.2029 8.53645C16.2025 8.94095 16.0627 9.32874 15.8143 9.61476C15.5658 9.90079 15.229 10.0617 14.8776 10.0622ZM14.8776 8.23131C14.8252 8.23131 14.7739 8.24921 14.7303 8.28273C14.6867 8.31626 14.6528 8.36392 14.6327 8.41968C14.6126 8.47544 14.6074 8.53679 14.6176 8.59598C14.6278 8.65517 14.6531 8.70954 14.6901 8.75222C14.7272 8.79489 14.7744 8.82396 14.8259 8.83573C14.8773 8.8475 14.9306 8.84146 14.979 8.81836C15.0275 8.79527 15.0688 8.75616 15.098 8.70598C15.1271 8.6558 15.1426 8.5968 15.1426 8.53645C15.1426 8.45554 15.1147 8.37796 15.065 8.32074C15.0153 8.26353 14.9479 8.23136 14.8776 8.23131Z" fill="black"/>
<path d="M27.0278 6.15631C24.2006 1.82713 23.2419 0.25867 21.171 0.0277446C19.288 -0.183902 17.8046 1.082 16.7459 3.7797C16.2409 3.19917 15.5704 2.84871 14.8583 2.79309C14.1451 2.84416 13.4733 3.19651 12.9719 3.78257C11.9133 1.08255 10.4305 -0.185842 8.54565 0.0277446C6.54671 0.250638 5.58146 1.62916 2.26601 6.80906C1.44697 7.66979 0.818591 8.7435 0.433289 9.94063C0.0479872 11.1378 -0.0830674 12.4236 0.0510572 13.6909C0.185182 14.9582 0.580597 16.1702 1.20432 17.2258C1.82804 18.2814 2.66199 19.15 3.63659 19.7592C4.6112 20.3683 5.69821 20.7004 6.80695 20.7276C7.91569 20.7548 9.01402 20.4765 10.0103 19.9157C11.0066 19.355 11.872 18.5281 12.5343 17.5041C13.1965 16.4801 13.6365 15.2886 13.8175 14.0291H16.1772C16.3645 15.3325 16.8289 16.5624 17.5292 17.6092C18.2294 18.6559 19.1436 19.487 20.1905 20.0284C21.2373 20.5698 22.3843 20.8048 23.5291 20.7123C24.6739 20.6198 25.7811 20.2027 26.752 19.4983C27.7229 18.7938 28.5274 17.8239 29.0937 16.6748C29.6601 15.5257 29.9707 14.2332 29.998 12.9124C30.0253 11.5916 29.7684 10.2836 29.2502 9.10481C28.7319 7.92603 27.9685 6.91312 27.0278 6.15631ZM8.64816 1.24235C10.0822 1.08441 11.2119 2.14329 12.0802 4.47509C11.7991 4.62529 11.4927 4.70187 11.1829 4.69933C11.0423 4.69933 10.9074 4.76363 10.808 4.87808C10.7086 4.99253 10.6527 5.14775 10.6527 5.30961C10.6527 5.47147 10.7086 5.6267 10.808 5.74115C10.9074 5.8556 11.0423 5.91989 11.1829 5.91989C13.2089 5.91989 13.7937 4.01366 14.8583 4.01366C15.9118 4.01366 16.5368 5.91989 18.5338 5.91989C18.6744 5.91989 18.8092 5.8556 18.9087 5.74115C19.0081 5.6267 19.0639 5.47147 19.0639 5.30961C19.0639 5.14775 19.0081 4.99253 18.9087 4.87808C18.8092 4.76363 18.6744 4.69933 18.5338 4.69933C18.2241 4.70118 17.9181 4.62311 17.6381 4.47084C18.5059 2.1421 19.633 1.08449 21.0685 1.24235C22.6705 1.42166 23.3732 2.755 24.9151 5.00369C23.7656 4.62618 22.5507 4.59936 21.3895 4.92586C20.2284 5.25237 19.161 5.92096 18.2922 6.86597C16.9136 6.68102 16.3994 4.98033 14.8762 4.98033C13.4142 4.98033 12.9259 6.50848 11.6582 6.8196C10.7414 5.84026 9.61059 5.16624 8.38671 4.86966C7.16283 4.57308 5.89194 4.66508 4.70998 5.13583C6.36361 2.71795 7.05729 1.42042 8.64816 1.24235ZM6.95706 19.5088C5.78973 19.5088 4.64861 19.1103 3.67801 18.3638C2.70741 17.6172 1.95092 16.556 1.5042 15.3145C1.05748 14.073 0.940602 12.7068 1.16834 11.3888C1.39607 10.0708 1.9582 8.86017 2.78362 7.90995C3.60905 6.95972 4.66071 6.31261 5.80561 6.05045C6.95051 5.78828 8.13724 5.92284 9.21571 6.43709C10.2942 6.95135 11.216 7.82221 11.8645 8.93956C12.513 10.0569 12.8592 11.3705 12.8592 12.7144C12.8575 14.5158 12.2351 16.2428 11.1286 17.5166C10.0221 18.7904 8.52188 19.5068 6.95706 19.5088ZM13.9153 12.8085C13.9373 11.0013 13.4222 9.23973 12.4555 7.81567C13.5815 7.26307 14.0633 6.2009 14.8762 6.2009C15.7217 6.2009 16.2454 7.38532 17.4874 7.89531C16.5537 9.30552 16.0579 11.0355 16.0793 12.8085H13.9153ZM23.0376 19.5088C21.8703 19.5088 20.7291 19.1103 19.7585 18.3638C18.7879 17.6172 18.0315 16.556 17.5847 15.3145C17.138 14.073 17.0211 12.7068 17.2489 11.3888C17.4766 10.0708 18.0387 8.86017 18.8642 7.90995C19.6896 6.95972 20.7412 6.31261 21.8861 6.05045C23.031 5.78828 24.2178 5.92284 25.2962 6.43709C26.3747 6.95135 27.2965 7.82221 27.945 8.93956C28.5936 10.0569 28.9397 11.3705 28.9397 12.7144C28.938 14.5158 28.3156 16.2428 27.2091 17.5166C26.1026 18.7904 24.6024 19.5068 23.0376 19.5088Z" fill="black"/>
<path d="M9.26742 10.4668H7.94209C7.80149 10.4668 7.66665 10.5311 7.56723 10.6455C7.46781 10.76 7.41195 10.9152 7.41195 11.0771C7.41195 11.2389 7.46781 11.3942 7.56723 11.5086C7.66665 11.6231 7.80149 11.6874 7.94209 11.6874H8.11915L7.29337 12.7995L6.02499 12.0953C5.91559 12.0346 5.79139 12.0189 5.67317 12.051C5.55496 12.0831 5.44988 12.1609 5.37553 12.2714L4.22726 13.978C4.14317 14.1061 4.10634 14.2673 4.12476 14.4264C4.14317 14.5856 4.21534 14.73 4.32563 14.8284C4.43591 14.9267 4.57541 14.971 4.7139 14.9517C4.85239 14.9325 4.97869 14.8511 5.06543 14.7254L5.95097 13.4094L7.20049 14.1032C7.30597 14.1616 7.42527 14.1783 7.53982 14.1506C7.65438 14.1229 7.75777 14.0523 7.8339 13.95L8.75588 12.7086C8.77834 12.8578 8.8487 12.9919 8.95299 13.0842C9.05729 13.1766 9.18792 13.2204 9.31899 13.2071C9.45006 13.1938 9.57201 13.1243 9.66065 13.0124C9.7493 12.9004 9.79817 12.7542 9.79759 12.6028V11.0771C9.79759 10.9969 9.78387 10.9176 9.75723 10.8435C9.73058 10.7695 9.69153 10.7022 9.6423 10.6455C9.59307 10.5889 9.53462 10.5439 9.4703 10.5132C9.40598 10.4826 9.33704 10.4668 9.26742 10.4668Z" fill="black"/>
<path d="M25.3481 10.4668H24.0228C23.8822 10.4668 23.7474 10.5311 23.648 10.6455C23.5485 10.76 23.4927 10.9152 23.4927 11.0771C23.4927 11.2389 23.5485 11.3942 23.648 11.5086C23.7474 11.6231 23.8822 11.6874 24.0228 11.6874H24.1999L23.3741 12.7995L22.1057 12.0953C21.9963 12.0346 21.8721 12.0189 21.7539 12.051C21.6357 12.083 21.5306 12.1608 21.4562 12.2714L20.308 13.978C20.2242 14.1062 20.1876 14.2671 20.2061 14.4261C20.2246 14.5851 20.2968 14.7293 20.4069 14.8275C20.5171 14.9257 20.6564 14.97 20.7947 14.9509C20.933 14.9318 21.0593 14.8508 21.1461 14.7254L22.0317 13.4094L23.2812 14.1032C23.3867 14.1616 23.506 14.1782 23.6205 14.1505C23.7351 14.1228 23.8385 14.0523 23.9146 13.95L24.8366 12.7086C24.8591 12.8578 24.9294 12.9919 25.0337 13.0842C25.138 13.1766 25.2686 13.2204 25.3997 13.2071C25.5308 13.1938 25.6527 13.1243 25.7414 13.0124C25.83 12.9004 25.8789 12.7542 25.8783 12.6028V11.0771C25.8783 10.9969 25.8646 10.9176 25.838 10.8435C25.8113 10.7695 25.7723 10.7022 25.723 10.6455C25.6738 10.5889 25.6153 10.5439 25.551 10.5132C25.4867 10.4826 25.4178 10.4668 25.3481 10.4668Z" fill="black"/>
</svg>
