<svg width="24" height="25" viewBox="0 0 24 25" fill="none" xmlns="http://www.w3.org/2000/svg">
<path fill-rule="evenodd" clip-rule="evenodd" d="M20.8067 8.12825L20.1842 7.04816C19.6577 6.13424 18.4907 5.81896 17.5755 6.34336V6.34336C17.1399 6.59998 16.6201 6.67279 16.1307 6.54573C15.6413 6.41866 15.2226 6.10216 14.9668 5.66601C14.8023 5.38879 14.7139 5.07303 14.7105 4.75068V4.75068C14.7254 4.23386 14.5304 3.73304 14.17 3.36231C13.8096 2.99158 13.3145 2.7825 12.7975 2.78272H11.5435C11.037 2.78271 10.5513 2.98455 10.194 3.34358C9.83669 3.70261 9.63717 4.18923 9.63961 4.69576V4.69576C9.6246 5.74156 8.77248 6.58145 7.72657 6.58134C7.40421 6.57799 7.08846 6.48958 6.81123 6.32505V6.32505C5.89606 5.80065 4.72911 6.11593 4.20254 7.02985L3.53435 8.12825C3.00841 9.04103 3.3194 10.2072 4.23 10.7369V10.7369C4.8219 11.0787 5.18653 11.7102 5.18653 12.3937C5.18653 13.0772 4.8219 13.7087 4.23 14.0504V14.0504C3.32056 14.5766 3.00923 15.74 3.53435 16.65V16.65L4.16593 17.7392C4.41265 18.1844 4.8266 18.5129 5.31619 18.6521C5.80578 18.7912 6.33064 18.7295 6.77462 18.4807V18.4807C7.21108 18.226 7.73119 18.1562 8.21934 18.2868C8.70749 18.4175 9.12324 18.7377 9.37416 19.1763C9.5387 19.4535 9.62711 19.7693 9.63046 20.0916V20.0916C9.63046 21.1482 10.487 22.0047 11.5435 22.0047H12.7975C13.8505 22.0047 14.7055 21.1538 14.7105 20.1008V20.1008C14.7081 19.5927 14.9089 19.1047 15.2682 18.7454C15.6275 18.3861 16.1155 18.1853 16.6236 18.1877C16.9452 18.1964 17.2596 18.2844 17.5389 18.444V18.444C18.4517 18.97 19.6179 18.659 20.1476 17.7484V17.7484L20.8067 16.65C21.0618 16.2121 21.1318 15.6906 21.0012 15.201C20.8706 14.7114 20.5502 14.294 20.111 14.0413V14.0413C19.6718 13.7886 19.3514 13.3712 19.2208 12.8816C19.0902 12.3919 19.1603 11.8705 19.4154 11.4326C19.5812 11.143 19.8214 10.9028 20.111 10.7369V10.7369C21.0161 10.2075 21.3264 9.04813 20.8067 8.13741V8.13741V8.12825Z" stroke="black" stroke-width="1.5" stroke-linecap="round" stroke-linejoin="round"/>
<circle cx="12.175" cy="12.3937" r="2.63616" stroke="black" stroke-width="1.5" stroke-linecap="round" stroke-linejoin="round"/>
</svg>
