<svg width="16" height="18" viewBox="0 0 16 18" fill="none" xmlns="http://www.w3.org/2000/svg">
<path id="Vector" d="M14.8655 6.3631C14.5774 6.13296 14.1574 6.17981 13.9272 6.46775L7.5089 14.533C6.35768 15.9734 4.25677 16.2079 2.81631 15.0567C1.37586 13.9055 1.14142 11.8046 2.2926 10.3641L8.50896 2.55455C9.2066 1.69597 10.4682 1.56549 11.3268 2.26314C12.1755 2.95278 12.3143 4.19563 11.6386 5.05548L5.42221 12.865C5.18792 13.1456 4.77421 13.1917 4.4839 12.9697C4.19594 12.7394 4.1491 12.3194 4.37925 12.0314L9.91344 5.07524C10.1386 4.78323 10.0845 4.36395 9.79249 4.13875C9.50764 3.91905 9.09993 3.96452 8.87048 4.24158L3.33628 11.1977C2.64546 12.0618 2.78595 13.3223 3.65004 14.0131C3.65014 14.0132 3.65021 14.0133 3.65032 14.0134C4.52212 14.6774 5.76185 14.5391 6.46594 13.6993L12.6815 5.88921C13.8143 4.4344 13.5533 2.33674 12.0985 1.20394C10.6696 0.091332 8.61436 0.320713 7.46599 1.72089L1.24963 9.53041C-0.362167 11.5469 -0.0341199 14.4882 1.98234 16.1C3.99881 17.7118 6.94013 17.3837 8.55193 15.3673L14.9704 7.30409C15.2014 7.01665 15.1557 6.59638 14.8683 6.36534C14.8674 6.3646 14.8664 6.36385 14.8655 6.3631Z" fill="#858585"/>
</svg>
