<svg width="19" height="19" viewBox="0 0 19 19" fill="none" xmlns="http://www.w3.org/2000/svg">
<path d="M9.13425 18.5785C8.77219 18.5785 8.4071 18.4508 8.11654 18.1921L5.26575 15.7909H3.04247C1.36455 15.7909 0 14.4263 0 12.7484V3.621C0 1.94308 1.36455 0.578537 3.04247 0.578537H15.2123C16.8903 0.578537 18.2548 1.94308 18.2548 3.621V12.7484C18.2548 14.4263 16.8903 15.7909 15.2123 15.7909H13.0431L10.117 18.2096C9.84238 18.4546 9.48946 18.5785 9.13425 18.5785Z" fill="#858585"/>
<path d="M12.3333 4.91187H11.3C11.1405 4.1364 10.4584 3.57954 9.66666 3.57854H8.99998C8.20828 3.57954 7.52612 4.1364 7.36666 4.91187H6.33333C6.14923 4.91187 6 5.0611 6 5.24519C6 5.42929 6.14923 5.57854 6.33333 5.57854H6.66666V9.91187C6.66777 10.8319 7.41331 11.5774 8.33333 11.5785H10.3333C11.2533 11.5774 11.9989 10.8319 12 9.91187V5.57854H12.3333C12.5174 5.57854 12.6667 5.4293 12.6667 5.24521C12.6667 5.06112 12.5174 4.91187 12.3333 4.91187ZM9 9.24521C9 9.4293 8.85077 9.57854 8.66667 9.57854C8.48256 9.57854 8.33333 9.4293 8.33333 9.24521V7.24521C8.33333 7.06112 8.48256 6.91188 8.66666 6.91188C8.85075 6.91188 8.99998 7.06112 8.99998 7.24521V9.24521H9ZM10.3333 9.24521C10.3333 9.4293 10.1841 9.57854 10 9.57854C9.81591 9.57854 9.66667 9.4293 9.66667 9.24521V7.24521C9.66667 7.06112 9.81591 6.91188 10 6.91188C10.1841 6.91188 10.3333 7.06112 10.3333 7.24521V9.24521ZM8.057 4.91187C8.19878 4.51263 8.57634 4.24571 9 4.24519H9.66667C10.0903 4.24571 10.4679 4.51263 10.6097 4.91187H8.057Z" fill="white"/>
</svg>
