<svg width="23" height="23" viewBox="0 0 23 23" fill="none" xmlns="http://www.w3.org/2000/svg">
<path d="M23.0001 18.2083C23.0001 18.7383 22.5707 19.1667 22.0417 19.1667H19.1667V22.0417C19.1667 22.5716 18.7374 23 18.2084 23C17.6794 23 17.2501 22.5716 17.2501 22.0417V19.1667H14.3751C13.8461 19.1667 13.4167 18.7383 13.4167 18.2083C13.4167 17.6784 13.8461 17.25 14.3751 17.25H17.2501V14.375C17.2501 13.845 17.6794 13.4167 18.2084 13.4167C18.7374 13.4167 19.1667 13.845 19.1667 14.375V17.25H22.0417C22.5707 17.25 23.0001 17.6784 23.0001 18.2083ZM5.27091 6.70833C7.12049 6.70833 8.62508 5.20375 8.62508 3.35417C8.62508 1.50458 7.12049 0 5.27091 0C3.42132 0 1.91674 1.50458 1.91674 3.35417C1.91674 5.20375 3.42132 6.70833 5.27091 6.70833ZM14.8542 6.70833C16.7038 6.70833 18.2084 5.20375 18.2084 3.35417C18.2084 1.50458 16.7038 0 14.8542 0C13.0047 0 11.5001 1.50458 11.5001 3.35417C11.5001 5.20375 13.0047 6.70833 14.8542 6.70833ZM6.70841 11.0208C6.70841 12.8704 8.21299 14.375 10.0626 14.375C11.9122 14.375 13.4167 12.8704 13.4167 11.0208C13.4167 9.17125 11.9122 7.66667 10.0626 7.66667C8.21299 7.66667 6.70841 9.17125 6.70841 11.0208ZM4.79174 11.0208C4.79174 9.78171 5.22395 8.64321 5.9427 7.74238C5.72228 7.71842 5.49899 7.70021 5.27091 7.70021C2.33457 7.70021 -0.0152587 9.67342 7.4615e-05 12.4852C0.00294962 13.0036 0.4457 13.4167 0.964158 13.4167H5.37441C5.00545 12.697 4.79174 11.8843 4.79174 11.0208ZM11.5001 18.2083C11.5001 17.2845 11.9457 16.4699 12.6252 15.9438C11.8623 15.5739 10.9874 15.3669 10.0626 15.3669C7.12624 15.3669 4.77641 17.3401 4.79174 20.1518C4.79462 20.6703 5.23737 21.0833 5.75582 21.0833H14.3693H14.3712C12.7871 21.0814 11.5001 19.7925 11.5001 18.2083ZM14.1825 7.74238C14.9012 8.64321 15.3334 9.78171 15.3334 11.0208C15.3334 11.8843 15.1207 12.697 14.7517 13.4167H15.5107C15.9075 12.304 16.9616 11.5 18.2094 11.5C18.9425 11.5 19.6057 11.7846 20.1136 12.2379C19.989 9.56033 17.644 7.70117 14.8552 7.70117C14.6262 7.70117 14.4029 7.71938 14.1825 7.74238Z" fill="#F6F6F6"/>
</svg>
