<svg width="26" height="41" viewBox="0 0 26 41" fill="none" xmlns="http://www.w3.org/2000/svg">
<path id="Vector" d="M25.0075 25.9235L24.2571 38.7488C24.1889 39.9767 23.1656 41 21.8694 41H9.31703C8.49839 41 7.74798 40.5907 7.33866 39.8403L0.380259 27.6972C-0.438377 26.3328 0.10738 24.4909 1.60821 23.8087C2.90438 23.1947 4.47344 23.8087 5.15563 25.0366L8.02086 29.9484L8.02086 8.73211C8.02086 7.43594 9.18059 6.34443 10.545 6.48087C11.7047 6.6173 12.5916 7.6406 12.5916 8.86855V21.2163C12.5916 21.9667 13.2056 22.6489 14.0242 22.6489L21.9377 22.6489C23.7114 22.5807 25.144 24.0815 25.0075 25.9235ZM6.65647 15.9634V14.1897C4.74632 12.9617 3.45014 10.8469 3.45014 8.39102C3.45014 4.63894 6.52003 1.56905 10.2721 1.56905C14.0242 1.56905 17.0941 4.63894 17.0941 8.39102C17.0941 10.8469 15.7979 12.9617 13.8877 14.1897V15.9634C16.6848 14.599 18.6631 11.7338 18.6631 8.39102C18.6631 3.75208 14.911 0 10.2721 0C5.63317 0 1.88109 3.8203 1.88109 8.39102C1.88109 11.7338 3.85946 14.599 6.65647 15.9634Z" fill="#E9E9E9"/>
</svg>
