<svg width="41" height="26" viewBox="0 0 41 26" fill="none" xmlns="http://www.w3.org/2000/svg">
<path id="Vector" d="M25.9235 0.00905114L38.7488 0.75947C39.9767 0.82769 41 1.85098 41 3.14716L41 15.6996C41 16.5182 40.5907 17.2686 39.8403 17.6779L27.6972 24.6363C26.3328 25.455 24.4909 24.9092 23.8087 23.4084C23.1947 22.1122 23.8087 20.5432 25.0366 19.861L29.9484 16.9957L8.73211 16.9957C7.43594 16.9957 6.34443 15.836 6.48087 14.4716C6.6173 13.3119 7.6406 12.425 8.86855 12.425L21.2163 12.425C21.9667 12.425 22.6489 11.8111 22.6489 10.9924L22.6489 3.07894C22.5807 1.30523 24.0815 -0.127389 25.9235 0.00905114ZM15.9634 18.3601L14.1897 18.3601C12.9617 20.2703 10.8469 21.5665 8.39102 21.5665C4.63894 21.5665 1.56905 18.4966 1.56905 14.7445C1.56905 10.9924 4.63894 7.92253 8.39102 7.92253C10.8469 7.92253 12.9617 9.2187 14.1897 11.1289L15.9634 11.1289C14.599 8.33185 11.7338 6.35348 8.39102 6.35348C3.75208 6.35348 -6.51782e-07 10.1056 -4.49008e-07 14.7445C-2.46234e-07 19.3834 3.8203 23.1355 8.39102 23.1355C11.7338 23.1355 14.599 21.1571 15.9634 18.3601Z" fill="#E9E9E9"/>
</svg>
