<svg width="26" height="41" viewBox="0 0 26 41" fill="none" xmlns="http://www.w3.org/2000/svg">
<path id="Vector" d="M0.00807345 15.0765L0.758492 2.25125C0.826712 1.0233 1.85 2.0252e-06 3.14618 1.91189e-06L15.6986 8.14521e-07C16.5172 7.42953e-07 17.2676 0.409314 17.677 1.15973L24.6354 13.3028C25.454 14.6672 24.9082 16.5091 23.4074 17.1913C22.1112 17.8053 20.5422 17.1913 19.86 15.9634L16.9948 11.0516L16.9948 32.2679C16.9948 33.5641 15.835 34.6556 14.4706 34.5191C13.3109 34.3827 12.4241 33.3594 12.4241 32.1314L12.4241 19.7837C12.4241 19.0333 11.8101 18.3511 10.9914 18.3511L3.07796 18.3511C1.30425 18.4193 -0.128367 16.9185 0.00807345 15.0765ZM18.3592 25.0366L18.3592 26.8103C20.2693 28.0383 21.5655 30.1531 21.5655 32.609C21.5655 36.3611 18.4956 39.4309 14.7435 39.4309C10.9914 39.4309 7.92155 36.3611 7.92155 32.609C7.92155 30.1531 9.21773 28.0383 11.1279 26.8103L11.1279 25.0366C8.33087 26.401 6.3525 29.2662 6.3525 32.609C6.3525 37.2479 10.1046 41 14.7435 41C19.3825 41 23.1345 37.1797 23.1345 32.609C23.1345 29.2662 21.1562 26.401 18.3592 25.0366Z" fill="#E9E9E9"/>
</svg>
