<svg width="32" height="34" viewBox="0 0 32 34" fill="none" xmlns="http://www.w3.org/2000/svg">
<rect width="32" height="34" rx="6.70015" fill="#0CA202"/>
<path d="M22.0002 8H10C9.20438 8 8.44131 8.31608 7.87869 8.87869C7.31608 9.44131 7 10.2044 7 11L7 20.0002C7 20.7958 7.31608 21.5589 7.87869 22.1215C8.44131 22.6841 9.20438 23.0002 10 23.0002H12.1751L15.5134 25.8225C15.6488 25.9371 15.8205 26 15.9979 26C16.1753 26 16.347 25.9371 16.4824 25.8225L19.8252 23.0002H22.0002C22.7959 23.0002 23.5589 22.6841 24.1216 22.1215C24.6842 21.5589 25.0003 20.7958 25.0003 20.0002V11C25.0003 10.2044 24.6842 9.44131 24.1216 8.87869C23.5589 8.31608 22.7959 8 22.0002 8ZM12.2501 11.7501H16.0001C16.199 11.7501 16.3898 11.8291 16.5305 11.9697C16.6711 12.1104 16.7501 12.3011 16.7501 12.5001C16.7501 12.699 16.6711 12.8897 16.5305 13.0304C16.3898 13.1711 16.199 13.2501 16.0001 13.2501H12.2501C12.0512 13.2501 11.8604 13.1711 11.7197 13.0304C11.5791 12.8897 11.5001 12.699 11.5001 12.5001C11.5001 12.3011 11.5791 12.1104 11.7197 11.9697C11.8604 11.8291 12.0512 11.7501 12.2501 11.7501ZM19.7502 19.2502H12.2501C12.0512 19.2502 11.8604 19.1711 11.7197 19.0305C11.5791 18.8898 11.5001 18.6991 11.5001 18.5001C11.5001 18.3012 11.5791 18.1105 11.7197 17.9698C11.8604 17.8292 12.0512 17.7501 12.2501 17.7501H19.7502C19.9491 17.7501 20.1399 17.8292 20.2805 17.9698C20.4212 18.1105 20.5002 18.3012 20.5002 18.5001C20.5002 18.6991 20.4212 18.8898 20.2805 19.0305C20.1399 19.1711 19.9491 19.2502 19.7502 19.2502ZM19.7502 16.2501H12.2501C12.0512 16.2501 11.8604 16.1711 11.7197 16.0304C11.5791 15.8898 11.5001 15.699 11.5001 15.5001C11.5001 15.3012 11.5791 15.1104 11.7197 14.9698C11.8604 14.8291 12.0512 14.7501 12.2501 14.7501H19.7502C19.9491 14.7501 20.1399 14.8291 20.2805 14.9698C20.4212 15.1104 20.5002 15.3012 20.5002 15.5001C20.5002 15.699 20.4212 15.8898 20.2805 16.0304C20.1399 16.1711 19.9491 16.2501 19.7502 16.2501Z" fill="white"/>
</svg>
