<svg width="21" height="20" viewBox="0 0 21 20" fill="none" xmlns="http://www.w3.org/2000/svg">
<path d="M-7.24048e-07 3.43571L-1.5018e-07 16.5643C-6.71282e-08 18.4643 1.57438 20 3.51319 20L16.9027 20C18.8415 20 20.4086 18.4643 20.4086 16.5643L20.4086 3.43571C20.4086 1.53571 18.8415 -8.23587e-07 16.9027 -7.38839e-07L3.51319 -1.53566e-07C1.57437 -6.88181e-08 -8.071e-07 1.53571 -7.24048e-07 3.43571ZM15.9624 9.68571L15.9624 11.4771C15.9624 13.2493 14.4908 14.6914 12.6825 14.6914L7.39956 14.6914L8.37918 15.6521C8.63574 15.9036 8.63574 16.31 8.37918 16.5607C8.12334 16.8121 7.70788 16.8121 7.45204 16.5607L5.35215 14.5029C5.09558 14.2514 5.09558 13.845 5.35215 13.5943L7.45204 11.5364C7.70788 11.285 8.12334 11.285 8.37918 11.5364C8.50746 11.6621 8.5716 11.8264 8.5716 11.9907C8.5716 12.155 8.50746 12.3193 8.37918 12.445L7.39956 13.4057L12.6825 13.4057C13.7678 13.4057 14.6504 12.5407 14.6504 11.4771L14.6504 9.68571C14.6504 9.33071 14.9442 9.04286 15.3064 9.04286C15.6687 9.04286 15.9624 9.33 15.9624 9.68571ZM12.9565 3.43928L15.0564 5.49714C15.1847 5.62286 15.2488 5.78714 15.2488 5.95143C15.2488 6.11571 15.1847 6.28 15.0564 6.40571L12.9565 8.46357C12.7007 8.715 12.2852 8.715 12.0294 8.46357C11.7728 8.21214 11.7728 7.80571 12.0294 7.555L13.009 6.59429L7.7261 6.59429C6.6408 6.59429 5.75813 7.45929 5.75813 8.52286L5.75813 10.3143C5.75813 10.6693 5.46439 10.9571 5.10214 10.9571C4.73989 10.9571 4.44615 10.6693 4.44615 10.3143L4.44615 8.52286C4.44615 6.75071 5.91776 5.30857 7.7261 5.30857L13.009 5.30857L12.0294 4.34786C11.7728 4.09643 11.7728 3.69 12.0294 3.43928C12.2852 3.18786 12.7007 3.18786 12.9565 3.43928Z" fill="#0EA102"/>
<rect x="2.71094" y="2.25488" width="14.6719" height="14.6719" fill="#0EA102"/>
<path d="M14.3027 3.85547H6.11054C5.56737 3.85547 5.04644 4.07124 4.66236 4.45533C4.27828 4.83941 4.0625 5.36034 4.0625 5.90351V12.0476C4.0625 12.5908 4.27828 13.1117 4.66236 13.4958C5.04644 13.8799 5.56737 14.0957 6.11054 14.0957H7.59537L9.87433 16.0224C9.96679 16.1006 10.084 16.1436 10.2051 16.1436C10.3262 16.1436 10.4434 16.1006 10.5359 16.0224L12.8179 14.0957H14.3027C14.8459 14.0957 15.3668 13.8799 15.7509 13.4958C16.135 13.1117 16.3508 12.5908 16.3508 12.0476V5.90351C16.3508 5.36034 16.135 4.83941 15.7509 4.45533C15.3668 4.07124 14.8459 3.85547 14.3027 3.85547ZM7.64658 6.41552H10.2066C10.3424 6.41552 10.4727 6.46947 10.5687 6.56549C10.6647 6.66151 10.7186 6.79174 10.7186 6.92753C10.7186 7.06333 10.6647 7.19356 10.5687 7.28958C10.4727 7.3856 10.3424 7.43954 10.2066 7.43954H7.64658C7.51078 7.43954 7.38055 7.3856 7.28453 7.28958C7.18851 7.19356 7.13456 7.06333 7.13456 6.92753C7.13456 6.79174 7.18851 6.66151 7.28453 6.56549C7.38055 6.46947 7.51078 6.41552 7.64658 6.41552ZM12.7667 11.5356H7.64658C7.51078 11.5356 7.38055 11.4817 7.28453 11.3857C7.18851 11.2896 7.13456 11.1594 7.13456 11.0236C7.13456 10.8878 7.18851 10.7576 7.28453 10.6616C7.38055 10.5656 7.51078 10.5116 7.64658 10.5116H12.7667C12.9025 10.5116 13.0327 10.5656 13.1287 10.6616C13.2248 10.7576 13.2787 10.8878 13.2787 11.0236C13.2787 11.1594 13.2248 11.2896 13.1287 11.3857C13.0327 11.4817 12.9025 11.5356 12.7667 11.5356ZM12.7667 9.48759H7.64658C7.51078 9.48759 7.38055 9.43364 7.28453 9.33762C7.18851 9.2416 7.13456 9.11137 7.13456 8.97558C7.13456 8.83978 7.18851 8.70955 7.28453 8.61353C7.38055 8.51751 7.51078 8.46357 7.64658 8.46357H12.7667C12.9025 8.46357 13.0327 8.51751 13.1287 8.61353C13.2248 8.70955 13.2787 8.83978 13.2787 8.97558C13.2787 9.11137 13.2248 9.2416 13.1287 9.33762C13.0327 9.43364 12.9025 9.48759 12.7667 9.48759Z" fill="#FCFCFC"/>
</svg>
