<svg width="12" height="16" viewBox="0 0 12 16" fill="none" xmlns="http://www.w3.org/2000/svg">
<path id="Vector" d="M5.89474 10.1053C5.19298 10.1053 4.59649 9.85965 4.10526 9.36842C3.61403 8.87719 3.36842 8.2807 3.36842 7.57895V2.52632C3.36842 1.82456 3.61403 1.22807 4.10526 0.736842C4.59649 0.245614 5.19298 0 5.89474 0C6.59649 0 7.19298 0.245614 7.68421 0.736842C8.17544 1.22807 8.42105 1.82456 8.42105 2.52632V7.57895C8.42105 8.2807 8.17544 8.87719 7.68421 9.36842C7.19298 9.85965 6.59649 10.1053 5.89474 10.1053ZM5.05263 16V13.4105C3.59298 13.214 2.38596 12.5614 1.43158 11.4526C0.477193 10.3439 0 9.05263 0 7.57895H1.68421C1.68421 8.74386 2.09474 9.73684 2.91579 10.5579C3.73684 11.3789 4.72982 11.7895 5.89474 11.7895C7.05965 11.7895 8.05263 11.3789 8.87368 10.5579C9.69474 9.73684 10.1053 8.74386 10.1053 7.57895H11.7895C11.7895 9.05263 11.3123 10.3439 10.3579 11.4526C9.40351 12.5614 8.19649 13.214 6.73684 13.4105V16H5.05263ZM5.89474 8.42105C6.13333 8.42105 6.33333 8.34035 6.49474 8.17895C6.65614 8.01754 6.73684 7.81754 6.73684 7.57895V2.52632C6.73684 2.28772 6.65614 2.08772 6.49474 1.92632C6.33333 1.76491 6.13333 1.68421 5.89474 1.68421C5.65614 1.68421 5.45614 1.76491 5.29474 1.92632C5.13333 2.08772 5.05263 2.28772 5.05263 2.52632V7.57895C5.05263 7.81754 5.13333 8.01754 5.29474 8.17895C5.45614 8.34035 5.65614 8.42105 5.89474 8.42105Z" fill="#858585"/>
</svg>
