<svg width="18" height="16" viewBox="0 0 18 16" fill="none" xmlns="http://www.w3.org/2000/svg">
<rect width="18" height="16" rx="3" fill="#858585"/>
<path d="M9.13915 12C9.01202 11.9995 8.8879 11.9612 8.78249 11.8902C8.67707 11.8191 8.5951 11.7184 8.54694 11.6007C8.49878 11.483 8.48658 11.3537 8.5119 11.2292C8.53722 11.1046 8.59891 10.9903 8.68917 10.9008L11.6461 7.95665C11.7064 7.89689 11.7542 7.8258 11.7869 7.74746C11.8195 7.66913 11.8363 7.58511 11.8363 7.50025C11.8363 7.41539 11.8195 7.33137 11.7869 7.25304C11.7542 7.1747 11.7064 7.10361 11.6461 7.04385L8.68917 4.09973C8.62892 4.03997 8.5811 3.96888 8.54847 3.89054C8.51583 3.81221 8.49903 3.72819 8.49903 3.64333C8.49903 3.55847 8.51583 3.47445 8.54847 3.39612C8.5811 3.31778 8.62892 3.24669 8.68917 3.18693C8.80961 3.0672 8.97254 3 9.14236 3C9.31219 3 9.47511 3.0672 9.59555 3.18693L12.5461 6.13747C12.9072 6.49906 13.1101 6.98921 13.1101 7.50025C13.1101 8.01129 12.9072 8.50144 12.5461 8.86303L9.59555 11.8136C9.53549 11.8731 9.46425 11.9203 9.38593 11.9523C9.30761 11.9843 9.22375 12.0005 9.13915 12Z" fill="white"/>
<path d="M4.64012 12C4.51299 11.9995 4.38887 11.9612 4.28346 11.8902C4.17805 11.8191 4.09608 11.7184 4.04792 11.6007C3.99975 11.483 3.98756 11.3537 4.01288 11.2292C4.03819 11.1046 4.09989 10.9903 4.19015 10.9008L7.59067 7.50025L4.19015 4.09973C4.1299 4.03997 4.08208 3.96888 4.04944 3.89054C4.01681 3.81221 4.00001 3.72819 4.00001 3.64333C4.00001 3.55847 4.01681 3.47445 4.04944 3.39612C4.08208 3.31778 4.1299 3.24669 4.19015 3.18693C4.31059 3.0672 4.47352 3 4.64334 3C4.81316 3 4.97609 3.0672 5.09653 3.18693L8.95345 7.04385C9.0137 7.10361 9.06152 7.1747 9.09415 7.25304C9.12679 7.33137 9.14359 7.41539 9.14359 7.50025C9.14359 7.58511 9.12679 7.66913 9.09415 7.74746C9.06152 7.8258 9.0137 7.89689 8.95345 7.95665L5.09653 11.8136C5.03646 11.8731 4.96523 11.9203 4.88691 11.9523C4.80859 11.9843 4.72472 12.0005 4.64012 12Z" fill="white"/>
</svg>
