<svg width="21" height="20" viewBox="0 0 21 20" fill="none" xmlns="http://www.w3.org/2000/svg">
<path d="M0.492187 3.43571L0.492187 16.5643C0.492187 18.4643 2.06656 20 4.00538 20L17.3949 20C19.3337 20 20.9008 18.4643 20.9008 16.5643L20.9008 3.43571C20.9008 1.53571 19.3337 -1.30042e-06 17.3949 -1.21568e-06L4.00538 -6.30404e-07C2.06656 -5.45655e-07 0.492187 1.53571 0.492187 3.43571ZM16.4546 9.68571L16.4546 11.4771C16.4546 13.2493 14.983 14.6914 13.1747 14.6914L7.89175 14.6914L8.87136 15.6521C9.12793 15.9036 9.12793 16.31 8.87136 16.5607C8.61553 16.8121 8.20007 16.8121 7.94423 16.5607L5.84433 14.5029C5.58777 14.2514 5.58777 13.845 5.84433 13.5943L7.94423 11.5364C8.20007 11.285 8.61553 11.285 8.87136 11.5364C8.99965 11.6621 9.06379 11.8264 9.06379 11.9907C9.06379 12.155 8.99965 12.3193 8.87136 12.445L7.89175 13.4057L13.1747 13.4057C14.26 13.4057 15.1426 12.5407 15.1426 11.4771L15.1426 9.68571C15.1426 9.33071 15.4364 9.04286 15.7986 9.04286C16.1609 9.04286 16.4546 9.33 16.4546 9.68571ZM13.4487 3.43929L15.5486 5.49714C15.6769 5.62286 15.741 5.78714 15.741 5.95143C15.741 6.11571 15.6769 6.28 15.5486 6.40571L13.4487 8.46357C13.1929 8.715 12.7774 8.715 12.5216 8.46357C12.265 8.21214 12.265 7.80571 12.5216 7.555L13.5012 6.59429L8.21829 6.59429C7.13299 6.59429 6.25032 7.45928 6.25032 8.52286L6.25032 10.3143C6.25032 10.6693 5.95658 10.9571 5.59433 10.9571C5.23208 10.9571 4.93834 10.6693 4.93834 10.3143L4.93834 8.52286C4.93834 6.75071 6.40994 5.30857 8.21829 5.30857L13.5012 5.30857L12.5216 4.34786C12.265 4.09643 12.265 3.69 12.5216 3.43929C12.7774 3.18786 13.1929 3.18786 13.4487 3.43929Z" fill="#0EA102"/>
<rect x="4.28906" y="3" width="13.0742" height="14.0713" fill="#0EA102"/>
<path d="M12.9766 6.42969L15.0204 8.47351C15.2063 8.65943 15.2063 8.96088 15.0204 9.14681L12.9766 11.1906" stroke="#FFFEFB" stroke-width="0.952188" stroke-linecap="round"/>
<path d="M6.3125 13.5715V11.6671C6.3125 10.0895 7.59143 8.81055 9.16906 8.81055H14.8822" stroke="#FFFEFB" stroke-width="0.952188" stroke-linecap="round"/>
</svg>
