<svg width="21" height="21" viewBox="0 0 21 21" fill="none" xmlns="http://www.w3.org/2000/svg">
<g id="Group 15884">
<g id="Group">
<g id="Group 15880">
<path id="Vector" d="M0.506652 3.56462L0.506653 16.6932C0.506653 18.5932 2.08103 20.1289 4.01984 20.1289L17.4093 20.1289C19.3481 20.1289 20.9152 18.5932 20.9152 16.6932L20.9152 3.56462C20.9152 1.66462 19.3481 0.128905 17.4093 0.128906L4.01984 0.128906C2.08103 0.128906 0.506652 1.66462 0.506652 3.56462ZM16.4691 9.81462L16.4691 11.606C16.4691 13.3782 14.9975 14.8203 13.1891 14.8203L7.90622 14.8203L8.88583 15.781C9.14239 16.0325 9.14239 16.4389 8.88583 16.6896C8.62999 16.941 8.21453 16.941 7.9587 16.6896L5.8588 14.6318C5.60224 14.3803 5.60224 13.9739 5.8588 13.7232L7.9587 11.6653C8.21453 11.4139 8.62999 11.4139 8.88583 11.6653C9.01411 11.791 9.07825 11.9553 9.07825 12.1196C9.07825 12.2839 9.01411 12.4482 8.88583 12.5739L7.90622 13.5346L13.1891 13.5346C14.2744 13.5346 15.1571 12.6696 15.1571 11.606L15.1571 9.81462C15.1571 9.45962 15.4508 9.17176 15.8131 9.17176C16.1753 9.17176 16.4691 9.4589 16.4691 9.81462ZM13.4632 3.56819L15.5631 5.62605C15.6914 5.75176 15.7555 5.91605 15.7555 6.08033C15.7555 6.24462 15.6914 6.40891 15.5631 6.53462L13.4632 8.59248C13.2073 8.84391 12.7919 8.84391 12.536 8.59248C12.2795 8.34105 12.2795 7.93462 12.536 7.68391L13.5157 6.72319L8.23275 6.72319C7.14746 6.72319 6.26478 7.58819 6.26478 8.65176L6.26478 10.4432C6.26478 10.7982 5.97105 11.086 5.60879 11.086C5.24654 11.086 4.95281 10.7982 4.95281 10.4432L4.95281 8.65176C4.95281 6.87962 6.42441 5.43748 8.23275 5.43748L13.5157 5.43748L12.536 4.47676C12.2795 4.22533 12.2795 3.81891 12.536 3.56819C12.7919 3.31676 13.2073 3.31676 13.4632 3.56819Z" fill="#0EA102"/>
<rect id="Rectangle 850" x="4.30743" y="3.12891" width="13.0742" height="14.0713" fill="#0EA102"/>
</g>
</g>
<g id="Group 15880_2">
<g id="Group 15806">
<path id="Vector 92" d="M12.3737 3.71216L14.4176 5.75598C14.6035 5.94191 14.6035 6.24335 14.4176 6.42928L12.3737 8.4731" stroke="#FFFEFB" stroke-width="0.952188" stroke-linecap="round"/>
<path id="Vector 91" d="M5.70978 10.8534V8.949C5.70978 7.37136 6.98871 6.09244 8.56634 6.09244H14.2795" stroke="#FFFEFB" stroke-width="0.952188" stroke-linecap="round"/>
</g>
<g id="Group 15807">
<path id="Vector 92_2" d="M9.04649 16.0904L7.00267 14.0465C6.81675 13.8606 6.81675 13.5592 7.00267 13.3732L9.04649 11.3294" stroke="#FFFEFB" stroke-width="0.952188" stroke-linecap="round"/>
<path id="Vector 91_2" d="M15.7105 8.94911L15.7105 10.8535C15.7105 12.4311 14.4315 13.7101 12.8539 13.7101L7.14077 13.7101" stroke="#FFFEFB" stroke-width="0.952188" stroke-linecap="round"/>
</g>
</g>
</g>
</svg>
