<svg width="16" height="16" viewBox="0 0 16 16" fill="none" xmlns="http://www.w3.org/2000/svg">
<g id="Group 1488">
<path id="Vector" d="M3.6875 13.2566H7.23508L9.5808 15.5997C9.70687 15.7264 9.85675 15.827 10.0218 15.8957C10.1869 15.9643 10.3639 15.9996 10.5427 15.9996C10.6603 15.9994 10.7774 15.9844 10.8913 15.955C11.1214 15.8969 11.3322 15.7792 11.5024 15.6137C11.6725 15.4482 11.7961 15.2408 11.8605 15.0124L15.998 0.941406L3.6875 13.2566Z" fill="#0EA102"/>
<path id="Vector_2" d="M2.73088 12.3239L15.0528 0L0.991749 4.14684C0.7628 4.21195 0.554853 4.33579 0.388538 4.50607C0.222223 4.67635 0.103321 4.88716 0.0436272 5.11758C-0.0160665 5.348 -0.0144768 5.59003 0.0482385 5.81964C0.110954 6.04926 0.232615 6.25849 0.401152 6.42657L2.73088 8.7543V12.3239Z" fill="#0EA102"/>
</g>
</svg>
