<svg width="23" height="23" viewBox="0 0 23 23" fill="none" xmlns="http://www.w3.org/2000/svg">
<path d="M22.2827 14.3894C20.7743 20.4399 14.6461 24.1221 8.59494 22.6133C2.54628 21.1048 -1.13592 14.9763 0.373154 8.92633C1.8809 2.87519 8.00906 -0.807293 14.0584 0.701118C20.1091 2.20953 23.7911 8.33873 22.2825 14.3895L22.2826 14.3894H22.2827Z" fill="#F7931A"/>
<path d="M16.3269 10.0393C16.5517 8.53634 15.4074 7.72842 13.8427 7.18946L14.3503 5.15351L13.111 4.8447L12.6168 6.82704C12.291 6.74578 11.9564 6.66921 11.6239 6.5933L12.1216 4.59788L10.883 4.28906L10.3751 6.32435C10.1055 6.26296 9.8407 6.20229 9.58378 6.13836L9.58522 6.13196L7.87614 5.70517L7.54645 7.02887C7.54645 7.02887 8.46594 7.23964 8.44657 7.25261C8.94843 7.37787 9.03919 7.71009 9.02412 7.97342L8.4459 10.2928C8.48046 10.3016 8.52529 10.3143 8.57475 10.3342C8.5334 10.3239 8.4894 10.3127 8.44375 10.3018L7.63329 13.551C7.57196 13.7034 7.41628 13.9323 7.0654 13.8454C7.07782 13.8634 6.16463 13.6206 6.16463 13.6206L5.54932 15.0392L7.16212 15.4413C7.46216 15.5165 7.75618 15.5952 8.04572 15.6693L7.53287 17.7286L8.77078 18.0374L9.27866 15.9999C9.61685 16.0918 9.94504 16.1764 10.2663 16.2563L9.76016 18.2841L10.9996 18.5929L11.5124 16.5375C13.6257 16.9374 15.2148 16.7762 15.8836 14.8647C16.4226 13.3257 15.8568 12.438 14.745 11.8591C15.5548 11.6723 16.1647 11.1397 16.3274 10.0395L16.327 10.0392L16.3269 10.0393ZM13.4953 14.01C13.1123 15.549 10.5211 14.717 9.681 14.5084L10.3616 11.7802C11.2016 11.9899 13.8956 12.405 13.4954 14.01H13.4953ZM13.8786 10.017C13.5292 11.4169 11.3725 10.7057 10.6729 10.5313L11.2899 8.057C11.9895 8.23139 14.2426 8.55688 13.8787 10.017H13.8786Z" fill="white"/>
</svg>
